<svg width="32" height="32" viewBox="0 0 32 32" fill="none" xmlns="http://www.w3.org/2000/svg">
<path d="M26.4933 11.4668C26.394 11.2384 26.2327 11.0424 26.0276 10.901C25.8226 10.7596 25.5821 10.6785 25.3333 10.6668H19.2267L20.92 4.3468C20.9739 4.14903 20.9815 3.94149 20.9422 3.74031C20.9029 3.53913 20.8177 3.34972 20.6933 3.1868C20.5691 3.02544 20.4096 2.89468 20.227 2.80455C20.0444 2.71441 19.8436 2.66729 19.64 2.6668H10.3067C10.0056 2.65649 9.71001 2.7484 9.4679 2.92756C9.22578 3.10672 9.05147 3.36258 8.97333 3.65346L5.4 16.9868C5.34607 17.1846 5.33846 17.3921 5.37778 17.5933C5.41709 17.7945 5.50226 17.9839 5.62667 18.1468C5.75225 18.3099 5.9139 18.4418 6.09896 18.532C6.28402 18.6222 6.48746 18.6684 6.69333 18.6668H11.8533L9.44 27.6535C9.36093 27.9432 9.38202 28.2512 9.49987 28.5275C9.61771 28.8038 9.8254 29.0322 10.0893 29.1758C10.3532 29.3193 10.6578 29.3695 10.9537 29.3182C11.2497 29.267 11.5197 29.1173 11.72 28.8935L26.2533 12.8935C26.4264 12.704 26.5411 12.4686 26.5836 12.2155C26.6262 11.9624 26.5949 11.7025 26.4933 11.4668ZM13.44 23.0401L14.8667 17.7068C14.9206 17.509 14.9282 17.3015 14.8889 17.1003C14.8496 16.8991 14.7644 16.7097 14.64 16.5468C14.5158 16.3854 14.3563 16.2547 14.1737 16.1645C13.9911 16.0744 13.7903 16.0273 13.5867 16.0268H8.46667L11.32 5.33346H17.8933L16.2 11.6535C16.1456 11.8549 16.1393 12.0662 16.1815 12.2705C16.2237 12.4748 16.3132 12.6664 16.4429 12.8298C16.5726 12.9932 16.7388 13.1239 16.9282 13.2114C17.1176 13.2989 17.3248 13.3407 17.5333 13.3335H22.2933L13.44 23.0401Z" fill="white"/>
</svg>
