<svg width="22" height="30" viewBox="0 0 22 30" fill="none" xmlns="http://www.w3.org/2000/svg">
<path opacity="0.4" d="M8.42791 13.9286H13.5749C14.1929 13.9731 14.8027 13.7598 15.2728 13.3349C15.7428 12.9099 16.0354 12.3073 16.0874 11.6571V4.28571H15.0702C15.0702 3.14907 14.6415 2.05898 13.8784 1.25526C13.1154 0.451529 12.0805 0 11.0014 0C9.9223 0 8.88739 0.451529 8.12435 1.25526C7.36131 2.05898 6.93263 3.14907 6.93263 4.28571H5.91544V11.6571C5.9674 12.3073 6.25998 12.9099 6.73003 13.3349C7.20007 13.7598 7.8099 13.9731 8.42791 13.9286ZM11.0014 2.14286C11.5409 2.14286 12.0584 2.36862 12.4399 2.77049C12.8214 3.17235 13.0358 3.71739 13.0358 4.28571H8.96702C8.96702 3.71739 9.18135 3.17235 9.56287 2.77049C9.94439 2.36862 10.4618 2.14286 11.0014 2.14286ZM21.9667 20.475L21.3869 13.9286C21.3259 13.2214 21.2852 12.525 21.2445 11.8607C21.0716 8.74286 20.8885 5.59286 18.1217 4.60714V11.6571C18.0715 12.8765 17.565 14.0253 16.713 14.8525C15.861 15.6796 14.7328 16.1179 13.5749 16.0714H8.42791C7.27004 16.1179 6.14179 15.6796 5.28979 14.8525C4.43778 14.0253 3.9313 12.8765 3.88106 11.6571V4.60714C1.1143 5.59286 0.931209 8.74286 0.758286 11.7857C0.758286 12.45 0.676911 13.1464 0.61588 13.8536L0.036081 20.4429C-0.071396 21.653 0.0618742 22.8735 0.427383 24.0264C0.792892 25.1793 1.38261 26.2393 2.15888 27.1386C2.93516 28.0379 3.88093 28.7569 4.93583 29.2496C5.99072 29.7423 7.13156 29.9978 8.2855 30H13.7173C14.8684 29.9974 16.0065 29.7427 17.0591 29.2519C18.1117 28.7612 19.0559 28.0452 19.8317 27.1494C20.6076 26.2537 21.198 25.1977 21.5655 24.0487C21.9331 22.8997 22.0697 21.6826 21.9667 20.475ZM15.0702 23.5714H6.93263C6.66286 23.5714 6.40413 23.4585 6.21337 23.2576C6.02261 23.0567 5.91544 22.7842 5.91544 22.5C5.91544 22.2158 6.02261 21.9433 6.21337 21.7424C6.40413 21.5415 6.66286 21.4286 6.93263 21.4286H15.0702C15.3399 21.4286 15.5987 21.5415 15.7894 21.7424C15.9802 21.9433 16.0874 22.2158 16.0874 22.5C16.0874 22.7842 15.9802 23.0567 15.7894 23.2576C15.5987 23.4585 15.3399 23.5714 15.0702 23.5714Z" fill="white"/>
</svg>
