<svg width="32" height="32" viewBox="0 0 32 32" fill="none" xmlns="http://www.w3.org/2000/svg">
<g id="bell">
<path id="icon" fill-rule="evenodd" clip-rule="evenodd" d="M25.3337 13.3332C25.3337 7.92088 22.3491 4.16443 18.4874 3.03674C18.3476 2.67504 18.1266 2.33878 17.8263 2.05661C16.8 1.09229 15.2007 1.09229 14.1744 2.05661C13.8747 2.33816 13.654 2.67356 13.5142 3.03435C9.64752 4.15712 6.66699 7.90536 6.66699 13.3332C6.66699 16.845 5.95897 18.8128 4.64827 20.2389C4.42917 20.4773 3.83559 21.0234 3.43341 21.3933L3.43324 21.3935L3.43318 21.3935C3.24291 21.5686 3.09552 21.7042 3.05095 21.7491L2.66699 22.1384V26.6853H10.7843C11.0587 28.1014 11.827 29.0489 13.2166 29.8968C14.9259 30.9399 17.0748 30.9399 18.7841 29.8968C20.0104 29.1485 20.8326 27.9984 21.1661 26.6853H29.3337V22.1384L28.9497 21.7491C28.9093 21.7081 28.7679 21.5776 28.583 21.4071C28.182 21.0372 27.5767 20.4788 27.3542 20.2357C26.0426 18.803 25.3337 16.8327 25.3337 13.3332ZM18.3161 26.6853H13.5717C13.7601 27.0358 14.0812 27.3005 14.6057 27.6205C15.462 28.1431 16.5386 28.1431 17.395 27.6205C17.7916 27.3785 18.1015 27.0582 18.3161 26.6853ZM25.3872 22.0364C25.6678 22.3429 26.2691 22.9031 26.667 23.2691V24.0186H5.33366V23.2696C5.72842 22.908 6.33157 22.3482 6.61164 22.0434C8.39262 20.1057 9.33366 17.4902 9.33366 13.3332C9.33366 8.29301 12.444 5.34966 16.0003 5.34966C19.5466 5.34966 22.667 8.30821 22.667 13.3332C22.667 17.4769 23.6083 20.0932 25.3872 22.0364Z" fill="white"/>
</g>
</svg>
