<svg width="60" height="60" viewBox="0 0 60 60" fill="none" xmlns="http://www.w3.org/2000/svg">
<g opacity="0.24">
<path d="M20.5329 35.9996H39.4576C40.3092 35.9996 41 35.3457 41 34.5396V18.7213C38.8899 18.5511 37.2151 16.8851 37.2151 14.8339V9.45962C37.2151 8.65347 36.5243 7.9996 35.6727 7.9996C34.8211 7.9996 34.1398 8.65347 34.1398 9.45962V10.8032V14.8339C34.1398 16.9926 32.2852 18.7571 29.9953 18.7571C27.7054 18.7571 25.8508 17.0015 25.8508 14.8339V10.8032V9.45962C25.8508 8.65347 25.16 7.9996 24.3084 7.9996C23.4568 7.9996 22.7849 8.65347 22.7849 9.45962V14.8339C22.7849 16.8761 21.1101 18.5421 19 18.7213V34.5396C19 35.3457 19.6813 35.9996 20.5329 35.9996ZM22.4254 21.6682H37.5652C37.7639 21.6682 37.9247 21.8205 37.9247 22.0086C37.9247 22.1967 37.7639 22.3489 37.5652 22.3489H22.4254C22.2267 22.3489 22.0658 22.1967 22.0658 22.0086C22.0658 21.8205 22.2267 21.6682 22.4254 21.6682ZM22.4254 25.251H37.5652C37.7639 25.251 37.9247 25.4033 37.9247 25.5914C37.9247 25.7795 37.7639 25.9318 37.5652 25.9318H22.4254C22.2267 25.9318 22.0658 25.7795 22.0658 25.5914C22.0658 25.4033 22.2267 25.251 22.4254 25.251ZM22.4254 28.8339H37.5652C37.7639 28.8339 37.9247 28.9862 37.9247 29.1743C37.9247 29.3624 37.7639 29.5146 37.5652 29.5146H22.4254C22.2267 29.5146 22.0658 29.3624 22.0658 29.1743C22.0658 28.9862 22.2267 28.8339 22.4254 28.8339ZM22.4254 32.4167H37.5652C37.7639 32.4167 37.9247 32.569 37.9247 32.7571C37.9247 32.9452 37.7639 33.0975 37.5652 33.0975H22.4254C22.2267 33.0975 22.0658 32.9452 22.0658 32.7571C22.0658 32.569 22.2267 32.4167 22.4254 32.4167Z" fill="white"/>
<path d="M5.95566 47.2876H9.89966V48.1516H6.95566V49.4796H8.47566C8.88099 49.4796 9.21166 49.5383 9.46766 49.6556C9.72366 49.7676 9.92099 49.9116 10.0597 50.0876C10.1983 50.2636 10.2917 50.4556 10.3397 50.6636C10.393 50.8663 10.4197 51.0556 10.4197 51.2316C10.4197 51.4076 10.393 51.5996 10.3397 51.8076C10.2917 52.0156 10.1983 52.2076 10.0597 52.3836C9.92099 52.5596 9.72366 52.7063 9.46766 52.8236C9.21166 52.9409 8.88099 52.9996 8.47566 52.9996H5.95566V47.2876ZM6.95566 52.1836H8.43566C8.56899 52.1836 8.69432 52.1703 8.81166 52.1436C8.92899 52.1169 9.03299 52.0689 9.12366 51.9996C9.21432 51.9249 9.28632 51.8263 9.33966 51.7036C9.39299 51.5809 9.41966 51.4263 9.41966 51.2396C9.41966 51.0583 9.38766 50.9089 9.32366 50.7916C9.26499 50.6689 9.18499 50.5729 9.08366 50.5036C8.98766 50.4289 8.88099 50.3756 8.76366 50.3436C8.64632 50.3116 8.53166 50.2956 8.41966 50.2956H6.95566V52.1836ZM11.1876 48.8636H12.0516V49.4236H12.0676C12.1956 49.1836 12.3743 49.0129 12.6036 48.9116C12.8329 48.8049 13.0809 48.7516 13.3476 48.7516C13.6729 48.7516 13.9556 48.8103 14.1956 48.9276C14.4409 49.0396 14.6436 49.1969 14.8036 49.3996C14.9636 49.5969 15.0836 49.8289 15.1636 50.0956C15.2436 50.3623 15.2836 50.6476 15.2836 50.9516C15.2836 51.2289 15.2463 51.4983 15.1716 51.7596C15.1023 52.0209 14.9929 52.2529 14.8436 52.4556C14.6996 52.6529 14.5156 52.8129 14.2916 52.9356C14.0676 53.0529 13.8036 53.1116 13.4996 53.1116C13.3663 53.1116 13.2329 53.0983 13.0996 53.0716C12.9663 53.0503 12.8383 53.0129 12.7156 52.9596C12.5929 52.9063 12.4783 52.8396 12.3716 52.7596C12.2703 52.6743 12.1849 52.5756 12.1156 52.4636H12.0996V54.5276H11.1876V48.8636ZM14.3716 50.9356C14.3716 50.7489 14.3476 50.5676 14.2996 50.3916C14.2516 50.2156 14.1796 50.0609 14.0836 49.9276C13.9876 49.7889 13.8676 49.6796 13.7236 49.5996C13.5796 49.5143 13.4143 49.4716 13.2276 49.4716C12.8436 49.4716 12.5529 49.6049 12.3556 49.8716C12.1636 50.1383 12.0676 50.4929 12.0676 50.9356C12.0676 51.1436 12.0916 51.3383 12.1396 51.5196C12.1929 51.6956 12.2703 51.8476 12.3716 51.9756C12.4729 52.1036 12.5929 52.2049 12.7316 52.2796C12.8756 52.3543 13.0409 52.3916 13.2276 52.3916C13.4356 52.3916 13.6116 52.3489 13.7556 52.2636C13.8996 52.1783 14.0169 52.0689 14.1076 51.9356C14.2036 51.7969 14.2703 51.6423 14.3076 51.4716C14.3503 51.2956 14.3716 51.1169 14.3716 50.9356ZM17.9502 53.1116C17.6196 53.1116 17.3236 53.0583 17.0622 52.9516C16.8062 52.8396 16.5876 52.6876 16.4062 52.4956C16.2302 52.3036 16.0942 52.0743 15.9982 51.8076C15.9076 51.5409 15.8622 51.2476 15.8622 50.9276C15.8622 50.6129 15.9076 50.3223 15.9982 50.0556C16.0942 49.7889 16.2302 49.5596 16.4062 49.3676C16.5876 49.1756 16.8062 49.0263 17.0622 48.9196C17.3236 48.8076 17.6196 48.7516 17.9502 48.7516C18.2809 48.7516 18.5742 48.8076 18.8302 48.9196C19.0916 49.0263 19.3102 49.1756 19.4862 49.3676C19.6676 49.5596 19.8036 49.7889 19.8942 50.0556C19.9902 50.3223 20.0382 50.6129 20.0382 50.9276C20.0382 51.2476 19.9902 51.5409 19.8942 51.8076C19.8036 52.0743 19.6676 52.3036 19.4862 52.4956C19.3102 52.6876 19.0916 52.8396 18.8302 52.9516C18.5742 53.0583 18.2809 53.1116 17.9502 53.1116ZM17.9502 52.3916C18.1529 52.3916 18.3289 52.3489 18.4782 52.2636C18.6276 52.1783 18.7502 52.0663 18.8462 51.9276C18.9422 51.7889 19.0116 51.6343 19.0542 51.4636C19.1022 51.2876 19.1262 51.1089 19.1262 50.9276C19.1262 50.7516 19.1022 50.5756 19.0542 50.3996C19.0116 50.2236 18.9422 50.0689 18.8462 49.9356C18.7502 49.7969 18.6276 49.6849 18.4782 49.5996C18.3289 49.5143 18.1529 49.4716 17.9502 49.4716C17.7476 49.4716 17.5716 49.5143 17.4222 49.5996C17.2729 49.6849 17.1502 49.7969 17.0542 49.9356C16.9582 50.0689 16.8862 50.2236 16.8382 50.3996C16.7956 50.5756 16.7742 50.7516 16.7742 50.9276C16.7742 51.1089 16.7956 51.2876 16.8382 51.4636C16.8862 51.6343 16.9582 51.7889 17.0542 51.9276C17.1502 52.0663 17.2729 52.1783 17.4222 52.2636C17.5716 52.3489 17.7476 52.3916 17.9502 52.3916ZM20.8204 48.8636H21.7324V50.5756H23.7884V48.8636H24.7004V52.9996H23.7884V51.2556H21.7324V52.9996H20.8204V48.8636ZM28.527 50.5676C28.5164 50.4236 28.4844 50.2849 28.431 50.1516C28.383 50.0183 28.3137 49.9036 28.223 49.8076C28.1377 49.7063 28.031 49.6263 27.903 49.5676C27.7804 49.5036 27.6417 49.4716 27.487 49.4716C27.327 49.4716 27.1804 49.5009 27.047 49.5596C26.919 49.6129 26.807 49.6903 26.711 49.7916C26.6204 49.8876 26.5457 50.0023 26.487 50.1356C26.4337 50.2689 26.4044 50.4129 26.399 50.5676H28.527ZM26.399 51.1676C26.399 51.3276 26.4204 51.4823 26.463 51.6316C26.511 51.7809 26.5804 51.9116 26.671 52.0236C26.7617 52.1356 26.8764 52.2263 27.015 52.2956C27.1537 52.3596 27.319 52.3916 27.511 52.3916C27.7777 52.3916 27.991 52.3356 28.151 52.2236C28.3164 52.1063 28.439 51.9329 28.519 51.7036H29.383C29.335 51.9276 29.2524 52.1276 29.135 52.3036C29.0177 52.4796 28.8764 52.6289 28.711 52.7516C28.5457 52.8689 28.359 52.9569 28.151 53.0156C27.9484 53.0796 27.735 53.1116 27.511 53.1116C27.1857 53.1116 26.8977 53.0583 26.647 52.9516C26.3964 52.8449 26.183 52.6956 26.007 52.5036C25.8364 52.3116 25.7057 52.0823 25.615 51.8156C25.5297 51.5489 25.487 51.2556 25.487 50.9356C25.487 50.6423 25.5324 50.3649 25.623 50.1036C25.719 49.8369 25.8524 49.6049 26.023 49.4076C26.199 49.2049 26.4097 49.0449 26.655 48.9276C26.9004 48.8103 27.1777 48.7516 27.487 48.7516C27.8124 48.7516 28.103 48.8209 28.359 48.9596C28.6204 49.0929 28.8364 49.2716 29.007 49.4956C29.1777 49.7196 29.3004 49.9783 29.375 50.2716C29.455 50.5596 29.4764 50.8583 29.439 51.1676H26.399ZM32.5323 51.5196L31.9883 50.9916L30.7243 52.9996H29.6123L31.3483 50.3836L29.7643 48.8636H30.8843L32.5323 50.5356V48.8636H33.4443V50.5356L35.0923 48.8636H36.2123L34.6283 50.3836L36.3643 52.9996H35.2523L33.9883 50.9916L33.4443 51.5196V52.9996H32.5323V51.5196ZM36.8282 48.8636H37.7402V51.7036H37.7562L39.5722 48.8636H40.7002V52.9996H39.7882V50.1356H39.7722L37.9162 52.9996H36.8282V48.8636ZM41.5668 52.3436C41.7055 52.3436 41.8362 52.2956 41.9588 52.1996C42.0868 52.1036 42.1775 51.9649 42.2308 51.7836C42.2628 51.6823 42.2868 51.5836 42.3028 51.4876C42.3242 51.3863 42.3402 51.2796 42.3508 51.1676C42.3668 51.0556 42.3775 50.9303 42.3828 50.7916C42.3882 50.6529 42.3935 50.4929 42.3988 50.3116C42.4042 50.1303 42.4068 49.9249 42.4068 49.6956C42.4122 49.4609 42.4148 49.1836 42.4148 48.8636H45.8468V52.9996H44.9348V49.5436H43.3428C43.3428 49.8903 43.3375 50.1969 43.3268 50.4636C43.3215 50.7249 43.3108 50.9569 43.2948 51.1596C43.2842 51.3623 43.2682 51.5409 43.2468 51.6956C43.2255 51.8449 43.1962 51.9783 43.1588 52.0956C43.1215 52.2289 43.0735 52.3543 43.0148 52.4716C42.9615 52.5836 42.8788 52.6823 42.7668 52.7676C42.6602 52.8476 42.5135 52.9116 42.3268 52.9596C42.1455 53.0076 41.9055 53.0316 41.6068 53.0316C41.5215 53.0316 41.4495 53.0289 41.3908 53.0236C41.3322 53.0236 41.2735 53.0183 41.2148 53.0076V52.3196C41.2735 52.3303 41.3242 52.3383 41.3668 52.3436C41.4148 52.3436 41.4815 52.3436 41.5668 52.3436ZM49.6755 50.5676C49.6648 50.4236 49.6328 50.2849 49.5795 50.1516C49.5315 50.0183 49.4621 49.9036 49.3715 49.8076C49.2861 49.7063 49.1795 49.6263 49.0515 49.5676C48.9288 49.5036 48.7901 49.4716 48.6355 49.4716C48.4755 49.4716 48.3288 49.5009 48.1955 49.5596C48.0675 49.6129 47.9555 49.6903 47.8595 49.7916C47.7688 49.8876 47.6941 50.0023 47.6355 50.1356C47.5821 50.2689 47.5528 50.4129 47.5475 50.5676H49.6755ZM47.5475 51.1676C47.5475 51.3276 47.5688 51.4823 47.6115 51.6316C47.6595 51.7809 47.7288 51.9116 47.8195 52.0236C47.9101 52.1356 48.0248 52.2263 48.1635 52.2956C48.3021 52.3596 48.4675 52.3916 48.6595 52.3916C48.9261 52.3916 49.1395 52.3356 49.2995 52.2236C49.4648 52.1063 49.5875 51.9329 49.6675 51.7036H50.5315C50.4835 51.9276 50.4008 52.1276 50.2835 52.3036C50.1661 52.4796 50.0248 52.6289 49.8595 52.7516C49.6941 52.8689 49.5075 52.9569 49.2995 53.0156C49.0968 53.0796 48.8835 53.1116 48.6595 53.1116C48.3341 53.1116 48.0461 53.0583 47.7955 52.9516C47.5448 52.8449 47.3315 52.6956 47.1555 52.5036C46.9848 52.3116 46.8541 52.0823 46.7635 51.8156C46.6781 51.5489 46.6355 51.2556 46.6355 50.9356C46.6355 50.6423 46.6808 50.3649 46.7715 50.1036C46.8675 49.8369 47.0008 49.6049 47.1715 49.4076C47.3475 49.2049 47.5581 49.0449 47.8035 48.9276C48.0488 48.8103 48.3261 48.7516 48.6355 48.7516C48.9608 48.7516 49.2515 48.8209 49.5075 48.9596C49.7688 49.0929 49.9848 49.2716 50.1555 49.4956C50.3261 49.7196 50.4488 49.9783 50.5235 50.2716C50.6035 50.5596 50.6248 50.8583 50.5875 51.1676H47.5475ZM54.5688 49.5436H53.2008V52.9996H52.2888V49.5436H50.8648V48.8636H54.5688V49.5436Z" fill="white"/>
</g>
</svg>
