<svg width="32" height="32" viewBox="0 0 32 32" fill="none" xmlns="http://www.w3.org/2000/svg">
<g id="book">
<path id="icon" fill-rule="evenodd" clip-rule="evenodd" d="M28 29.3333H8C5.79086 29.3333 4 27.5424 4 25.3333V6.66663C4 4.45749 5.79086 2.66663 8 2.66663H28V24C27.2636 24 26.6667 24.5969 26.6667 25.3333C26.6667 26.0697 27.2636 26.6666 28 26.6666V29.3333ZM24 25.3333C24 24.8658 24.0802 24.417 24.2276 24H8C7.26362 24 6.66667 24.5969 6.66667 25.3333C6.66667 26.0697 7.26362 26.6666 8 26.6666H24.2276C24.0802 26.2496 24 25.8008 24 25.3333ZM8 5.33329H25.3333V21.3333H8C7.53249 21.3333 7.08371 21.4135 6.66667 21.5609V6.66663C6.66667 5.93025 7.26362 5.33329 8 5.33329Z" fill="white"/>
</g>
</svg>
