<svg width="60" height="60" viewBox="0 0 60 60" fill="none" xmlns="http://www.w3.org/2000/svg">
<g opacity="0.24">
<path d="M16.8763 26.3957C19.9339 26.1265 22.9285 24.0891 24.4139 22.9293C24.5378 22.8326 24.6398 22.7107 24.713 22.5717C24.7863 22.4327 24.8292 22.2797 24.8388 22.1228C24.8485 21.966 24.8247 21.8089 24.7691 21.6619C24.7135 21.515 24.6272 21.3815 24.5161 21.2703L21.6124 18.3684C21.5117 18.2674 21.3916 18.1878 21.2594 18.1344C21.1271 18.081 20.9855 18.055 20.8429 18.0577C20.7003 18.0605 20.5597 18.0921 20.4297 18.1506C20.2996 18.2091 20.1827 18.2933 20.086 18.3981C17.2839 21.4575 16.3368 24.0653 16.0195 25.4212C15.9918 25.5447 15.9936 25.673 16.025 25.7956C16.0563 25.9182 16.1162 26.0316 16.1997 26.1266C16.2833 26.2217 16.3881 26.2956 16.5057 26.3423C16.6233 26.3891 16.7503 26.4074 16.8763 26.3957Z" fill="white"/>
<path d="M42.9175 13.8877C42.2341 13.6059 41.6124 13.1929 41.0876 12.6722L39.8459 11.4299C39.0962 10.6683 38.4426 9.81768 37.8996 8.89715C37.8324 8.78475 37.7571 8.67733 37.6745 8.57573C37.3138 8.13846 36.605 8.33036 36.4904 8.88586C36.1018 10.8031 34.632 15.5346 29.0824 21.0813C23.5327 26.6279 18.8089 28.0996 16.8899 28.4857C16.3332 28.598 16.1389 29.3092 16.5768 29.6704C16.6783 29.7541 16.7857 29.8303 16.8982 29.8985C17.8189 30.4424 18.6695 31.0971 19.4309 31.8478L20.6732 33.0895C21.194 33.6143 21.607 34.2359 21.8888 34.9194C22.0205 35.2371 22.2428 35.509 22.5281 35.7011C22.8134 35.8932 23.149 35.997 23.4929 35.9995C25.9021 36.0167 28.5156 34.9533 30.8005 33.6563C35.3318 31.0846 39.0825 27.3342 41.6544 22.803C42.9514 20.5169 44.0149 17.9033 43.9976 15.4954C43.9958 15.1509 43.8924 14.8145 43.7002 14.5285C43.5081 14.2426 43.2358 14.0196 42.9175 13.8877Z" fill="white"/>
<path d="M33.4206 8.01949C32.0647 8.33678 29.4569 9.28389 26.3975 12.086C26.2926 12.1827 26.2084 12.2996 26.1499 12.4297C26.0914 12.5597 26.0599 12.7003 26.0571 12.8429C26.0543 12.9855 26.0804 13.1271 26.1338 13.2594C26.1872 13.3916 26.2668 13.5117 26.3678 13.6124L29.2697 16.5149C29.3808 16.6261 29.5142 16.7124 29.6611 16.7681C29.808 16.8239 29.9651 16.8478 30.1219 16.8382C30.2788 16.8287 30.4318 16.7859 30.5709 16.7128C30.7099 16.6396 30.8319 16.5378 30.9286 16.4139C32.0885 14.9285 34.1259 11.9339 34.395 8.87628C34.4067 8.75029 34.3884 8.62331 34.3417 8.50573C34.2949 8.38815 34.221 8.2833 34.126 8.19974C34.031 8.11619 33.9175 8.0563 33.7949 8.02497C33.6723 7.99364 33.544 7.99177 33.4206 8.01949Z" fill="white"/>
<path d="M30.0001 14.3285C30.2112 14.3285 30.3824 14.1561 30.3824 13.9434C30.3824 13.7307 30.2112 13.5582 30.0001 13.5582C29.7889 13.5582 29.6177 13.7307 29.6177 13.9434C29.6177 14.1561 29.7889 14.3285 30.0001 14.3285Z" fill="white"/>
<path d="M14.3307 47.288H18.2747V48.152H15.3307V49.48H16.8507C17.256 49.48 17.5867 49.5387 17.8427 49.656C18.0987 49.768 18.296 49.912 18.4347 50.088C18.5733 50.264 18.6667 50.456 18.7147 50.664C18.768 50.8667 18.7947 51.056 18.7947 51.232C18.7947 51.408 18.768 51.6 18.7147 51.808C18.6667 52.016 18.5733 52.208 18.4347 52.384C18.296 52.56 18.0987 52.7067 17.8427 52.824C17.5867 52.9413 17.256 53 16.8507 53H14.3307V47.288ZM15.3307 52.184H16.8107C16.944 52.184 17.0693 52.1707 17.1867 52.144C17.304 52.1173 17.408 52.0693 17.4987 52C17.5893 51.9253 17.6613 51.8267 17.7147 51.704C17.768 51.5813 17.7947 51.4267 17.7947 51.24C17.7947 51.0587 17.7627 50.9093 17.6987 50.792C17.64 50.6693 17.56 50.5733 17.4587 50.504C17.3627 50.4293 17.256 50.376 17.1387 50.344C17.0213 50.312 16.9067 50.296 16.7947 50.296H15.3307V52.184ZM19.5626 48.864H20.4266V49.424H20.4426C20.5706 49.184 20.7493 49.0133 20.9786 48.912C21.2079 48.8053 21.4559 48.752 21.7226 48.752C22.0479 48.752 22.3306 48.8107 22.5706 48.928C22.8159 49.04 23.0186 49.1973 23.1786 49.4C23.3386 49.5973 23.4586 49.8293 23.5386 50.096C23.6186 50.3627 23.6586 50.648 23.6586 50.952C23.6586 51.2293 23.6213 51.4987 23.5466 51.76C23.4773 52.0213 23.3679 52.2533 23.2186 52.456C23.0746 52.6533 22.8906 52.8133 22.6666 52.936C22.4426 53.0533 22.1786 53.112 21.8746 53.112C21.7413 53.112 21.6079 53.0987 21.4746 53.072C21.3413 53.0507 21.2133 53.0133 21.0906 52.96C20.9679 52.9067 20.8533 52.84 20.7466 52.76C20.6453 52.6747 20.5599 52.576 20.4906 52.464H20.4746V54.528H19.5626V48.864ZM22.7466 50.936C22.7466 50.7493 22.7226 50.568 22.6746 50.392C22.6266 50.216 22.5546 50.0613 22.4586 49.928C22.3626 49.7893 22.2426 49.68 22.0986 49.6C21.9546 49.5147 21.7893 49.472 21.6026 49.472C21.2186 49.472 20.9279 49.6053 20.7306 49.872C20.5386 50.1387 20.4426 50.4933 20.4426 50.936C20.4426 51.144 20.4666 51.3387 20.5146 51.52C20.5679 51.696 20.6453 51.848 20.7466 51.976C20.8479 52.104 20.9679 52.2053 21.1066 52.28C21.2506 52.3547 21.4159 52.392 21.6026 52.392C21.8106 52.392 21.9866 52.3493 22.1306 52.264C22.2746 52.1787 22.3919 52.0693 22.4826 51.936C22.5786 51.7973 22.6453 51.6427 22.6826 51.472C22.7253 51.296 22.7466 51.1173 22.7466 50.936ZM27.8932 52.08C27.8932 52.192 27.9066 52.272 27.9332 52.32C27.9652 52.368 28.0239 52.392 28.1092 52.392H28.2052C28.2426 52.392 28.2852 52.3867 28.3332 52.376V53.008C28.3012 53.0187 28.2586 53.0293 28.2052 53.04C28.1572 53.056 28.1066 53.0693 28.0532 53.08C27.9999 53.0907 27.9466 53.0987 27.8932 53.104C27.8399 53.1093 27.7946 53.112 27.7572 53.112C27.5706 53.112 27.4159 53.0747 27.2932 53C27.1706 52.9253 27.0906 52.7947 27.0532 52.608C26.8719 52.784 26.6479 52.912 26.3812 52.992C26.1199 53.072 25.8666 53.112 25.6212 53.112C25.4346 53.112 25.2559 53.0853 25.0852 53.032C24.9146 52.984 24.7626 52.912 24.6292 52.816C24.5012 52.7147 24.3972 52.5893 24.3172 52.44C24.2426 52.2853 24.2052 52.1067 24.2052 51.904C24.2052 51.648 24.2506 51.44 24.3412 51.28C24.4372 51.12 24.5599 50.9947 24.7092 50.904C24.8639 50.8133 25.0346 50.7493 25.2212 50.712C25.4132 50.6693 25.6052 50.6373 25.7972 50.616C25.9626 50.584 26.1199 50.5627 26.2692 50.552C26.4186 50.536 26.5492 50.512 26.6612 50.48C26.7786 50.448 26.8692 50.4 26.9332 50.336C27.0026 50.2667 27.0372 50.1653 27.0372 50.032C27.0372 49.9147 27.0079 49.8187 26.9492 49.744C26.8959 49.6693 26.8266 49.6133 26.7412 49.576C26.6612 49.5333 26.5706 49.5067 26.4692 49.496C26.3679 49.48 26.2719 49.472 26.1812 49.472C25.9252 49.472 25.7146 49.5253 25.5492 49.632C25.3839 49.7387 25.2906 49.904 25.2692 50.128H24.3572C24.3732 49.8613 24.4372 49.64 24.5492 49.464C24.6612 49.288 24.8026 49.1467 24.9732 49.04C25.1492 48.9333 25.3466 48.8587 25.5652 48.816C25.7839 48.7733 26.0079 48.752 26.2372 48.752C26.4399 48.752 26.6399 48.7733 26.8372 48.816C27.0346 48.8587 27.2106 48.928 27.3652 49.024C27.5252 49.12 27.6532 49.2453 27.7492 49.4C27.8452 49.5493 27.8932 49.7333 27.8932 49.952V52.08ZM26.9812 50.928C26.8426 51.0187 26.6719 51.0747 26.4692 51.096C26.2666 51.112 26.0639 51.1387 25.8612 51.176C25.7652 51.192 25.6719 51.216 25.5812 51.248C25.4906 51.2747 25.4106 51.3147 25.3412 51.368C25.2719 51.416 25.2159 51.4827 25.1732 51.568C25.1359 51.648 25.1172 51.7467 25.1172 51.864C25.1172 51.9653 25.1466 52.0507 25.2052 52.12C25.2639 52.1893 25.3332 52.2453 25.4132 52.288C25.4986 52.3253 25.5892 52.352 25.6852 52.368C25.7866 52.384 25.8772 52.392 25.9572 52.392C26.0586 52.392 26.1679 52.3787 26.2852 52.352C26.4026 52.3253 26.5119 52.28 26.6132 52.216C26.7199 52.152 26.8079 52.072 26.8772 51.976C26.9466 51.8747 26.9812 51.752 26.9812 51.608V50.928ZM31.6665 50.248C31.6292 49.992 31.5252 49.8 31.3545 49.672C31.1892 49.5387 30.9785 49.472 30.7225 49.472C30.6052 49.472 30.4799 49.4933 30.3465 49.536C30.2132 49.5733 30.0905 49.648 29.9785 49.76C29.8665 49.8667 29.7732 50.0187 29.6985 50.216C29.6239 50.408 29.5865 50.6613 29.5865 50.976C29.5865 51.1467 29.6052 51.3173 29.6425 51.488C29.6852 51.6587 29.7492 51.8107 29.8345 51.944C29.9252 52.0773 30.0399 52.1867 30.1785 52.272C30.3172 52.352 30.4852 52.392 30.6825 52.392C30.9492 52.392 31.1679 52.3093 31.3385 52.144C31.5145 51.9787 31.6239 51.7467 31.6665 51.448H32.5785C32.4932 51.9867 32.2879 52.4 31.9625 52.688C31.6425 52.9707 31.2159 53.112 30.6825 53.112C30.3572 53.112 30.0692 53.0587 29.8185 52.952C29.5732 52.84 29.3652 52.6907 29.1945 52.504C29.0239 52.312 28.8932 52.0853 28.8025 51.824C28.7172 51.5627 28.6745 51.28 28.6745 50.976C28.6745 50.6667 28.7172 50.376 28.8025 50.104C28.8879 49.832 29.0159 49.5973 29.1865 49.4C29.3572 49.1973 29.5679 49.04 29.8185 48.928C30.0745 48.8107 30.3732 48.752 30.7145 48.752C30.9545 48.752 31.1812 48.784 31.3945 48.848C31.6132 48.9067 31.8052 48.9973 31.9705 49.12C32.1412 49.2427 32.2799 49.3973 32.3865 49.584C32.4932 49.7707 32.5572 49.992 32.5785 50.248H31.6665ZM33.1918 52.344C33.3305 52.344 33.4612 52.296 33.5838 52.2C33.7118 52.104 33.8025 51.9653 33.8558 51.784C33.8878 51.6827 33.9118 51.584 33.9278 51.488C33.9492 51.3867 33.9652 51.28 33.9758 51.168C33.9918 51.056 34.0025 50.9307 34.0078 50.792C34.0132 50.6533 34.0185 50.4933 34.0238 50.312C34.0292 50.1307 34.0318 49.9253 34.0318 49.696C34.0372 49.4613 34.0398 49.184 34.0398 48.864H37.4718V53H36.5598V49.544H34.9678C34.9678 49.8907 34.9625 50.1973 34.9518 50.464C34.9465 50.7253 34.9358 50.9573 34.9198 51.16C34.9092 51.3627 34.8932 51.5413 34.8718 51.696C34.8505 51.8453 34.8212 51.9787 34.7838 52.096C34.7465 52.2293 34.6985 52.3547 34.6398 52.472C34.5865 52.584 34.5038 52.6827 34.3918 52.768C34.2852 52.848 34.1385 52.912 33.9518 52.96C33.7705 53.008 33.5305 53.032 33.2318 53.032C33.1465 53.032 33.0745 53.0293 33.0158 53.024C32.9572 53.024 32.8985 53.0187 32.8398 53.008V52.32C32.8985 52.3307 32.9492 52.3387 32.9918 52.344C33.0398 52.344 33.1065 52.344 33.1918 52.344ZM41.3005 50.568C41.2898 50.424 41.2578 50.2853 41.2045 50.152C41.1565 50.0187 41.0871 49.904 40.9965 49.808C40.9111 49.7067 40.8045 49.6267 40.6765 49.568C40.5538 49.504 40.4151 49.472 40.2605 49.472C40.1005 49.472 39.9538 49.5013 39.8205 49.56C39.6925 49.6133 39.5805 49.6907 39.4845 49.792C39.3938 49.888 39.3191 50.0027 39.2605 50.136C39.2071 50.2693 39.1778 50.4133 39.1725 50.568H41.3005ZM39.1725 51.168C39.1725 51.328 39.1938 51.4827 39.2365 51.632C39.2845 51.7813 39.3538 51.912 39.4445 52.024C39.5351 52.136 39.6498 52.2267 39.7885 52.296C39.9271 52.36 40.0925 52.392 40.2845 52.392C40.5511 52.392 40.7645 52.336 40.9245 52.224C41.0898 52.1067 41.2125 51.9333 41.2925 51.704H42.1565C42.1085 51.928 42.0258 52.128 41.9085 52.304C41.7911 52.48 41.6498 52.6293 41.4845 52.752C41.3191 52.8693 41.1325 52.9573 40.9245 53.016C40.7218 53.08 40.5085 53.112 40.2845 53.112C39.9591 53.112 39.6711 53.0587 39.4205 52.952C39.1698 52.8453 38.9565 52.696 38.7805 52.504C38.6098 52.312 38.4791 52.0827 38.3885 51.816C38.3031 51.5493 38.2605 51.256 38.2605 50.936C38.2605 50.6427 38.3058 50.3653 38.3965 50.104C38.4925 49.8373 38.6258 49.6053 38.7965 49.408C38.9725 49.2053 39.1831 49.0453 39.4285 48.928C39.6738 48.8107 39.9511 48.752 40.2605 48.752C40.5858 48.752 40.8765 48.8213 41.1325 48.96C41.3938 49.0933 41.6098 49.272 41.7805 49.496C41.9511 49.72 42.0738 49.9787 42.1485 50.272C42.2285 50.56 42.2498 50.8587 42.2125 51.168H39.1725ZM46.1938 49.544H44.8258V53H43.9138V49.544H42.4898V48.864H46.1938V49.544Z" fill="white"/>
</g>
</svg>
