<svg width="60" height="60" viewBox="0 0 60 60" fill="none" xmlns="http://www.w3.org/2000/svg">
<g opacity="0.24">
<path d="M25.3309 23.4141C25.2168 23.4081 25.1023 23.4081 24.9881 23.4141V23.2752C24.9864 22.805 24.8306 22.3482 24.5443 21.9743C24.258 21.6004 23.8569 21.3298 23.402 21.2038V18.9819C23.402 18.8284 23.3408 18.6812 23.2318 18.5727C23.1229 18.4642 22.9751 18.4032 22.821 18.4032C22.4763 18.4032 22.1393 18.3014 21.8526 18.1107C21.566 17.92 21.3426 17.6489 21.2107 17.3317C21.0788 17.0145 21.0442 16.6655 21.1115 16.3287C21.1787 15.992 21.3448 15.6827 21.5885 15.4399C21.8323 15.1972 22.1429 15.0318 22.481 14.9649C22.8191 14.8979 23.1695 14.9323 23.488 15.0636C23.8065 15.195 24.0787 15.4175 24.2703 15.703C24.4618 15.9884 24.564 16.3241 24.564 16.6674C24.564 16.8208 24.6252 16.968 24.7342 17.0765C24.8431 17.185 24.9909 17.246 25.145 17.246C25.2991 17.246 25.4469 17.185 25.5559 17.0765C25.6648 16.968 25.726 16.8208 25.726 16.6674C25.7303 16.119 25.578 15.5807 25.2869 15.1153C24.9958 14.6498 24.5778 14.2763 24.0818 14.0384C23.5857 13.8004 23.0319 13.7077 22.485 13.7712C21.9381 13.8346 21.4205 14.0516 20.9926 14.3967C20.5647 14.7419 20.2442 15.201 20.0683 15.7207C19.8924 16.2403 19.8684 16.799 19.9991 17.3317C20.1299 17.8644 20.4099 18.3491 20.8067 18.7294C21.2034 19.1097 21.7005 19.3698 22.24 19.4795V21.2153C21.7782 21.3358 21.3702 21.6071 21.0816 21.9858C20.793 22.3645 20.6403 22.8288 20.6481 23.3042V23.443C20.5339 23.4371 20.4195 23.4371 20.3053 23.443C19.1556 23.4568 18.0581 23.9224 17.2516 24.7385C16.4452 25.5546 15.9954 26.6551 16 27.8001C16 31.6595 22.1877 36.6588 22.455 36.8729C22.558 36.955 22.6861 36.9998 22.8181 36.9998C22.9501 36.9998 23.0782 36.955 23.1812 36.8729C23.4485 36.6588 29.6362 31.6653 29.6362 27.8001C29.6486 26.6501 29.2021 25.5422 28.3949 24.7199C27.5876 23.8975 26.4856 23.4278 25.3309 23.4141Z" fill="white"/>
<path d="M40.7392 17.6624C40.623 17.6624 40.5126 17.6624 40.3964 17.6913V17.5524C40.3947 17.0822 40.2388 16.6254 39.9525 16.2515C39.6662 15.8776 39.2651 15.607 38.8102 15.481V13.2301C38.8102 13.0767 38.749 12.9295 38.6401 12.821C38.5311 12.7125 38.3833 12.6515 38.2292 12.6515C37.7669 12.6515 37.3236 12.4686 36.9967 12.1431C36.6698 11.8176 36.4862 11.376 36.4862 10.9156C36.5534 10.5097 36.7633 10.1408 37.0782 9.8746C37.3932 9.60842 37.7929 9.4623 38.206 9.4623C38.6191 9.4623 39.0187 9.60842 39.3337 9.8746C39.6487 10.1408 39.8585 10.5097 39.9257 10.9156C39.9257 11.0691 39.987 11.2163 40.0959 11.3248C40.2049 11.4333 40.3527 11.4943 40.5068 11.4943C40.6608 11.4943 40.8086 11.4333 40.9176 11.3248C41.0265 11.2163 41.0878 11.0691 41.0878 10.9156C41.092 10.3673 40.9398 9.82901 40.6486 9.36355C40.3575 8.89808 39.9396 8.5246 39.4435 8.28662C38.9474 8.04865 38.3936 7.95598 37.8467 8.01943C37.2998 8.08288 36.7822 8.29982 36.3543 8.64498C35.9265 8.99014 35.6059 9.44929 35.43 9.96894C35.2541 10.4886 35.2301 11.0473 35.3609 11.58C35.4916 12.1127 35.7717 12.5974 36.1684 12.9777C36.5651 13.3579 37.0622 13.6181 37.6017 13.7278V15.4636C37.1444 15.5853 36.7405 15.8547 36.4535 16.2296C36.1664 16.6045 36.0124 17.0637 36.0156 17.5351V17.674C35.8994 17.674 35.7832 17.645 35.667 17.645C34.5128 17.6603 33.4117 18.1304 32.6048 18.9524C31.7979 19.7745 31.3509 20.8815 31.3618 22.031C31.3618 25.8904 37.5553 30.8955 37.8167 31.1038C37.9205 31.1867 38.0497 31.2316 38.1827 31.2311C38.3138 31.2303 38.4407 31.1855 38.543 31.1038C38.8102 30.8955 45.0037 25.8962 45.0037 22.031C45.0101 20.8913 44.5667 19.7948 43.769 18.9777C42.9713 18.1605 41.8832 17.6882 40.7392 17.6624Z" fill="white"/>
<path d="M20.5929 49.104C20.5502 48.9387 20.4916 48.7867 20.4169 48.648C20.3422 48.5093 20.2462 48.3893 20.1289 48.288C20.0116 48.1867 19.8729 48.1093 19.7129 48.056C19.5582 47.9973 19.3769 47.968 19.1689 47.968C18.8649 47.968 18.6009 48.0293 18.3769 48.152C18.1582 48.2747 17.9796 48.44 17.8409 48.648C17.7022 48.8507 17.5982 49.0827 17.5289 49.344C17.4649 49.6053 17.4329 49.872 17.4329 50.144C17.4329 50.416 17.4649 50.6827 17.5289 50.944C17.5982 51.2053 17.7022 51.44 17.8409 51.648C17.9796 51.8507 18.1582 52.0133 18.3769 52.136C18.6009 52.2587 18.8649 52.32 19.1689 52.32C19.3929 52.32 19.5902 52.2827 19.7609 52.208C19.9316 52.128 20.0782 52.0213 20.2009 51.888C20.3236 51.7493 20.4196 51.5893 20.4889 51.408C20.5582 51.2267 20.6036 51.032 20.6249 50.824H21.6009C21.5796 51.1653 21.5049 51.4773 21.3769 51.76C21.2542 52.0427 21.0862 52.288 20.8729 52.496C20.6596 52.6987 20.4089 52.856 20.1209 52.968C19.8329 53.08 19.5156 53.136 19.1689 53.136C18.7422 53.136 18.3582 53.0587 18.0169 52.904C17.6809 52.744 17.3956 52.528 17.1609 52.256C16.9262 51.984 16.7449 51.6667 16.6169 51.304C16.4942 50.9413 16.4329 50.5547 16.4329 50.144C16.4329 49.7387 16.4942 49.3547 16.6169 48.992C16.7449 48.6293 16.9262 48.312 17.1609 48.04C17.3956 47.768 17.6809 47.552 18.0169 47.392C18.3582 47.232 18.7422 47.152 19.1689 47.152C19.4889 47.152 19.7902 47.1973 20.0729 47.288C20.3556 47.3733 20.6036 47.5013 20.8169 47.672C21.0356 47.8373 21.2116 48.04 21.3449 48.28C21.4782 48.52 21.5609 48.7947 21.5929 49.104H20.5929ZM25.2223 50.568C25.2117 50.424 25.1797 50.2853 25.1263 50.152C25.0783 50.0187 25.009 49.904 24.9183 49.808C24.833 49.7067 24.7263 49.6267 24.5983 49.568C24.4757 49.504 24.337 49.472 24.1823 49.472C24.0223 49.472 23.8757 49.5013 23.7423 49.56C23.6143 49.6133 23.5023 49.6907 23.4063 49.792C23.3157 49.888 23.241 50.0027 23.1823 50.136C23.129 50.2693 23.0997 50.4133 23.0943 50.568H25.2223ZM23.0943 51.168C23.0943 51.328 23.1157 51.4827 23.1583 51.632C23.2063 51.7813 23.2757 51.912 23.3663 52.024C23.457 52.136 23.5717 52.2267 23.7103 52.296C23.849 52.36 24.0143 52.392 24.2063 52.392C24.473 52.392 24.6863 52.336 24.8463 52.224C25.0117 52.1067 25.1343 51.9333 25.2143 51.704H26.0783C26.0303 51.928 25.9477 52.128 25.8303 52.304C25.713 52.48 25.5717 52.6293 25.4063 52.752C25.241 52.8693 25.0543 52.9573 24.8463 53.016C24.6437 53.08 24.4303 53.112 24.2063 53.112C23.881 53.112 23.593 53.0587 23.3423 52.952C23.0917 52.8453 22.8783 52.696 22.7023 52.504C22.5317 52.312 22.401 52.0827 22.3103 51.816C22.225 51.5493 22.1823 51.256 22.1823 50.936C22.1823 50.6427 22.2277 50.3653 22.3183 50.104C22.4143 49.8373 22.5477 49.6053 22.7183 49.408C22.8943 49.2053 23.105 49.0453 23.3503 48.928C23.5957 48.8107 23.873 48.752 24.1823 48.752C24.5077 48.752 24.7983 48.8213 25.0543 48.96C25.3157 49.0933 25.5317 49.272 25.7023 49.496C25.873 49.72 25.9957 49.9787 26.0703 50.272C26.1503 50.56 26.1717 50.8587 26.1343 51.168H23.0943ZM26.8517 48.864H27.7157V49.424H27.7317C27.8597 49.184 28.0383 49.0133 28.2677 48.912C28.497 48.8053 28.745 48.752 29.0117 48.752C29.337 48.752 29.6197 48.8107 29.8597 48.928C30.105 49.04 30.3077 49.1973 30.4677 49.4C30.6277 49.5973 30.7477 49.8293 30.8277 50.096C30.9077 50.3627 30.9477 50.648 30.9477 50.952C30.9477 51.2293 30.9103 51.4987 30.8357 51.76C30.7663 52.0213 30.657 52.2533 30.5077 52.456C30.3637 52.6533 30.1797 52.8133 29.9557 52.936C29.7317 53.0533 29.4677 53.112 29.1637 53.112C29.0303 53.112 28.897 53.0987 28.7637 53.072C28.6303 53.0507 28.5023 53.0133 28.3797 52.96C28.257 52.9067 28.1423 52.84 28.0357 52.76C27.9343 52.6747 27.849 52.576 27.7797 52.464H27.7637V54.528H26.8517V48.864ZM30.0357 50.936C30.0357 50.7493 30.0117 50.568 29.9637 50.392C29.9157 50.216 29.8437 50.0613 29.7477 49.928C29.6517 49.7893 29.5317 49.68 29.3877 49.6C29.2437 49.5147 29.0783 49.472 28.8917 49.472C28.5077 49.472 28.217 49.6053 28.0197 49.872C27.8277 50.1387 27.7317 50.4933 27.7317 50.936C27.7317 51.144 27.7557 51.3387 27.8037 51.52C27.857 51.696 27.9343 51.848 28.0357 51.976C28.137 52.104 28.257 52.2053 28.3957 52.28C28.5397 52.3547 28.705 52.392 28.8917 52.392C29.0997 52.392 29.2757 52.3493 29.4197 52.264C29.5637 52.1787 29.681 52.0693 29.7717 51.936C29.8677 51.7973 29.9343 51.6427 29.9717 51.472C30.0143 51.296 30.0357 51.1173 30.0357 50.936ZM32.6543 52.32H33.8303C33.9903 52.32 34.1289 52.272 34.2463 52.176C34.3636 52.08 34.4223 51.9253 34.4223 51.712C34.4223 51.4987 34.3636 51.352 34.2463 51.272C34.1289 51.192 33.9903 51.152 33.8303 51.152H32.6543V52.32ZM31.7423 48.864H32.6543V50.448H33.8703C34.1796 50.448 34.4276 50.4907 34.6143 50.576C34.8063 50.6613 34.9556 50.768 35.0623 50.896C35.1689 51.0187 35.2409 51.1547 35.2783 51.304C35.3156 51.4533 35.3343 51.592 35.3343 51.72C35.3343 51.848 35.3156 51.9867 35.2783 52.136C35.2409 52.2853 35.1689 52.424 35.0623 52.552C34.9556 52.68 34.8063 52.7867 34.6143 52.872C34.4276 52.9573 34.1796 53 33.8703 53H31.7423V48.864ZM36.1017 48.864H38.9097V49.544H37.0137V53H36.1017V48.864ZM39.4845 48.864H40.3965V51.704H40.4125L42.2285 48.864H43.3565V53H42.4445V50.136H42.4285L40.5725 53H39.4845V48.864Z" fill="white"/>
</g>
</svg>
