<svg width="24" height="24" viewBox="0 0 24 24" fill="none" xmlns="http://www.w3.org/2000/svg">
<g id="glasses">
<path id="icon" fill-rule="evenodd" clip-rule="evenodd" d="M1 13C0.447715 13 0 12.5523 0 12C0 11.4477 0.447715 11 1 11H1.41604C2.1876 9.2341 3.94968 8 6 8C7.8244 8 9.42059 8.97712 10.2938 10.4366C10.7845 10.158 11.3765 10 12 10C12.6235 10 13.2155 10.158 13.7062 10.4366C14.5794 8.97712 16.1756 8 18 8C20.0503 8 21.8124 9.2341 22.584 11H23C23.5523 11 24 11.4477 24 12C24 12.5523 23.5523 13 23 13C23 15.7614 20.7614 18 18 18C15.2386 18 13 15.7614 13 13C13 12.8313 13.0084 12.6645 13.0247 12.5H13C13 12.2966 12.6046 12 12 12C11.3954 12 11 12.2966 11 12.5H10.9753C10.9916 12.6645 11 12.8313 11 13C11 15.7614 8.76142 18 6 18C3.23858 18 1 15.7614 1 13ZM6 16C7.65685 16 9 14.6569 9 13C9 11.3431 7.65685 10 6 10C4.34315 10 3 11.3431 3 13C3 14.6569 4.34315 16 6 16ZM21 13C21 14.6569 19.6569 16 18 16C16.3431 16 15 14.6569 15 13C15 11.3431 16.3431 10 18 10C19.6569 10 21 11.3431 21 13Z" fill="white"/>
</g>
</svg>
