<svg width="60" height="60" viewBox="0 0 60 60" fill="none" xmlns="http://www.w3.org/2000/svg">
<g opacity="0.24">
<path d="M39.8813 14.1761C43.8046 14.1761 47 17.7275 47 22.088C47 26.4486 43.8046 30 39.8813 30C36.2175 30 33.1442 26.885 32.7955 22.8477C30.9232 22.0912 29.056 22.2352 27.1947 22.9582C26.7991 26.946 23.7449 30 20.1187 30C16.1954 30 13 26.4486 13 22.088C13 18.0932 15.7015 14.7165 19.2514 14.2345C26.1475 13.705 32.9956 14.248 39.8813 14.1761ZM36.8727 25.3946L43.427 19.5218C43.3056 19.3142 43.1703 19.1189 43.0217 18.9363L36.4436 24.8297C36.5732 25.0308 36.7166 25.2198 36.8727 25.3946ZM44.0076 23.1189L39.9142 26.786C41.8883 26.7693 43.5826 25.2474 44.0076 23.1189ZM35.7012 21.3779L40.1432 17.3984C37.9465 17.2506 36.0267 18.9755 35.7012 21.3779ZM17.0697 25.3483L23.6333 19.4672C23.5095 19.2615 23.3713 19.0687 23.2204 18.8888L16.6475 24.7776C16.7748 24.9801 16.9158 25.1709 17.0697 25.3483ZM24.2641 23.0193L20.0597 26.786C22.0992 26.8085 23.8634 25.25 24.2641 23.0193ZM15.9525 21.2834L20.2945 17.3933C18.1591 17.311 16.311 18.9518 15.9525 21.2834ZM33.1257 19.5938C33.3651 18.7962 33.7161 18.054 34.1578 17.3907H25.8422C26.303 18.0822 26.665 18.8599 26.9044 19.6966C28.9514 19.0289 31.0671 18.9306 33.1257 19.5938Z" fill="white"/>
<path d="M23.1494 47.968C22.8454 47.968 22.5814 48.0293 22.3574 48.152C22.1387 48.2747 21.96 48.44 21.8214 48.648C21.6827 48.8507 21.5787 49.0827 21.5094 49.344C21.4454 49.6053 21.4134 49.872 21.4134 50.144C21.4134 50.416 21.4454 50.6827 21.5094 50.944C21.5787 51.2053 21.6827 51.44 21.8214 51.648C21.96 51.8507 22.1387 52.0133 22.3574 52.136C22.5814 52.2587 22.8454 52.32 23.1494 52.32C23.4534 52.32 23.7147 52.2587 23.9334 52.136C24.1574 52.0133 24.3387 51.8507 24.4774 51.648C24.616 51.44 24.7174 51.2053 24.7814 50.944C24.8507 50.6827 24.8854 50.416 24.8854 50.144C24.8854 49.872 24.8507 49.6053 24.7814 49.344C24.7174 49.0827 24.616 48.8507 24.4774 48.648C24.3387 48.44 24.1574 48.2747 23.9334 48.152C23.7147 48.0293 23.4534 47.968 23.1494 47.968ZM23.1494 47.152C23.576 47.152 23.9574 47.232 24.2934 47.392C24.6347 47.552 24.9227 47.768 25.1574 48.04C25.392 48.312 25.5707 48.6293 25.6934 48.992C25.8214 49.3547 25.8854 49.7387 25.8854 50.144C25.8854 50.5547 25.8214 50.9413 25.6934 51.304C25.5707 51.6667 25.392 51.984 25.1574 52.256C24.9227 52.528 24.6347 52.744 24.2934 52.904C23.9574 53.0587 23.576 53.136 23.1494 53.136C22.7227 53.136 22.3387 53.0587 21.9974 52.904C21.6614 52.744 21.376 52.528 21.1414 52.256C20.9067 51.984 20.7254 51.6667 20.5974 51.304C20.4747 50.9413 20.4134 50.5547 20.4134 50.144C20.4134 49.7387 20.4747 49.3547 20.5974 48.992C20.7254 48.6293 20.9067 48.312 21.1414 48.04C21.376 47.768 21.6614 47.552 21.9974 47.392C22.3387 47.232 22.7227 47.152 23.1494 47.152ZM30.2195 53H29.3075V51.424C29.1848 51.472 29.0328 51.52 28.8515 51.568C28.6702 51.616 28.4595 51.64 28.2195 51.64C27.6808 51.64 27.2728 51.5227 26.9955 51.288C26.7235 51.0533 26.5875 50.7013 26.5875 50.232V48.864H27.4995V49.992C27.4995 50.3173 27.5688 50.5547 27.7075 50.704C27.8462 50.848 28.0728 50.92 28.3875 50.92C28.5582 50.92 28.7315 50.8987 28.9075 50.856C29.0835 50.808 29.2168 50.7653 29.3075 50.728V48.864H30.2195V53ZM31.2071 48.864H32.1191V50.536L33.7671 48.864H34.8871L33.3031 50.384L35.0391 53H33.9271L32.6631 50.992L32.1191 51.52V53H31.2071V48.864ZM35.504 48.864H36.416V51.704H36.432L38.248 48.864H39.376V53H38.464V50.136H38.448L36.592 53H35.504V48.864Z" fill="white"/>
</g>
</svg>
