<svg width="60" height="60" viewBox="0 0 60 60" fill="none" xmlns="http://www.w3.org/2000/svg">
<path d="M12.0293 47.288H16.6293V53H15.6293V48.152H13.0293V53H12.0293V47.288ZM20.5388 50.568C20.5281 50.424 20.4961 50.2853 20.4428 50.152C20.3948 50.0187 20.3254 49.904 20.2348 49.808C20.1494 49.7067 20.0428 49.6267 19.9148 49.568C19.7921 49.504 19.6534 49.472 19.4988 49.472C19.3388 49.472 19.1921 49.5013 19.0588 49.56C18.9308 49.6133 18.8188 49.6907 18.7228 49.792C18.6321 49.888 18.5574 50.0027 18.4988 50.136C18.4454 50.2693 18.4161 50.4133 18.4108 50.568H20.5388ZM18.4108 51.168C18.4108 51.328 18.4321 51.4827 18.4748 51.632C18.5228 51.7813 18.5921 51.912 18.6828 52.024C18.7734 52.136 18.8881 52.2267 19.0268 52.296C19.1654 52.36 19.3308 52.392 19.5228 52.392C19.7894 52.392 20.0028 52.336 20.1628 52.224C20.3281 52.1067 20.4508 51.9333 20.5308 51.704H21.3948C21.3468 51.928 21.2641 52.128 21.1468 52.304C21.0294 52.48 20.8881 52.6293 20.7228 52.752C20.5574 52.8693 20.3708 52.9573 20.1628 53.016C19.9601 53.08 19.7468 53.112 19.5228 53.112C19.1974 53.112 18.9094 53.0587 18.6588 52.952C18.4081 52.8453 18.1948 52.696 18.0188 52.504C17.8481 52.312 17.7174 52.0827 17.6268 51.816C17.5414 51.5493 17.4988 51.256 17.4988 50.936C17.4988 50.6427 17.5441 50.3653 17.6348 50.104C17.7308 49.8373 17.8641 49.6053 18.0348 49.408C18.2108 49.2053 18.4214 49.0453 18.6668 48.928C18.9121 48.8107 19.1894 48.752 19.4988 48.752C19.8241 48.752 20.1148 48.8213 20.3708 48.96C20.6321 49.0933 20.8481 49.272 21.0188 49.496C21.1894 49.72 21.3121 49.9787 21.3868 50.272C21.4668 50.56 21.4881 50.8587 21.4508 51.168H18.4108ZM22.1681 48.864H23.0321V49.424H23.0481C23.1761 49.184 23.3547 49.0133 23.5841 48.912C23.8134 48.8053 24.0614 48.752 24.3281 48.752C24.6534 48.752 24.9361 48.8107 25.1761 48.928C25.4214 49.04 25.6241 49.1973 25.7841 49.4C25.9441 49.5973 26.0641 49.8293 26.1441 50.096C26.2241 50.3627 26.2641 50.648 26.2641 50.952C26.2641 51.2293 26.2267 51.4987 26.1521 51.76C26.0827 52.0213 25.9734 52.2533 25.8241 52.456C25.6801 52.6533 25.4961 52.8133 25.2721 52.936C25.0481 53.0533 24.7841 53.112 24.4801 53.112C24.3467 53.112 24.2134 53.0987 24.0801 53.072C23.9467 53.0507 23.8187 53.0133 23.6961 52.96C23.5734 52.9067 23.4587 52.84 23.3521 52.76C23.2507 52.6747 23.1654 52.576 23.0961 52.464H23.0801V54.528H22.1681V48.864ZM25.3521 50.936C25.3521 50.7493 25.3281 50.568 25.2801 50.392C25.2321 50.216 25.1601 50.0613 25.0641 49.928C24.9681 49.7893 24.8481 49.68 24.7041 49.6C24.5601 49.5147 24.3947 49.472 24.2081 49.472C23.8241 49.472 23.5334 49.6053 23.3361 49.872C23.1441 50.1387 23.0481 50.4933 23.0481 50.936C23.0481 51.144 23.0721 51.3387 23.1201 51.52C23.1734 51.696 23.2507 51.848 23.3521 51.976C23.4534 52.104 23.5734 52.2053 23.7121 52.28C23.8561 52.3547 24.0214 52.392 24.2081 52.392C24.4161 52.392 24.5921 52.3493 24.7361 52.264C24.8801 52.1787 24.9974 52.0693 25.0881 51.936C25.1841 51.7973 25.2507 51.6427 25.2881 51.472C25.3307 51.296 25.3521 51.1173 25.3521 50.936ZM30.5867 53H29.6747V51.424C29.552 51.472 29.4 51.52 29.2187 51.568C29.0374 51.616 28.8267 51.64 28.5867 51.64C28.048 51.64 27.64 51.5227 27.3627 51.288C27.0907 51.0533 26.9547 50.7013 26.9547 50.232V48.864H27.8667V49.992C27.8667 50.3173 27.936 50.5547 28.0747 50.704C28.2134 50.848 28.44 50.92 28.7547 50.92C28.9254 50.92 29.0987 50.8987 29.2747 50.856C29.4507 50.808 29.584 50.7653 29.6747 50.728V48.864H30.5867V53ZM35.0143 52.08C35.0143 52.192 35.0276 52.272 35.0543 52.32C35.0863 52.368 35.145 52.392 35.2303 52.392H35.3263C35.3636 52.392 35.4063 52.3867 35.4543 52.376V53.008C35.4223 53.0187 35.3796 53.0293 35.3263 53.04C35.2783 53.056 35.2276 53.0693 35.1743 53.08C35.121 53.0907 35.0676 53.0987 35.0143 53.104C34.961 53.1093 34.9156 53.112 34.8783 53.112C34.6916 53.112 34.537 53.0747 34.4143 53C34.2916 52.9253 34.2116 52.7947 34.1743 52.608C33.993 52.784 33.769 52.912 33.5023 52.992C33.241 53.072 32.9876 53.112 32.7423 53.112C32.5556 53.112 32.377 53.0853 32.2063 53.032C32.0356 52.984 31.8836 52.912 31.7503 52.816C31.6223 52.7147 31.5183 52.5893 31.4383 52.44C31.3636 52.2853 31.3263 52.1067 31.3263 51.904C31.3263 51.648 31.3716 51.44 31.4623 51.28C31.5583 51.12 31.681 50.9947 31.8303 50.904C31.985 50.8133 32.1556 50.7493 32.3423 50.712C32.5343 50.6693 32.7263 50.6373 32.9183 50.616C33.0836 50.584 33.241 50.5627 33.3903 50.552C33.5396 50.536 33.6703 50.512 33.7823 50.48C33.8996 50.448 33.9903 50.4 34.0543 50.336C34.1236 50.2667 34.1583 50.1653 34.1583 50.032C34.1583 49.9147 34.129 49.8187 34.0703 49.744C34.017 49.6693 33.9476 49.6133 33.8623 49.576C33.7823 49.5333 33.6916 49.5067 33.5903 49.496C33.489 49.48 33.393 49.472 33.3023 49.472C33.0463 49.472 32.8356 49.5253 32.6703 49.632C32.505 49.7387 32.4116 49.904 32.3903 50.128H31.4783C31.4943 49.8613 31.5583 49.64 31.6703 49.464C31.7823 49.288 31.9236 49.1467 32.0943 49.04C32.2703 48.9333 32.4676 48.8587 32.6863 48.816C32.905 48.7733 33.129 48.752 33.3583 48.752C33.561 48.752 33.761 48.7733 33.9583 48.816C34.1556 48.8587 34.3316 48.928 34.4863 49.024C34.6463 49.12 34.7743 49.2453 34.8703 49.4C34.9663 49.5493 35.0143 49.7333 35.0143 49.952V52.08ZM34.1023 50.928C33.9636 51.0187 33.793 51.0747 33.5903 51.096C33.3876 51.112 33.185 51.1387 32.9823 51.176C32.8863 51.192 32.793 51.216 32.7023 51.248C32.6116 51.2747 32.5316 51.3147 32.4623 51.368C32.393 51.416 32.337 51.4827 32.2943 51.568C32.257 51.648 32.2383 51.7467 32.2383 51.864C32.2383 51.9653 32.2676 52.0507 32.3263 52.12C32.385 52.1893 32.4543 52.2453 32.5343 52.288C32.6196 52.3253 32.7103 52.352 32.8063 52.368C32.9076 52.384 32.9983 52.392 33.0783 52.392C33.1796 52.392 33.289 52.3787 33.4063 52.352C33.5236 52.3253 33.633 52.28 33.7343 52.216C33.841 52.152 33.929 52.072 33.9983 51.976C34.0676 51.8747 34.1023 51.752 34.1023 51.608V50.928ZM39.2836 49.544H37.9156V53H37.0036V49.544H35.5796V48.864H39.2836V49.544ZM39.8712 48.864H40.7832V50.536L42.4312 48.864H43.5512L41.9672 50.384L43.7032 53H42.5912L41.3272 50.992L40.7832 51.52V53H39.8712V48.864ZM44.1681 48.864H45.0801V51.704H45.0961L46.9121 48.864H48.0401V53H47.1281V50.136H47.1121L45.2561 53H44.1681V48.864Z" fill="#595E60"/>
<g clip-path="url(#clip0_303_1679)">
<path d="M30.3333 11.9069L30.6045 12.0556C31.0912 12.3223 31.427 12.7866 31.5259 13.3294L31.766 14.6474C31.7782 14.7143 31.8338 14.7648 31.9016 14.7705C31.9058 14.7708 31.91 14.771 31.9142 14.771C31.9771 14.771 32.034 14.7317 32.0558 14.6717L33.4769 10.7382C33.5988 10.4007 33.5821 10.0359 33.4296 9.711C33.2772 9.38616 33.0074 9.14015 32.6699 9.01826C32.3386 8.89854 31.9618 8.91594 31.6427 9.06559C31.3179 9.21802 31.0719 9.48788 30.9502 9.82519L30.2641 11.7237C30.2389 11.7935 30.2682 11.8713 30.3333 11.9069Z" fill="#595E60"/>
<path d="M32.8758 13.9646C32.8955 14.0021 32.9302 14.0295 32.9713 14.0401L33.3557 14.1394C33.8088 14.2563 34.1964 14.5413 34.4472 14.9416L34.8412 15.5703C34.8689 15.6144 34.9173 15.6409 34.9687 15.6409C34.974 15.6409 34.9793 15.6406 34.9847 15.64C35.042 15.6338 35.0908 15.5956 35.1104 15.5414L37.185 9.79881C37.3069 9.46133 37.2902 9.09655 37.1378 8.77165C36.9855 8.44687 36.7156 8.2008 36.3781 8.07879C36.0468 7.95906 35.6695 7.97653 35.351 8.12612C35.026 8.27861 34.78 8.54841 34.6582 8.88577L32.8674 13.843C32.8529 13.8831 32.856 13.9272 32.8758 13.9646Z" fill="#595E60"/>
<path d="M34.1827 16.3298C34.1827 15.5891 33.5801 14.9864 32.8393 14.9864C32.0985 14.9864 31.4959 15.5891 31.4959 16.3298V21.5332H31.0141V14.0803C31.0141 13.3396 30.4115 12.737 29.6707 12.737C28.93 12.737 28.3274 13.3396 28.3274 14.0803V21.5331H27.8456V11.9371C27.8456 11.1964 27.2429 10.5938 26.5021 10.5938C25.7614 10.5938 25.1588 11.1964 25.1588 11.9371V21.5332H24.677V14.0803C24.677 13.3396 24.0744 12.737 23.3336 12.737C22.5928 12.737 21.9902 13.3396 21.9902 14.0803V22.5859L20.448 20.8052C20.1721 20.4867 19.8338 20.2807 19.4952 20.2253C19.4327 20.2151 19.3698 20.2099 19.3081 20.2099C19.0252 20.2099 18.761 20.3145 18.523 20.5208C17.8551 21.0992 17.7579 21.8441 18.2278 22.8013L21.9955 30.0046L21.4975 35.838C21.4939 35.88 21.5082 35.9216 21.5366 35.9526C21.5652 35.9837 21.6054 36.0013 21.6475 36.0013H34.5501C34.5924 36.0013 34.6327 35.9836 34.6612 35.9524C34.6899 35.9212 34.7039 35.8796 34.7002 35.8375L34.1826 30.0296V16.3298H34.1827Z" fill="#595E60"/>
<path d="M41.1767 14.362C40.8454 14.2424 40.4684 14.2597 40.1496 14.4094C39.825 14.5617 39.5791 14.8313 39.4572 15.1684L37.6891 20.0629L37.236 19.8991L39.7684 12.8896C40.0199 12.193 39.6578 11.4215 38.9612 11.1698C38.8144 11.1168 38.6613 11.0898 38.5058 11.0898C37.9423 11.0898 37.4343 11.4458 37.2418 11.9758L35.0651 18.001C35.0591 18.0174 35.0562 18.0348 35.0562 18.0522V29.5611C35.0562 29.5655 35.0563 29.5699 35.0568 29.5744L35.4821 34.3636C35.4884 34.4358 35.5456 34.4932 35.6178 34.5002C35.6226 34.5006 35.6274 34.5009 35.6321 34.5009C35.6986 34.5009 35.7582 34.4569 35.7767 34.3917L37.3304 28.964L41.9841 16.0818C42.2356 15.3854 41.8735 14.6138 41.1767 14.362Z" fill="#595E60"/>
</g>
<defs>
<clipPath id="clip0_303_1679">
<rect width="28" height="28" fill="white" transform="translate(16 8)"/>
</clipPath>
</defs>
</svg>
