<svg width="102" height="102" viewBox="0 0 102 102" fill="none" xmlns="http://www.w3.org/2000/svg">
<path d="M101.948 53.6857C101.997 54.0359 101.964 54.3927 101.852 54.7281C101.74 55.0634 101.551 55.3682 101.301 55.6182C101.051 55.8683 100.747 56.0568 100.411 56.169C100.076 56.2812 99.719 56.314 99.3688 56.2648C96.3106 56.2648 93.1811 56.2648 90.0821 56.2648C88.604 56.2648 88.3695 56.5196 88.3695 58.0181C88.3695 68.4432 88.3695 78.8682 88.3695 89.2932C88.4379 90.2101 88.3095 91.131 87.9931 91.9942C87.6766 92.8574 87.1793 93.643 86.5345 94.2984C85.8897 94.9538 85.1123 95.4639 84.2544 95.7944C83.3965 96.1249 82.4778 96.2683 81.56 96.2149H64.2302C61.8958 96.2149 61.2638 95.5421 61.2638 93.1567C61.2638 87.8151 61.2638 82.4735 61.2638 77.1318C61.2563 74.6743 60.3613 72.3022 58.7436 70.4522C57.1258 68.6023 54.8942 67.399 52.4596 67.064C50.025 66.7289 47.5513 67.2847 45.494 68.6289C43.4367 69.9731 41.9342 72.0153 41.2632 74.3795C40.9441 75.5106 40.7829 76.6803 40.7841 77.8556C40.7841 82.9526 40.7841 88.0496 40.7841 93.2179C40.7841 95.5319 40.0807 96.2761 37.7259 96.2761H20.6714C16.2472 96.2761 13.5356 93.6257 13.5968 89.2117C13.5968 84.1147 13.5968 79.1196 13.5968 74.0736C13.5968 68.732 13.5968 63.3904 13.5968 58.0487C13.5968 56.6318 13.3317 56.3667 11.925 56.3667C9.0163 56.3667 6.10762 56.3667 3.19894 56.3667C0.732004 56.3667 0.00823245 55.6837 0.00823245 53.3085C0.00823245 51.2697 0.00823245 49.2309 0.00823245 47.1208C-0.038594 46.2929 0.114851 45.466 0.455563 44.71C0.796274 43.9541 1.31421 43.2914 1.96547 42.7782C14.9322 31.9862 27.8921 21.1907 40.8453 10.3919L44.4131 7.4255C46.256 5.85968 48.5955 5 51.0137 5C53.432 5 55.7715 5.85968 57.6143 7.4255L99.9601 42.7476C100.582 43.2287 101.084 43.8471 101.427 44.5545C101.77 45.2619 101.945 46.039 101.938 46.8252C101.948 49.1494 101.948 51.4328 101.948 53.6857Z" fill="white"/>
<path d="M85.6674 27.3128L77.7161 20.7071C74.6579 18.1688 71.5998 15.6101 68.5416 13.0922C68.2848 12.9222 68.0795 12.685 67.9483 12.4064C67.8171 12.1277 67.7649 11.8184 67.7974 11.5122C67.8586 10.819 67.7974 10.1156 67.7974 9.41221C67.7679 8.96846 67.8304 8.52341 67.9808 8.1049C68.1312 7.6864 68.3664 7.30345 68.6717 6.98002C68.9769 6.6566 69.3456 6.39966 69.7548 6.22529C70.1639 6.05091 70.6046 5.96287 71.0493 5.96665C74.8414 5.90549 78.6336 5.90549 82.4257 5.96665C83.261 5.94986 84.0698 6.26032 84.6793 6.83173C85.2888 7.40314 85.6507 8.1902 85.6878 9.02484C85.7286 15.0801 85.6674 21.0741 85.6674 27.3128Z" fill="white"/>
</svg>
