<svg width="36" height="26" viewBox="0 0 36 26" fill="none" xmlns="http://www.w3.org/2000/svg">
<path d="M34.7207 0H1.28595C0.944896 0 0.617809 0.136964 0.376646 0.380761C0.135484 0.624559 0 0.955218 0 1.3V24.7C0 25.0448 0.135484 25.3754 0.376646 25.6192C0.617809 25.863 0.944896 26 1.28595 26H29.5769C29.9179 26 30.245 25.863 30.4862 25.6192C30.7273 25.3754 30.8628 25.0448 30.8628 24.7V9.49L35.788 2.015C35.9154 1.81948 35.9882 1.59282 35.9987 1.35895C36.0092 1.12508 35.957 0.892683 35.8477 0.6863C35.7384 0.479917 35.576 0.307207 35.3776 0.186408C35.1792 0.0656102 34.9523 0.00120705 34.7207 0Z" fill="white"/>
</svg>
