<svg width="30" height="28" viewBox="0 0 30 28" fill="none" xmlns="http://www.w3.org/2000/svg">
<path fill-rule="evenodd" clip-rule="evenodd" d="M6.25 8.5C8.04493 8.5 9.5 7.04493 9.5 5.25C9.5 3.45507 8.04493 2 6.25 2C4.45507 2 3 3.45507 3 5.25C3 7.04493 4.45507 8.5 6.25 8.5ZM15 8.5C16.7949 8.5 18.25 7.04493 18.25 5.25C18.25 3.45507 16.7949 2 15 2C13.2051 2 11.75 3.45507 11.75 5.25C11.75 7.04493 13.2051 8.5 15 8.5ZM23.75 8.5C25.5449 8.5 27 7.04493 27 5.25C27 3.45507 25.5449 2 23.75 2C21.9551 2 20.5 3.45507 20.5 5.25C20.5 7.04493 21.9551 8.5 23.75 8.5ZM6.25 17.25C8.04493 17.25 9.5 15.7949 9.5 14C9.5 12.2051 8.04493 10.75 6.25 10.75C4.45507 10.75 3 12.2051 3 14C3 15.7949 4.45507 17.25 6.25 17.25ZM15 17.25C16.7949 17.25 18.25 15.7949 18.25 14C18.25 12.2051 16.7949 10.75 15 10.75C13.2051 10.75 11.75 12.2051 11.75 14C11.75 15.7949 13.2051 17.25 15 17.25ZM23.75 17.25C25.5449 17.25 27 15.7949 27 14C27 12.2051 25.5449 10.75 23.75 10.75C21.9551 10.75 20.5 12.2051 20.5 14C20.5 15.7949 21.9551 17.25 23.75 17.25ZM6.25 26C8.04493 26 9.5 24.5449 9.5 22.75C9.5 20.9551 8.04493 19.5 6.25 19.5C4.45507 19.5 3 20.9551 3 22.75C3 24.5449 4.45507 26 6.25 26ZM15 26C16.7949 26 18.25 24.5449 18.25 22.75C18.25 20.9551 16.7949 19.5 15 19.5C13.2051 19.5 11.75 20.9551 11.75 22.75C11.75 24.5449 13.2051 26 15 26ZM23.75 26C25.5449 26 27 24.5449 27 22.75C27 20.9551 25.5449 19.5 23.75 19.5C21.9551 19.5 20.5 20.9551 20.5 22.75C20.5 24.5449 21.9551 26 23.75 26Z" fill="#A3A3A3"/>
</svg>
