<svg width="60" height="60" viewBox="0 0 60 60" fill="none" xmlns="http://www.w3.org/2000/svg">
<g opacity="0.24">
<path fill-rule="evenodd" clip-rule="evenodd" d="M48.5617 16.4114C44.9159 13.6089 45.3654 13.0083 39.4723 13.0083H20.5444C17.2482 12.8582 13.4526 14.7599 11.405 16.7617C10.4062 17.8126 9.80689 18.1129 10.0566 19.2139C10.9056 22.8671 13.7523 29.1727 17.3481 30.4739C20.894 31.725 24.0403 30.6741 26.5873 28.0717C29.5339 25.2192 30.4828 25.2192 33.3794 28.0717C35.9764 30.6741 39.0728 31.725 42.6186 30.4739C46.2644 29.1727 49.111 22.8671 49.9101 19.2139C50.2098 18.1129 49.7603 17.5123 48.5617 16.4114ZM16.1495 20.6651C19.7952 18.7134 23.6907 20.0646 25.3887 23.818C21.743 25.7697 17.8475 24.4685 16.1495 20.6651ZM34.578 23.818C36.326 20.0646 40.1715 18.7134 43.8672 20.6651C42.1192 24.4685 38.2737 25.7697 34.578 23.818Z" fill="white"/>
<path d="M18.2209 47.288H19.6289L21.2049 51.76H21.2209L22.7569 47.288H24.1489V53H23.1969V48.592H23.1809L21.5969 53H20.7729L19.1889 48.592H19.1729V53H18.2209V47.288ZM28.6823 52.08C28.6823 52.192 28.6956 52.272 28.7223 52.32C28.7543 52.368 28.8129 52.392 28.8983 52.392H28.9943C29.0316 52.392 29.0743 52.3867 29.1223 52.376V53.008C29.0903 53.0187 29.0476 53.0293 28.9943 53.04C28.9463 53.056 28.8956 53.0693 28.8423 53.08C28.7889 53.0907 28.7356 53.0987 28.6823 53.104C28.6289 53.1093 28.5836 53.112 28.5463 53.112C28.3596 53.112 28.2049 53.0747 28.0823 53C27.9596 52.9253 27.8796 52.7947 27.8423 52.608C27.6609 52.784 27.4369 52.912 27.1703 52.992C26.9089 53.072 26.6556 53.112 26.4103 53.112C26.2236 53.112 26.0449 53.0853 25.8743 53.032C25.7036 52.984 25.5516 52.912 25.4183 52.816C25.2903 52.7147 25.1863 52.5893 25.1063 52.44C25.0316 52.2853 24.9943 52.1067 24.9943 51.904C24.9943 51.648 25.0396 51.44 25.1303 51.28C25.2263 51.12 25.3489 50.9947 25.4983 50.904C25.6529 50.8133 25.8236 50.7493 26.0103 50.712C26.2023 50.6693 26.3943 50.6373 26.5863 50.616C26.7516 50.584 26.9089 50.5627 27.0583 50.552C27.2076 50.536 27.3383 50.512 27.4503 50.48C27.5676 50.448 27.6583 50.4 27.7223 50.336C27.7916 50.2667 27.8263 50.1653 27.8263 50.032C27.8263 49.9147 27.7969 49.8187 27.7383 49.744C27.6849 49.6693 27.6156 49.6133 27.5303 49.576C27.4503 49.5333 27.3596 49.5067 27.2583 49.496C27.1569 49.48 27.0609 49.472 26.9703 49.472C26.7143 49.472 26.5036 49.5253 26.3383 49.632C26.1729 49.7387 26.0796 49.904 26.0583 50.128H25.1463C25.1623 49.8613 25.2263 49.64 25.3383 49.464C25.4503 49.288 25.5916 49.1467 25.7623 49.04C25.9383 48.9333 26.1356 48.8587 26.3543 48.816C26.5729 48.7733 26.7969 48.752 27.0263 48.752C27.2289 48.752 27.4289 48.7733 27.6263 48.816C27.8236 48.8587 27.9996 48.928 28.1543 49.024C28.3143 49.12 28.4423 49.2453 28.5383 49.4C28.6343 49.5493 28.6823 49.7333 28.6823 49.952V52.08ZM27.7703 50.928C27.6316 51.0187 27.4609 51.0747 27.2583 51.096C27.0556 51.112 26.8529 51.1387 26.6503 51.176C26.5543 51.192 26.4609 51.216 26.3703 51.248C26.2796 51.2747 26.1996 51.3147 26.1303 51.368C26.0609 51.416 26.0049 51.4827 25.9623 51.568C25.9249 51.648 25.9063 51.7467 25.9063 51.864C25.9063 51.9653 25.9356 52.0507 25.9943 52.12C26.0529 52.1893 26.1223 52.2453 26.2023 52.288C26.2876 52.3253 26.3783 52.352 26.4743 52.368C26.5756 52.384 26.6663 52.392 26.7463 52.392C26.8476 52.392 26.9569 52.3787 27.0743 52.352C27.1916 52.3253 27.3009 52.28 27.4023 52.216C27.5089 52.152 27.5969 52.072 27.6663 51.976C27.7356 51.8747 27.7703 51.752 27.7703 51.608V50.928ZM32.4556 50.248C32.4183 49.992 32.3143 49.8 32.1436 49.672C31.9783 49.5387 31.7676 49.472 31.5116 49.472C31.3943 49.472 31.2689 49.4933 31.1356 49.536C31.0023 49.5733 30.8796 49.648 30.7676 49.76C30.6556 49.8667 30.5623 50.0187 30.4876 50.216C30.4129 50.408 30.3756 50.6613 30.3756 50.976C30.3756 51.1467 30.3943 51.3173 30.4316 51.488C30.4743 51.6587 30.5383 51.8107 30.6236 51.944C30.7143 52.0773 30.8289 52.1867 30.9676 52.272C31.1063 52.352 31.2743 52.392 31.4716 52.392C31.7383 52.392 31.9569 52.3093 32.1276 52.144C32.3036 51.9787 32.4129 51.7467 32.4556 51.448H33.3676C33.2823 51.9867 33.0769 52.4 32.7516 52.688C32.4316 52.9707 32.0049 53.112 31.4716 53.112C31.1463 53.112 30.8583 53.0587 30.6076 52.952C30.3623 52.84 30.1543 52.6907 29.9836 52.504C29.8129 52.312 29.6823 52.0853 29.5916 51.824C29.5063 51.5627 29.4636 51.28 29.4636 50.976C29.4636 50.6667 29.5063 50.376 29.5916 50.104C29.6769 49.832 29.8049 49.5973 29.9756 49.4C30.1463 49.1973 30.3569 49.04 30.6076 48.928C30.8636 48.8107 31.1623 48.752 31.5036 48.752C31.7436 48.752 31.9703 48.784 32.1836 48.848C32.4023 48.9067 32.5943 48.9973 32.7596 49.12C32.9303 49.2427 33.0689 49.3973 33.1756 49.584C33.2823 49.7707 33.3463 49.992 33.3676 50.248H32.4556ZM34.1329 48.864H35.0449V50.536L36.6929 48.864H37.8129L36.2289 50.384L37.9649 53H36.8529L35.5889 50.992L35.0449 51.52V53H34.1329V48.864ZM41.8698 52.08C41.8698 52.192 41.8831 52.272 41.9098 52.32C41.9418 52.368 42.0004 52.392 42.0858 52.392H42.1818C42.2191 52.392 42.2618 52.3867 42.3098 52.376V53.008C42.2778 53.0187 42.2351 53.0293 42.1818 53.04C42.1338 53.056 42.0831 53.0693 42.0298 53.08C41.9764 53.0907 41.9231 53.0987 41.8698 53.104C41.8164 53.1093 41.7711 53.112 41.7338 53.112C41.5471 53.112 41.3924 53.0747 41.2698 53C41.1471 52.9253 41.0671 52.7947 41.0298 52.608C40.8484 52.784 40.6244 52.912 40.3578 52.992C40.0964 53.072 39.8431 53.112 39.5978 53.112C39.4111 53.112 39.2324 53.0853 39.0618 53.032C38.8911 52.984 38.7391 52.912 38.6058 52.816C38.4778 52.7147 38.3738 52.5893 38.2938 52.44C38.2191 52.2853 38.1818 52.1067 38.1818 51.904C38.1818 51.648 38.2271 51.44 38.3178 51.28C38.4138 51.12 38.5364 50.9947 38.6858 50.904C38.8404 50.8133 39.0111 50.7493 39.1978 50.712C39.3898 50.6693 39.5818 50.6373 39.7738 50.616C39.9391 50.584 40.0964 50.5627 40.2458 50.552C40.3951 50.536 40.5258 50.512 40.6378 50.48C40.7551 50.448 40.8458 50.4 40.9098 50.336C40.9791 50.2667 41.0138 50.1653 41.0138 50.032C41.0138 49.9147 40.9844 49.8187 40.9258 49.744C40.8724 49.6693 40.8031 49.6133 40.7178 49.576C40.6378 49.5333 40.5471 49.5067 40.4458 49.496C40.3444 49.48 40.2484 49.472 40.1578 49.472C39.9018 49.472 39.6911 49.5253 39.5258 49.632C39.3604 49.7387 39.2671 49.904 39.2458 50.128H38.3338C38.3498 49.8613 38.4138 49.64 38.5258 49.464C38.6378 49.288 38.7791 49.1467 38.9498 49.04C39.1258 48.9333 39.3231 48.8587 39.5418 48.816C39.7604 48.7733 39.9844 48.752 40.2138 48.752C40.4164 48.752 40.6164 48.7733 40.8138 48.816C41.0111 48.8587 41.1871 48.928 41.3418 49.024C41.5018 49.12 41.6298 49.2453 41.7258 49.4C41.8218 49.5493 41.8698 49.7333 41.8698 49.952V52.08ZM40.9578 50.928C40.8191 51.0187 40.6484 51.0747 40.4458 51.096C40.2431 51.112 40.0404 51.1387 39.8378 51.176C39.7418 51.192 39.6484 51.216 39.5578 51.248C39.4671 51.2747 39.3871 51.3147 39.3178 51.368C39.2484 51.416 39.1924 51.4827 39.1498 51.568C39.1124 51.648 39.0938 51.7467 39.0938 51.864C39.0938 51.9653 39.1231 52.0507 39.1818 52.12C39.2404 52.1893 39.3098 52.2453 39.3898 52.288C39.4751 52.3253 39.5658 52.352 39.6618 52.368C39.7631 52.384 39.8538 52.392 39.9338 52.392C40.0351 52.392 40.1444 52.3787 40.2618 52.352C40.3791 52.3253 40.4884 52.28 40.5898 52.216C40.6964 52.152 40.7844 52.072 40.8538 51.976C40.9231 51.8747 40.9578 51.752 40.9578 51.608V50.928Z" fill="white"/>
</g>
</svg>
