<svg width="24" height="24" viewBox="0 0 24 24" fill="none" xmlns="http://www.w3.org/2000/svg">
<g id="24 / basic / mic">
<path id="icon" fill-rule="evenodd" clip-rule="evenodd" d="M12 1C14.2091 1 16 2.79086 16 5V12C16 14.2091 14.2091 16 12 16C9.79086 16 8 14.2091 8 12V5C8 2.79086 9.79086 1 12 1ZM13 19.9381V21H16V23H8V21H11V19.9381C7.05369 19.446 4 16.0796 4 12V10H6V12C6 15.3137 8.68629 18 12 18C15.3137 18 18 15.3137 18 12V10H20V12C20 16.0796 16.9463 19.446 13 19.9381ZM10 5C10 3.89543 10.8954 3 12 3C13.1046 3 14 3.89543 14 5V12C14 13.1046 13.1046 14 12 14C10.8954 14 10 13.1046 10 12V5Z" fill="white"/>
</g>
</svg>
