<svg width="32" height="42" viewBox="0 0 32 42" fill="none" xmlns="http://www.w3.org/2000/svg">
<path opacity="0.2" d="M15 2C0 2 0 12.1665 0 22C0 38.5005 8.1665 42 15 42C21.8325 42 30 38.5005 30 22C30 12.1665 30 2 15 2ZM26.417 14.381C23.3625 14.9595 20.035 15.247 16.6665 15.316V5.3855C23.742 5.81 25.8145 9.043 26.417 14.381ZM13.3335 5.3855V15.316C9.964 15.247 6.6375 14.959 3.583 14.381C4.1855 9.043 6.2575 5.81 13.3335 5.3855ZM15 38.6665C3.3335 38.6665 3.3335 26.1665 3.3335 22C3.3335 20.5075 3.3345 19.1015 3.37 17.7825C7.065 18.409 10.9045 18.6665 15 18.6665C19.0955 18.6665 22.935 18.409 26.631 17.7825C26.6655 19.101 26.6665 20.507 26.6665 21.9995C26.6665 26.1665 26.6665 38.6665 15 38.6665Z" fill="white"/>
<path d="M20 12V0C28.7085 0.512965 31.2585 4.41972 32 10.8701C28.2408 11.5686 24.1469 11.9166 20 12Z" fill="white"/>
</svg>
