<svg width="60" height="60" viewBox="0 0 60 60" fill="none" xmlns="http://www.w3.org/2000/svg">
<g opacity="0.24">
<path d="M15.0355 33.1327C15.5343 33.3451 16.1757 33.5929 16.9239 33.8761C16.9952 33.9115 17.0664 33.8407 17.0664 33.8053C17.0664 32.6018 17.3158 23.5398 20.5938 17.0265C20.5938 16.9911 20.6294 16.9911 20.665 16.9911H22.0546C22.1259 16.9911 22.1615 17.0619 22.1259 17.1327C21.6627 18.0531 18.9192 23.823 18.5272 34.4071C18.5272 34.4425 18.5629 34.4779 18.5985 34.5133C20.8788 35.2566 23.7292 35.9646 26.3302 36C26.9715 36 27.5772 35.646 27.8623 35.0442C28.3255 34.0885 29.0737 32.5664 29.5369 31.5752C29.715 31.1858 30.2495 31.1858 30.4276 31.5752C30.8908 32.5664 31.6391 34.0885 32.1022 35.0442C32.3873 35.646 32.993 36 33.6343 36C37.9456 35.9292 42.8269 34.0885 44.9647 33.2035C45.606 32.9204 46.0336 32.2832 45.9979 31.5752C45.1428 17.0973 42.3637 13.6637 40.6534 12C40.3328 11.6814 40.1546 11.2566 40.1546 10.7965V9.06195C40.1546 8.46018 39.6558 8 39.0857 8H20.9144C20.3087 8 19.8455 8.49558 19.8455 9.06195V10.7965C19.8455 11.2566 19.6674 11.6814 19.3467 12C17.6365 13.5929 14.8574 17.0265 14.0022 31.5044C13.9666 32.2124 14.3585 32.8496 15.0355 33.1327Z" fill="white"/>
<path d="M20.7626 52.136H22.8826V47.288H23.8826V53H16.6426V47.288H17.6426V52.136H19.7626V47.288H20.7626V52.136ZM28.2328 49.544H26.8648V53H25.9528V49.544H24.5288V48.864H28.2328V49.544ZM32.2604 52.08C32.2604 52.192 32.2737 52.272 32.3004 52.32C32.3324 52.368 32.3911 52.392 32.4764 52.392H32.5724C32.6097 52.392 32.6524 52.3867 32.7004 52.376V53.008C32.6684 53.0187 32.6257 53.0293 32.5724 53.04C32.5244 53.056 32.4737 53.0693 32.4204 53.08C32.3671 53.0907 32.3137 53.0987 32.2604 53.104C32.2071 53.1093 32.1617 53.112 32.1244 53.112C31.9377 53.112 31.7831 53.0747 31.6604 53C31.5377 52.9253 31.4577 52.7947 31.4204 52.608C31.2391 52.784 31.0151 52.912 30.7484 52.992C30.4871 53.072 30.2337 53.112 29.9884 53.112C29.8017 53.112 29.6231 53.0853 29.4524 53.032C29.2817 52.984 29.1297 52.912 28.9964 52.816C28.8684 52.7147 28.7644 52.5893 28.6844 52.44C28.6097 52.2853 28.5724 52.1067 28.5724 51.904C28.5724 51.648 28.6177 51.44 28.7084 51.28C28.8044 51.12 28.9271 50.9947 29.0764 50.904C29.2311 50.8133 29.4017 50.7493 29.5884 50.712C29.7804 50.6693 29.9724 50.6373 30.1644 50.616C30.3297 50.584 30.4871 50.5627 30.6364 50.552C30.7857 50.536 30.9164 50.512 31.0284 50.48C31.1457 50.448 31.2364 50.4 31.3004 50.336C31.3697 50.2667 31.4044 50.1653 31.4044 50.032C31.4044 49.9147 31.3751 49.8187 31.3164 49.744C31.2631 49.6693 31.1937 49.6133 31.1084 49.576C31.0284 49.5333 30.9377 49.5067 30.8364 49.496C30.7351 49.48 30.6391 49.472 30.5484 49.472C30.2924 49.472 30.0817 49.5253 29.9164 49.632C29.7511 49.7387 29.6577 49.904 29.6364 50.128H28.7244C28.7404 49.8613 28.8044 49.64 28.9164 49.464C29.0284 49.288 29.1697 49.1467 29.3404 49.04C29.5164 48.9333 29.7137 48.8587 29.9324 48.816C30.1511 48.7733 30.3751 48.752 30.6044 48.752C30.8071 48.752 31.0071 48.7733 31.2044 48.816C31.4017 48.8587 31.5777 48.928 31.7324 49.024C31.8924 49.12 32.0204 49.2453 32.1164 49.4C32.2124 49.5493 32.2604 49.7333 32.2604 49.952V52.08ZM31.3484 50.928C31.2097 51.0187 31.0391 51.0747 30.8364 51.096C30.6337 51.112 30.4311 51.1387 30.2284 51.176C30.1324 51.192 30.0391 51.216 29.9484 51.248C29.8577 51.2747 29.7777 51.3147 29.7084 51.368C29.6391 51.416 29.5831 51.4827 29.5404 51.568C29.5031 51.648 29.4844 51.7467 29.4844 51.864C29.4844 51.9653 29.5137 52.0507 29.5724 52.12C29.6311 52.1893 29.7004 52.2453 29.7804 52.288C29.8657 52.3253 29.9564 52.352 30.0524 52.368C30.1537 52.384 30.2444 52.392 30.3244 52.392C30.4257 52.392 30.5351 52.3787 30.6524 52.352C30.7697 52.3253 30.8791 52.28 30.9804 52.216C31.0871 52.152 31.1751 52.072 31.2444 51.976C31.3137 51.8747 31.3484 51.752 31.3484 51.608V50.928ZM33.2657 48.864H34.1777V50.576H36.2337V48.864H37.1457V53H36.2337V51.256H34.1777V53H33.2657V48.864ZM39.0683 52.32H40.2443C40.4043 52.32 40.543 52.272 40.6603 52.176C40.7777 52.08 40.8363 51.9253 40.8363 51.712C40.8363 51.4987 40.7777 51.352 40.6603 51.272C40.543 51.192 40.4043 51.152 40.2443 51.152H39.0683V52.32ZM38.1563 48.864H39.0683V50.448H40.2843C40.5937 50.448 40.8417 50.4907 41.0283 50.576C41.2203 50.6613 41.3697 50.768 41.4763 50.896C41.583 51.0187 41.655 51.1547 41.6923 51.304C41.7297 51.4533 41.7483 51.592 41.7483 51.72C41.7483 51.848 41.7297 51.9867 41.6923 52.136C41.655 52.2853 41.583 52.424 41.4763 52.552C41.3697 52.68 41.2203 52.7867 41.0283 52.872C40.8417 52.9573 40.5937 53 40.2843 53H38.1563V48.864ZM42.5163 53V48.864H43.4283V53H42.5163Z" fill="white"/>
</g>
</svg>
