<svg width="46" height="46" viewBox="0 0 46 46" fill="none" xmlns="http://www.w3.org/2000/svg">
<path fill-rule="evenodd" clip-rule="evenodd" d="M23 45.9163C10.3435 45.9163 0.083334 35.6562 0.083334 22.9997C0.083334 10.3431 10.3435 0.0830078 23 0.0830078C35.6565 0.0830078 45.9167 10.3431 45.9167 22.9997C45.9167 35.6562 35.6565 45.9163 23 45.9163ZM23 41.7497C33.3553 41.7497 41.75 33.355 41.75 22.9997C41.75 12.6443 33.3553 4.24967 23 4.24967C12.6447 4.24967 4.25 12.6443 4.25 22.9997C4.25 33.355 12.6447 41.7497 23 41.7497ZM33.2303 30.1839L29.8222 27.7868C28.2694 29.9947 25.749 31.333 23 31.333C20.251 31.333 17.7306 29.9947 16.1778 27.7868L12.7697 30.1839C15.0947 33.4897 18.8801 35.4997 23 35.4997C27.1199 35.4997 30.9053 33.4897 33.2303 30.1839ZM27.1667 20.9163V16.7497H31.3333V20.9163H27.1667ZM14.6667 16.7497V20.9163H18.8333V16.7497H14.6667Z" fill="white"/>
</svg>
