<svg width="104" height="387" viewBox="0 0 104 387" fill="none" xmlns="http://www.w3.org/2000/svg">
<g opacity="0.1">
<path d="M17.8347 183.96C17.4707 178.228 17.6527 172.404 17.9257 166.581C17.8347 165.58 17.7437 164.67 17.5617 163.578C16.9248 157.936 16.6518 152.204 16.6518 146.562C16.6518 143.741 16.6518 140.921 16.7428 138.191C16.7428 136.735 16.8338 135.279 16.7428 133.823C16.5608 132.64 16.2878 131.548 16.1968 130.365C16.8338 129.91 16.9247 128.909 16.0148 128.636C14.1949 127.999 12.2841 127.363 10.4642 126.453C9.09933 125.725 8.0984 124.633 7.00648 123.45C6.46052 122.631 6.36953 122.449 6.00556 121.63C5.82357 121.266 5.64159 120.902 5.64159 120.538C5.5506 120.356 5.36861 120.174 5.36861 120.083C5.36861 120.083 5.27762 119.537 5.18662 119.537C5.09563 118.627 5.00463 117.808 5.00463 116.989C5.00463 116.989 5.00463 116.989 5.00463 116.898C5.00463 116.807 5.00463 116.807 5.00463 116.716C5.00463 116.534 5.09563 116.261 5.09563 116.079C5.18662 115.533 5.18662 115.078 5.36861 114.532C5.36861 114.168 5.64159 113.805 5.64159 113.532C5.73258 113.441 5.82357 113.168 5.82357 113.077C5.91457 112.895 6.00555 112.622 6.09655 112.349C6.46052 111.439 6.9155 110.529 7.37047 109.619C7.73444 108.891 8.28039 108.072 8.73536 107.253C8.73536 107.253 8.82634 107.253 8.82634 107.162C9.00833 106.98 9.09933 106.798 9.28132 106.616C9.5543 106.161 10.0093 105.706 10.2822 105.251C12.7391 102.157 15.7419 99.3366 18.7446 96.5158C21.1105 94.2409 23.4763 91.7841 25.5691 89.2363C26.57 87.8714 27.753 86.5065 28.5719 85.0506C29.2998 83.5947 29.8458 82.0478 30.5738 80.5919C31.0287 79.591 29.5728 79.0451 29.0269 79.955C27.935 81.6839 26.2971 83.1398 24.7502 84.5047C23.3853 85.8696 21.9294 87.2345 20.2915 88.4174C17.4707 90.7832 14.4679 92.785 11.6471 95.1509C11.5562 94.6959 11.2832 94.4229 11.1922 94.059C10.9192 93.513 10.7372 92.967 10.4642 92.4211C10.4642 92.2391 10.4642 92.1481 10.4642 92.0571C10.3732 91.7841 10.2822 91.4201 10.2822 91.1472C10.2822 90.8742 10.2822 90.6012 10.2822 90.4192V90.3282C10.2822 90.3282 10.2822 90.2372 10.2822 90.1462C10.2822 89.6913 10.2822 89.2363 10.4642 88.7813C10.4642 88.7813 10.4642 88.6903 10.4642 88.5993C10.6462 88.4174 10.7372 88.2354 10.8282 88.0534C10.9192 87.8714 11.0102 87.6894 11.1012 87.5074C11.1922 87.4164 11.1922 87.3254 11.2832 87.2344C11.5562 86.6885 11.8291 86.3245 12.0111 86.0515C12.2841 85.8695 12.3751 85.7786 12.5571 85.5966C12.5571 85.5056 12.7391 85.4146 12.8301 85.3236C13.649 84.5956 14.4679 84.0497 15.1959 83.4127C15.7419 83.2307 16.1058 82.9578 16.5608 82.6848C16.6518 82.6848 16.9248 82.5028 17.1067 82.4118C17.3797 82.3208 17.5617 82.1388 17.7437 82.0478C18.7446 81.5019 19.6546 81.0469 20.7465 80.5009C23.8402 78.8631 27.48 77.4072 30.2098 75.1323C31.3927 74.2224 32.3026 72.9485 32.8486 71.5836C33.1216 71.0376 33.1216 70.4007 33.1216 69.7637C34.3955 70.8557 35.6694 71.6746 37.3073 72.2206C40.1281 73.0395 43.0398 72.1296 45.4967 70.4917C47.9535 68.6718 49.9553 66.033 51.5022 63.3942C52.9581 61.0284 54.232 58.4806 54.96 55.8418C55.142 54.8408 53.5951 54.2039 53.1401 55.2958C52.4121 58.0256 50.7743 60.3914 49.0454 62.5753C48.0445 63.8492 46.9526 64.9411 45.7696 66.033C44.4957 67.0339 43.6768 67.5799 42.1299 68.1259C41.9479 68.1259 41.6749 68.2168 41.584 68.3078C41.493 68.3078 40.947 68.3078 40.947 68.3988C40.765 68.3988 40.765 68.3988 40.674 68.3988C40.583 68.3988 40.583 68.3988 40.583 68.3988C41.038 68.4898 40.947 68.4898 40.3101 68.3988C41.129 68.4898 40.219 68.2168 39.9461 68.2168C39.4911 68.0349 38.9452 67.9439 38.4902 67.7619C38.3082 67.7619 38.3082 67.7619 38.1262 67.6709C37.9442 67.5799 37.7622 67.3069 37.3983 67.2159C37.1253 66.9429 36.6703 66.67 36.3973 66.397C36.3973 66.397 36.0334 66.033 35.9424 65.942C35.6694 65.76 35.3964 65.487 35.2144 65.2141C34.7595 64.8501 34.3955 64.3041 34.0315 63.9402C34.0315 63.8492 33.7585 63.4852 33.6675 63.3942C33.4855 63.1212 33.2126 62.8482 33.1216 62.5753C31.9387 60.5734 30.8467 58.4806 30.1188 56.2967C29.9368 56.0237 29.8458 55.7508 29.7548 55.4778C29.6638 55.4778 29.6638 55.3868 29.6638 55.2958C29.6638 55.3868 29.5728 55.0228 29.5728 55.0228C29.2999 54.2039 29.0269 53.5669 28.8449 52.839C28.7539 52.657 28.6629 52.475 28.6629 52.384C28.5719 52.02 28.3899 51.6561 28.3899 51.3831C28.1169 50.7461 27.935 50.2002 27.753 49.5632C26.5701 45.9235 25.5691 42.1018 25.6601 38.371C25.6601 37.4611 24.3862 37.4611 24.2042 38.28C23.9312 40.1909 23.9312 42.1018 24.1132 44.0126C24.2042 46.8334 24.3862 49.4722 24.8412 52.111C25.2961 55.1138 26.2971 57.9346 27.298 60.7554C28.3899 63.2122 29.4818 65.578 31.2107 67.7619C31.3017 68.0349 31.3017 68.3078 31.3017 68.5808C31.2107 68.8538 31.2107 69.0358 31.2107 69.2178C31.2107 69.3088 31.1197 69.5817 31.1197 69.6727C31.0287 70.0367 30.8467 70.2187 30.6647 70.5827C30.6647 70.6737 30.6647 70.8556 30.5738 70.9466C30.6647 70.8556 30.3918 71.2196 30.3008 71.3106C30.2098 71.4016 30.1188 71.5836 29.9368 71.7656C29.8458 71.7656 29.6638 72.0386 29.6638 72.0386C29.3908 72.3116 29.0269 72.4935 28.7539 72.7665C28.3899 73.0395 28.0259 73.2215 27.662 73.4945C27.571 73.5854 27.298 73.7674 27.116 73.8584C26.934 73.8584 26.479 74.1314 26.479 74.1314C22.8393 76.2243 18.6536 77.4072 14.9229 79.318C11.5562 81.0469 8.00741 83.3217 6.64251 86.9615C5.91456 88.7813 5.82358 90.7832 6.18755 92.6941C6.64252 94.6049 7.37046 96.4248 8.37139 98.1536C5.91457 100.519 3.73072 103.158 2.18383 106.07C0.18198 109.801 -0.272978 114.077 0.272982 118.081C0.818942 121.63 2.45682 124.815 5.27761 127.272C7.46145 129.273 10.5552 130.729 13.74 130.82C12.9211 132.731 12.3751 134.733 11.9201 136.826C11.5562 139.374 11.2832 141.921 11.1012 144.56C10.7372 149.838 10.7372 155.206 10.9192 160.575C11.1012 163.76 11.5562 167.036 11.9201 170.22C11.5562 170.311 11.2832 170.584 11.1922 171.039C11.1012 172.859 10.1913 174.861 9.46332 176.59C8.46239 178.683 7.46145 180.594 6.36953 182.595C4.0037 186.963 2.54781 191.968 1.54688 196.699C0.272976 202.159 0 207.619 0 213.078C0.181987 218.538 0.454965 223.906 1.3649 229.184C2.00185 233.643 3.00278 238.01 4.0947 242.287C5.3686 246.837 7.00648 251.204 9.00834 255.481C9.5543 256.846 11.9201 256.3 11.6471 254.844C11.0102 252.114 10.6462 249.476 10.1003 246.837C9.55431 244.198 9.19033 241.468 8.64437 238.829C7.91642 233.643 7.09747 228.456 6.7335 223.178C6.18754 217.81 5.91457 212.259 6.18755 207.164C6.55153 201.977 7.55245 196.79 8.91735 191.786C9.09934 190.785 9.46331 189.784 9.82728 188.692C9.82728 188.692 9.82728 188.692 9.82728 188.601C9.91828 188.419 10.0093 188.237 10.0093 188.055C10.1912 187.509 10.2822 187.236 10.4642 186.781C11.1012 185.052 11.9201 183.323 12.5571 181.595C12.8301 180.867 13.194 180.048 13.376 179.32C14.286 183.414 15.2869 187.418 16.5608 191.513C17.9257 195.881 19.5636 200.248 21.4744 204.525C21.1105 202.796 20.7465 201.067 20.2915 199.338C19.1996 194.243 18.1077 189.238 17.8347 183.96Z" fill="white"/>
<path d="M74.4339 183.641C72.3411 181.184 69.9753 178.545 68.6104 175.906C67.5184 173.177 67.0635 171.175 67.0635 168.263C66.9725 166.534 67.3364 164.441 67.7004 162.348C68.1554 160.164 68.7014 157.981 69.3383 155.797C70.7942 151.156 72.1591 146.424 73.069 141.693C73.342 140.601 71.6131 139.964 71.1582 141.056C65.5166 151.793 58.0551 163.622 61.6949 175.997C63.6057 182.64 69.3383 187.098 73.251 192.558C76.7998 197.472 79.3476 203.477 80.4395 209.028C83.2603 222.677 78.8926 236.326 73.706 248.974C71.1582 255.434 68.2464 262.077 64.8796 268.265C62.2408 272.814 59.238 277.273 56.5082 281.823C53.5055 286.645 50.8667 291.832 49.4108 297.2C48.8648 299.657 48.4098 302.205 48.6828 304.753C48.8648 307.756 50.1387 310.576 50.9576 313.397C51.5946 315.308 52.1406 317.128 52.5955 319.039C54.2334 322.861 55.9623 326.682 57.1452 330.595C58.8741 335.691 59.875 341.059 60.6939 346.246C60.9669 347.52 60.9669 348.794 61.0579 350.068C61.1489 349.249 61.3309 348.339 61.3309 347.429C61.6949 340.24 60.6939 332.87 59.238 325.863C58.4191 322.042 57.5092 318.311 56.5082 314.489C55.5983 311.486 54.1424 308.029 53.7785 305.39C53.1415 300.84 55.0524 295.927 57.1452 291.65C59.693 286.554 62.7868 281.823 65.9715 277C69.2473 271.995 72.0681 266.9 74.7069 261.713C78.3467 254.98 81.3494 248.155 83.8062 240.876C88.0829 227.773 89.7208 213.851 84.8072 200.566C82.6233 194.378 78.8926 188.645 74.4339 183.641Z" fill="white"/>
<path d="M51.5956 367.986C49.4117 362.344 46.9549 356.884 44.4981 351.425C42.0413 346.056 39.4935 340.688 36.9456 335.319C34.3978 330.223 31.486 325.219 29.6662 319.941C29.2112 318.576 28.6653 317.302 28.3923 316.119C28.0283 315.391 27.8463 314.845 27.5733 314.208C27.2094 313.572 27.1184 312.935 26.9364 312.298C26.3904 309.568 26.3904 306.747 26.4814 303.926C26.7544 298.103 28.3923 292.461 29.2112 286.729C29.7572 283.817 30.1211 280.996 30.6671 278.084C31.2131 275.172 31.941 272.352 32.669 269.44C34.0339 263.707 35.4898 257.975 37.0366 252.333C39.4025 243.689 40.5854 234.862 42.2233 226.127C43.0422 221.85 44.2251 217.665 45.408 213.388C46.5 209.202 48.0468 205.198 49.3207 201.104C49.5937 200.285 48.5018 199.648 47.9558 200.285C44.4981 204.198 42.2233 209.202 40.4034 213.934C39.3115 216.482 38.6745 219.211 38.0376 221.759C38.0376 221.941 38.0376 222.032 37.9466 222.305C37.4006 221.668 36.8546 221.213 36.3087 220.576C35.4897 219.757 34.6708 218.847 33.9429 218.029C33.1239 217.119 32.123 216.391 31.577 215.481C31.1221 214.662 29.8482 214.844 30.1212 215.845C30.3031 216.937 30.3031 218.12 30.6671 219.211C31.0311 220.212 31.486 221.213 32.123 222.305C33.2149 224.489 34.3068 226.127 35.3078 228.038C35.4898 228.493 35.7627 228.857 36.2177 229.221C36.2177 229.312 36.2177 229.403 36.1267 229.494C34.9438 234.589 34.3068 239.685 33.1239 244.872C31.941 250.513 30.3941 255.973 28.8472 261.523C27.3003 267.165 25.9355 272.898 24.8435 278.721C23.7516 284.454 23.1147 290.277 22.5687 296.01C21.8407 301.742 21.2948 307.748 22.4777 313.572C22.7507 315.027 22.7507 316.392 23.2056 317.757C23.6606 319.122 24.0246 320.487 24.7525 321.852C25.9355 324.4 27.1184 326.948 28.6653 329.495C33.7609 338.322 37.8556 347.785 42.1323 356.975C44.3161 361.889 46.5909 366.621 48.9568 371.352C51.3226 376.175 53.7794 380.998 56.0542 385.82C56.7822 387.003 58.5111 386.275 58.0561 385.001C55.9633 379.269 53.8704 373.627 51.5956 367.986Z" fill="white"/>
<path d="M66.7885 118.601C66.7885 118.783 66.6065 118.965 66.6065 119.147C66.5155 119.147 66.4245 119.42 66.4245 119.42C66.1515 119.693 65.9695 120.057 65.6966 120.33C65.1506 121.058 64.7866 121.785 64.0587 122.422C63.9677 122.513 63.8767 122.604 63.6947 122.786C63.6947 122.695 63.4217 122.968 63.3307 122.968C63.1488 123.332 62.6938 123.514 62.4208 123.787C61.9658 124.151 61.6929 124.333 61.3289 124.606C61.1469 124.697 60.9649 124.788 60.8739 124.879C60.7829 124.879 60.7829 124.879 60.6919 124.879C60.6009 125.061 60.6009 125.061 60.3279 125.152C59.509 125.516 58.5991 125.88 57.7801 126.244C56.6882 126.608 56.0513 126.79 55.0503 126.972C54.6864 126.972 54.1404 127.063 53.6854 127.154C53.4125 127.154 53.1395 127.154 52.9575 127.154C52.9575 127.154 52.4115 127.154 52.5025 127.154C51.5016 127.154 50.5917 127.063 49.7727 126.881C48.8628 126.699 47.2249 126.062 46.315 125.516C44.9501 124.788 44.0402 123.878 43.1302 122.877C41.2194 120.33 40.2184 116.963 40.3094 113.778C40.4004 112.868 38.8535 112.595 38.7625 113.596C38.3076 117.236 38.5805 120.967 40.4914 124.333C42.2203 127.518 45.0411 129.884 48.6808 130.885C56.5972 133.069 65.6056 129.065 69.7913 122.604C72.0661 118.965 73.249 114.87 73.34 110.593C73.431 106.317 72.6121 102.131 70.6102 98.4002C70.2462 97.9452 69.7913 97.5812 69.1543 97.6722C68.5174 97.6722 67.7894 98.4002 68.0624 99.0371C68.8813 102.313 69.4273 105.953 69.3363 108.955C69.1543 112.595 68.5174 115.507 66.7885 118.601Z" fill="white"/>
<path d="M32.5766 159.003C32.2126 155.181 32.1216 151.359 31.9396 147.446C31.7576 143.534 31.3027 139.621 31.3936 135.708C31.3936 134.798 30.0287 134.525 29.8468 135.526C29.6648 139.439 28.8458 143.261 28.5728 147.082C28.1179 151.086 27.9359 155.09 27.7539 159.003C27.6629 163.006 27.6629 167.01 27.7539 171.105C27.7539 173.106 27.9359 175.108 28.1179 177.11C28.2089 179.294 28.8458 181.205 29.9377 183.116C30.7567 184.754 33.0315 184.39 33.4865 182.752C33.6685 181.933 33.8505 181.023 33.9414 180.204C34.1234 179.112 34.0324 177.929 33.9414 176.746C33.7595 174.744 33.5775 172.743 33.3045 170.741C33.0315 166.828 32.6676 162.915 32.5766 159.003Z" fill="white"/>
<path d="M94.1755 80.7857C93.0835 78.5108 91.2637 76.054 88.8978 74.8711C86.987 73.7792 84.7121 73.4152 82.6193 73.0512C79.8895 72.5963 77.2507 72.3233 74.7029 72.0503C70.6082 71.5954 66.2405 71.4134 62.4188 69.7755C59.416 68.4106 57.4141 66.1358 57.5961 62.587C57.5961 61.8591 56.4132 61.4951 56.2312 62.314C55.5943 64.5889 55.6853 66.8637 57.2321 68.8655C58.597 70.7764 60.7809 71.8683 62.8737 72.6873C65.5125 73.6882 68.2423 74.5071 70.8812 75.1441C73.52 75.69 76.3407 76.054 79.1615 76.509C80.3444 76.691 81.6184 76.873 82.8013 77.0549C83.3472 77.1459 83.7112 77.2369 84.0752 77.3279C84.2572 77.3279 84.6211 77.4189 84.7121 77.4189C84.9851 77.6009 85.1671 77.6919 85.4401 77.6919C85.895 77.7829 86.259 77.9649 86.532 78.1469C86.714 78.1469 86.805 78.1469 86.805 78.1469C86.987 78.3288 87.078 78.4198 87.2599 78.5108C87.4419 78.6928 87.7149 78.8748 87.8969 79.0568C87.6239 78.8748 88.0789 79.4208 88.3519 79.5118C88.7158 79.9667 89.2618 80.6037 89.6258 81.1497C89.7168 81.2406 89.7168 81.2406 89.7168 81.3316C89.7168 81.4226 89.8078 81.5136 89.8078 81.6046C90.0807 81.8776 90.2627 82.1506 90.3537 82.4236C90.7177 83.0605 91.0817 83.6975 91.2637 84.3344C91.4456 84.6074 91.5366 84.9714 91.6276 85.2444V85.3353C91.8096 85.5173 91.8096 85.6993 91.9006 85.8813C91.9916 86.6092 92.1736 87.3372 92.3556 88.0651C92.7195 89.612 92.9015 91.0679 92.9925 92.6148C92.9925 92.6148 92.9925 92.8878 92.9925 92.9788C92.9925 93.0698 92.9925 93.2518 92.9925 93.4338C92.9925 93.7977 92.9925 94.2527 92.9925 94.6167C92.9925 95.4356 92.9925 96.3455 92.9925 97.2555C92.3556 110.904 87.8059 123.462 85.1671 136.656C83.7112 143.662 83.0742 150.76 83.0742 157.766C83.1652 170.414 88.8978 184.7 88.7158 182.971C88.5339 180.332 88.5339 177.603 88.0789 174.873C87.7149 172.325 87.5329 169.686 87.3509 167.047C86.987 161.861 86.987 156.765 87.2599 151.578C87.4419 147.211 87.9879 142.752 88.8068 138.475C88.8978 137.839 89.0798 137.293 89.2618 136.656C89.2618 136.565 89.2618 136.383 89.3528 136.201C89.4438 135.837 89.5348 135.473 89.5348 135.018C89.8078 133.562 90.2627 132.197 90.6267 130.741C92.3556 123.826 94.0845 117.092 95.4494 110.086C96.6323 103.261 97.4512 96.2545 96.7233 89.2481C96.2683 86.3363 95.5404 83.4245 94.1755 80.7857Z" fill="white"/>
<path d="M57.234 33.1718C57.598 34.0817 58.053 35.0827 58.235 35.9926C58.4169 36.5386 58.5989 36.9935 58.8719 37.5395C58.8719 37.6305 58.9629 37.9035 58.9629 38.0855C59.0539 38.3584 59.0539 38.5404 59.1449 38.8134C59.7819 41.0882 60.3278 43.4541 60.9648 45.8199C61.6927 48.5497 62.6936 51.0975 63.9676 53.6453C64.6045 54.8282 65.3324 56.0111 66.2424 57.1031C67.2433 58.286 68.2442 59.1049 69.3362 60.1058C70.1551 60.8338 71.247 59.6509 70.792 58.8319C69.5181 57.1941 68.6082 55.3742 67.8803 53.5543C66.9703 51.7345 66.4244 49.8236 65.7874 48.0037C65.3325 46.1839 65.0595 44.273 64.8775 42.4531C64.6045 40.8153 64.3315 39.0864 63.9676 37.4485C63.2396 34.1727 62.2387 30.897 60.6008 27.9852C58.5989 24.6184 55.9601 21.7977 52.9574 19.4318C50.2276 17.521 47.3158 15.7921 44.04 15.0641C41.4012 14.3362 38.7624 14.7002 36.1236 15.3371C33.6668 16.1561 31.4829 17.521 29.3901 18.9769C28.2072 19.7958 27.1152 20.5237 26.1143 21.3427C25.5684 21.7067 25.0224 22.2526 24.4764 22.6166C24.2945 22.7986 23.9305 23.1626 23.7485 23.3445C23.5665 23.7085 23.1115 23.8905 22.8386 24.1635C22.2926 24.4365 22.9296 25.5284 23.5665 25.2554C24.3855 24.8004 25.3864 24.7094 26.2053 24.3455C27.2062 23.9815 28.1162 23.5265 28.9351 23.0716C30.573 22.2526 32.2109 21.4337 33.8488 20.7967C34.6677 20.5237 35.4866 20.2508 36.2146 19.9778C36.3966 19.9778 36.5786 19.8868 36.8515 19.7958C36.8515 19.7958 37.0335 19.7958 37.2155 19.7048C37.4885 19.6138 37.9435 19.6138 38.3074 19.5228C38.7624 19.5228 39.1264 19.4318 39.5813 19.4318H39.6723H40.0363C41.0372 19.4318 41.9472 19.5228 42.7661 19.7958H42.8571C43.0391 19.8868 43.2211 19.8868 43.5851 19.9778C43.949 20.1598 44.495 20.3418 44.859 20.5237C45.0409 20.6147 45.3139 20.7057 45.5869 20.7967L45.9509 21.0697C46.4968 21.3427 47.0428 21.6157 47.4978 21.9796C49.1356 23.0716 50.7735 24.1635 52.2294 25.6194C52.3204 25.6194 52.5024 25.8014 52.5024 25.8924C52.6844 26.0743 52.7754 26.1653 53.0483 26.3473C53.1393 26.6203 53.4123 26.8933 53.6853 27.2572C54.2313 27.8942 54.7772 28.6221 55.1412 29.3501C55.2322 29.4411 55.4142 29.5321 55.5052 29.6231L55.5962 29.8961C55.7782 30.26 55.9601 30.533 56.1421 30.897C56.5971 31.6249 56.9611 32.3529 57.234 33.1718Z" fill="white"/>
<path d="M103.003 88.8874C103.003 87.0676 102.821 85.2477 102.275 83.4278C101.456 79.6971 99.727 76.4214 97.4522 73.3276C95.2683 70.1428 92.1745 67.413 90.6277 63.8643C88.8988 60.1336 88.0798 55.9479 85.623 52.6721C84.5311 51.1252 83.3482 49.9423 81.8923 48.6684C81.2554 48.1224 80.6184 47.4855 80.0724 46.8485C79.7084 46.5756 79.5265 46.2116 79.3445 45.9386C79.3445 45.7566 79.2535 45.6656 79.1625 45.5746C79.1625 45.5746 78.8895 45.1197 78.7985 45.1197C78.7075 44.7557 78.5255 44.3917 78.4345 44.0277C78.4345 44.0277 78.4346 43.9367 78.3436 43.9367C78.3436 43.7548 78.3436 43.5728 78.3436 43.3908C78.0706 42.3899 77.9796 41.5709 77.8886 40.661C77.7976 38.8411 77.7066 36.9303 77.7066 35.0194C77.7066 33.1085 77.5246 31.1977 77.4336 29.2868C77.1606 28.3769 77.1606 27.5579 76.9787 26.648C76.7967 26.284 76.7967 25.9201 76.6147 25.4651C76.6147 25.1921 76.3417 24.8281 76.3417 24.4642C76.1597 24.1912 76.1597 24.1912 76.3417 24.5552C76.2507 24.2822 76.1597 24.0092 76.1597 23.7362C75.3408 20.8244 73.7939 18.0946 71.974 15.5468C68.1523 10.1782 62.4197 5.99253 56.4142 3.35372C50.1356 0.532925 43.2201 -0.649988 36.5776 0.350939C33.8478 0.805906 31.118 1.80683 28.6612 3.17173C27.6603 3.80868 26.2954 4.62762 25.4764 5.53756C24.5665 6.53848 23.5656 7.44842 22.6557 8.35835C22.1097 8.90431 23.0196 9.72325 23.5656 9.26828C25.9314 7.17544 29.1162 5.99252 32.21 5.17358C33.2109 4.9006 34.9397 4.62762 36.4866 4.44564C37.2146 4.44564 38.0335 4.35465 38.6705 4.35465C38.8525 4.35465 38.9434 4.35465 39.0344 4.35465C39.1254 4.35465 39.3984 4.35465 39.4894 4.35465C39.9444 4.35465 40.3993 4.35464 40.7633 4.44564C42.4922 4.53663 43.9481 4.71862 45.586 5.08259C45.9499 5.08259 46.4049 5.17358 46.7689 5.26458C46.9509 5.26458 47.1328 5.35557 47.3148 5.44657C47.4058 5.44657 47.5878 5.44657 47.5878 5.44657C48.2248 5.62855 49.0437 5.90153 49.6807 6.08352C51.2275 6.62948 52.7744 7.26643 54.2303 7.90338C54.9583 8.17636 55.6862 8.54034 56.3232 8.90431C56.3232 8.90431 56.5052 8.99531 56.5962 8.99531C56.7781 9.17729 56.9601 9.26828 56.9601 9.26828C57.4151 9.54126 57.7791 9.72325 58.234 9.99623C59.5989 10.9062 60.8728 11.8161 62.2377 12.817C62.7837 13.363 63.3297 13.818 63.9666 14.3639C64.0576 14.3639 64.0576 14.4549 64.1486 14.5459C64.2396 14.6369 64.2396 14.7279 64.3306 14.8189C64.6036 15.0919 64.9675 15.3648 65.2405 15.7288C66.3324 16.8207 67.2424 18.0036 68.1523 19.2775C68.3343 19.5505 68.5163 19.8235 68.6983 20.1875C68.7892 20.2785 68.9712 20.4605 69.0622 20.6424C69.4262 21.2794 69.6992 22.0073 70.0632 22.6443C70.2451 23.2813 70.6091 24.0092 70.7911 24.5552C70.9731 24.8281 70.9731 25.1921 71.1551 25.4651C71.1551 25.8291 71.3371 26.193 71.2461 26.0111C71.2461 26.102 71.3371 26.466 71.3371 26.557C71.883 28.2859 72.065 30.0148 72.156 31.7436C72.429 35.5654 72.429 39.2961 73.4299 42.9358C73.7939 44.7557 74.4308 46.4846 75.4318 48.0314C76.6147 49.4873 77.9796 50.6703 79.4355 51.8532C80.9824 52.9451 81.9833 53.946 83.2572 55.4929C84.2581 57.0398 84.9861 59.1326 85.532 60.9525C86.351 62.7724 87.0789 64.6832 87.8979 66.4121C88.8988 68.323 90.2637 69.8698 91.8106 71.5077C93.9944 74.3285 96.2692 77.3313 97.9071 80.6071C98.908 82.6999 99.818 84.7927 100.364 86.9766C101.183 89.5244 101.365 92.1632 101.274 94.893C101.274 95.8029 102.73 96.0759 102.821 95.075C103.003 92.9822 103.003 90.9803 103.003 88.8874Z" fill="white"/>
</g>
</svg>
