<svg width="66" height="458" viewBox="0 0 66 458" fill="none" xmlns="http://www.w3.org/2000/svg">
<path d="M64.2 56.2C64.2 57.2987 63.8267 58.2267 63.08 58.984C62.3333 59.7413 61.4267 60.12 60.36 60.12C59.2933 60.12 58.3867 59.7413 57.64 58.984C56.8933 58.2267 56.52 57.2987 56.52 56.2L56.52 54.52L53 54.52L53 51.96L64.2 51.96L64.2 56.2ZM58.92 56.2C58.92 56.5947 59.0587 56.92 59.336 57.176C59.6133 57.432 59.9547 57.56 60.36 57.56C60.7653 57.56 61.1067 57.432 61.384 57.176C61.6613 56.92 61.8 56.5947 61.8 56.2L61.8 54.52L58.92 54.52L58.92 56.2ZM53 62.0375L64.2 62.0375L64.2 64.5975L60.68 64.5975L60.68 66.2775C60.68 67.3762 60.3067 68.3042 59.56 69.0615C58.8133 69.8188 57.9067 70.1975 56.84 70.1975C55.7733 70.1975 54.8667 69.8188 54.12 69.0615C53.3733 68.3042 53 67.3762 53 66.2775L53 62.0375ZM53 71.1575L64.2 71.1575L64.2 73.7175L53 73.7175L53 71.1575ZM55.4 64.5975L55.4 66.2775C55.4 66.6722 55.5387 66.9975 55.816 67.2535C56.0933 67.5095 56.4347 67.6375 56.84 67.6375C57.2453 67.6375 57.5867 67.5095 57.864 67.2535C58.1413 66.9975 58.28 66.6722 58.28 66.2775L58.28 64.5975L55.4 64.5975ZM60.04 80.5913C60.04 81.7433 59.7147 82.6713 59.064 83.3753C58.424 84.0793 57.576 84.4313 56.52 84.4313C55.464 84.4313 54.6107 84.0793 53.96 83.3753C53.32 82.6713 53 81.7433 53 80.5913L53 76.2713L64.2 76.2713L64.2 83.4713L61.736 83.4713L61.736 78.8313L60.04 78.8313L60.04 80.5913ZM55.4 80.5913C55.4 81.4446 55.7733 81.8713 56.52 81.8713C57.2667 81.8713 57.64 81.4446 57.64 80.5913L57.64 78.8313L55.4 78.8313L55.4 80.5913ZM53 93.1562L54.76 92.5962L54.76 88.4362L53 87.8762L53 85.0762L64.2 88.8842L64.2 92.1482L53 95.9562L53 93.1562ZM57.16 89.2042L57.16 91.8282L61.272 90.5162L57.16 89.2042Z" fill="white"/>
<rect opacity="0.1" x="14" width="20" height="404" fill="white"/>
<rect opacity="0.3" x="14" y="20" width="20" height="108" fill="white"/>
<rect opacity="0.8" x="6" y="382" width="34" height="2" fill="white"/>
<rect opacity="0.8" x="6" y="201" width="34" height="2" fill="white"/>
<rect opacity="0.8" x="6" y="128" width="34" height="2" fill="white"/>
<rect opacity="0.8" x="6" y="18" width="34" height="2" fill="white"/>
<circle cx="23" cy="435" r="23" fill="white" fill-opacity="0.2"/>
</svg>
