<svg width="16" height="16" viewBox="0 0 16 16" fill="none" xmlns="http://www.w3.org/2000/svg">
<path d="M8 0.5C4.41594 0.5 1.5 3.41594 1.5 7V11.8384L4.0625 12.8638L4.59 15.5H6V13.5H7V15.5H7.5V13.5H8.5V15.5H9V13.5H10V15.5H11.41L11.9375 12.8638L14.5 11.8384V7C14.5 3.41594 11.5841 0.5 8 0.5ZM5.25 10.5C4.90388 10.5 4.56554 10.3974 4.27775 10.2051C3.98997 10.0128 3.76566 9.73947 3.63321 9.4197C3.50076 9.09993 3.4661 8.74806 3.53363 8.40859C3.60115 8.06913 3.76782 7.75731 4.01256 7.51256C4.25731 7.26782 4.56912 7.10115 4.90859 7.03363C5.24806 6.9661 5.59993 7.00076 5.9197 7.13321C6.23947 7.26566 6.51278 7.48997 6.70507 7.77775C6.89736 8.06554 7 8.40388 7 8.75C6.9995 9.21398 6.81497 9.65881 6.48689 9.98689C6.15881 10.315 5.71398 10.4995 5.25 10.5ZM6.85969 12.5L7.625 10H8.375L9.14031 12.5H6.85969ZM10.75 10.5C10.4039 10.5 10.0655 10.3974 9.77775 10.2051C9.48997 10.0128 9.26566 9.73947 9.13321 9.4197C9.00076 9.09993 8.9661 8.74806 9.03363 8.40859C9.10115 8.06913 9.26782 7.75731 9.51256 7.51256C9.7573 7.26782 10.0691 7.10115 10.4086 7.03363C10.7481 6.9661 11.0999 7.00076 11.4197 7.13321C11.7395 7.26566 12.0128 7.48997 12.2051 7.77775C12.3974 8.06554 12.5 8.40388 12.5 8.75C12.4995 9.21398 12.315 9.65881 11.9869 9.98689C11.6588 10.315 11.214 10.4995 10.75 10.5Z" fill="white"/>
</svg>
