<svg width="26" height="26" viewBox="0 0 26 26" fill="none" xmlns="http://www.w3.org/2000/svg">
<path d="M12.7531 14.7008C14.2002 14.7008 15.557 14.9628 16.6791 15.4288C16.8125 14.02 16.9356 11.7696 16.5333 10.4518C16.4198 10.0769 16.2863 9.74845 16.1324 9.45972L10.6519 14.8944C11.319 14.7692 12.0237 14.7008 12.7531 14.7008Z" fill="white"/>
<path d="M8.31532 17.2964C8.09775 17.8992 8.00675 18.6196 8.13332 19.4804C8.44327 21.5925 9.12475 23.1895 9.15417 23.2565C9.32522 23.6554 9.71385 23.8942 10.123 23.8942C10.2619 23.8942 10.4035 23.8669 10.5397 23.808C11.0754 23.5774 11.3217 22.9562 11.0919 22.4218C11.085 22.4074 10.4904 21.0151 10.2209 19.1745C10.1757 18.8666 10.1805 18.5998 10.2167 18.3658C10.9865 18.1578 12.0087 17.9265 12.7531 17.9265C13.4948 17.9265 14.5156 18.1571 15.2854 18.3644C15.323 18.5991 15.3305 18.8653 15.2854 19.1745C15.0165 20.9993 14.4192 22.4088 14.4144 22.4218C14.1831 22.9562 14.4301 23.5774 14.9652 23.808C15.1013 23.8669 15.243 23.8942 15.3832 23.8942C15.7924 23.8942 16.181 23.6554 16.3521 23.2565C16.3815 23.1895 17.063 21.5925 17.3729 19.4804C17.4988 18.6217 17.4092 17.9026 17.1923 17.3012C16.1591 16.5691 14.502 16.1079 12.7531 16.1079C11.0077 16.1086 9.35053 16.5677 8.31532 17.2964Z" fill="white"/>
<path d="M12.7531 7.72632C10.7607 7.72632 9.58726 8.42969 8.97284 10.4522C8.62799 11.5825 8.66973 13.3977 8.77099 14.7798L15.2245 8.37974C14.5943 7.91721 13.7849 7.72632 12.7531 7.72632Z" fill="white"/>
<path d="M8.77097 14.7805L6.10255 17.4277C5.8275 17.7007 5.82476 18.1468 6.09845 18.4219C6.23597 18.5608 6.41797 18.6306 6.59792 18.6306C6.77718 18.6306 6.95576 18.5622 7.09397 18.426L7.80897 17.7247C7.95471 17.5728 8.12576 17.4305 8.31529 17.297C8.46308 16.8879 8.81476 15.371 8.77097 14.7805Z" fill="white"/>
<path d="M18.9404 17.0171C18.415 16.3623 17.6309 15.8238 16.6791 15.4297C16.6497 15.7444 17.0438 16.8905 17.1923 17.3017C17.4502 17.4851 17.6705 17.6835 17.8416 17.897C17.9805 18.0701 18.1851 18.1611 18.391 18.1611C18.5463 18.1611 18.701 18.1104 18.831 18.0057C19.1341 17.7628 19.182 17.3208 18.9404 17.0171Z" fill="white"/>
<path d="M16.1324 9.46003L17.9086 7.69819C18.1837 7.42519 18.1864 6.97908 17.9127 6.70403C17.6404 6.42829 17.1936 6.42624 16.9185 6.69924L15.2238 8.38034C15.5837 8.64582 15.8854 8.99887 16.1324 9.46003Z" fill="white"/>
<path d="M12.7531 6.92358C14.1127 6.92358 15.2149 5.8214 15.2149 4.46179C15.2149 3.10218 14.1127 2 12.7531 2C11.3935 2 10.2913 3.10218 10.2913 4.46179C10.2913 5.8214 11.3935 6.92358 12.7531 6.92358Z" fill="white"/>
</svg>
