<svg width="22" height="22" viewBox="0 0 22 22" fill="none" xmlns="http://www.w3.org/2000/svg">
<path fill-rule="evenodd" clip-rule="evenodd" d="M10 0H12V2.05493C16.1716 2.51608 19.4839 5.82838 19.9451 10H22V12H19.9451C19.4839 16.1716 16.1716 19.4839 12 19.9451V22H10V19.9451C5.82838 19.4839 2.51608 16.1716 2.05493 12H0V10H2.05493C2.51608 5.82838 5.82838 2.51608 10 2.05493V0ZM4.07089 12H6V10H4.07089C4.5094 6.93431 6.93431 4.5094 10 4.07089V6H12V4.07089C15.0657 4.5094 17.4906 6.93431 17.9291 10H16V12H17.9291C17.4906 15.0657 15.0657 17.4906 12 17.9291V16H10V17.9291C6.93431 17.4906 4.5094 15.0657 4.07089 12Z" fill="white"/>
</svg>
