<svg width="32" height="32" viewBox="0 0 32 32" fill="none" xmlns="http://www.w3.org/2000/svg">
<g id="24 / various / toy-horse">
<path id="icon" fill-rule="evenodd" clip-rule="evenodd" d="M5.64788 13.018L8.59607 11.5439L10.7727 15.8971L8.08425 23.9624C8.35563 24.1623 8.64224 24.3561 8.94179 24.5418C10.7569 21.2742 12.307 20.0001 15.3331 20.0001C18.6953 20.0001 21.5662 22.0645 22.4132 24.918C22.8568 24.6745 23.278 24.4129 23.6707 24.1381C23.1615 23.5001 22.7452 22.8098 22.395 22.0525C22.0169 21.2351 21.9208 20.9495 21.3741 19.181C20.5694 16.5779 19.9819 15.9994 17.3331 15.9994H15.9998C13.9301 15.9994 11.9998 14.0691 11.9998 11.9994C11.9998 10.3892 10.7626 9.16308 7.97991 8.35394L5.64788 13.018ZM7.89356 16.1017L5.97857 21.8467C5.56533 21.2209 5.33313 20.5921 5.33313 20.0001H2.66646C2.66646 24.633 9.57652 29.3334 15.9998 29.3334C22.4231 29.3334 29.3331 24.633 29.3331 20.0001H26.6665C26.6665 20.7495 26.2943 21.558 25.6539 22.3446C25.3276 21.9148 25.054 21.4492 24.8153 20.933C24.5087 20.2701 24.4261 20.0247 23.9218 18.3934C23.699 17.6726 23.4619 17.0379 23.1932 16.4836C25.0033 15.673 26.7517 15.8816 28.5935 17.1095L30.0727 14.8907C27.258 13.0142 24.3326 12.8335 21.4965 14.3487C20.5105 13.6476 19.1957 13.3327 17.3331 13.3327H15.9998C15.4028 13.3327 14.6665 12.5964 14.6665 11.9994C14.6665 8.55329 11.9215 6.35735 6.92794 5.35864L5.33312 5.03967V7.68465L2.37744 13.596L5.06985 16.2884L7.4035 15.1216L7.89356 16.1017ZM11.3306 25.7322C12.8117 26.3101 14.4259 26.6667 15.9998 26.6667C17.3167 26.6667 18.6619 26.4171 19.9337 25.9969C19.5626 24.1318 17.6696 22.6667 15.3331 22.6667C13.5978 22.6667 12.6401 23.4035 11.3306 25.7322Z" fill="white"/>
</g>
</svg>
