<svg width="199" height="34" viewBox="0 0 199 34" fill="none" xmlns="http://www.w3.org/2000/svg">
<path d="M0 3.00168L199 0.00195312V30.0017L0 33.0017V3.00168Z" fill="#D31336"/>
<path d="M53.3699 12.1389L48.3479 20.4318C47.9487 21.0922 47.5414 21.5567 47.126 21.8253C46.72 22.0938 46.1903 22.2337 45.5371 22.2451L44.6552 22.2605L44.9348 20.6314L45.5507 20.6206C46.1107 20.6108 46.5631 20.3276 46.9081 19.7708L47.3573 19.0348L45.4051 12.2779L47.3788 12.2434L48.5306 17.2641L51.3262 12.1745L53.3699 12.1389ZM60.0089 14.4453C60.0283 15.5558 59.4969 16.3959 58.4146 16.9656C59.0934 17.3458 59.4397 17.9325 59.4535 18.7257C59.4713 19.7429 59.1542 20.5652 58.5024 21.1927C57.8598 21.8106 56.9925 22.1292 55.9007 22.1482C54.8275 22.167 54.0154 21.8964 53.4642 21.3366C52.913 20.7768 52.6247 20.0397 52.5994 19.1254L54.4472 19.0931C54.4548 19.5317 54.587 19.8841 54.8437 20.1504C55.1002 20.4073 55.4618 20.5316 55.9283 20.5235C56.4509 20.5144 56.8542 20.3533 57.1381 20.0403C57.4313 19.7271 57.5736 19.3186 57.5648 18.8147C57.5584 18.4507 57.4463 18.1773 57.2284 17.9944C57.0105 17.8115 56.7056 17.7235 56.3137 17.7303L55.0679 17.7521L55.3489 16.2069L56.5807 16.1854C57.094 16.1765 57.4835 16.0297 57.7492 15.745C58.015 15.4603 58.1443 15.1173 58.1373 14.7161C58.1318 14.3988 58.0245 14.1346 57.8155 13.9235C57.6157 13.7123 57.3059 13.6104 56.886 13.6177C55.9808 13.6335 55.3967 14.1291 55.1337 15.1045L53.2859 15.1368C53.5758 14.0956 54.029 13.3175 54.6454 12.8027C55.271 12.2784 56.0877 12.0074 57.0956 11.9898C58.0008 11.974 58.7095 12.1997 59.2217 12.6668C59.7338 13.1246 59.9962 13.7175 60.0089 14.4453ZM69.4462 11.8583L67.6185 21.8597L65.7708 21.8919L66.5509 17.6497L63.3454 17.7056L62.5653 21.9479L60.7176 21.9801L62.5453 11.9787L64.393 11.9465L63.653 16.076L66.8585 16.02L67.5985 11.8905L69.4462 11.8583ZM77.1702 21.6929L75.2945 21.7257L75.0528 19.9096L71.6793 19.9685L70.7732 21.8046L68.7995 21.8391L74.0567 11.7778L75.5265 11.7521L77.1702 21.6929ZM74.8864 18.4003L74.3435 14.5732L72.4088 18.4436L74.8864 18.4003ZM85.3249 11.5811L85.0315 13.2245L82.5819 13.2672L81.0615 21.625L79.2138 21.6573L80.7341 13.2995L78.2285 13.3432L78.5219 11.6998L85.3249 11.5811ZM92.3387 17.9697C92.3551 18.9122 92.038 19.7298 91.3873 20.4226C90.746 21.1153 89.8561 21.4715 88.7176 21.4914L85.0221 21.5559L86.8499 11.5545L88.6976 11.5222L87.9951 15.3991L89.6189 15.3707C90.4494 15.3562 91.1069 15.5875 91.5913 16.0644C92.0757 16.5414 92.3248 17.1764 92.3387 17.9697ZM90.4796 18.1561C90.4736 17.8108 90.3801 17.5324 90.199 17.3209C90.018 17.1094 89.7315 17.007 89.3395 17.0139L87.7018 17.0424L87.1772 19.88L88.759 19.8524C89.3189 19.8426 89.7451 19.6625 90.0377 19.312C90.3397 18.9614 90.487 18.5761 90.4796 18.1561ZM105.04 11.237L103.212 21.2384L101.365 21.2706L102.899 12.9126L99.7635 12.9673L98.2431 21.3251L96.3954 21.3574L98.2231 11.3559L105.04 11.237ZM113.27 13.8377C113.279 14.3976 113.199 15.1458 113.029 16.0823C112.833 17.1872 112.642 18.0166 112.456 18.5706C112.279 19.1245 111.998 19.6101 111.613 20.0276C110.917 20.8052 109.986 21.2042 108.82 21.2245C107.887 21.2408 107.145 20.983 106.594 20.4512C106.053 19.9193 105.775 19.252 105.761 18.4495C105.751 17.8896 105.831 17.1414 106.002 16.2049C106.197 15.1 106.383 14.2706 106.56 13.7168C106.747 13.1628 107.032 12.6771 107.417 12.2596C108.113 11.482 109.044 11.0831 110.211 11.0627C111.144 11.0464 111.881 11.3042 112.422 11.8362C112.973 12.368 113.256 13.0352 113.27 13.8377ZM111.424 14.024C111.417 13.5947 111.285 13.2656 111.029 13.0367C110.782 12.7983 110.477 12.6823 110.113 12.6886C109.59 12.6978 109.151 12.9061 108.794 13.3138C108.601 13.5318 108.434 13.8475 108.292 14.2607C108.159 14.6644 108.012 15.3017 107.849 16.1727C107.679 17.1091 107.598 17.806 107.606 18.2632C107.613 18.6925 107.741 19.0263 107.987 19.2647C108.243 19.4936 108.553 19.6049 108.917 19.5986C109.44 19.5894 109.88 19.3811 110.237 18.9734C110.429 18.7554 110.592 18.4445 110.724 18.0408C110.867 17.6276 111.019 16.9855 111.181 16.1145C111.352 15.1967 111.433 14.4999 111.424 14.024ZM122.58 10.9308L121.046 19.2888L122.18 19.2691L121.503 23.0474L119.726 23.0785L120.094 20.9437L114.733 21.0373L114.364 23.172L112.587 23.2031L113.249 19.4249L114.159 19.4091C114.694 18.5129 115.139 17.5343 115.494 16.4733C115.858 15.4121 116.185 14.0809 116.474 12.4796L116.729 11.0329L122.58 10.9308ZM120.439 12.5924L118.213 12.6313L117.944 14.0782C117.56 16.1292 116.923 17.8952 116.034 19.3763L119.212 19.3209L120.439 12.5924ZM131.4 13.4092C131.417 14.3611 131.1 15.1834 130.449 15.8762C129.808 16.5688 128.918 16.9251 127.779 16.945L125.862 16.9784L125.159 20.8553L123.312 20.8875L125.139 10.8861L128.681 10.8243C129.511 10.8098 130.169 11.041 130.653 11.518C131.137 11.9856 131.386 12.616 131.4 13.4092ZM129.541 13.5957C129.528 12.8305 129.148 12.4544 128.401 12.4674L126.694 12.4972L126.169 15.3348L127.821 15.306C128.381 15.2962 128.807 15.1161 129.1 14.7656C129.402 14.4149 129.549 14.025 129.541 13.5957ZM139.475 13.3803C139.484 13.9402 139.404 14.6884 139.234 15.6249C139.038 16.7298 138.847 17.5592 138.661 18.1132C138.484 18.6671 138.203 19.1527 137.818 19.5702C137.122 20.3478 136.191 20.7467 135.025 20.7671C134.092 20.7834 133.35 20.5256 132.799 19.9938C132.258 19.4619 131.98 18.7946 131.966 17.9921C131.956 17.4322 132.036 16.684 132.207 15.7475C132.402 14.6426 132.588 13.8132 132.765 13.2594C132.952 12.7054 133.237 12.2197 133.622 11.8022C134.318 11.0246 135.249 10.6256 136.416 10.6053C137.349 10.589 138.086 10.8468 138.627 11.3788C139.178 11.9106 139.46 12.5778 139.475 13.3803ZM137.629 13.5665C137.622 13.1373 137.49 12.8082 137.234 12.5793C136.987 12.3409 136.682 12.2249 136.318 12.2312C135.795 12.2404 135.356 12.4487 134.999 12.8564C134.806 13.0744 134.639 13.39 134.497 13.8033C134.364 14.207 134.217 14.8443 134.054 15.7153C133.884 16.6517 133.803 17.3486 133.811 17.8058C133.818 18.2351 133.946 18.5689 134.192 18.8073C134.448 19.0362 134.758 19.1475 135.122 19.1412C135.645 19.132 136.085 18.9237 136.442 18.516C136.634 18.298 136.796 17.9871 136.929 17.5834C137.072 17.1702 137.224 16.5281 137.386 15.6571C137.557 14.7393 137.638 14.0425 137.629 13.5665ZM148.194 10.4837L147.9 12.1131L143.589 12.1883L143.18 14.4358L144.874 14.4062C145.704 14.3917 146.362 14.623 146.846 15.0999C147.331 15.5769 147.58 16.212 147.594 17.0052C147.61 17.957 147.293 18.7794 146.643 19.4721C146.001 20.1554 145.106 20.5071 143.959 20.5272L140.207 20.5926L142.035 10.5912L148.194 10.4837ZM145.735 17.1916C145.729 16.8464 145.635 16.568 145.454 16.3564C145.273 16.1449 144.986 16.0425 144.594 16.0494L142.887 16.0792L142.362 18.9168L144.014 18.8879C144.574 18.8782 145 18.698 145.293 18.3475C145.595 17.9969 145.742 17.6116 145.735 17.1916ZM157.466 10.3219L155.638 20.3233L153.791 20.3555L154.571 16.1133L151.365 16.1692L150.585 20.4115L148.737 20.4437L150.565 10.4423L152.413 10.4101L151.673 14.5396L154.878 14.4837L155.618 10.3541L157.466 10.3219ZM165.898 10.1747L165.604 11.8041L161.237 11.8803L160.777 14.3947L164.542 14.329L164.249 15.9583L160.483 16.0241L160.01 18.6227L164.462 18.545L164.168 20.1744L157.855 20.2846L159.683 10.2832L165.898 10.1747ZM173.99 10.0334L173.697 11.6628L169.329 11.739L168.869 14.2534L172.635 14.1877L172.341 15.8171L168.576 15.8828L168.103 18.4815L172.554 18.4038L172.261 20.0331L165.948 20.1433L167.775 10.1419L173.99 10.0334Z" fill="white"/>
<g clip-path="url(#clip0_1153_123)">
<path d="M33.0339 8.46194C28.6266 8.53887 25.0978 12.193 25.1748 16.6003C25.2517 21.0077 28.9058 24.5364 33.3132 24.4595C37.7205 24.3826 41.2493 20.7284 41.1723 16.3211C41.0954 11.9138 37.4413 8.38501 33.0339 8.46194ZM32.5178 13.2717C32.5121 12.9437 32.7793 12.667 33.1072 12.6613C33.4352 12.6556 33.7119 12.9228 33.7176 13.2507L33.7874 17.2501C33.7932 17.5781 33.5259 17.8548 33.198 17.8605C32.87 17.8662 32.5933 17.599 32.5876 17.2711L32.5178 13.2717ZM33.9706 19.9513C33.9324 20.056 33.8778 20.137 33.8072 20.2182C33.7285 20.2916 33.6415 20.3492 33.5462 20.3908C33.4509 20.4325 33.3474 20.4583 33.2434 20.4601C33.1394 20.4619 33.035 20.4397 32.9383 20.4014C32.8416 20.3631 32.7526 20.3087 32.6714 20.2381C32.598 20.1593 32.5406 20.0803 32.4988 19.977C32.4572 19.8817 32.4313 19.7782 32.4295 19.6742C32.4277 19.5702 32.4499 19.4658 32.4882 19.3691C32.5265 19.2724 32.581 19.1835 32.6516 19.1022C32.7303 19.0289 32.8173 18.9713 32.9126 18.9297C33.1032 18.8463 33.3271 18.8424 33.5205 18.919C33.6172 18.9574 33.7062 19.0118 33.7874 19.0824C33.8608 19.1611 33.9183 19.2482 33.96 19.3434C34.0017 19.4387 34.0275 19.5423 34.0293 19.6463C34.0311 19.7503 34.0089 19.8547 33.9706 19.9513Z" fill="white"/>
</g>
<defs>
<clipPath id="clip0_1153_123">
<rect width="16" height="16" fill="white" transform="translate(25.0352 8.60156) rotate(-1)"/>
</clipPath>
</defs>
</svg>
