<?xml version="1.0" encoding="UTF-8" standalone="no"?>
<svg
   xmlns:dc="http://purl.org/dc/elements/1.1/"
   xmlns:cc="http://creativecommons.org/ns#"
   xmlns:rdf="http://www.w3.org/1999/02/22-rdf-syntax-ns#"
   xmlns:svg="http://www.w3.org/2000/svg"
   xmlns="http://www.w3.org/2000/svg"
   xmlns:sodipodi="http://sodipodi.sourceforge.net/DTD/sodipodi-0.dtd"
   xmlns:inkscape="http://www.inkscape.org/namespaces/inkscape"
   viewBox="0 0 64 64"
   width="512"
   height="512"
   version="1.1"
   id="svg891"
   sodipodi:docname="mag.svg"
   inkscape:version="1.0.1 (3bc2e813f5, 2020-09-07)">
  <metadata
     id="metadata897">
    <rdf:RDF>
      <cc:Work
         rdf:about="">
        <dc:format>image/svg+xml</dc:format>
        <dc:type
           rdf:resource="http://purl.org/dc/dcmitype/StillImage" />
        <dc:title></dc:title>
      </cc:Work>
    </rdf:RDF>
  </metadata>
  <defs
     id="defs895" />
  <sodipodi:namedview
     pagecolor="#ffffff"
     bordercolor="#666666"
     borderopacity="1"
     objecttolerance="10"
     gridtolerance="10"
     guidetolerance="10"
     inkscape:pageopacity="0"
     inkscape:pageshadow="2"
     inkscape:window-width="1920"
     inkscape:window-height="1018"
     id="namedview893"
     showgrid="false"
     inkscape:zoom="1.4984952"
     inkscape:cx="188.95016"
     inkscape:cy="205.99901"
     inkscape:window-x="-8"
     inkscape:window-y="-8"
     inkscape:window-maximized="1"
     inkscape:current-layer="Layer_8"
     inkscape:document-rotation="0" />
  <ellipse
     style="fill:#b3b3b3;fill-rule:evenodd;stroke-width:0.139491"
     id="path8500"
     cx="31.785404"
     cy="32.274574"
     rx="30.200186"
     ry="30.790033" />
  <ellipse
     style="display:inline;fill:none;fill-rule:evenodd;stroke-width:0.144407"
     id="path918"
     ry="30.594534"
     rx="30.612244"
     cy="32"
     cx="32" />
  <g
     id="Layer_8"
     data-name="Layer 8"
     style="fill:#000000">
    <path
       d="M 32,1 A 31,31 0 1 0 63,32 31,31 0 0 0 32,1 Z m 0,60 A 29,29 0 1 1 61,32 29,29 0 0 1 32,61 Z"
       id="path884"
       style="display:inline;fill:#000000" />
    <path
       id="path886"
       style="display:inline;fill:#000000;stroke-width:8"
       d="m 254.81445,56 a 198.56,198.56 0 0 0 -117.85351,39.279297 8,8 0 0 0 -3.20117,5.839843 8,8 0 0 0 2.32031,6.24024 l 4.52734,4.52929 A 184.73094,186.03185 0 0 1 256.28125,70.900391 184.73094,186.03185 0 0 1 441.01172,256.93164 184.73094,186.03185 0 0 1 401.08594,372.44336 L 404.64062,376 a 8,8 0 0 0 5.67969,2.40039 h 0.56055 A 8,8 0 0 0 416.7207,375.19922 200,200 0 0 0 256,56 a 198.56,198.56 0 0 0 -1.18555,0 z"
       transform="scale(0.125)" />
    <path
       id="path888"
       style="display:inline;fill:#000000;stroke-width:8"
       d="m 101.80078,133.6582 a 8,8 0 0 0 -0.68164,0.0215 8,8 0 0 0 -5.839843,3.20117 200,200 0 0 0 280.000003,280 8,8 0 0 0 3.20117,-5.8418 8,8 0 0 0 -2.32031,-6.23828 l -3.44336,-3.44336 A 184.73094,186.03185 0 0 1 256.28125,442.96484 184.73094,186.03185 0 0 1 71.550781,256.93164 184.73094,186.03185 0 0 1 112.05273,140.69336 L 107.35938,136 a 8,8 0 0 0 -5.5586,-2.3418 z"
       transform="scale(0.125)" />
    <g
       id="g2229"
       transform="matrix(0.06085195,0,0,0.06085195,16.207263,16.696361)"
       style="display:inline;fill:#000000">
      <g
         id="g2154"
         style="fill:#000000">
        <g
           id="g2152"
           style="fill:#000000">
          <path
             d="m 153.389,260.473 c -0.001,-0.553 -0.605,-1.106 -0.706,-1.652 -0.022,-0.118 -0.043,-0.234 -0.069,-0.35 -0.108,-0.478 -0.24,-0.953 -0.424,-1.415 l -0.067,-0.168 c 0,0 0.539,-0.005 0.538,-0.007 L 135.297,212.123 V 139.37 C 135.297,81.209 98.046,7.805 96.48,4.711 93.313,-1.568 83.281,-1.568 80.114,4.711 78.549,7.805 42.108,81.209 42.108,139.37 v 72.754 l -18.638,44.76 v 0.005 l -0.242,0.168 c -0.185,0.462 -0.404,0.937 -0.512,1.415 -0.026,0.116 -0.091,0.232 -0.113,0.35 -0.101,0.548 0.354,1.099 0.353,1.652 0,0.014 0.514,0.027 0.514,0.041 v 214.334 c 0,5.151 2.33,9.319 9.319,9.319 v 18.638 c 0,5.151 3.092,9.196 8.238,9.196 h 93.189 c 5.146,0 10.4,-4.045 10.4,-9.196 v -18.638 c 4.659,0 9.319,-4.168 9.319,-9.319 V 260.514 c -0.002,-0.014 -0.546,-0.027 -0.546,-0.041 z M 60.745,139.369 c 0,-37.212 17.25,-83.142 27.961,-108.077 10.711,24.917 27.952,70.82 27.952,108.077 v 9.196 H 60.745 Z m 0,27.833 h 55.913 v 37.275 H 60.745 Z m -4.089,55.913 h 61.928 l 11.185,27.957 H 45.472 Z m 69.321,270.247 H 51.426 v -9.319 h 74.551 z m 9.319,-27.956 H 42.107 V 269.71 h 93.189 z"
             id="path2150"
             style="fill:#000000" />
        </g>
      </g>
      <g
         id="g2160"
         style="fill:#000000">
        <g
           id="g2158"
           style="fill:#000000">
          <path
             d="m 321.128,260.473 c -10e-4,-0.553 -0.605,-1.106 -0.706,-1.652 -0.022,-0.118 -0.043,-0.234 -0.069,-0.35 -0.108,-0.478 -0.24,-0.953 -0.424,-1.415 l -0.067,-0.168 c 0,0 0.539,-0.005 0.538,-0.007 L 303.036,212.123 V 139.37 c 0,-58.161 -37.251,-131.565 -38.817,-134.659 -3.167,-6.279 -13.199,-6.279 -16.366,0 -1.565,3.094 -38.006,76.498 -38.006,134.659 v 72.754 l -18.638,44.76 v 0.005 l -0.242,0.168 c -0.184,0.462 -0.404,0.937 -0.511,1.415 -0.026,0.116 -0.092,0.232 -0.114,0.35 -0.101,0.548 0.355,1.099 0.353,1.652 0,0.014 0.514,0.027 0.514,0.041 v 214.334 c 0,5.151 2.33,9.319 9.319,9.319 v 18.638 c 0,5.151 3.092,9.196 8.238,9.196 h 93.189 c 5.146,0 10.4,-4.045 10.4,-9.196 v -18.638 c 4.659,0 9.319,-4.168 9.319,-9.319 V 260.514 c -10e-4,-0.014 -0.546,-0.027 -0.546,-0.041 z M 228.484,139.369 c 0,-37.212 17.25,-83.142 27.961,-108.077 10.711,24.917 27.952,70.82 27.952,108.077 v 9.196 h -55.913 z m 0,27.833 h 55.913 v 37.275 h -55.913 z m -4.088,55.913 h 61.928 l 11.185,27.957 h -84.297 z m 69.32,270.247 h -74.551 v -9.319 h 74.551 z m 9.319,-27.956 H 209.846 V 269.71 h 93.189 z"
             id="path2156"
             style="fill:#000000" />
        </g>
      </g>
      <g
         id="g2166"
         style="fill:#000000">
        <g
           id="g2164"
           style="fill:#000000">
          <path
             d="m 488.867,260.473 c -0.001,-0.553 -0.605,-1.106 -0.706,-1.652 -0.022,-0.118 -0.043,-0.234 -0.069,-0.35 -0.108,-0.478 -0.24,-0.953 -0.424,-1.415 l -0.067,-0.168 c 0,0 0.539,-0.005 0.538,-0.007 L 470.775,212.123 V 139.37 c 0,-58.161 -37.251,-131.565 -38.817,-134.659 -3.167,-6.279 -13.199,-6.279 -16.366,0 -1.565,3.094 -38.006,76.498 -38.006,134.659 v 72.754 l -18.638,44.76 v 0.005 l -0.242,0.168 c -0.184,0.462 -0.404,0.937 -0.511,1.415 -0.026,0.116 -0.092,0.232 -0.114,0.35 -0.101,0.548 0.355,1.099 0.353,1.652 0,0.014 0.514,0.027 0.514,0.041 v 214.334 c 0,5.151 2.33,9.319 9.319,9.319 v 18.638 c 0,5.151 3.092,9.196 8.238,9.196 h 93.189 c 5.146,0 10.4,-4.045 10.4,-9.196 v -18.638 c 4.659,0 9.319,-4.168 9.319,-9.319 V 260.514 c -0.001,-0.014 -0.546,-0.027 -0.546,-0.041 z M 396.224,139.369 c 0,-37.212 17.25,-83.142 27.961,-108.077 10.711,24.917 27.952,70.82 27.952,108.077 v 9.196 h -55.913 z m 0,27.833 h 55.913 v 37.275 h -55.913 z m -4.089,55.913 h 61.928 l 11.185,27.957 h -84.297 z m 69.321,270.247 h -74.551 v -9.319 h 74.551 z m 9.318,-27.956 H 377.585 V 269.71 h 93.189 z"
             id="path2162"
             style="fill:#000000" />
        </g>
      </g>
      <g
         id="g2168"
         style="fill:#000000" />
      <g
         id="g2170"
         style="fill:#000000" />
      <g
         id="g2172"
         style="fill:#000000" />
      <g
         id="g2174"
         style="fill:#000000" />
      <g
         id="g2176"
         style="fill:#000000" />
      <g
         id="g2178"
         style="fill:#000000" />
      <g
         id="g2180"
         style="fill:#000000" />
      <g
         id="g2182"
         style="fill:#000000" />
      <g
         id="g2184"
         style="fill:#000000" />
      <g
         id="g2186"
         style="fill:#000000" />
      <g
         id="g2188"
         style="fill:#000000" />
      <g
         id="g2190"
         style="fill:#000000" />
      <g
         id="g2192"
         style="fill:#000000" />
      <g
         id="g2194"
         style="fill:#000000" />
      <g
         id="g2196"
         style="fill:#000000" />
    </g>
  </g>
</svg>
