<?xml version="1.0" encoding="UTF-8" standalone="no"?>
<svg
   xmlns:dc="http://purl.org/dc/elements/1.1/"
   xmlns:cc="http://creativecommons.org/ns#"
   xmlns:rdf="http://www.w3.org/1999/02/22-rdf-syntax-ns#"
   xmlns:svg="http://www.w3.org/2000/svg"
   xmlns="http://www.w3.org/2000/svg"
   xmlns:sodipodi="http://sodipodi.sourceforge.net/DTD/sodipodi-0.dtd"
   xmlns:inkscape="http://www.inkscape.org/namespaces/inkscape"
   viewBox="0 0 64 64"
   width="512"
   height="512"
   version="1.1"
   id="svg891"
   sodipodi:docname="no-sound.svg"
   inkscape:version="1.0.1 (3bc2e813f5, 2020-09-07)">
  <metadata
     id="metadata897">
    <rdf:RDF>
      <cc:Work
         rdf:about="">
        <dc:format>image/svg+xml</dc:format>
        <dc:type
           rdf:resource="http://purl.org/dc/dcmitype/StillImage" />
      </cc:Work>
    </rdf:RDF>
  </metadata>
  <defs
     id="defs895" />
  <sodipodi:namedview
     pagecolor="#ffffff"
     bordercolor="#666666"
     borderopacity="1"
     objecttolerance="10"
     gridtolerance="10"
     guidetolerance="10"
     inkscape:pageopacity="0"
     inkscape:pageshadow="2"
     inkscape:window-width="1920"
     inkscape:window-height="1018"
     id="namedview893"
     showgrid="false"
     inkscape:zoom="0.78862795"
     inkscape:cx="216.24247"
     inkscape:cy="306.38155"
     inkscape:window-x="-8"
     inkscape:window-y="-8"
     inkscape:window-maximized="1"
     inkscape:current-layer="svg891"
     inkscape:document-rotation="0" />
  <ellipse
     style="fill:#b3b3b3;fill-rule:evenodd;stroke-width:0.139491"
     id="path8500"
     cx="31.785404"
     cy="32.274574"
     rx="30.200186"
     ry="30.790033" />
  <ellipse
     style="display:inline;fill:none;fill-rule:evenodd;stroke-width:0.144407"
     id="path918"
     ry="30.594534"
     rx="30.612244"
     cy="32"
     cx="32" />
  <g
     id="Layer_8"
     data-name="Layer 8"
     style="fill:#000000">
    <path
       d="M 32,1 A 31,31 0 1 0 63,32 31,31 0 0 0 32,1 Z m 0,60 A 29,29 0 1 1 61,32 29,29 0 0 1 32,61 Z"
       id="path884"
       style="fill:#000000" />
    <path
       d="m 32,7 a 24.82,24.82 0 0 0 -14.88,4.91 1,1 0 0 0 -0.4,0.73 1,1 0 0 0 0.29,0.78 L 50.58,47 a 1,1 0 0 0 0.71,0.3 h 0.07 A 1,1 0 0 0 52.09,46.9 25,25 0 0 0 32,7 Z m 5,23.59 -2,-2 V 20.5 l 2,-0.93 z m -4,-4 -3.51,-3.51 3.51,-1.64 z m 18.15,18.15 -5.95,-6 A 8,8 0 0 0 41,24 v 2 a 6,6 0 0 1 2.74,11.33 L 42.21,35.79 A 4,4 0 0 0 41,28 v 2 a 2,2 0 0 1 0,4 v 0.59 l -2,-2 V 18 a 1,1 0 0 0 -0.46,-0.84 1,1 0 0 0 -1,-0.07 L 28,21.57 19.28,12.85 a 23,23 0 0 1 31.87,31.89 z"
       id="path886"
       style="fill:#000000" />
    <path
       d="m 13.42,17 a 1,1 0 0 0 -0.78,-0.29 1,1 0 0 0 -0.73,0.4 25,25 0 0 0 35,35 1,1 0 0 0 0.4,-0.73 1,1 0 0 0 -0.29,-0.78 z M 18,26 h 1.59 L 22,28.41 V 40 h -4 z m 6,4.41 9,9 v 3.87 l -9,-3 z m 11,11 2,2 v 1.2 L 35,44 Z M 32,55 A 23,23 0 0 1 12.85,19.26 L 17.59,24 H 17 a 1,1 0 0 0 -1,1 v 16 a 1,1 0 0 0 1,1 h 5.84 l 14.84,5 A 1.19,1.19 0 0 0 38,47 0.94,0.94 0 0 0 38.58,46.81 1,1 0 0 0 39,46 v -0.59 l 5.74,5.74 A 22.83,22.83 0 0 1 32,55 Z"
       id="path888"
       style="fill:#000000" />
  </g>
</svg>
