<?xml version="1.0" encoding="UTF-8" standalone="no"?>
<svg
   xmlns:dc="http://purl.org/dc/elements/1.1/"
   xmlns:cc="http://creativecommons.org/ns#"
   xmlns:rdf="http://www.w3.org/1999/02/22-rdf-syntax-ns#"
   xmlns:svg="http://www.w3.org/2000/svg"
   xmlns="http://www.w3.org/2000/svg"
   xmlns:sodipodi="http://sodipodi.sourceforge.net/DTD/sodipodi-0.dtd"
   xmlns:inkscape="http://www.inkscape.org/namespaces/inkscape"
   id="Layer"
   enable-background="new 0 0 64 64"
   height="512"
   viewBox="0 0 64 64"
   width="512"
   version="1.1"
   sodipodi:docname="sort.svg"
   inkscape:version="1.0.1 (3bc2e813f5, 2020-09-07)">
  <metadata
     id="metadata11">
    <rdf:RDF>
      <cc:Work
         rdf:about="">
        <dc:format>image/svg+xml</dc:format>
        <dc:type
           rdf:resource="http://purl.org/dc/dcmitype/StillImage" />
      </cc:Work>
    </rdf:RDF>
  </metadata>
  <defs
     id="defs9" />
  <sodipodi:namedview
     pagecolor="#ffffff"
     bordercolor="#666666"
     borderopacity="1"
     objecttolerance="10"
     gridtolerance="10"
     guidetolerance="10"
     inkscape:pageopacity="0"
     inkscape:pageshadow="2"
     inkscape:window-width="1920"
     inkscape:window-height="1018"
     id="namedview7"
     showgrid="false"
     inkscape:zoom="1.6181753"
     inkscape:cx="256"
     inkscape:cy="256"
     inkscape:window-x="-8"
     inkscape:window-y="-8"
     inkscape:window-maximized="1"
     inkscape:current-layer="Layer" />
  <path
     d="m31.414 15.586-7-7c-.78-.781-2.048-.781-2.828 0l-7 7c-.781.781-.781 2.047 0 2.828.78.781 2.048.781 2.828 0l3.586-3.586v39.172c0 1.104.896 2 2 2s2-.896 2-2v-39.172l3.586 3.586c.39.391.902.586 1.414.586s1.024-.195 1.414-.586c.781-.781.781-2.047 0-2.828z"
     id="path2"
     style="fill:#ffffff;stroke:#000000;stroke-opacity:1" />
  <path
     d="m49.414 45.586c-.781-.781-2.047-.781-2.828 0l-3.586 3.586v-39.172c0-1.104-.896-2-2-2s-2 .896-2 2v39.172l-3.586-3.586c-.781-.781-2.048-.781-2.828 0-.781.781-.781 2.047 0 2.828l7 7c.391.391.902.586 1.414.586s1.023-.195 1.414-.586l7-7c.781-.781.781-2.047 0-2.828z"
     id="path4"
     style="fill:#ffffff;stroke:#000000;stroke-opacity:1" />
</svg>
