<?xml version="1.0" encoding="UTF-8" standalone="no"?>
<svg
   xmlns:dc="http://purl.org/dc/elements/1.1/"
   xmlns:cc="http://creativecommons.org/ns#"
   xmlns:rdf="http://www.w3.org/1999/02/22-rdf-syntax-ns#"
   xmlns:svg="http://www.w3.org/2000/svg"
   xmlns="http://www.w3.org/2000/svg"
   xmlns:sodipodi="http://sodipodi.sourceforge.net/DTD/sodipodi-0.dtd"
   xmlns:inkscape="http://www.inkscape.org/namespaces/inkscape"
   viewBox="0 0 64 64"
   width="512"
   height="512"
   version="1.1"
   id="svg891"
   sodipodi:docname="taclight.svg"
   inkscape:version="1.0.1 (3bc2e813f5, 2020-09-07)">
  <metadata
     id="metadata897">
    <rdf:RDF>
      <cc:Work
         rdf:about="">
        <dc:format>image/svg+xml</dc:format>
        <dc:type
           rdf:resource="http://purl.org/dc/dcmitype/StillImage" />
        <dc:title></dc:title>
      </cc:Work>
    </rdf:RDF>
  </metadata>
  <defs
     id="defs895" />
  <sodipodi:namedview
     pagecolor="#ffffff"
     bordercolor="#666666"
     borderopacity="1"
     objecttolerance="10"
     gridtolerance="10"
     guidetolerance="10"
     inkscape:pageopacity="0"
     inkscape:pageshadow="2"
     inkscape:window-width="1920"
     inkscape:window-height="1018"
     id="namedview893"
     showgrid="false"
     inkscape:zoom="1.5373713"
     inkscape:cx="151.2968"
     inkscape:cy="218.51968"
     inkscape:window-x="-8"
     inkscape:window-y="-8"
     inkscape:window-maximized="1"
     inkscape:current-layer="Layer_8"
     inkscape:document-rotation="0" />
  <ellipse
     style="fill:#b3b3b3;fill-rule:evenodd;stroke-width:0.139491"
     id="path8500"
     cx="31.785404"
     cy="32.274574"
     rx="30.200186"
     ry="30.790033" />
  <ellipse
     style="display:inline;fill:none;fill-rule:evenodd;stroke-width:0.144407"
     id="path918"
     ry="30.594534"
     rx="30.612244"
     cy="32"
     cx="32" />
  <g
     id="Layer_8"
     data-name="Layer 8"
     style="display:inline;fill:#000000">
    <path
       d="M 32,1 A 31,31 0 1 0 63,32 31,31 0 0 0 32,1 Z m 0,60 A 29,29 0 1 1 61,32 29,29 0 0 1 32,61 Z"
       id="path884"
       style="display:inline;fill:#000000" />
    <path
       id="path886"
       style="display:inline;fill:#000000;stroke-width:8"
       d="m 254.81445,56 a 198.56,198.56 0 0 0 -117.85351,39.279297 8,8 0 0 0 -3.20117,5.839843 8,8 0 0 0 2.32031,6.24024 l 4.52734,4.52929 A 184.73094,186.03185 0 0 1 256.28125,70.900391 184.73094,186.03185 0 0 1 441.01172,256.93164 184.73094,186.03185 0 0 1 401.08594,372.44336 L 404.64062,376 a 8,8 0 0 0 5.67969,2.40039 h 0.56055 A 8,8 0 0 0 416.7207,375.19922 200,200 0 0 0 256,56 a 198.56,198.56 0 0 0 -1.18555,0 z"
       transform="scale(0.125)" />
    <path
       id="path888"
       style="display:inline;fill:#000000;stroke-width:8"
       d="m 101.80078,133.6582 a 8,8 0 0 0 -0.68164,0.0215 8,8 0 0 0 -5.839843,3.20117 200,200 0 0 0 280.000003,280 8,8 0 0 0 3.20117,-5.8418 8,8 0 0 0 -2.32031,-6.23828 l -3.44336,-3.44336 A 184.73094,186.03185 0 0 1 256.28125,442.96484 184.73094,186.03185 0 0 1 71.550781,256.93164 184.73094,186.03185 0 0 1 112.05273,140.69336 L 107.35938,136 a 8,8 0 0 0 -5.5586,-2.3418 z"
       transform="scale(0.125)" />
    <g
       id="g854"
       style="fill:#000000"
       transform="matrix(0.18966349,0,0,0.18966349,4.861075,1.5222228)"
       inkscape:label="g854">
      <path
         style="display:inline;fill:#000000"
         d="m 141.96392,73.491153 c -41.06,0 -74.465002,33.404997 -74.465002,74.464997 0,16.824 5.511,32.711 15.938,45.939 1.998,2.536 4.15,5.033 6.23,7.448 6.212,7.208 12.078002,14.017 14.166002,21.675 0.045,0.165 0.438,1.773 0.38,7.247 l -0.01,0.791 c -0.063,4.444 -0.147,10.528 4.352,15.091 3.081,3.125 7.399,4.645 13.204,4.645 h 40.272 c 6.268,0 10.774,-1.534 13.776,-4.689 4.061,-4.267 3.789,-9.779 3.608,-13.427 -0.032,-0.645 -0.066,-1.296 -0.074,-1.944 -0.065,-5.48 0.345,-7.025 0.362,-7.09 2.121,-7.657 8.993,-15.732 15.057,-22.855 2.023,-2.377 3.934,-4.622 5.714,-6.879 10.431,-13.23 15.944,-29.12 15.944,-45.951 0.001,-41.06 -33.399,-74.465997 -74.454,-74.465997 z m 46.732,111.127997 c -1.607,2.036 -3.429,4.178 -5.358,6.445 -7.07,8.307 -15.084,17.722 -18.089,28.572 -0.429,1.546 -0.988,4.395 -0.905,11.273 0.01,0.835 0.049,1.675 0.091,2.507 0.032,0.657 0.075,1.523 0.071,2.209 -0.528,0.086 -1.325,0.166 -2.475,0.166 h -40.272 c -1.276,0 -2.022,-0.135 -2.405,-0.237 -0.198,-0.977 -0.17,-3.007 -0.152,-4.287 l 0.012,-0.844 c 0.072,-6.919 -0.483,-9.789 -0.907,-11.348 -2.98,-10.936 -10.575,-19.749 -17.275,-27.524 -2.066002,-2.398 -4.019002,-4.664 -5.813002,-6.942 -8.32,-10.557 -12.718,-23.232 -12.718,-36.654 0,-32.789 26.676002,-59.464997 59.465002,-59.464997 32.783,0 59.455,26.675997 59.455,59.464997 -0.002,13.429 -4.401,26.108 -12.725,36.664 z"
         id="path840" />
    </g>
    <path
       d="M 63,32 A 31,31 0 1 0 32,63 31,31 0 0 0 63,32 Z M 2.9999994,32 A 29,29 0 1 1 32.000001,61.000002 29,29 0 0 1 2.9999994,32 Z"
       id="path2147"
       style="display:none;fill:#000000" />
  </g>
</svg>
