<svg width="32" height="32" viewBox="0 0 32 32" fill="none" xmlns="http://www.w3.org/2000/svg">
<path d="M16.0003 29.3327C23.3641 29.3327 29.3337 23.3631 29.3337 15.9993C29.3337 8.63555 23.3641 2.66602 16.0003 2.66602C8.63653 2.66602 2.66699 8.63555 2.66699 15.9993C2.66699 23.3631 8.63653 29.3327 16.0003 29.3327Z" stroke="white" stroke-width="3" stroke-linecap="round" stroke-linejoin="round"/>
<path d="M16 22.666H16.0133" stroke="white" stroke-width="3" stroke-linecap="round" stroke-linejoin="round"/>
<path d="M12.1201 12.0008C12.4336 11.1096 13.0523 10.3582 13.8667 9.8796C14.6811 9.40097 15.6386 9.22601 16.5697 9.38571C17.5007 9.54541 18.3452 10.0295 18.9536 10.7521C19.5619 11.4748 19.8949 12.3895 19.8934 13.3341C19.8934 16.0008 15.8935 17.3341 15.8935 17.3341" stroke="white" stroke-width="3" stroke-linecap="round" stroke-linejoin="round"/>
</svg>
