<svg width="24" height="24" viewBox="0 0 24 24" fill="none" xmlns="http://www.w3.org/2000/svg">
<g id="carburetor">
<path id="Vector" d="M23.0244 6.94634H21.8682C21.3291 6.94634 20.892 7.38344 20.892 7.92255V8.59816H20.3337L17.5163 5.98662V5.97042H17.4986L17.4794 5.95242L17.4626 5.97042H13.5671H13.4102V5.12621H16.589V4H6.32768V5.12621H9.50652V5.97042H9.40812H5.44537C5.01666 5.97042 4.66896 6.40753 4.66896 6.94634V8.10045H2.82664C2.29683 8.10045 1.86752 8.68456 1.86752 9.40577V10.6814H1.12591V7.50254H0V17.7636H1.12621V14.5853H1.86782V16.7334C1.86782 17.454 2.29743 18.0384 2.82694 18.0384H4.86306L7.29129 20.3874V20.4033H7.30809L7.32669 20.4219L7.34289 20.4033H11.0761H15.062H18.8597C19.2704 20.4033 19.6037 19.9662 19.6037 19.4271V17.7759H20.8917V18.9771C20.8917 19.5162 21.3288 19.9527 21.8679 19.9527H23.0241C23.5632 19.9527 24 19.5162 24 18.9771V7.92255C24.0003 7.38344 23.5635 6.94634 23.0244 6.94634ZM10.8973 16.9929L12.1601 13.6478H8.74721L11.0311 9.45527H12.7106L11.2027 12.2237H14.2814L10.8973 16.9929Z" fill="white"/>
</g>
</svg>
