<svg width="60" height="60" viewBox="0 0 60 60" fill="none" xmlns="http://www.w3.org/2000/svg">
<g opacity="0.24">
<path d="M43.9115 19.3804L40.7819 13.3783C40.1931 12.2296 39.2105 11.3351 38.0164 10.8608C37.4954 10.6583 36.0807 10.1613 35.5945 9.9913C35.5651 9.90826 35.5246 9.82963 35.4741 9.75755L34.6554 8.58972C34.2366 7.99281 33.7551 7.97239 33.5067 8.01301C32.3458 8.1964 31.1717 8.28201 29.9967 8.26896C28.8239 8.28218 27.6521 8.19657 26.4935 8.01301C26.2442 7.97239 25.7631 7.99281 25.3446 8.59016L24.5258 9.75755C24.4755 9.82968 24.435 9.9083 24.4055 9.9913C23.9193 10.1613 22.5046 10.6572 21.9835 10.8608C20.7894 11.335 19.8067 12.2295 19.2178 13.3783L16.0884 19.3804C16.0381 19.4769 16.0085 19.5829 16.0016 19.6917C15.9946 19.8005 16.0105 19.9095 16.0481 20.0117C16.0857 20.1138 16.1443 20.2069 16.22 20.2848C16.2956 20.3627 16.3867 20.4237 16.4873 20.4639L21.1377 22.3609C21.2233 22.3958 21.2958 22.457 21.345 22.5357C21.3943 22.6144 21.4177 22.7067 21.4121 22.7995L20.6627 35.1753C20.6562 35.2811 20.6713 35.3872 20.7071 35.4869C20.7428 35.5866 20.7984 35.6779 20.8705 35.7551C20.9426 35.8324 21.0296 35.8939 21.1262 35.9361C21.2227 35.9782 21.3269 35.9999 21.4321 36H38.5678C38.6731 36 38.7772 35.9783 38.8738 35.9362C38.9704 35.8942 39.0575 35.8326 39.1296 35.7554C39.2017 35.6782 39.2573 35.587 39.2931 35.4873C39.3289 35.3876 39.3441 35.2816 39.3377 35.1758L38.5883 22.8055C38.5827 22.7127 38.6061 22.6205 38.6553 22.5419C38.7045 22.4632 38.777 22.4021 38.8625 22.3671L43.5084 20.4661C43.6096 20.4264 43.7014 20.3656 43.7777 20.2878C43.8539 20.2099 43.913 20.1167 43.9511 20.0143C43.9891 19.9119 44.0053 19.8025 43.9985 19.6933C43.9917 19.5841 43.962 19.4777 43.9115 19.3808V19.3804ZM26.6579 8.71869C27.4326 8.7915 29.0642 8.94577 29.9967 8.93601C30.9444 8.94577 32.5753 8.78262 33.3467 8.71247C33.3875 8.70901 33.4284 8.71707 33.4649 8.73573C33.5015 8.7544 33.5321 8.78295 33.5534 8.81817C33.5747 8.85339 33.5858 8.89389 33.5856 8.93513C33.5853 8.97637 33.5736 9.01672 33.5519 9.05166C32.8124 10.1489 31.3973 11.1471 30.1016 11.824C30.0702 11.8404 30.0353 11.849 30 11.849C29.9646 11.849 29.9298 11.8404 29.8984 11.824C28.6051 11.1491 27.1926 10.1536 26.4516 9.05854C26.4296 9.02351 26.4177 8.98298 26.4174 8.94152C26.4171 8.90005 26.4283 8.85933 26.4497 8.82396C26.4712 8.78858 26.5021 8.75997 26.5389 8.74137C26.5757 8.72276 26.6169 8.7149 26.6579 8.71869ZM24.4127 10.6943C24.418 10.7085 24.4218 10.7229 24.4277 10.7367C24.916 11.8906 25.6451 12.9251 26.5656 13.7701C26.8285 14.0106 27.1716 14.1429 27.5268 14.1405C27.882 14.1381 28.2233 14.0013 28.483 13.7572L29.8565 12.5498C29.8966 12.5146 29.9481 12.4951 30.0014 12.4951C30.0547 12.4951 30.1062 12.5146 30.1463 12.5498L31.5128 13.7501C31.7722 13.9966 32.1144 14.1356 32.4711 14.1393C32.8278 14.143 33.1728 14.0112 33.4373 13.7701C34.3577 12.9251 35.0868 11.8906 35.5751 10.7367C35.581 10.7229 35.5848 10.7085 35.5901 10.6945C35.762 10.7547 35.98 10.8315 36.2129 10.9138L36.2164 10.9218C35.6884 12.1946 34.8897 13.3354 33.8767 14.2637C33.5685 14.5457 33.183 14.7276 32.7706 14.7857C32.3582 14.8437 31.938 14.7752 31.5648 14.5892C31.4458 14.5229 31.3319 14.4476 31.2243 14.3639C31.2079 14.3515 31.1884 14.344 31.168 14.3421C31.1477 14.3403 31.1272 14.3442 31.1089 14.3534C31.0906 14.3626 31.0752 14.3768 31.0644 14.3943C31.0537 14.4118 31.048 14.432 31.048 14.4526V15.6644C31.048 15.7338 31.0344 15.8025 31.0081 15.8666C30.9817 15.9308 30.9431 15.989 30.8944 16.0381C30.8457 16.0871 30.7878 16.1261 30.7242 16.1526C30.6605 16.1791 30.5923 16.1928 30.5234 16.1927H29.4754C29.4065 16.1928 29.3383 16.1791 29.2747 16.1526C29.211 16.1261 29.1532 16.0871 29.1045 16.0381C29.0557 15.989 29.0171 15.9308 28.9908 15.8666C28.9644 15.8025 28.9509 15.7338 28.9509 15.6644V14.4566C28.9509 14.436 28.9452 14.4158 28.9344 14.3983C28.9237 14.3808 28.9083 14.3666 28.89 14.3574C28.8717 14.3482 28.8512 14.3443 28.8308 14.3461C28.8104 14.348 28.7909 14.3555 28.7746 14.3679C28.6789 14.4427 28.5782 14.5107 28.4731 14.5714C28.0969 14.7673 27.6703 14.8428 27.2504 14.7878C26.8304 14.7328 26.4372 14.55 26.1232 14.2637C25.1114 13.3349 24.314 12.194 23.787 10.9214L23.7906 10.9134C24.0229 10.831 24.2408 10.7542 24.4127 10.6943Z" fill="white"/>
<path d="M30.0001 14.3285C30.2112 14.3285 30.3824 14.1561 30.3824 13.9434C30.3824 13.7307 30.2112 13.5582 30.0001 13.5582C29.7889 13.5582 29.6177 13.7307 29.6177 13.9434C29.6177 14.1561 29.7889 14.3285 30.0001 14.3285Z" fill="white"/>
<path d="M16.6884 47.968C16.3844 47.968 16.1204 48.0293 15.8964 48.152C15.6778 48.2747 15.4991 48.44 15.3604 48.648C15.2218 48.8507 15.1178 49.0827 15.0484 49.344C14.9844 49.6053 14.9524 49.872 14.9524 50.144C14.9524 50.416 14.9844 50.6827 15.0484 50.944C15.1178 51.2053 15.2218 51.44 15.3604 51.648C15.4991 51.8507 15.6778 52.0133 15.8964 52.136C16.1204 52.2587 16.3844 52.32 16.6884 52.32C16.9924 52.32 17.2538 52.2587 17.4724 52.136C17.6964 52.0133 17.8778 51.8507 18.0164 51.648C18.1551 51.44 18.2564 51.2053 18.3204 50.944C18.3898 50.6827 18.4244 50.416 18.4244 50.144C18.4244 49.872 18.3898 49.6053 18.3204 49.344C18.2564 49.0827 18.1551 48.8507 18.0164 48.648C17.8778 48.44 17.6964 48.2747 17.4724 48.152C17.2538 48.0293 16.9924 47.968 16.6884 47.968ZM16.6884 47.152C17.1151 47.152 17.4964 47.232 17.8324 47.392C18.1738 47.552 18.4618 47.768 18.6964 48.04C18.9311 48.312 19.1098 48.6293 19.2324 48.992C19.3604 49.3547 19.4244 49.7387 19.4244 50.144C19.4244 50.5547 19.3604 50.9413 19.2324 51.304C19.1098 51.6667 18.9311 51.984 18.6964 52.256C18.4618 52.528 18.1738 52.744 17.8324 52.904C17.4964 53.0587 17.1151 53.136 16.6884 53.136C16.2618 53.136 15.8778 53.0587 15.5364 52.904C15.2004 52.744 14.9151 52.528 14.6804 52.256C14.4458 51.984 14.2644 51.6667 14.1364 51.304C14.0138 50.9413 13.9524 50.5547 13.9524 50.144C13.9524 49.7387 14.0138 49.3547 14.1364 48.992C14.2644 48.6293 14.4458 48.312 14.6804 48.04C14.9151 47.768 15.2004 47.552 15.5364 47.392C15.8778 47.232 16.2618 47.152 16.6884 47.152ZM20.6466 54.256H19.8066V52.32H20.3266C20.4066 52.2987 20.4812 52.2587 20.5506 52.2C20.6786 52.104 20.7692 51.9653 20.8226 51.784C20.8546 51.6827 20.8786 51.584 20.8946 51.488C20.9159 51.3867 20.9319 51.28 20.9426 51.168C20.9586 51.056 20.9692 50.9307 20.9746 50.792C20.9799 50.6533 20.9852 50.4933 20.9906 50.312C20.9959 50.1307 20.9986 49.9253 20.9986 49.696C21.0039 49.4613 21.0066 49.184 21.0066 48.864H24.4386V52.32H25.1746V54.256H24.3346V53H20.6466V54.256ZM23.5266 49.544H21.9266C21.9266 49.8907 21.9239 50.1973 21.9186 50.464C21.9132 50.7253 21.9026 50.9573 21.8866 51.16C21.8759 51.3627 21.8599 51.5413 21.8386 51.696C21.8172 51.8453 21.7879 51.9787 21.7506 52.096C21.7292 52.176 21.7052 52.2507 21.6786 52.32H23.5266V49.544ZM28.5778 50.568C28.5671 50.424 28.5351 50.2853 28.4818 50.152C28.4338 50.0187 28.3645 49.904 28.2738 49.808C28.1885 49.7067 28.0818 49.6267 27.9538 49.568C27.8311 49.504 27.6925 49.472 27.5378 49.472C27.3778 49.472 27.2311 49.5013 27.0978 49.56C26.9698 49.6133 26.8578 49.6907 26.7618 49.792C26.6711 49.888 26.5965 50.0027 26.5378 50.136C26.4845 50.2693 26.4551 50.4133 26.4498 50.568H28.5778ZM26.4498 51.168C26.4498 51.328 26.4711 51.4827 26.5138 51.632C26.5618 51.7813 26.6311 51.912 26.7218 52.024C26.8125 52.136 26.9271 52.2267 27.0658 52.296C27.2045 52.36 27.3698 52.392 27.5618 52.392C27.8285 52.392 28.0418 52.336 28.2018 52.224C28.3671 52.1067 28.4898 51.9333 28.5698 51.704H29.4338C29.3858 51.928 29.3031 52.128 29.1858 52.304C29.0685 52.48 28.9271 52.6293 28.7618 52.752C28.5965 52.8693 28.4098 52.9573 28.2018 53.016C27.9991 53.08 27.7858 53.112 27.5618 53.112C27.2365 53.112 26.9485 53.0587 26.6978 52.952C26.4471 52.8453 26.2338 52.696 26.0578 52.504C25.8871 52.312 25.7565 52.0827 25.6658 51.816C25.5805 51.5493 25.5378 51.256 25.5378 50.936C25.5378 50.6427 25.5831 50.3653 25.6738 50.104C25.7698 49.8373 25.9031 49.6053 26.0738 49.408C26.2498 49.2053 26.4605 49.0453 26.7058 48.928C26.9511 48.8107 27.2285 48.752 27.5378 48.752C27.8631 48.752 28.1538 48.8213 28.4098 48.96C28.6711 49.0933 28.8871 49.272 29.0578 49.496C29.2285 49.72 29.3511 49.9787 29.4258 50.272C29.5058 50.56 29.5271 50.8587 29.4898 51.168H26.4498ZM32.5831 51.52L32.0391 50.992L30.7751 53H29.6631L31.3991 50.384L29.8151 48.864H30.9351L32.5831 50.536V48.864H33.4951V50.536L35.1431 48.864H36.2631L34.6791 50.384L36.4151 53H35.3031L34.0391 50.992L33.4951 51.52V53H32.5831V51.52ZM37.295 54.256H36.455V52.32H36.975C37.055 52.2987 37.1297 52.2587 37.199 52.2C37.327 52.104 37.4177 51.9653 37.471 51.784C37.503 51.6827 37.527 51.584 37.543 51.488C37.5643 51.3867 37.5803 51.28 37.591 51.168C37.607 51.056 37.6177 50.9307 37.623 50.792C37.6283 50.6533 37.6337 50.4933 37.639 50.312C37.6443 50.1307 37.647 49.9253 37.647 49.696C37.6523 49.4613 37.655 49.184 37.655 48.864H41.087V52.32H41.823V54.256H40.983V53H37.295V54.256ZM40.175 49.544H38.575C38.575 49.8907 38.5723 50.1973 38.567 50.464C38.5617 50.7253 38.551 50.9573 38.535 51.16C38.5243 51.3627 38.5083 51.5413 38.487 51.696C38.4657 51.8453 38.4363 51.9787 38.399 52.096C38.3777 52.176 38.3537 52.2507 38.327 52.32H40.175V49.544ZM45.8503 52.08C45.8503 52.192 45.8636 52.272 45.8903 52.32C45.9223 52.368 45.9809 52.392 46.0663 52.392H46.1623C46.1996 52.392 46.2423 52.3867 46.2903 52.376V53.008C46.2583 53.0187 46.2156 53.0293 46.1623 53.04C46.1143 53.056 46.0636 53.0693 46.0103 53.08C45.9569 53.0907 45.9036 53.0987 45.8503 53.104C45.7969 53.1093 45.7516 53.112 45.7143 53.112C45.5276 53.112 45.3729 53.0747 45.2503 53C45.1276 52.9253 45.0476 52.7947 45.0103 52.608C44.8289 52.784 44.6049 52.912 44.3383 52.992C44.0769 53.072 43.8236 53.112 43.5783 53.112C43.3916 53.112 43.2129 53.0853 43.0423 53.032C42.8716 52.984 42.7196 52.912 42.5863 52.816C42.4583 52.7147 42.3543 52.5893 42.2743 52.44C42.1996 52.2853 42.1623 52.1067 42.1623 51.904C42.1623 51.648 42.2076 51.44 42.2983 51.28C42.3943 51.12 42.5169 50.9947 42.6663 50.904C42.8209 50.8133 42.9916 50.7493 43.1783 50.712C43.3703 50.6693 43.5623 50.6373 43.7543 50.616C43.9196 50.584 44.0769 50.5627 44.2263 50.552C44.3756 50.536 44.5063 50.512 44.6183 50.48C44.7356 50.448 44.8263 50.4 44.8903 50.336C44.9596 50.2667 44.9943 50.1653 44.9943 50.032C44.9943 49.9147 44.9649 49.8187 44.9063 49.744C44.8529 49.6693 44.7836 49.6133 44.6983 49.576C44.6183 49.5333 44.5276 49.5067 44.4263 49.496C44.3249 49.48 44.2289 49.472 44.1383 49.472C43.8823 49.472 43.6716 49.5253 43.5063 49.632C43.3409 49.7387 43.2476 49.904 43.2263 50.128H42.3143C42.3303 49.8613 42.3943 49.64 42.5063 49.464C42.6183 49.288 42.7596 49.1467 42.9303 49.04C43.1063 48.9333 43.3036 48.8587 43.5223 48.816C43.7409 48.7733 43.9649 48.752 44.1943 48.752C44.3969 48.752 44.5969 48.7733 44.7943 48.816C44.9916 48.8587 45.1676 48.928 45.3223 49.024C45.4823 49.12 45.6103 49.2453 45.7063 49.4C45.8023 49.5493 45.8503 49.7333 45.8503 49.952V52.08ZM44.9383 50.928C44.7996 51.0187 44.6289 51.0747 44.4263 51.096C44.2236 51.112 44.0209 51.1387 43.8183 51.176C43.7223 51.192 43.6289 51.216 43.5383 51.248C43.4476 51.2747 43.3676 51.3147 43.2983 51.368C43.2289 51.416 43.1729 51.4827 43.1303 51.568C43.0929 51.648 43.0743 51.7467 43.0743 51.864C43.0743 51.9653 43.1036 52.0507 43.1623 52.12C43.2209 52.1893 43.2903 52.2453 43.3703 52.288C43.4556 52.3253 43.5463 52.352 43.6423 52.368C43.7436 52.384 43.8343 52.392 43.9143 52.392C44.0156 52.392 44.1249 52.3787 44.2423 52.352C44.3596 52.3253 44.4689 52.28 44.5703 52.216C44.6769 52.152 44.7649 52.072 44.8343 51.976C44.9036 51.8747 44.9383 51.752 44.9383 51.608V50.928Z" fill="white"/>
</g>
</svg>
