<svg width="24" height="24" viewBox="0 0 24 24" fill="none" xmlns="http://www.w3.org/2000/svg">
<g id="compas">
<path id="icon" fill-rule="evenodd" clip-rule="evenodd" d="M12 22.9998C5.92487 22.9998 1 18.0749 1 11.9998C1 5.92462 5.92487 0.999756 12 0.999756C18.0751 0.999756 23 5.92462 23 11.9998C23 18.0749 18.0751 22.9998 12 22.9998ZM12 20.9998C16.9706 20.9998 21 16.9703 21 11.9998C21 7.02919 16.9706 2.99976 12 2.99976C7.02944 2.99976 3 7.02919 3 11.9998C3 16.9703 7.02944 20.9998 12 20.9998ZM14.7906 14.7903L17.5811 6.41862L9.20943 9.20919L6.41886 17.5809L14.7906 14.7903ZM13.2094 13.2092L9.58114 14.4186L10.7906 10.7903L14.4189 9.58089L13.2094 13.2092Z" fill="white"/>
</g>
</svg>
