<svg width="9" height="203" viewBox="0 0 9 203" fill="none" xmlns="http://www.w3.org/2000/svg">
<g clip-path="url(#clip0)">
<path opacity="0.4" d="M4.38465 7.21875C2.76926 7.21875 1.38465 5.90625 1.38465 4.375C1.38465 2.625 2.76926 1.53125 4.38465 1.53125C6.00003 1.53125 7.38464 2.84375 7.38464 4.375C7.38464 5.90625 6.2308 7.21875 4.38465 7.21875Z" fill="#F04D26"/>
<path opacity="0.4" d="M4.38465 28.875C2.76926 28.875 1.38465 27.5625 1.38465 26.0312C1.38465 24.5 2.76926 23.1875 4.38465 23.1875C6.00003 23.1875 7.38464 24.5 7.38464 26.0312C7.38464 27.5625 6.2308 28.875 4.38465 28.875Z" fill="#F04D26"/>
<path opacity="0.4" d="M4.38465 50.75C2.76926 50.75 1.38465 49.4375 1.38465 47.9062C1.38465 46.375 2.76926 45.0625 4.38465 45.0625C6.00003 45.0625 7.38464 46.375 7.38464 47.9062C7.38464 49.4375 6.2308 50.75 4.38465 50.75Z" fill="#F04D26"/>
<path opacity="0.4" d="M4.38465 72.4062C2.76926 72.4062 1.38465 71.0938 1.38465 69.5625C1.38465 68.0312 2.76926 66.7187 4.38465 66.7187C6.00003 66.7187 7.38464 68.0312 7.38464 69.5625C7.38464 71.0938 6.2308 72.4062 4.38465 72.4062Z" fill="#F04D26"/>
<path opacity="0.4" d="M4.38465 94.2812C2.76926 94.2812 1.38465 92.9687 1.38465 91.4375C1.38465 89.9062 2.76926 88.5937 4.38465 88.5937C6.00003 88.5937 7.38464 89.9062 7.38464 91.4375C7.38464 92.9687 6.2308 94.2812 4.38465 94.2812Z" fill="#F04D26"/>
<path opacity="0.4" d="M4.38465 115.938C2.76926 115.938 1.38465 114.625 1.38465 113.094C1.38465 111.563 2.76926 110.25 4.38465 110.25C6.00003 110.25 7.38464 111.563 7.38464 113.094C7.38464 114.625 6.2308 115.938 4.38465 115.938Z" fill="#F04D26"/>
<path opacity="0.4" d="M4.38465 137.812C2.76926 137.812 1.38465 136.5 1.38465 134.969C1.38465 133.438 2.76926 132.125 4.38465 132.125C6.00003 132.125 7.38464 133.438 7.38464 134.969C7.38464 136.5 6.2308 137.812 4.38465 137.812Z" fill="#F04D26"/>
<path opacity="0.4" d="M4.38465 159.469C2.76926 159.469 1.38465 158.156 1.38465 156.625C1.38465 155.094 2.76926 153.781 4.38465 153.781C6.00003 153.781 7.38464 155.094 7.38464 156.625C7.38464 158.156 6.2308 159.469 4.38465 159.469Z" fill="#F04D26"/>
<path opacity="0.4" d="M4.38465 181.344C2.76926 181.344 1.38465 180.031 1.38465 178.5C1.38465 176.969 2.76926 175.656 4.38465 175.656C6.00003 175.656 7.38464 176.969 7.38464 178.5C7.38464 180.031 6.2308 181.344 4.38465 181.344Z" fill="#F04D26"/>
<path opacity="0.4" d="M4.38465 203C2.76926 203 1.38465 201.688 1.38465 200.156C1.38465 198.625 2.76926 197.312 4.38465 197.312C6.00003 197.312 7.38464 198.625 7.38464 200.156C7.38464 201.688 6.2308 203 4.38465 203Z" fill="#F04D26"/>
<path d="M8.39183e-06 4.375C8.49701e-06 1.96875 2.07693 -3.02617e-07 4.38462 -2.01745e-07C6.92308 -9.07851e-08 9 1.96875 9 4.375C9 6.78125 6.92308 8.75 4.38462 8.75C2.07693 8.53125 8.29621e-06 6.5625 8.39183e-06 4.375Z" fill="white"/>
<path d="M7.41954e-05 26.0312C7.43005e-05 23.625 2.077 21.6562 4.61545 21.6562C7.15391 21.6562 9.23083 23.625 9.23083 26.0312C9.23083 28.4375 7.15391 30.4062 4.61545 30.4062C2.07699 30.4062 7.40902e-05 28.4375 7.41954e-05 26.0312Z" fill="#F04D26"/>
<path d="M7.5149e-05 47.9062C7.52542e-05 45.5 2.077 43.5312 4.61546 43.5312C7.15391 43.5312 9.23083 45.5 9.23083 47.9062C9.23083 50.3125 7.15391 52.2812 4.61545 52.2812C2.077 52.0625 7.50534e-05 50.0937 7.5149e-05 47.9062Z" fill="#F04D26"/>
</g>
<defs>
<clipPath id="clip0">
<rect width="203" height="8.99999" fill="white" transform="translate(9) rotate(90)"/>
</clipPath>
</defs>
</svg>
