<svg width="1918" height="1080" viewBox="0 0 1918 1080" fill="none" xmlns="http://www.w3.org/2000/svg">
<g opacity="0.1">
<path d="M70.9105 -43.1379H2.46216V25.2636H70.9105V-43.1379Z" stroke="white" stroke-width="0.5" stroke-miterlimit="10"/>
<path d="M70.9105 25.2636H2.46216V93.6652H70.9105V25.2636Z" stroke="white" stroke-width="0.5" stroke-miterlimit="10"/>
<path d="M70.9105 93.4192H2.46216V161.821H70.9105V93.4192Z" stroke="white" stroke-width="0.5" stroke-miterlimit="10"/>
<path d="M70.9105 161.821H2.46216V230.222H70.9105V161.821Z" stroke="white" stroke-width="0.5" stroke-miterlimit="10"/>
<path d="M70.9105 230.222H2.46216V298.624H70.9105V230.222Z" stroke="white" stroke-width="0.5" stroke-miterlimit="10"/>
<path d="M70.9105 298.624H2.46216V367.026H70.9105V298.624Z" stroke="white" stroke-width="0.5" stroke-miterlimit="10"/>
<path d="M70.9105 366.779H2.46216V435.181H70.9105V366.779Z" stroke="white" stroke-width="0.5" stroke-miterlimit="10"/>
<path d="M70.9105 435.181H2.46216V503.583H70.9105V435.181Z" stroke="white" stroke-width="0.5" stroke-miterlimit="10"/>
<path d="M70.9105 503.583H2.46216V571.984H70.9105V503.583Z" stroke="white" stroke-width="0.5" stroke-miterlimit="10"/>
<path d="M70.9105 571.984H2.46216V640.386H70.9105V571.984Z" stroke="white" stroke-width="0.5" stroke-miterlimit="10"/>
<path d="M70.9105 640.386H2.46216V708.787H70.9105V640.386Z" stroke="white" stroke-width="0.5" stroke-miterlimit="10"/>
<path d="M70.9105 708.541H2.46216V776.943H70.9105V708.541Z" stroke="white" stroke-width="0.5" stroke-miterlimit="10"/>
<path d="M70.9105 776.943H2.46216V845.344H70.9105V776.943Z" stroke="white" stroke-width="0.5" stroke-miterlimit="10"/>
<path d="M70.9105 845.344H2.46216V913.746H70.9105V845.344Z" stroke="white" stroke-width="0.5" stroke-miterlimit="10"/>
<path d="M70.9105 913.746H2.46216V982.148H70.9105V913.746Z" stroke="white" stroke-width="0.5" stroke-miterlimit="10"/>
<path d="M70.9105 981.902H2.46216V1050.3H70.9105V981.902Z" stroke="white" stroke-width="0.5" stroke-miterlimit="10"/>
<path d="M70.9105 1050.3H2.46216V1118.7H70.9105V1050.3Z" stroke="white" stroke-width="0.5" stroke-miterlimit="10"/>
<path d="M139.359 -43.1379H70.9104V25.2636H139.359V-43.1379Z" stroke="white" stroke-width="0.5" stroke-miterlimit="10"/>
<path d="M139.359 25.2636H70.9104V93.6652H139.359V25.2636Z" stroke="white" stroke-width="0.5" stroke-miterlimit="10"/>
<path d="M139.359 93.4192H70.9104V161.821H139.359V93.4192Z" stroke="white" stroke-width="0.5" stroke-miterlimit="10"/>
<path d="M139.359 161.821H70.9104V230.222H139.359V161.821Z" stroke="white" stroke-width="0.5" stroke-miterlimit="10"/>
<path d="M139.359 230.222H70.9104V298.624H139.359V230.222Z" stroke="white" stroke-width="0.5" stroke-miterlimit="10"/>
<path d="M139.359 298.624H70.9104V367.026H139.359V298.624Z" stroke="white" stroke-width="0.5" stroke-miterlimit="10"/>
<path d="M139.359 366.779H70.9104V435.181H139.359V366.779Z" stroke="white" stroke-width="0.5" stroke-miterlimit="10"/>
<path d="M139.359 435.181H70.9104V503.583H139.359V435.181Z" stroke="white" stroke-width="0.5" stroke-miterlimit="10"/>
<path d="M139.359 503.583H70.9104V571.984H139.359V503.583Z" stroke="white" stroke-width="0.5" stroke-miterlimit="10"/>
<path d="M139.359 571.984H70.9104V640.386H139.359V571.984Z" stroke="white" stroke-width="0.5" stroke-miterlimit="10"/>
<path d="M139.359 640.386H70.9104V708.787H139.359V640.386Z" stroke="white" stroke-width="0.5" stroke-miterlimit="10"/>
<path d="M139.359 708.541H70.9104V776.943H139.359V708.541Z" stroke="white" stroke-width="0.5" stroke-miterlimit="10"/>
<path d="M139.359 776.943H70.9104V845.344H139.359V776.943Z" stroke="white" stroke-width="0.5" stroke-miterlimit="10"/>
<path d="M139.359 845.344H70.9104V913.746H139.359V845.344Z" stroke="white" stroke-width="0.5" stroke-miterlimit="10"/>
<path d="M139.359 913.746H70.9104V982.148H139.359V913.746Z" stroke="white" stroke-width="0.5" stroke-miterlimit="10"/>
<path d="M139.359 981.902H70.9104V1050.3H139.359V981.902Z" stroke="white" stroke-width="0.5" stroke-miterlimit="10"/>
<path d="M139.359 1050.3H70.9104V1118.7H139.359V1050.3Z" stroke="white" stroke-width="0.5" stroke-miterlimit="10"/>
<path d="M207.807 -43.1379H139.359V25.2636H207.807V-43.1379Z" stroke="white" stroke-width="0.5" stroke-miterlimit="10"/>
<path d="M207.807 25.2636H139.359V93.6652H207.807V25.2636Z" stroke="white" stroke-width="0.5" stroke-miterlimit="10"/>
<path d="M207.807 93.4192H139.359V161.821H207.807V93.4192Z" stroke="white" stroke-width="0.5" stroke-miterlimit="10"/>
<path d="M207.807 161.821H139.359V230.222H207.807V161.821Z" stroke="white" stroke-width="0.5" stroke-miterlimit="10"/>
<path d="M207.807 230.222H139.359V298.624H207.807V230.222Z" stroke="white" stroke-width="0.5" stroke-miterlimit="10"/>
<path d="M207.807 298.624H139.359V367.026H207.807V298.624Z" stroke="white" stroke-width="0.5" stroke-miterlimit="10"/>
<path d="M207.807 366.779H139.359V435.181H207.807V366.779Z" stroke="white" stroke-width="0.5" stroke-miterlimit="10"/>
<path d="M207.807 435.181H139.359V503.583H207.807V435.181Z" stroke="white" stroke-width="0.5" stroke-miterlimit="10"/>
<path d="M207.807 503.583H139.359V571.984H207.807V503.583Z" stroke="white" stroke-width="0.5" stroke-miterlimit="10"/>
<path d="M207.807 571.984H139.359V640.386H207.807V571.984Z" stroke="white" stroke-width="0.5" stroke-miterlimit="10"/>
<path d="M207.807 640.386H139.359V708.787H207.807V640.386Z" stroke="white" stroke-width="0.5" stroke-miterlimit="10"/>
<path d="M207.807 708.541H139.359V776.943H207.807V708.541Z" stroke="white" stroke-width="0.5" stroke-miterlimit="10"/>
<path d="M207.807 776.943H139.359V845.344H207.807V776.943Z" stroke="white" stroke-width="0.5" stroke-miterlimit="10"/>
<path d="M207.807 845.344H139.359V913.746H207.807V845.344Z" stroke="white" stroke-width="0.5" stroke-miterlimit="10"/>
<path d="M207.807 913.746H139.359V982.148H207.807V913.746Z" stroke="white" stroke-width="0.5" stroke-miterlimit="10"/>
<path d="M207.807 981.902H139.359V1050.3H207.807V981.902Z" stroke="white" stroke-width="0.5" stroke-miterlimit="10"/>
<path d="M207.807 1050.3H139.359V1118.7H207.807V1050.3Z" stroke="white" stroke-width="0.5" stroke-miterlimit="10"/>
<path d="M276.009 -43.1379H207.561V25.2636H276.009V-43.1379Z" stroke="white" stroke-width="0.5" stroke-miterlimit="10"/>
<path d="M276.009 25.2636H207.561V93.6652H276.009V25.2636Z" stroke="white" stroke-width="0.5" stroke-miterlimit="10"/>
<path d="M276.009 93.4192H207.561V161.821H276.009V93.4192Z" stroke="white" stroke-width="0.5" stroke-miterlimit="10"/>
<path d="M276.009 161.821H207.561V230.222H276.009V161.821Z" stroke="white" stroke-width="0.5" stroke-miterlimit="10"/>
<path d="M276.009 230.222H207.561V298.624H276.009V230.222Z" stroke="white" stroke-width="0.5" stroke-miterlimit="10"/>
<path d="M276.009 298.624H207.561V367.026H276.009V298.624Z" stroke="white" stroke-width="0.5" stroke-miterlimit="10"/>
<path d="M276.009 366.779H207.561V435.181H276.009V366.779Z" stroke="white" stroke-width="0.5" stroke-miterlimit="10"/>
<path d="M276.009 435.181H207.561V503.583H276.009V435.181Z" stroke="white" stroke-width="0.5" stroke-miterlimit="10"/>
<path d="M276.009 503.583H207.561V571.984H276.009V503.583Z" stroke="white" stroke-width="0.5" stroke-miterlimit="10"/>
<path d="M276.009 571.984H207.561V640.386H276.009V571.984Z" stroke="white" stroke-width="0.5" stroke-miterlimit="10"/>
<path d="M276.009 640.386H207.561V708.787H276.009V640.386Z" stroke="white" stroke-width="0.5" stroke-miterlimit="10"/>
<path d="M276.009 708.541H207.561V776.943H276.009V708.541Z" stroke="white" stroke-width="0.5" stroke-miterlimit="10"/>
<path d="M276.009 776.943H207.561V845.344H276.009V776.943Z" stroke="white" stroke-width="0.5" stroke-miterlimit="10"/>
<path d="M276.009 845.344H207.561V913.746H276.009V845.344Z" stroke="white" stroke-width="0.5" stroke-miterlimit="10"/>
<path d="M276.009 913.746H207.561V982.148H276.009V913.746Z" stroke="white" stroke-width="0.5" stroke-miterlimit="10"/>
<path d="M276.009 981.902H207.561V1050.3H276.009V981.902Z" stroke="white" stroke-width="0.5" stroke-miterlimit="10"/>
<path d="M276.009 1050.3H207.561V1118.7H276.009V1050.3Z" stroke="white" stroke-width="0.5" stroke-miterlimit="10"/>
<path d="M344.457 -43.1379H276.009V25.2636H344.457V-43.1379Z" stroke="white" stroke-width="0.5" stroke-miterlimit="10"/>
<path d="M344.457 25.2636H276.009V93.6652H344.457V25.2636Z" stroke="white" stroke-width="0.5" stroke-miterlimit="10"/>
<path d="M344.457 93.4192H276.009V161.821H344.457V93.4192Z" stroke="white" stroke-width="0.5" stroke-miterlimit="10"/>
<path d="M344.457 161.821H276.009V230.222H344.457V161.821Z" stroke="white" stroke-width="0.5" stroke-miterlimit="10"/>
<path d="M344.457 230.222H276.009V298.624H344.457V230.222Z" stroke="white" stroke-width="0.5" stroke-miterlimit="10"/>
<path d="M344.457 298.624H276.009V367.026H344.457V298.624Z" stroke="white" stroke-width="0.5" stroke-miterlimit="10"/>
<path d="M344.457 366.779H276.009V435.181H344.457V366.779Z" stroke="white" stroke-width="0.5" stroke-miterlimit="10"/>
<path d="M344.457 435.181H276.009V503.583H344.457V435.181Z" stroke="white" stroke-width="0.5" stroke-miterlimit="10"/>
<path d="M344.457 503.583H276.009V571.984H344.457V503.583Z" stroke="white" stroke-width="0.5" stroke-miterlimit="10"/>
<path d="M344.457 571.984H276.009V640.386H344.457V571.984Z" stroke="white" stroke-width="0.5" stroke-miterlimit="10"/>
<path d="M344.457 640.386H276.009V708.787H344.457V640.386Z" stroke="white" stroke-width="0.5" stroke-miterlimit="10"/>
<path d="M344.457 708.541H276.009V776.943H344.457V708.541Z" stroke="white" stroke-width="0.5" stroke-miterlimit="10"/>
<path d="M344.457 776.943H276.009V845.344H344.457V776.943Z" stroke="white" stroke-width="0.5" stroke-miterlimit="10"/>
<path d="M344.457 845.344H276.009V913.746H344.457V845.344Z" stroke="white" stroke-width="0.5" stroke-miterlimit="10"/>
<path d="M344.457 913.746H276.009V982.148H344.457V913.746Z" stroke="white" stroke-width="0.5" stroke-miterlimit="10"/>
<path d="M344.457 981.902H276.009V1050.3H344.457V981.902Z" stroke="white" stroke-width="0.5" stroke-miterlimit="10"/>
<path d="M344.457 1050.3H276.009V1118.7H344.457V1050.3Z" stroke="white" stroke-width="0.5" stroke-miterlimit="10"/>
<path d="M412.906 -43.1379H344.458V25.2636H412.906V-43.1379Z" stroke="white" stroke-width="0.5" stroke-miterlimit="10"/>
<path d="M412.906 25.2636H344.458V93.6652H412.906V25.2636Z" stroke="white" stroke-width="0.5" stroke-miterlimit="10"/>
<path d="M412.906 93.4192H344.458V161.821H412.906V93.4192Z" stroke="white" stroke-width="0.5" stroke-miterlimit="10"/>
<path d="M412.906 161.821H344.458V230.222H412.906V161.821Z" stroke="white" stroke-width="0.5" stroke-miterlimit="10"/>
<path d="M412.906 230.222H344.458V298.624H412.906V230.222Z" stroke="white" stroke-width="0.5" stroke-miterlimit="10"/>
<path d="M412.906 298.624H344.458V367.026H412.906V298.624Z" stroke="white" stroke-width="0.5" stroke-miterlimit="10"/>
<path d="M412.906 366.779H344.458V435.181H412.906V366.779Z" stroke="white" stroke-width="0.5" stroke-miterlimit="10"/>
<path d="M412.906 435.181H344.458V503.583H412.906V435.181Z" stroke="white" stroke-width="0.5" stroke-miterlimit="10"/>
<path d="M412.906 503.583H344.458V571.984H412.906V503.583Z" stroke="white" stroke-width="0.5" stroke-miterlimit="10"/>
<path d="M412.906 571.984H344.458V640.386H412.906V571.984Z" stroke="white" stroke-width="0.5" stroke-miterlimit="10"/>
<path d="M412.906 640.386H344.458V708.787H412.906V640.386Z" stroke="white" stroke-width="0.5" stroke-miterlimit="10"/>
<path d="M412.906 708.541H344.458V776.943H412.906V708.541Z" stroke="white" stroke-width="0.5" stroke-miterlimit="10"/>
<path d="M412.906 776.943H344.458V845.344H412.906V776.943Z" stroke="white" stroke-width="0.5" stroke-miterlimit="10"/>
<path d="M412.906 845.344H344.458V913.746H412.906V845.344Z" stroke="white" stroke-width="0.5" stroke-miterlimit="10"/>
<path d="M412.906 913.746H344.458V982.148H412.906V913.746Z" stroke="white" stroke-width="0.5" stroke-miterlimit="10"/>
<path d="M412.906 981.902H344.458V1050.3H412.906V981.902Z" stroke="white" stroke-width="0.5" stroke-miterlimit="10"/>
<path d="M412.906 1050.3H344.458V1118.7H412.906V1050.3Z" stroke="white" stroke-width="0.5" stroke-miterlimit="10"/>
<path d="M481.354 -43.1379H412.906V25.2636H481.354V-43.1379Z" stroke="white" stroke-width="0.5" stroke-miterlimit="10"/>
<path d="M481.354 25.2636H412.906V93.6652H481.354V25.2636Z" stroke="white" stroke-width="0.5" stroke-miterlimit="10"/>
<path d="M481.354 93.4192H412.906V161.821H481.354V93.4192Z" stroke="white" stroke-width="0.5" stroke-miterlimit="10"/>
<path d="M481.354 161.821H412.906V230.222H481.354V161.821Z" stroke="white" stroke-width="0.5" stroke-miterlimit="10"/>
<path d="M481.354 230.222H412.906V298.624H481.354V230.222Z" stroke="white" stroke-width="0.5" stroke-miterlimit="10"/>
<path d="M481.354 298.624H412.906V367.026H481.354V298.624Z" stroke="white" stroke-width="0.5" stroke-miterlimit="10"/>
<path d="M481.354 366.779H412.906V435.181H481.354V366.779Z" stroke="white" stroke-width="0.5" stroke-miterlimit="10"/>
<path d="M481.354 435.181H412.906V503.583H481.354V435.181Z" stroke="white" stroke-width="0.5" stroke-miterlimit="10"/>
<path d="M481.354 503.583H412.906V571.984H481.354V503.583Z" stroke="white" stroke-width="0.5" stroke-miterlimit="10"/>
<path d="M481.354 571.984H412.906V640.386H481.354V571.984Z" stroke="white" stroke-width="0.5" stroke-miterlimit="10"/>
<path d="M481.354 640.386H412.906V708.787H481.354V640.386Z" stroke="white" stroke-width="0.5" stroke-miterlimit="10"/>
<path d="M481.354 708.541H412.906V776.943H481.354V708.541Z" stroke="white" stroke-width="0.5" stroke-miterlimit="10"/>
<path d="M481.354 776.943H412.906V845.344H481.354V776.943Z" stroke="white" stroke-width="0.5" stroke-miterlimit="10"/>
<path d="M481.354 845.344H412.906V913.746H481.354V845.344Z" stroke="white" stroke-width="0.5" stroke-miterlimit="10"/>
<path d="M481.354 913.746H412.906V982.148H481.354V913.746Z" stroke="white" stroke-width="0.5" stroke-miterlimit="10"/>
<path d="M481.354 981.902H412.906V1050.3H481.354V981.902Z" stroke="white" stroke-width="0.5" stroke-miterlimit="10"/>
<path d="M481.354 1050.3H412.906V1118.7H481.354V1050.3Z" stroke="white" stroke-width="0.5" stroke-miterlimit="10"/>
<path d="M549.556 -43.1379H481.108V25.2636H549.556V-43.1379Z" stroke="white" stroke-width="0.5" stroke-miterlimit="10"/>
<path d="M549.556 25.2636H481.108V93.6652H549.556V25.2636Z" stroke="white" stroke-width="0.5" stroke-miterlimit="10"/>
<path d="M549.556 93.4192H481.108V161.821H549.556V93.4192Z" stroke="white" stroke-width="0.5" stroke-miterlimit="10"/>
<path d="M549.556 161.821H481.108V230.222H549.556V161.821Z" stroke="white" stroke-width="0.5" stroke-miterlimit="10"/>
<path d="M549.556 230.222H481.108V298.624H549.556V230.222Z" stroke="white" stroke-width="0.5" stroke-miterlimit="10"/>
<path d="M549.556 298.624H481.108V367.026H549.556V298.624Z" stroke="white" stroke-width="0.5" stroke-miterlimit="10"/>
<path d="M549.556 366.779H481.108V435.181H549.556V366.779Z" stroke="white" stroke-width="0.5" stroke-miterlimit="10"/>
<path d="M549.556 435.181H481.108V503.583H549.556V435.181Z" stroke="white" stroke-width="0.5" stroke-miterlimit="10"/>
<path d="M549.556 503.583H481.108V571.984H549.556V503.583Z" stroke="white" stroke-width="0.5" stroke-miterlimit="10"/>
<path d="M549.556 571.984H481.108V640.386H549.556V571.984Z" stroke="white" stroke-width="0.5" stroke-miterlimit="10"/>
<path d="M549.556 640.386H481.108V708.787H549.556V640.386Z" stroke="white" stroke-width="0.5" stroke-miterlimit="10"/>
<path d="M549.556 708.541H481.108V776.943H549.556V708.541Z" stroke="white" stroke-width="0.5" stroke-miterlimit="10"/>
<path d="M549.556 776.943H481.108V845.344H549.556V776.943Z" stroke="white" stroke-width="0.5" stroke-miterlimit="10"/>
<path d="M549.556 845.344H481.108V913.746H549.556V845.344Z" stroke="white" stroke-width="0.5" stroke-miterlimit="10"/>
<path d="M549.556 913.746H481.108V982.148H549.556V913.746Z" stroke="white" stroke-width="0.5" stroke-miterlimit="10"/>
<path d="M549.556 981.902H481.108V1050.3H549.556V981.902Z" stroke="white" stroke-width="0.5" stroke-miterlimit="10"/>
<path d="M549.556 1050.3H481.108V1118.7H549.556V1050.3Z" stroke="white" stroke-width="0.5" stroke-miterlimit="10"/>
<path d="M618.005 -43.1379H549.556V25.2636H618.005V-43.1379Z" stroke="white" stroke-width="0.5" stroke-miterlimit="10"/>
<path d="M618.005 25.2636H549.556V93.6652H618.005V25.2636Z" stroke="white" stroke-width="0.5" stroke-miterlimit="10"/>
<path d="M618.005 93.4192H549.556V161.821H618.005V93.4192Z" stroke="white" stroke-width="0.5" stroke-miterlimit="10"/>
<path d="M618.005 161.821H549.556V230.222H618.005V161.821Z" stroke="white" stroke-width="0.5" stroke-miterlimit="10"/>
<path d="M618.005 230.222H549.556V298.624H618.005V230.222Z" stroke="white" stroke-width="0.5" stroke-miterlimit="10"/>
<path d="M618.005 298.624H549.556V367.026H618.005V298.624Z" stroke="white" stroke-width="0.5" stroke-miterlimit="10"/>
<path d="M618.005 366.779H549.556V435.181H618.005V366.779Z" stroke="white" stroke-width="0.5" stroke-miterlimit="10"/>
<path d="M618.005 435.181H549.556V503.583H618.005V435.181Z" stroke="white" stroke-width="0.5" stroke-miterlimit="10"/>
<path d="M618.005 503.583H549.556V571.984H618.005V503.583Z" stroke="white" stroke-width="0.5" stroke-miterlimit="10"/>
<path d="M618.005 571.984H549.556V640.386H618.005V571.984Z" stroke="white" stroke-width="0.5" stroke-miterlimit="10"/>
<path d="M618.005 640.386H549.556V708.787H618.005V640.386Z" stroke="white" stroke-width="0.5" stroke-miterlimit="10"/>
<path d="M618.005 708.541H549.556V776.943H618.005V708.541Z" stroke="white" stroke-width="0.5" stroke-miterlimit="10"/>
<path d="M618.005 776.943H549.556V845.344H618.005V776.943Z" stroke="white" stroke-width="0.5" stroke-miterlimit="10"/>
<path d="M618.005 845.344H549.556V913.746H618.005V845.344Z" stroke="white" stroke-width="0.5" stroke-miterlimit="10"/>
<path d="M618.005 913.746H549.556V982.148H618.005V913.746Z" stroke="white" stroke-width="0.5" stroke-miterlimit="10"/>
<path d="M618.005 981.902H549.556V1050.3H618.005V981.902Z" stroke="white" stroke-width="0.5" stroke-miterlimit="10"/>
<path d="M618.005 1050.3H549.556V1118.7H618.005V1050.3Z" stroke="white" stroke-width="0.5" stroke-miterlimit="10"/>
<path d="M686.453 -43.1379H618.005V25.2636H686.453V-43.1379Z" stroke="white" stroke-width="0.5" stroke-miterlimit="10"/>
<path d="M686.453 25.2636H618.005V93.6652H686.453V25.2636Z" stroke="white" stroke-width="0.5" stroke-miterlimit="10"/>
<path d="M686.453 93.4192H618.005V161.821H686.453V93.4192Z" stroke="white" stroke-width="0.5" stroke-miterlimit="10"/>
<path d="M686.453 161.821H618.005V230.222H686.453V161.821Z" stroke="white" stroke-width="0.5" stroke-miterlimit="10"/>
<path d="M686.453 230.222H618.005V298.624H686.453V230.222Z" stroke="white" stroke-width="0.5" stroke-miterlimit="10"/>
<path d="M686.453 298.624H618.005V367.026H686.453V298.624Z" stroke="white" stroke-width="0.5" stroke-miterlimit="10"/>
<path d="M686.453 366.779H618.005V435.181H686.453V366.779Z" stroke="white" stroke-width="0.5" stroke-miterlimit="10"/>
<path d="M686.453 435.181H618.005V503.583H686.453V435.181Z" stroke="white" stroke-width="0.5" stroke-miterlimit="10"/>
<path d="M686.453 503.583H618.005V571.984H686.453V503.583Z" stroke="white" stroke-width="0.5" stroke-miterlimit="10"/>
<path d="M686.453 571.984H618.005V640.386H686.453V571.984Z" stroke="white" stroke-width="0.5" stroke-miterlimit="10"/>
<path d="M686.453 640.386H618.005V708.787H686.453V640.386Z" stroke="white" stroke-width="0.5" stroke-miterlimit="10"/>
<path d="M686.453 708.541H618.005V776.943H686.453V708.541Z" stroke="white" stroke-width="0.5" stroke-miterlimit="10"/>
<path d="M686.453 776.943H618.005V845.344H686.453V776.943Z" stroke="white" stroke-width="0.5" stroke-miterlimit="10"/>
<path d="M686.453 845.344H618.005V913.746H686.453V845.344Z" stroke="white" stroke-width="0.5" stroke-miterlimit="10"/>
<path d="M686.453 913.746H618.005V982.148H686.453V913.746Z" stroke="white" stroke-width="0.5" stroke-miterlimit="10"/>
<path d="M686.453 981.902H618.005V1050.3H686.453V981.902Z" stroke="white" stroke-width="0.5" stroke-miterlimit="10"/>
<path d="M686.453 1050.3H618.005V1118.7H686.453V1050.3Z" stroke="white" stroke-width="0.5" stroke-miterlimit="10"/>
<path d="M754.901 -43.1379H686.453V25.2636H754.901V-43.1379Z" stroke="white" stroke-width="0.5" stroke-miterlimit="10"/>
<path d="M754.901 25.2636H686.453V93.6652H754.901V25.2636Z" stroke="white" stroke-width="0.5" stroke-miterlimit="10"/>
<path d="M754.901 93.4192H686.453V161.821H754.901V93.4192Z" stroke="white" stroke-width="0.5" stroke-miterlimit="10"/>
<path d="M754.901 161.821H686.453V230.222H754.901V161.821Z" stroke="white" stroke-width="0.5" stroke-miterlimit="10"/>
<path d="M754.901 230.222H686.453V298.624H754.901V230.222Z" stroke="white" stroke-width="0.5" stroke-miterlimit="10"/>
<path d="M754.901 298.624H686.453V367.026H754.901V298.624Z" stroke="white" stroke-width="0.5" stroke-miterlimit="10"/>
<path d="M754.901 366.779H686.453V435.181H754.901V366.779Z" stroke="white" stroke-width="0.5" stroke-miterlimit="10"/>
<path d="M754.901 435.181H686.453V503.583H754.901V435.181Z" stroke="white" stroke-width="0.5" stroke-miterlimit="10"/>
<path d="M754.901 503.583H686.453V571.984H754.901V503.583Z" stroke="white" stroke-width="0.5" stroke-miterlimit="10"/>
<path d="M754.901 571.984H686.453V640.386H754.901V571.984Z" stroke="white" stroke-width="0.5" stroke-miterlimit="10"/>
<path d="M754.901 640.386H686.453V708.787H754.901V640.386Z" stroke="white" stroke-width="0.5" stroke-miterlimit="10"/>
<path d="M754.901 708.541H686.453V776.943H754.901V708.541Z" stroke="white" stroke-width="0.5" stroke-miterlimit="10"/>
<path d="M754.901 776.943H686.453V845.344H754.901V776.943Z" stroke="white" stroke-width="0.5" stroke-miterlimit="10"/>
<path d="M754.901 845.344H686.453V913.746H754.901V845.344Z" stroke="white" stroke-width="0.5" stroke-miterlimit="10"/>
<path d="M754.901 913.746H686.453V982.148H754.901V913.746Z" stroke="white" stroke-width="0.5" stroke-miterlimit="10"/>
<path d="M754.901 981.902H686.453V1050.3H754.901V981.902Z" stroke="white" stroke-width="0.5" stroke-miterlimit="10"/>
<path d="M754.901 1050.3H686.453V1118.7H754.901V1050.3Z" stroke="white" stroke-width="0.5" stroke-miterlimit="10"/>
<path d="M823.35 -43.1379H754.901V25.2636H823.35V-43.1379Z" stroke="white" stroke-width="0.5" stroke-miterlimit="10"/>
<path d="M823.35 25.2636H754.901V93.6652H823.35V25.2636Z" stroke="white" stroke-width="0.5" stroke-miterlimit="10"/>
<path d="M823.35 93.4192H754.901V161.821H823.35V93.4192Z" stroke="white" stroke-width="0.5" stroke-miterlimit="10"/>
<path d="M823.35 161.821H754.901V230.222H823.35V161.821Z" stroke="white" stroke-width="0.5" stroke-miterlimit="10"/>
<path d="M823.35 230.222H754.901V298.624H823.35V230.222Z" stroke="white" stroke-width="0.5" stroke-miterlimit="10"/>
<path d="M823.35 298.624H754.901V367.026H823.35V298.624Z" stroke="white" stroke-width="0.5" stroke-miterlimit="10"/>
<path d="M823.35 366.779H754.901V435.181H823.35V366.779Z" stroke="white" stroke-width="0.5" stroke-miterlimit="10"/>
<path d="M823.35 435.181H754.901V503.583H823.35V435.181Z" stroke="white" stroke-width="0.5" stroke-miterlimit="10"/>
<path d="M823.35 503.583H754.901V571.984H823.35V503.583Z" stroke="white" stroke-width="0.5" stroke-miterlimit="10"/>
<path d="M823.35 571.984H754.901V640.386H823.35V571.984Z" stroke="white" stroke-width="0.5" stroke-miterlimit="10"/>
<path d="M823.35 640.386H754.901V708.787H823.35V640.386Z" stroke="white" stroke-width="0.5" stroke-miterlimit="10"/>
<path d="M823.35 708.541H754.901V776.943H823.35V708.541Z" stroke="white" stroke-width="0.5" stroke-miterlimit="10"/>
<path d="M823.35 776.943H754.901V845.344H823.35V776.943Z" stroke="white" stroke-width="0.5" stroke-miterlimit="10"/>
<path d="M823.35 845.344H754.901V913.746H823.35V845.344Z" stroke="white" stroke-width="0.5" stroke-miterlimit="10"/>
<path d="M823.35 913.746H754.901V982.148H823.35V913.746Z" stroke="white" stroke-width="0.5" stroke-miterlimit="10"/>
<path d="M823.35 981.902H754.901V1050.3H823.35V981.902Z" stroke="white" stroke-width="0.5" stroke-miterlimit="10"/>
<path d="M823.35 1050.3H754.901V1118.7H823.35V1050.3Z" stroke="white" stroke-width="0.5" stroke-miterlimit="10"/>
<path d="M891.552 -43.1379H823.103V25.2636H891.552V-43.1379Z" stroke="white" stroke-width="0.5" stroke-miterlimit="10"/>
<path d="M891.552 25.2636H823.103V93.6652H891.552V25.2636Z" stroke="white" stroke-width="0.5" stroke-miterlimit="10"/>
<path d="M891.552 93.4192H823.103V161.821H891.552V93.4192Z" stroke="white" stroke-width="0.5" stroke-miterlimit="10"/>
<path d="M891.552 161.821H823.103V230.222H891.552V161.821Z" stroke="white" stroke-width="0.5" stroke-miterlimit="10"/>
<path d="M891.552 230.222H823.103V298.624H891.552V230.222Z" stroke="white" stroke-width="0.5" stroke-miterlimit="10"/>
<path d="M891.552 298.624H823.103V367.026H891.552V298.624Z" stroke="white" stroke-width="0.5" stroke-miterlimit="10"/>
<path d="M891.552 366.779H823.103V435.181H891.552V366.779Z" stroke="white" stroke-width="0.5" stroke-miterlimit="10"/>
<path d="M891.552 435.181H823.103V503.583H891.552V435.181Z" stroke="white" stroke-width="0.5" stroke-miterlimit="10"/>
<path d="M891.552 503.583H823.103V571.984H891.552V503.583Z" stroke="white" stroke-width="0.5" stroke-miterlimit="10"/>
<path d="M891.552 571.984H823.103V640.386H891.552V571.984Z" stroke="white" stroke-width="0.5" stroke-miterlimit="10"/>
<path d="M891.552 640.386H823.103V708.787H891.552V640.386Z" stroke="white" stroke-width="0.5" stroke-miterlimit="10"/>
<path d="M891.552 708.541H823.103V776.943H891.552V708.541Z" stroke="white" stroke-width="0.5" stroke-miterlimit="10"/>
<path d="M891.552 776.943H823.103V845.344H891.552V776.943Z" stroke="white" stroke-width="0.5" stroke-miterlimit="10"/>
<path d="M891.552 845.344H823.103V913.746H891.552V845.344Z" stroke="white" stroke-width="0.5" stroke-miterlimit="10"/>
<path d="M891.552 913.746H823.103V982.148H891.552V913.746Z" stroke="white" stroke-width="0.5" stroke-miterlimit="10"/>
<path d="M891.552 981.902H823.103V1050.3H891.552V981.902Z" stroke="white" stroke-width="0.5" stroke-miterlimit="10"/>
<path d="M891.552 1050.3H823.103V1118.7H891.552V1050.3Z" stroke="white" stroke-width="0.5" stroke-miterlimit="10"/>
<path d="M960 -43.1379H891.552V25.2636H960V-43.1379Z" stroke="white" stroke-width="0.5" stroke-miterlimit="10"/>
<path d="M960 25.2636H891.552V93.6652H960V25.2636Z" stroke="white" stroke-width="0.5" stroke-miterlimit="10"/>
<path d="M960 93.4192H891.552V161.821H960V93.4192Z" stroke="white" stroke-width="0.5" stroke-miterlimit="10"/>
<path d="M960 161.821H891.552V230.222H960V161.821Z" stroke="white" stroke-width="0.5" stroke-miterlimit="10"/>
<path d="M960 230.222H891.552V298.624H960V230.222Z" stroke="white" stroke-width="0.5" stroke-miterlimit="10"/>
<path d="M960 298.624H891.552V367.026H960V298.624Z" stroke="white" stroke-width="0.5" stroke-miterlimit="10"/>
<path d="M960 366.779H891.552V435.181H960V366.779Z" stroke="white" stroke-width="0.5" stroke-miterlimit="10"/>
<path d="M960 435.181H891.552V503.583H960V435.181Z" stroke="white" stroke-width="0.5" stroke-miterlimit="10"/>
<path d="M960 503.583H891.552V571.984H960V503.583Z" stroke="white" stroke-width="0.5" stroke-miterlimit="10"/>
<path d="M960 571.984H891.552V640.386H960V571.984Z" stroke="white" stroke-width="0.5" stroke-miterlimit="10"/>
<path d="M960 640.386H891.552V708.787H960V640.386Z" stroke="white" stroke-width="0.5" stroke-miterlimit="10"/>
<path d="M960 708.541H891.552V776.943H960V708.541Z" stroke="white" stroke-width="0.5" stroke-miterlimit="10"/>
<path d="M960 776.943H891.552V845.344H960V776.943Z" stroke="white" stroke-width="0.5" stroke-miterlimit="10"/>
<path d="M960 845.344H891.552V913.746H960V845.344Z" stroke="white" stroke-width="0.5" stroke-miterlimit="10"/>
<path d="M960 913.746H891.552V982.148H960V913.746Z" stroke="white" stroke-width="0.5" stroke-miterlimit="10"/>
<path d="M960 981.902H891.552V1050.3H960V981.902Z" stroke="white" stroke-width="0.5" stroke-miterlimit="10"/>
<path d="M960 1050.3H891.552V1118.7H960V1050.3Z" stroke="white" stroke-width="0.5" stroke-miterlimit="10"/>
<path d="M1028.45 -43.1379H960V25.2636H1028.45V-43.1379Z" stroke="white" stroke-width="0.5" stroke-miterlimit="10"/>
<path d="M1028.45 25.2636H960V93.6652H1028.45V25.2636Z" stroke="white" stroke-width="0.5" stroke-miterlimit="10"/>
<path d="M1028.45 93.4192H960V161.821H1028.45V93.4192Z" stroke="white" stroke-width="0.5" stroke-miterlimit="10"/>
<path d="M1028.45 161.821H960V230.222H1028.45V161.821Z" stroke="white" stroke-width="0.5" stroke-miterlimit="10"/>
<path d="M1028.45 230.222H960V298.624H1028.45V230.222Z" stroke="white" stroke-width="0.5" stroke-miterlimit="10"/>
<path d="M1028.45 298.624H960V367.026H1028.45V298.624Z" stroke="white" stroke-width="0.5" stroke-miterlimit="10"/>
<path d="M1028.45 366.779H960V435.181H1028.45V366.779Z" stroke="white" stroke-width="0.5" stroke-miterlimit="10"/>
<path d="M1028.45 435.181H960V503.583H1028.45V435.181Z" stroke="white" stroke-width="0.5" stroke-miterlimit="10"/>
<path d="M1028.45 503.583H960V571.984H1028.45V503.583Z" stroke="white" stroke-width="0.5" stroke-miterlimit="10"/>
<path d="M1028.45 571.984H960V640.386H1028.45V571.984Z" stroke="white" stroke-width="0.5" stroke-miterlimit="10"/>
<path d="M1028.45 640.386H960V708.787H1028.45V640.386Z" stroke="white" stroke-width="0.5" stroke-miterlimit="10"/>
<path d="M1028.45 708.541H960V776.943H1028.45V708.541Z" stroke="white" stroke-width="0.5" stroke-miterlimit="10"/>
<path d="M1028.45 776.943H960V845.344H1028.45V776.943Z" stroke="white" stroke-width="0.5" stroke-miterlimit="10"/>
<path d="M1028.45 845.344H960V913.746H1028.45V845.344Z" stroke="white" stroke-width="0.5" stroke-miterlimit="10"/>
<path d="M1028.45 913.746H960V982.148H1028.45V913.746Z" stroke="white" stroke-width="0.5" stroke-miterlimit="10"/>
<path d="M1028.45 981.902H960V1050.3H1028.45V981.902Z" stroke="white" stroke-width="0.5" stroke-miterlimit="10"/>
<path d="M1028.45 1050.3H960V1118.7H1028.45V1050.3Z" stroke="white" stroke-width="0.5" stroke-miterlimit="10"/>
<path d="M1096.9 -43.1379H1028.45V25.2636H1096.9V-43.1379Z" stroke="white" stroke-width="0.5" stroke-miterlimit="10"/>
<path d="M1096.9 25.2636H1028.45V93.6652H1096.9V25.2636Z" stroke="white" stroke-width="0.5" stroke-miterlimit="10"/>
<path d="M1096.9 93.4192H1028.45V161.821H1096.9V93.4192Z" stroke="white" stroke-width="0.5" stroke-miterlimit="10"/>
<path d="M1096.9 161.821H1028.45V230.222H1096.9V161.821Z" stroke="white" stroke-width="0.5" stroke-miterlimit="10"/>
<path d="M1096.9 230.222H1028.45V298.624H1096.9V230.222Z" stroke="white" stroke-width="0.5" stroke-miterlimit="10"/>
<path d="M1096.9 298.624H1028.45V367.026H1096.9V298.624Z" stroke="white" stroke-width="0.5" stroke-miterlimit="10"/>
<path d="M1096.9 366.779H1028.45V435.181H1096.9V366.779Z" stroke="white" stroke-width="0.5" stroke-miterlimit="10"/>
<path d="M1096.9 435.181H1028.45V503.583H1096.9V435.181Z" stroke="white" stroke-width="0.5" stroke-miterlimit="10"/>
<path d="M1096.9 503.583H1028.45V571.984H1096.9V503.583Z" stroke="white" stroke-width="0.5" stroke-miterlimit="10"/>
<path d="M1096.9 571.984H1028.45V640.386H1096.9V571.984Z" stroke="white" stroke-width="0.5" stroke-miterlimit="10"/>
<path d="M1096.9 640.386H1028.45V708.787H1096.9V640.386Z" stroke="white" stroke-width="0.5" stroke-miterlimit="10"/>
<path d="M1096.9 708.541H1028.45V776.943H1096.9V708.541Z" stroke="white" stroke-width="0.5" stroke-miterlimit="10"/>
<path d="M1096.9 776.943H1028.45V845.344H1096.9V776.943Z" stroke="white" stroke-width="0.5" stroke-miterlimit="10"/>
<path d="M1096.9 845.344H1028.45V913.746H1096.9V845.344Z" stroke="white" stroke-width="0.5" stroke-miterlimit="10"/>
<path d="M1096.9 913.746H1028.45V982.148H1096.9V913.746Z" stroke="white" stroke-width="0.5" stroke-miterlimit="10"/>
<path d="M1096.9 981.902H1028.45V1050.3H1096.9V981.902Z" stroke="white" stroke-width="0.5" stroke-miterlimit="10"/>
<path d="M1096.9 1050.3H1028.45V1118.7H1096.9V1050.3Z" stroke="white" stroke-width="0.5" stroke-miterlimit="10"/>
<path d="M1165.1 -43.1379H1096.65V25.2636H1165.1V-43.1379Z" stroke="white" stroke-width="0.5" stroke-miterlimit="10"/>
<path d="M1165.1 25.2636H1096.65V93.6652H1165.1V25.2636Z" stroke="white" stroke-width="0.5" stroke-miterlimit="10"/>
<path d="M1165.1 93.4192H1096.65V161.821H1165.1V93.4192Z" stroke="white" stroke-width="0.5" stroke-miterlimit="10"/>
<path d="M1165.1 161.821H1096.65V230.222H1165.1V161.821Z" stroke="white" stroke-width="0.5" stroke-miterlimit="10"/>
<path d="M1165.1 230.222H1096.65V298.624H1165.1V230.222Z" stroke="white" stroke-width="0.5" stroke-miterlimit="10"/>
<path d="M1165.1 298.624H1096.65V367.026H1165.1V298.624Z" stroke="white" stroke-width="0.5" stroke-miterlimit="10"/>
<path d="M1165.1 366.779H1096.65V435.181H1165.1V366.779Z" stroke="white" stroke-width="0.5" stroke-miterlimit="10"/>
<path d="M1165.1 435.181H1096.65V503.583H1165.1V435.181Z" stroke="white" stroke-width="0.5" stroke-miterlimit="10"/>
<path d="M1165.1 503.583H1096.65V571.984H1165.1V503.583Z" stroke="white" stroke-width="0.5" stroke-miterlimit="10"/>
<path d="M1165.1 571.984H1096.65V640.386H1165.1V571.984Z" stroke="white" stroke-width="0.5" stroke-miterlimit="10"/>
<path d="M1165.1 640.386H1096.65V708.787H1165.1V640.386Z" stroke="white" stroke-width="0.5" stroke-miterlimit="10"/>
<path d="M1165.1 708.541H1096.65V776.943H1165.1V708.541Z" stroke="white" stroke-width="0.5" stroke-miterlimit="10"/>
<path d="M1165.1 776.943H1096.65V845.344H1165.1V776.943Z" stroke="white" stroke-width="0.5" stroke-miterlimit="10"/>
<path d="M1165.1 845.344H1096.65V913.746H1165.1V845.344Z" stroke="white" stroke-width="0.5" stroke-miterlimit="10"/>
<path d="M1165.1 913.746H1096.65V982.148H1165.1V913.746Z" stroke="white" stroke-width="0.5" stroke-miterlimit="10"/>
<path d="M1165.1 981.902H1096.65V1050.3H1165.1V981.902Z" stroke="white" stroke-width="0.5" stroke-miterlimit="10"/>
<path d="M1165.1 1050.3H1096.65V1118.7H1165.1V1050.3Z" stroke="white" stroke-width="0.5" stroke-miterlimit="10"/>
<path d="M1233.55 -43.1379H1165.1V25.2636H1233.55V-43.1379Z" stroke="white" stroke-width="0.5" stroke-miterlimit="10"/>
<path d="M1233.55 25.2636H1165.1V93.6652H1233.55V25.2636Z" stroke="white" stroke-width="0.5" stroke-miterlimit="10"/>
<path d="M1233.55 93.4192H1165.1V161.821H1233.55V93.4192Z" stroke="white" stroke-width="0.5" stroke-miterlimit="10"/>
<path d="M1233.55 161.821H1165.1V230.222H1233.55V161.821Z" stroke="white" stroke-width="0.5" stroke-miterlimit="10"/>
<path d="M1233.55 230.222H1165.1V298.624H1233.55V230.222Z" stroke="white" stroke-width="0.5" stroke-miterlimit="10"/>
<path d="M1233.55 298.624H1165.1V367.026H1233.55V298.624Z" stroke="white" stroke-width="0.5" stroke-miterlimit="10"/>
<path d="M1233.55 366.779H1165.1V435.181H1233.55V366.779Z" stroke="white" stroke-width="0.5" stroke-miterlimit="10"/>
<path d="M1233.55 435.181H1165.1V503.583H1233.55V435.181Z" stroke="white" stroke-width="0.5" stroke-miterlimit="10"/>
<path d="M1233.55 503.583H1165.1V571.984H1233.55V503.583Z" stroke="white" stroke-width="0.5" stroke-miterlimit="10"/>
<path d="M1233.55 571.984H1165.1V640.386H1233.55V571.984Z" stroke="white" stroke-width="0.5" stroke-miterlimit="10"/>
<path d="M1233.55 640.386H1165.1V708.787H1233.55V640.386Z" stroke="white" stroke-width="0.5" stroke-miterlimit="10"/>
<path d="M1233.55 708.541H1165.1V776.943H1233.55V708.541Z" stroke="white" stroke-width="0.5" stroke-miterlimit="10"/>
<path d="M1233.55 776.943H1165.1V845.344H1233.55V776.943Z" stroke="white" stroke-width="0.5" stroke-miterlimit="10"/>
<path d="M1233.55 845.344H1165.1V913.746H1233.55V845.344Z" stroke="white" stroke-width="0.5" stroke-miterlimit="10"/>
<path d="M1233.55 913.746H1165.1V982.148H1233.55V913.746Z" stroke="white" stroke-width="0.5" stroke-miterlimit="10"/>
<path d="M1233.55 981.902H1165.1V1050.3H1233.55V981.902Z" stroke="white" stroke-width="0.5" stroke-miterlimit="10"/>
<path d="M1233.55 1050.3H1165.1V1118.7H1233.55V1050.3Z" stroke="white" stroke-width="0.5" stroke-miterlimit="10"/>
<path d="M1302 -43.1379H1233.55V25.2636H1302V-43.1379Z" stroke="white" stroke-width="0.5" stroke-miterlimit="10"/>
<path d="M1302 25.2636H1233.55V93.6652H1302V25.2636Z" stroke="white" stroke-width="0.5" stroke-miterlimit="10"/>
<path d="M1302 93.4192H1233.55V161.821H1302V93.4192Z" stroke="white" stroke-width="0.5" stroke-miterlimit="10"/>
<path d="M1302 161.821H1233.55V230.222H1302V161.821Z" stroke="white" stroke-width="0.5" stroke-miterlimit="10"/>
<path d="M1302 230.222H1233.55V298.624H1302V230.222Z" stroke="white" stroke-width="0.5" stroke-miterlimit="10"/>
<path d="M1302 298.624H1233.55V367.026H1302V298.624Z" stroke="white" stroke-width="0.5" stroke-miterlimit="10"/>
<path d="M1302 366.779H1233.55V435.181H1302V366.779Z" stroke="white" stroke-width="0.5" stroke-miterlimit="10"/>
<path d="M1302 435.181H1233.55V503.583H1302V435.181Z" stroke="white" stroke-width="0.5" stroke-miterlimit="10"/>
<path d="M1302 503.583H1233.55V571.984H1302V503.583Z" stroke="white" stroke-width="0.5" stroke-miterlimit="10"/>
<path d="M1302 571.984H1233.55V640.386H1302V571.984Z" stroke="white" stroke-width="0.5" stroke-miterlimit="10"/>
<path d="M1302 640.386H1233.55V708.787H1302V640.386Z" stroke="white" stroke-width="0.5" stroke-miterlimit="10"/>
<path d="M1302 708.541H1233.55V776.943H1302V708.541Z" stroke="white" stroke-width="0.5" stroke-miterlimit="10"/>
<path d="M1302 776.943H1233.55V845.344H1302V776.943Z" stroke="white" stroke-width="0.5" stroke-miterlimit="10"/>
<path d="M1302 845.344H1233.55V913.746H1302V845.344Z" stroke="white" stroke-width="0.5" stroke-miterlimit="10"/>
<path d="M1302 913.746H1233.55V982.148H1302V913.746Z" stroke="white" stroke-width="0.5" stroke-miterlimit="10"/>
<path d="M1302 981.902H1233.55V1050.3H1302V981.902Z" stroke="white" stroke-width="0.5" stroke-miterlimit="10"/>
<path d="M1302 1050.3H1233.55V1118.7H1302V1050.3Z" stroke="white" stroke-width="0.5" stroke-miterlimit="10"/>
<path d="M1370.44 -43.1379H1302V25.2636H1370.44V-43.1379Z" stroke="white" stroke-width="0.5" stroke-miterlimit="10"/>
<path d="M1370.44 25.2636H1302V93.6652H1370.44V25.2636Z" stroke="white" stroke-width="0.5" stroke-miterlimit="10"/>
<path d="M1370.44 93.4192H1302V161.821H1370.44V93.4192Z" stroke="white" stroke-width="0.5" stroke-miterlimit="10"/>
<path d="M1370.44 161.821H1302V230.222H1370.44V161.821Z" stroke="white" stroke-width="0.5" stroke-miterlimit="10"/>
<path d="M1370.44 230.222H1302V298.624H1370.44V230.222Z" stroke="white" stroke-width="0.5" stroke-miterlimit="10"/>
<path d="M1370.44 298.624H1302V367.026H1370.44V298.624Z" stroke="white" stroke-width="0.5" stroke-miterlimit="10"/>
<path d="M1370.44 366.779H1302V435.181H1370.44V366.779Z" stroke="white" stroke-width="0.5" stroke-miterlimit="10"/>
<path d="M1370.44 435.181H1302V503.583H1370.44V435.181Z" stroke="white" stroke-width="0.5" stroke-miterlimit="10"/>
<path d="M1370.44 503.583H1302V571.984H1370.44V503.583Z" stroke="white" stroke-width="0.5" stroke-miterlimit="10"/>
<path d="M1370.44 571.984H1302V640.386H1370.44V571.984Z" stroke="white" stroke-width="0.5" stroke-miterlimit="10"/>
<path d="M1370.44 640.386H1302V708.787H1370.44V640.386Z" stroke="white" stroke-width="0.5" stroke-miterlimit="10"/>
<path d="M1370.44 708.541H1302V776.943H1370.44V708.541Z" stroke="white" stroke-width="0.5" stroke-miterlimit="10"/>
<path d="M1370.44 776.943H1302V845.344H1370.44V776.943Z" stroke="white" stroke-width="0.5" stroke-miterlimit="10"/>
<path d="M1370.44 845.344H1302V913.746H1370.44V845.344Z" stroke="white" stroke-width="0.5" stroke-miterlimit="10"/>
<path d="M1370.44 913.746H1302V982.148H1370.44V913.746Z" stroke="white" stroke-width="0.5" stroke-miterlimit="10"/>
<path d="M1370.44 981.902H1302V1050.3H1370.44V981.902Z" stroke="white" stroke-width="0.5" stroke-miterlimit="10"/>
<path d="M1370.44 1050.3H1302V1118.7H1370.44V1050.3Z" stroke="white" stroke-width="0.5" stroke-miterlimit="10"/>
<path d="M1438.89 -43.1379H1370.44V25.2636H1438.89V-43.1379Z" stroke="white" stroke-width="0.5" stroke-miterlimit="10"/>
<path d="M1438.89 25.2636H1370.44V93.6652H1438.89V25.2636Z" stroke="white" stroke-width="0.5" stroke-miterlimit="10"/>
<path d="M1438.89 93.4192H1370.44V161.821H1438.89V93.4192Z" stroke="white" stroke-width="0.5" stroke-miterlimit="10"/>
<path d="M1438.89 161.821H1370.44V230.222H1438.89V161.821Z" stroke="white" stroke-width="0.5" stroke-miterlimit="10"/>
<path d="M1438.89 230.222H1370.44V298.624H1438.89V230.222Z" stroke="white" stroke-width="0.5" stroke-miterlimit="10"/>
<path d="M1438.89 298.624H1370.44V367.026H1438.89V298.624Z" stroke="white" stroke-width="0.5" stroke-miterlimit="10"/>
<path d="M1438.89 366.779H1370.44V435.181H1438.89V366.779Z" stroke="white" stroke-width="0.5" stroke-miterlimit="10"/>
<path d="M1438.89 435.181H1370.44V503.583H1438.89V435.181Z" stroke="white" stroke-width="0.5" stroke-miterlimit="10"/>
<path d="M1438.89 503.583H1370.44V571.984H1438.89V503.583Z" stroke="white" stroke-width="0.5" stroke-miterlimit="10"/>
<path d="M1438.89 571.984H1370.44V640.386H1438.89V571.984Z" stroke="white" stroke-width="0.5" stroke-miterlimit="10"/>
<path d="M1438.89 640.386H1370.44V708.787H1438.89V640.386Z" stroke="white" stroke-width="0.5" stroke-miterlimit="10"/>
<path d="M1438.89 708.541H1370.44V776.943H1438.89V708.541Z" stroke="white" stroke-width="0.5" stroke-miterlimit="10"/>
<path d="M1438.89 776.943H1370.44V845.344H1438.89V776.943Z" stroke="white" stroke-width="0.5" stroke-miterlimit="10"/>
<path d="M1438.89 845.344H1370.44V913.746H1438.89V845.344Z" stroke="white" stroke-width="0.5" stroke-miterlimit="10"/>
<path d="M1438.89 913.746H1370.44V982.148H1438.89V913.746Z" stroke="white" stroke-width="0.5" stroke-miterlimit="10"/>
<path d="M1438.89 981.902H1370.44V1050.3H1438.89V981.902Z" stroke="white" stroke-width="0.5" stroke-miterlimit="10"/>
<path d="M1438.89 1050.3H1370.44V1118.7H1438.89V1050.3Z" stroke="white" stroke-width="0.5" stroke-miterlimit="10"/>
<path d="M1507.09 -43.1379H1438.65V25.2636H1507.09V-43.1379Z" stroke="white" stroke-width="0.5" stroke-miterlimit="10"/>
<path d="M1507.09 25.2636H1438.65V93.6652H1507.09V25.2636Z" stroke="white" stroke-width="0.5" stroke-miterlimit="10"/>
<path d="M1507.09 93.4192H1438.65V161.821H1507.09V93.4192Z" stroke="white" stroke-width="0.5" stroke-miterlimit="10"/>
<path d="M1507.09 161.821H1438.65V230.222H1507.09V161.821Z" stroke="white" stroke-width="0.5" stroke-miterlimit="10"/>
<path d="M1507.09 230.222H1438.65V298.624H1507.09V230.222Z" stroke="white" stroke-width="0.5" stroke-miterlimit="10"/>
<path d="M1507.09 298.624H1438.65V367.026H1507.09V298.624Z" stroke="white" stroke-width="0.5" stroke-miterlimit="10"/>
<path d="M1507.09 366.779H1438.65V435.181H1507.09V366.779Z" stroke="white" stroke-width="0.5" stroke-miterlimit="10"/>
<path d="M1507.09 435.181H1438.65V503.583H1507.09V435.181Z" stroke="white" stroke-width="0.5" stroke-miterlimit="10"/>
<path d="M1507.09 503.583H1438.65V571.984H1507.09V503.583Z" stroke="white" stroke-width="0.5" stroke-miterlimit="10"/>
<path d="M1507.09 571.984H1438.65V640.386H1507.09V571.984Z" stroke="white" stroke-width="0.5" stroke-miterlimit="10"/>
<path d="M1507.09 640.386H1438.65V708.787H1507.09V640.386Z" stroke="white" stroke-width="0.5" stroke-miterlimit="10"/>
<path d="M1507.09 708.541H1438.65V776.943H1507.09V708.541Z" stroke="white" stroke-width="0.5" stroke-miterlimit="10"/>
<path d="M1507.09 776.943H1438.65V845.344H1507.09V776.943Z" stroke="white" stroke-width="0.5" stroke-miterlimit="10"/>
<path d="M1507.09 845.344H1438.65V913.746H1507.09V845.344Z" stroke="white" stroke-width="0.5" stroke-miterlimit="10"/>
<path d="M1507.09 913.746H1438.65V982.148H1507.09V913.746Z" stroke="white" stroke-width="0.5" stroke-miterlimit="10"/>
<path d="M1507.09 981.902H1438.65V1050.3H1507.09V981.902Z" stroke="white" stroke-width="0.5" stroke-miterlimit="10"/>
<path d="M1507.09 1050.3H1438.65V1118.7H1507.09V1050.3Z" stroke="white" stroke-width="0.5" stroke-miterlimit="10"/>
<path d="M1575.54 -43.1379H1507.09V25.2636H1575.54V-43.1379Z" stroke="white" stroke-width="0.5" stroke-miterlimit="10"/>
<path d="M1575.54 25.2636H1507.09V93.6652H1575.54V25.2636Z" stroke="white" stroke-width="0.5" stroke-miterlimit="10"/>
<path d="M1575.54 93.4192H1507.09V161.821H1575.54V93.4192Z" stroke="white" stroke-width="0.5" stroke-miterlimit="10"/>
<path d="M1575.54 161.821H1507.09V230.222H1575.54V161.821Z" stroke="white" stroke-width="0.5" stroke-miterlimit="10"/>
<path d="M1575.54 230.222H1507.09V298.624H1575.54V230.222Z" stroke="white" stroke-width="0.5" stroke-miterlimit="10"/>
<path d="M1575.54 298.624H1507.09V367.026H1575.54V298.624Z" stroke="white" stroke-width="0.5" stroke-miterlimit="10"/>
<path d="M1575.54 366.779H1507.09V435.181H1575.54V366.779Z" stroke="white" stroke-width="0.5" stroke-miterlimit="10"/>
<path d="M1575.54 435.181H1507.09V503.583H1575.54V435.181Z" stroke="white" stroke-width="0.5" stroke-miterlimit="10"/>
<path d="M1575.54 503.583H1507.09V571.984H1575.54V503.583Z" stroke="white" stroke-width="0.5" stroke-miterlimit="10"/>
<path d="M1575.54 571.984H1507.09V640.386H1575.54V571.984Z" stroke="white" stroke-width="0.5" stroke-miterlimit="10"/>
<path d="M1575.54 640.386H1507.09V708.787H1575.54V640.386Z" stroke="white" stroke-width="0.5" stroke-miterlimit="10"/>
<path d="M1575.54 708.541H1507.09V776.943H1575.54V708.541Z" stroke="white" stroke-width="0.5" stroke-miterlimit="10"/>
<path d="M1575.54 776.943H1507.09V845.344H1575.54V776.943Z" stroke="white" stroke-width="0.5" stroke-miterlimit="10"/>
<path d="M1575.54 845.344H1507.09V913.746H1575.54V845.344Z" stroke="white" stroke-width="0.5" stroke-miterlimit="10"/>
<path d="M1575.54 913.746H1507.09V982.148H1575.54V913.746Z" stroke="white" stroke-width="0.5" stroke-miterlimit="10"/>
<path d="M1575.54 981.902H1507.09V1050.3H1575.54V981.902Z" stroke="white" stroke-width="0.5" stroke-miterlimit="10"/>
<path d="M1575.54 1050.3H1507.09V1118.7H1575.54V1050.3Z" stroke="white" stroke-width="0.5" stroke-miterlimit="10"/>
<path d="M1643.99 -43.1379H1575.54V25.2636H1643.99V-43.1379Z" stroke="white" stroke-width="0.5" stroke-miterlimit="10"/>
<path d="M1643.99 25.2636H1575.54V93.6652H1643.99V25.2636Z" stroke="white" stroke-width="0.5" stroke-miterlimit="10"/>
<path d="M1643.99 93.4192H1575.54V161.821H1643.99V93.4192Z" stroke="white" stroke-width="0.5" stroke-miterlimit="10"/>
<path d="M1643.99 161.821H1575.54V230.222H1643.99V161.821Z" stroke="white" stroke-width="0.5" stroke-miterlimit="10"/>
<path d="M1643.99 230.222H1575.54V298.624H1643.99V230.222Z" stroke="white" stroke-width="0.5" stroke-miterlimit="10"/>
<path d="M1643.99 298.624H1575.54V367.026H1643.99V298.624Z" stroke="white" stroke-width="0.5" stroke-miterlimit="10"/>
<path d="M1643.99 366.779H1575.54V435.181H1643.99V366.779Z" stroke="white" stroke-width="0.5" stroke-miterlimit="10"/>
<path d="M1643.99 435.181H1575.54V503.583H1643.99V435.181Z" stroke="white" stroke-width="0.5" stroke-miterlimit="10"/>
<path d="M1643.99 503.583H1575.54V571.984H1643.99V503.583Z" stroke="white" stroke-width="0.5" stroke-miterlimit="10"/>
<path d="M1643.99 571.984H1575.54V640.386H1643.99V571.984Z" stroke="white" stroke-width="0.5" stroke-miterlimit="10"/>
<path d="M1643.99 640.386H1575.54V708.787H1643.99V640.386Z" stroke="white" stroke-width="0.5" stroke-miterlimit="10"/>
<path d="M1643.99 708.541H1575.54V776.943H1643.99V708.541Z" stroke="white" stroke-width="0.5" stroke-miterlimit="10"/>
<path d="M1643.99 776.943H1575.54V845.344H1643.99V776.943Z" stroke="white" stroke-width="0.5" stroke-miterlimit="10"/>
<path d="M1643.99 845.344H1575.54V913.746H1643.99V845.344Z" stroke="white" stroke-width="0.5" stroke-miterlimit="10"/>
<path d="M1643.99 913.746H1575.54V982.148H1643.99V913.746Z" stroke="white" stroke-width="0.5" stroke-miterlimit="10"/>
<path d="M1643.99 981.902H1575.54V1050.3H1643.99V981.902Z" stroke="white" stroke-width="0.5" stroke-miterlimit="10"/>
<path d="M1643.99 1050.3H1575.54V1118.7H1643.99V1050.3Z" stroke="white" stroke-width="0.5" stroke-miterlimit="10"/>
<path d="M1712.44 -43.1379H1643.99V25.2636H1712.44V-43.1379Z" stroke="white" stroke-width="0.5" stroke-miterlimit="10"/>
<path d="M1712.44 25.2636H1643.99V93.6652H1712.44V25.2636Z" stroke="white" stroke-width="0.5" stroke-miterlimit="10"/>
<path d="M1712.44 93.4192H1643.99V161.821H1712.44V93.4192Z" stroke="white" stroke-width="0.5" stroke-miterlimit="10"/>
<path d="M1712.44 161.821H1643.99V230.222H1712.44V161.821Z" stroke="white" stroke-width="0.5" stroke-miterlimit="10"/>
<path d="M1712.44 230.222H1643.99V298.624H1712.44V230.222Z" stroke="white" stroke-width="0.5" stroke-miterlimit="10"/>
<path d="M1712.44 298.624H1643.99V367.026H1712.44V298.624Z" stroke="white" stroke-width="0.5" stroke-miterlimit="10"/>
<path d="M1712.44 366.779H1643.99V435.181H1712.44V366.779Z" stroke="white" stroke-width="0.5" stroke-miterlimit="10"/>
<path d="M1712.44 435.181H1643.99V503.583H1712.44V435.181Z" stroke="white" stroke-width="0.5" stroke-miterlimit="10"/>
<path d="M1712.44 503.583H1643.99V571.984H1712.44V503.583Z" stroke="white" stroke-width="0.5" stroke-miterlimit="10"/>
<path d="M1712.44 571.984H1643.99V640.386H1712.44V571.984Z" stroke="white" stroke-width="0.5" stroke-miterlimit="10"/>
<path d="M1712.44 640.386H1643.99V708.787H1712.44V640.386Z" stroke="white" stroke-width="0.5" stroke-miterlimit="10"/>
<path d="M1712.44 708.541H1643.99V776.943H1712.44V708.541Z" stroke="white" stroke-width="0.5" stroke-miterlimit="10"/>
<path d="M1712.44 776.943H1643.99V845.344H1712.44V776.943Z" stroke="white" stroke-width="0.5" stroke-miterlimit="10"/>
<path d="M1712.44 845.344H1643.99V913.746H1712.44V845.344Z" stroke="white" stroke-width="0.5" stroke-miterlimit="10"/>
<path d="M1712.44 913.746H1643.99V982.148H1712.44V913.746Z" stroke="white" stroke-width="0.5" stroke-miterlimit="10"/>
<path d="M1712.44 981.902H1643.99V1050.3H1712.44V981.902Z" stroke="white" stroke-width="0.5" stroke-miterlimit="10"/>
<path d="M1712.44 1050.3H1643.99V1118.7H1712.44V1050.3Z" stroke="white" stroke-width="0.5" stroke-miterlimit="10"/>
<path d="M1780.64 -43.1379H1712.19V25.2636H1780.64V-43.1379Z" stroke="white" stroke-width="0.5" stroke-miterlimit="10"/>
<path d="M1780.64 25.2636H1712.19V93.6652H1780.64V25.2636Z" stroke="white" stroke-width="0.5" stroke-miterlimit="10"/>
<path d="M1780.64 93.4192H1712.19V161.821H1780.64V93.4192Z" stroke="white" stroke-width="0.5" stroke-miterlimit="10"/>
<path d="M1780.64 161.821H1712.19V230.222H1780.64V161.821Z" stroke="white" stroke-width="0.5" stroke-miterlimit="10"/>
<path d="M1780.64 230.222H1712.19V298.624H1780.64V230.222Z" stroke="white" stroke-width="0.5" stroke-miterlimit="10"/>
<path d="M1780.64 298.624H1712.19V367.026H1780.64V298.624Z" stroke="white" stroke-width="0.5" stroke-miterlimit="10"/>
<path d="M1780.64 366.779H1712.19V435.181H1780.64V366.779Z" stroke="white" stroke-width="0.5" stroke-miterlimit="10"/>
<path d="M1780.64 435.181H1712.19V503.583H1780.64V435.181Z" stroke="white" stroke-width="0.5" stroke-miterlimit="10"/>
<path d="M1780.64 503.583H1712.19V571.984H1780.64V503.583Z" stroke="white" stroke-width="0.5" stroke-miterlimit="10"/>
<path d="M1780.64 571.984H1712.19V640.386H1780.64V571.984Z" stroke="white" stroke-width="0.5" stroke-miterlimit="10"/>
<path d="M1780.64 640.386H1712.19V708.787H1780.64V640.386Z" stroke="white" stroke-width="0.5" stroke-miterlimit="10"/>
<path d="M1780.64 708.541H1712.19V776.943H1780.64V708.541Z" stroke="white" stroke-width="0.5" stroke-miterlimit="10"/>
<path d="M1780.64 776.943H1712.19V845.344H1780.64V776.943Z" stroke="white" stroke-width="0.5" stroke-miterlimit="10"/>
<path d="M1780.64 845.344H1712.19V913.746H1780.64V845.344Z" stroke="white" stroke-width="0.5" stroke-miterlimit="10"/>
<path d="M1780.64 913.746H1712.19V982.148H1780.64V913.746Z" stroke="white" stroke-width="0.5" stroke-miterlimit="10"/>
<path d="M1780.64 981.902H1712.19V1050.3H1780.64V981.902Z" stroke="white" stroke-width="0.5" stroke-miterlimit="10"/>
<path d="M1780.64 1050.3H1712.19V1118.7H1780.64V1050.3Z" stroke="white" stroke-width="0.5" stroke-miterlimit="10"/>
<path d="M1849.09 -43.1379H1780.64V25.2636H1849.09V-43.1379Z" stroke="white" stroke-width="0.5" stroke-miterlimit="10"/>
<path d="M1849.09 25.2636H1780.64V93.6652H1849.09V25.2636Z" stroke="white" stroke-width="0.5" stroke-miterlimit="10"/>
<path d="M1849.09 93.4192H1780.64V161.821H1849.09V93.4192Z" stroke="white" stroke-width="0.5" stroke-miterlimit="10"/>
<path d="M1849.09 161.821H1780.64V230.222H1849.09V161.821Z" stroke="white" stroke-width="0.5" stroke-miterlimit="10"/>
<path d="M1849.09 230.222H1780.64V298.624H1849.09V230.222Z" stroke="white" stroke-width="0.5" stroke-miterlimit="10"/>
<path d="M1849.09 298.624H1780.64V367.026H1849.09V298.624Z" stroke="white" stroke-width="0.5" stroke-miterlimit="10"/>
<path d="M1849.09 366.779H1780.64V435.181H1849.09V366.779Z" stroke="white" stroke-width="0.5" stroke-miterlimit="10"/>
<path d="M1849.09 435.181H1780.64V503.583H1849.09V435.181Z" stroke="white" stroke-width="0.5" stroke-miterlimit="10"/>
<path d="M1849.09 503.583H1780.64V571.984H1849.09V503.583Z" stroke="white" stroke-width="0.5" stroke-miterlimit="10"/>
<path d="M1849.09 571.984H1780.64V640.386H1849.09V571.984Z" stroke="white" stroke-width="0.5" stroke-miterlimit="10"/>
<path d="M1849.09 640.386H1780.64V708.787H1849.09V640.386Z" stroke="white" stroke-width="0.5" stroke-miterlimit="10"/>
<path d="M1849.09 708.541H1780.64V776.943H1849.09V708.541Z" stroke="white" stroke-width="0.5" stroke-miterlimit="10"/>
<path d="M1849.09 776.943H1780.64V845.344H1849.09V776.943Z" stroke="white" stroke-width="0.5" stroke-miterlimit="10"/>
<path d="M1849.09 845.344H1780.64V913.746H1849.09V845.344Z" stroke="white" stroke-width="0.5" stroke-miterlimit="10"/>
<path d="M1849.09 913.746H1780.64V982.148H1849.09V913.746Z" stroke="white" stroke-width="0.5" stroke-miterlimit="10"/>
<path d="M1849.09 981.902H1780.64V1050.3H1849.09V981.902Z" stroke="white" stroke-width="0.5" stroke-miterlimit="10"/>
<path d="M1849.09 1050.3H1780.64V1118.7H1849.09V1050.3Z" stroke="white" stroke-width="0.5" stroke-miterlimit="10"/>
<path d="M1917.54 -43.1379H1849.09V25.2636H1917.54V-43.1379Z" stroke="white" stroke-width="0.5" stroke-miterlimit="10"/>
<path d="M1917.54 25.2636H1849.09V93.6652H1917.54V25.2636Z" stroke="white" stroke-width="0.5" stroke-miterlimit="10"/>
<path d="M1917.54 93.4192H1849.09V161.821H1917.54V93.4192Z" stroke="white" stroke-width="0.5" stroke-miterlimit="10"/>
<path d="M1917.54 161.821H1849.09V230.222H1917.54V161.821Z" stroke="white" stroke-width="0.5" stroke-miterlimit="10"/>
<path d="M1917.54 230.222H1849.09V298.624H1917.54V230.222Z" stroke="white" stroke-width="0.5" stroke-miterlimit="10"/>
<path d="M1917.54 298.624H1849.09V367.026H1917.54V298.624Z" stroke="white" stroke-width="0.5" stroke-miterlimit="10"/>
<path d="M1917.54 366.779H1849.09V435.181H1917.54V366.779Z" stroke="white" stroke-width="0.5" stroke-miterlimit="10"/>
<path d="M1917.54 435.181H1849.09V503.583H1917.54V435.181Z" stroke="white" stroke-width="0.5" stroke-miterlimit="10"/>
<path d="M1917.54 503.583H1849.09V571.984H1917.54V503.583Z" stroke="white" stroke-width="0.5" stroke-miterlimit="10"/>
<path d="M1917.54 571.984H1849.09V640.386H1917.54V571.984Z" stroke="white" stroke-width="0.5" stroke-miterlimit="10"/>
<path d="M1917.54 640.386H1849.09V708.787H1917.54V640.386Z" stroke="white" stroke-width="0.5" stroke-miterlimit="10"/>
<path d="M1917.54 708.541H1849.09V776.943H1917.54V708.541Z" stroke="white" stroke-width="0.5" stroke-miterlimit="10"/>
<path d="M1917.54 776.943H1849.09V845.344H1917.54V776.943Z" stroke="white" stroke-width="0.5" stroke-miterlimit="10"/>
<path d="M1917.54 845.344H1849.09V913.746H1917.54V845.344Z" stroke="white" stroke-width="0.5" stroke-miterlimit="10"/>
<path d="M1917.54 913.746H1849.09V982.148H1917.54V913.746Z" stroke="white" stroke-width="0.5" stroke-miterlimit="10"/>
<path d="M1917.54 981.902H1849.09V1050.3H1917.54V981.902Z" stroke="white" stroke-width="0.5" stroke-miterlimit="10"/>
<path d="M1917.54 1050.3H1849.09V1118.7H1917.54V1050.3Z" stroke="white" stroke-width="0.5" stroke-miterlimit="10"/>
<path d="M139.359 -111.539H2.46216V25.2637H139.359V-111.539Z" stroke="white" stroke-width="0.5" stroke-miterlimit="10"/>
<path d="M139.359 25.2636H2.46216V162.067H139.359V25.2636Z" stroke="white" stroke-width="0.5" stroke-miterlimit="10"/>
<path d="M139.359 161.821H2.46216V298.624H139.359V161.821Z" stroke="white" stroke-width="0.5" stroke-miterlimit="10"/>
<path d="M139.359 298.624H2.46216V435.427H139.359V298.624Z" stroke="white" stroke-width="0.5" stroke-miterlimit="10"/>
<path d="M139.359 435.181H2.46216V571.984H139.359V435.181Z" stroke="white" stroke-width="0.5" stroke-miterlimit="10"/>
<path d="M139.359 571.984H2.46216V708.787H139.359V571.984Z" stroke="white" stroke-width="0.5" stroke-miterlimit="10"/>
<path d="M139.359 708.541H2.46216V845.344H139.359V708.541Z" stroke="white" stroke-width="0.5" stroke-miterlimit="10"/>
<path d="M139.359 845.344H2.46216V982.148H139.359V845.344Z" stroke="white" stroke-width="0.5" stroke-miterlimit="10"/>
<path d="M139.359 981.902H2.46216V1118.7H139.359V981.902Z" stroke="white" stroke-width="0.5" stroke-miterlimit="10"/>
<path d="M276.255 -111.539H139.359V25.2637H276.255V-111.539Z" stroke="white" stroke-width="0.5" stroke-miterlimit="10"/>
<path d="M276.255 25.2636H139.359V162.067H276.255V25.2636Z" stroke="white" stroke-width="0.5" stroke-miterlimit="10"/>
<path d="M276.255 161.821H139.359V298.624H276.255V161.821Z" stroke="white" stroke-width="0.5" stroke-miterlimit="10"/>
<path d="M276.255 298.624H139.359V435.427H276.255V298.624Z" stroke="white" stroke-width="0.5" stroke-miterlimit="10"/>
<path d="M276.255 435.181H139.359V571.984H276.255V435.181Z" stroke="white" stroke-width="0.5" stroke-miterlimit="10"/>
<path d="M276.255 571.984H139.359V708.787H276.255V571.984Z" stroke="white" stroke-width="0.5" stroke-miterlimit="10"/>
<path d="M276.255 708.541H139.359V845.344H276.255V708.541Z" stroke="white" stroke-width="0.5" stroke-miterlimit="10"/>
<path d="M276.255 845.344H139.359V982.148H276.255V845.344Z" stroke="white" stroke-width="0.5" stroke-miterlimit="10"/>
<path d="M276.255 981.902H139.359V1118.7H276.255V981.902Z" stroke="white" stroke-width="0.5" stroke-miterlimit="10"/>
<path d="M412.906 -111.539H276.009V25.2637H412.906V-111.539Z" stroke="white" stroke-width="0.5" stroke-miterlimit="10"/>
<path d="M412.906 25.2636H276.009V162.067H412.906V25.2636Z" stroke="white" stroke-width="0.5" stroke-miterlimit="10"/>
<path d="M412.906 161.821H276.009V298.624H412.906V161.821Z" stroke="white" stroke-width="0.5" stroke-miterlimit="10"/>
<path d="M412.906 298.624H276.009V435.427H412.906V298.624Z" stroke="white" stroke-width="0.5" stroke-miterlimit="10"/>
<path d="M412.906 435.181H276.009V571.984H412.906V435.181Z" stroke="white" stroke-width="0.5" stroke-miterlimit="10"/>
<path d="M412.906 571.984H276.009V708.787H412.906V571.984Z" stroke="white" stroke-width="0.5" stroke-miterlimit="10"/>
<path d="M412.906 708.541H276.009V845.344H412.906V708.541Z" stroke="white" stroke-width="0.5" stroke-miterlimit="10"/>
<path d="M412.906 845.344H276.009V982.148H412.906V845.344Z" stroke="white" stroke-width="0.5" stroke-miterlimit="10"/>
<path d="M412.906 981.902H276.009V1118.7H412.906V981.902Z" stroke="white" stroke-width="0.5" stroke-miterlimit="10"/>
<path d="M549.803 -111.539H412.906V25.2637H549.803V-111.539Z" stroke="white" stroke-width="0.5" stroke-miterlimit="10"/>
<path d="M549.803 25.2636H412.906V162.067H549.803V25.2636Z" stroke="white" stroke-width="0.5" stroke-miterlimit="10"/>
<path d="M549.803 161.821H412.906V298.624H549.803V161.821Z" stroke="white" stroke-width="0.5" stroke-miterlimit="10"/>
<path d="M549.803 298.624H412.906V435.427H549.803V298.624Z" stroke="white" stroke-width="0.5" stroke-miterlimit="10"/>
<path d="M549.803 435.181H412.906V571.984H549.803V435.181Z" stroke="white" stroke-width="0.5" stroke-miterlimit="10"/>
<path d="M549.803 571.984H412.906V708.787H549.803V571.984Z" stroke="white" stroke-width="0.5" stroke-miterlimit="10"/>
<path d="M549.803 708.541H412.906V845.344H549.803V708.541Z" stroke="white" stroke-width="0.5" stroke-miterlimit="10"/>
<path d="M549.803 845.344H412.906V982.148H549.803V845.344Z" stroke="white" stroke-width="0.5" stroke-miterlimit="10"/>
<path d="M549.803 981.902H412.906V1118.7H549.803V981.902Z" stroke="white" stroke-width="0.5" stroke-miterlimit="10"/>
<path d="M686.453 -111.539H549.556V25.2637H686.453V-111.539Z" stroke="white" stroke-width="0.5" stroke-miterlimit="10"/>
<path d="M686.453 25.2636H549.556V162.067H686.453V25.2636Z" stroke="white" stroke-width="0.5" stroke-miterlimit="10"/>
<path d="M686.453 161.821H549.556V298.624H686.453V161.821Z" stroke="white" stroke-width="0.5" stroke-miterlimit="10"/>
<path d="M686.453 298.624H549.556V435.427H686.453V298.624Z" stroke="white" stroke-width="0.5" stroke-miterlimit="10"/>
<path d="M686.453 435.181H549.556V571.984H686.453V435.181Z" stroke="white" stroke-width="0.5" stroke-miterlimit="10"/>
<path d="M686.453 571.984H549.556V708.787H686.453V571.984Z" stroke="white" stroke-width="0.5" stroke-miterlimit="10"/>
<path d="M686.453 708.541H549.556V845.344H686.453V708.541Z" stroke="white" stroke-width="0.5" stroke-miterlimit="10"/>
<path d="M686.453 845.344H549.556V982.148H686.453V845.344Z" stroke="white" stroke-width="0.5" stroke-miterlimit="10"/>
<path d="M686.453 981.902H549.556V1118.7H686.453V981.902Z" stroke="white" stroke-width="0.5" stroke-miterlimit="10"/>
<path d="M823.35 -111.539H686.453V25.2637H823.35V-111.539Z" stroke="white" stroke-width="0.5" stroke-miterlimit="10"/>
<path d="M823.35 25.2636H686.453V162.067H823.35V25.2636Z" stroke="white" stroke-width="0.5" stroke-miterlimit="10"/>
<path d="M823.35 161.821H686.453V298.624H823.35V161.821Z" stroke="white" stroke-width="0.5" stroke-miterlimit="10"/>
<path d="M823.35 298.624H686.453V435.427H823.35V298.624Z" stroke="white" stroke-width="0.5" stroke-miterlimit="10"/>
<path d="M823.35 435.181H686.453V571.984H823.35V435.181Z" stroke="white" stroke-width="0.5" stroke-miterlimit="10"/>
<path d="M823.35 571.984H686.453V708.787H823.35V571.984Z" stroke="white" stroke-width="0.5" stroke-miterlimit="10"/>
<path d="M823.35 708.541H686.453V845.344H823.35V708.541Z" stroke="white" stroke-width="0.5" stroke-miterlimit="10"/>
<path d="M823.35 845.344H686.453V982.148H823.35V845.344Z" stroke="white" stroke-width="0.5" stroke-miterlimit="10"/>
<path d="M823.35 981.902H686.453V1118.7H823.35V981.902Z" stroke="white" stroke-width="0.5" stroke-miterlimit="10"/>
<path d="M960 -111.539H823.103V25.2637H960V-111.539Z" stroke="white" stroke-width="0.5" stroke-miterlimit="10"/>
<path d="M960 25.2636H823.103V162.067H960V25.2636Z" stroke="white" stroke-width="0.5" stroke-miterlimit="10"/>
<path d="M960 161.821H823.103V298.624H960V161.821Z" stroke="white" stroke-width="0.5" stroke-miterlimit="10"/>
<path d="M960 298.624H823.103V435.427H960V298.624Z" stroke="white" stroke-width="0.5" stroke-miterlimit="10"/>
<path d="M960 435.181H823.103V571.984H960V435.181Z" stroke="white" stroke-width="0.5" stroke-miterlimit="10"/>
<path d="M960 571.984H823.103V708.787H960V571.984Z" stroke="white" stroke-width="0.5" stroke-miterlimit="10"/>
<path d="M960 708.541H823.103V845.344H960V708.541Z" stroke="white" stroke-width="0.5" stroke-miterlimit="10"/>
<path d="M960 845.344H823.103V982.148H960V845.344Z" stroke="white" stroke-width="0.5" stroke-miterlimit="10"/>
<path d="M960 981.902H823.103V1118.7H960V981.902Z" stroke="white" stroke-width="0.5" stroke-miterlimit="10"/>
<path d="M1096.9 -111.539H960V25.2637H1096.9V-111.539Z" stroke="white" stroke-width="0.5" stroke-miterlimit="10"/>
<path d="M1096.9 25.2636H960V162.067H1096.9V25.2636Z" stroke="white" stroke-width="0.5" stroke-miterlimit="10"/>
<path d="M1096.9 161.821H960V298.624H1096.9V161.821Z" stroke="white" stroke-width="0.5" stroke-miterlimit="10"/>
<path d="M1096.9 298.624H960V435.427H1096.9V298.624Z" stroke="white" stroke-width="0.5" stroke-miterlimit="10"/>
<path d="M1096.9 435.181H960V571.984H1096.9V435.181Z" stroke="white" stroke-width="0.5" stroke-miterlimit="10"/>
<path d="M1096.9 571.984H960V708.787H1096.9V571.984Z" stroke="white" stroke-width="0.5" stroke-miterlimit="10"/>
<path d="M1096.9 708.541H960V845.344H1096.9V708.541Z" stroke="white" stroke-width="0.5" stroke-miterlimit="10"/>
<path d="M1096.9 845.344H960V982.148H1096.9V845.344Z" stroke="white" stroke-width="0.5" stroke-miterlimit="10"/>
<path d="M1096.9 981.902H960V1118.7H1096.9V981.902Z" stroke="white" stroke-width="0.5" stroke-miterlimit="10"/>
<path d="M1233.55 -111.539H1096.65V25.2637H1233.55V-111.539Z" stroke="white" stroke-width="0.5" stroke-miterlimit="10"/>
<path d="M1233.55 25.2636H1096.65V162.067H1233.55V25.2636Z" stroke="white" stroke-width="0.5" stroke-miterlimit="10"/>
<path d="M1233.55 161.821H1096.65V298.624H1233.55V161.821Z" stroke="white" stroke-width="0.5" stroke-miterlimit="10"/>
<path d="M1233.55 298.624H1096.65V435.427H1233.55V298.624Z" stroke="white" stroke-width="0.5" stroke-miterlimit="10"/>
<path d="M1233.55 435.181H1096.65V571.984H1233.55V435.181Z" stroke="white" stroke-width="0.5" stroke-miterlimit="10"/>
<path d="M1233.55 571.984H1096.65V708.787H1233.55V571.984Z" stroke="white" stroke-width="0.5" stroke-miterlimit="10"/>
<path d="M1233.55 708.541H1096.65V845.344H1233.55V708.541Z" stroke="white" stroke-width="0.5" stroke-miterlimit="10"/>
<path d="M1233.55 845.344H1096.65V982.148H1233.55V845.344Z" stroke="white" stroke-width="0.5" stroke-miterlimit="10"/>
<path d="M1233.55 981.902H1096.65V1118.7H1233.55V981.902Z" stroke="white" stroke-width="0.5" stroke-miterlimit="10"/>
<path d="M1370.44 -111.539H1233.55V25.2637H1370.44V-111.539Z" stroke="white" stroke-width="0.5" stroke-miterlimit="10"/>
<path d="M1370.44 25.2636H1233.55V162.067H1370.44V25.2636Z" stroke="white" stroke-width="0.5" stroke-miterlimit="10"/>
<path d="M1370.44 161.821H1233.55V298.624H1370.44V161.821Z" stroke="white" stroke-width="0.5" stroke-miterlimit="10"/>
<path d="M1370.44 298.624H1233.55V435.427H1370.44V298.624Z" stroke="white" stroke-width="0.5" stroke-miterlimit="10"/>
<path d="M1370.44 435.181H1233.55V571.984H1370.44V435.181Z" stroke="white" stroke-width="0.5" stroke-miterlimit="10"/>
<path d="M1370.44 571.984H1233.55V708.787H1370.44V571.984Z" stroke="white" stroke-width="0.5" stroke-miterlimit="10"/>
<path d="M1370.44 708.541H1233.55V845.344H1370.44V708.541Z" stroke="white" stroke-width="0.5" stroke-miterlimit="10"/>
<path d="M1370.44 845.344H1233.55V982.148H1370.44V845.344Z" stroke="white" stroke-width="0.5" stroke-miterlimit="10"/>
<path d="M1370.44 981.902H1233.55V1118.7H1370.44V981.902Z" stroke="white" stroke-width="0.5" stroke-miterlimit="10"/>
<path d="M1507.34 -111.539H1370.44V25.2637H1507.34V-111.539Z" stroke="white" stroke-width="0.5" stroke-miterlimit="10"/>
<path d="M1507.34 25.2636H1370.44V162.067H1507.34V25.2636Z" stroke="white" stroke-width="0.5" stroke-miterlimit="10"/>
<path d="M1507.34 161.821H1370.44V298.624H1507.34V161.821Z" stroke="white" stroke-width="0.5" stroke-miterlimit="10"/>
<path d="M1507.34 298.624H1370.44V435.427H1507.34V298.624Z" stroke="white" stroke-width="0.5" stroke-miterlimit="10"/>
<path d="M1507.34 435.181H1370.44V571.984H1507.34V435.181Z" stroke="white" stroke-width="0.5" stroke-miterlimit="10"/>
<path d="M1507.34 571.984H1370.44V708.787H1507.34V571.984Z" stroke="white" stroke-width="0.5" stroke-miterlimit="10"/>
<path d="M1507.34 708.541H1370.44V845.344H1507.34V708.541Z" stroke="white" stroke-width="0.5" stroke-miterlimit="10"/>
<path d="M1507.34 845.344H1370.44V982.148H1507.34V845.344Z" stroke="white" stroke-width="0.5" stroke-miterlimit="10"/>
<path d="M1507.34 981.902H1370.44V1118.7H1507.34V981.902Z" stroke="white" stroke-width="0.5" stroke-miterlimit="10"/>
<path d="M1643.99 -111.539H1507.09V25.2637H1643.99V-111.539Z" stroke="white" stroke-width="0.5" stroke-miterlimit="10"/>
<path d="M1643.99 25.2636H1507.09V162.067H1643.99V25.2636Z" stroke="white" stroke-width="0.5" stroke-miterlimit="10"/>
<path d="M1643.99 161.821H1507.09V298.624H1643.99V161.821Z" stroke="white" stroke-width="0.5" stroke-miterlimit="10"/>
<path d="M1643.99 298.624H1507.09V435.427H1643.99V298.624Z" stroke="white" stroke-width="0.5" stroke-miterlimit="10"/>
<path d="M1643.99 435.181H1507.09V571.984H1643.99V435.181Z" stroke="white" stroke-width="0.5" stroke-miterlimit="10"/>
<path d="M1643.99 571.984H1507.09V708.787H1643.99V571.984Z" stroke="white" stroke-width="0.5" stroke-miterlimit="10"/>
<path d="M1643.99 708.541H1507.09V845.344H1643.99V708.541Z" stroke="white" stroke-width="0.5" stroke-miterlimit="10"/>
<path d="M1643.99 845.344H1507.09V982.148H1643.99V845.344Z" stroke="white" stroke-width="0.5" stroke-miterlimit="10"/>
<path d="M1643.99 981.902H1507.09V1118.7H1643.99V981.902Z" stroke="white" stroke-width="0.5" stroke-miterlimit="10"/>
<path d="M1780.89 -111.539H1643.99V25.2637H1780.89V-111.539Z" stroke="white" stroke-width="0.5" stroke-miterlimit="10"/>
<path d="M1780.89 25.2636H1643.99V162.067H1780.89V25.2636Z" stroke="white" stroke-width="0.5" stroke-miterlimit="10"/>
<path d="M1780.89 161.821H1643.99V298.624H1780.89V161.821Z" stroke="white" stroke-width="0.5" stroke-miterlimit="10"/>
<path d="M1780.89 298.624H1643.99V435.427H1780.89V298.624Z" stroke="white" stroke-width="0.5" stroke-miterlimit="10"/>
<path d="M1780.89 435.181H1643.99V571.984H1780.89V435.181Z" stroke="white" stroke-width="0.5" stroke-miterlimit="10"/>
<path d="M1780.89 571.984H1643.99V708.787H1780.89V571.984Z" stroke="white" stroke-width="0.5" stroke-miterlimit="10"/>
<path d="M1780.89 708.541H1643.99V845.344H1780.89V708.541Z" stroke="white" stroke-width="0.5" stroke-miterlimit="10"/>
<path d="M1780.89 845.344H1643.99V982.148H1780.89V845.344Z" stroke="white" stroke-width="0.5" stroke-miterlimit="10"/>
<path d="M1780.89 981.902H1643.99V1118.7H1780.89V981.902Z" stroke="white" stroke-width="0.5" stroke-miterlimit="10"/>
<path d="M1917.54 -111.539H1780.64V25.2637H1917.54V-111.539Z" stroke="white" stroke-width="0.5" stroke-miterlimit="10"/>
<path d="M1917.54 25.2636H1780.64V162.067H1917.54V25.2636Z" stroke="white" stroke-width="0.5" stroke-miterlimit="10"/>
<path d="M1917.54 161.821H1780.64V298.624H1917.54V161.821Z" stroke="white" stroke-width="0.5" stroke-miterlimit="10"/>
<path d="M1917.54 298.624H1780.64V435.427H1917.54V298.624Z" stroke="white" stroke-width="0.5" stroke-miterlimit="10"/>
<path d="M1917.54 435.181H1780.64V571.984H1917.54V435.181Z" stroke="white" stroke-width="0.5" stroke-miterlimit="10"/>
<path d="M1917.54 571.984H1780.64V708.787H1917.54V571.984Z" stroke="white" stroke-width="0.5" stroke-miterlimit="10"/>
<path d="M1917.54 708.541H1780.64V845.344H1917.54V708.541Z" stroke="white" stroke-width="0.5" stroke-miterlimit="10"/>
<path d="M1917.54 845.344H1780.64V982.148H1917.54V845.344Z" stroke="white" stroke-width="0.5" stroke-miterlimit="10"/>
<path d="M1917.54 981.902H1780.64V1118.7H1917.54V981.902Z" stroke="white" stroke-width="0.5" stroke-miterlimit="10"/>
</g>
</svg>
