<svg width="60" height="60" viewBox="0 0 60 60" fill="none" xmlns="http://www.w3.org/2000/svg">
<g opacity="0.24">
<path fill-rule="evenodd" clip-rule="evenodd" d="M8.15253 24.4263L33.0129 10.0731C33.5718 10.0816 33.9794 9.82802 34.2594 9.35345L35.4132 8.68727C36.515 9.11163 37.51 9.951 38.6256 11.3228L37.5529 11.9508C36.6264 11.7462 35.9135 11.7318 36.2939 12.6874L35.0129 13.4366L33.4151 10.6692L33.4467 11.1497L34.8292 13.5443L34.5719 13.695L32.9725 10.9248L33.0037 11.4055L34.3878 13.8029L34.1305 13.9536L32.5295 11.1806L32.5606 11.6613L33.9462 14.0611L33.6889 14.2118L32.0865 11.4363L32.118 11.9168L33.5052 14.3195L33.2475 14.4704L31.6434 11.6921L31.675 12.1726L33.0636 14.5777L32.8063 14.7284L31.2008 11.9477L31.232 12.4284L32.6222 14.8363L32.3649 14.987L30.7578 12.2034L30.7893 12.684L32.1809 15.0943L23.8046 19.9966L23.5795 19.6068L22.7705 20.1514L22.7376 20.6143L15.6619 24.7619C14.1363 24.4201 11.8623 25.6883 9.43891 27.2802C8.85338 26.4043 8.20232 25.4407 8.1525 24.4263L8.15253 24.4263Z" fill="white"/>
<path fill-rule="evenodd" clip-rule="evenodd" d="M36.4888 9.20788L37.1913 8.87235C37.7312 8.21754 37.5897 7.38901 38.5387 7.5413L38.5744 8.09639C37.795 8.49579 37.7302 9.28776 37.6187 10.1353C37.2398 9.76478 36.8665 9.45735 36.4888 9.20789L36.4888 9.20788Z" fill="white"/>
<path d="M11.4141 30.1007C10.7873 29.2233 10.086 28.3846 9.5128 27.473C10.6101 26.7511 11.7823 26.0081 12.983 25.4727C14.0305 25.0058 14.9651 24.7764 15.7096 24.9433L15.7646 24.9353L16.5624 24.4682L17.7142 26.4633L11.4141 30.1007L11.4141 30.1007Z" fill="white"/>
<path fill-rule="evenodd" clip-rule="evenodd" d="M16.6309 24.3405L38.9477 11.4559C39.342 12.2198 40.3545 12.0823 41.5517 11.6754L42.8717 11.4325L43.3307 12.1327C41.6416 13.8092 40.5744 14.9213 41.9135 16.4065L50.7007 22.8553L51.312 24.186L43.6148 30.9965L43.2309 30.5805L44.0676 29.9402L36.4961 23.2726C35.6435 22.6365 34.8744 22.3782 34.2488 22.7739L29.9915 25.4026C28.6908 26.0394 27.5583 25.4033 26.5791 23.6123C26.0386 22.949 25.3783 22.7409 24.5567 23.1539L18.0603 26.8163L16.6309 24.3405L16.6309 24.3405ZM46.0196 25.2256C45.9518 25.3671 45.842 25.4903 45.6963 25.5744C45.3075 25.7988 44.808 25.6618 44.5808 25.2683C44.4957 25.1209 44.4607 24.958 44.471 24.8007L46.0196 25.2256ZM44.8737 24.1497C45.2625 23.9252 45.7614 24.0621 45.9885 24.4556C46.1014 24.6511 46.1261 24.8727 46.0746 25.0738L44.4975 24.641C44.551 24.4405 44.6805 24.2612 44.8737 24.1497L44.8737 24.1497ZM36.3902 17.3937C36.3225 17.5356 36.2125 17.6583 36.0668 17.7424C35.6781 17.9669 35.1788 17.8302 34.9516 17.4368C34.8665 17.2893 34.8315 17.1264 34.8416 16.9687L36.3902 17.3937ZM35.2443 16.3177C35.633 16.0933 36.1322 16.2306 36.3593 16.624C36.4719 16.8191 36.4967 17.0408 36.4451 17.2418L34.8683 16.8095C34.9221 16.6087 35.0511 16.4293 35.2443 16.3177ZM27.3811 21.792L28.863 20.9364C30.1315 21.4051 30.2317 22.495 30.2773 23.5453C30.7635 22.6474 31.0331 21.505 29.5208 20.5566L29.862 20.3596C31.1335 20.9295 31.6673 22.02 31.6572 23.4956L29.1878 24.9213C28.2588 25.0791 26.5413 23.3303 27.3811 21.792L27.3811 21.792ZM36.195 13.978L49.382 23.7437L49.0365 25.2358L49.0114 25.2772L44.8742 28.7969L31.9569 17.4299C32.8865 15.6269 34.2802 14.5751 36.195 13.978L36.195 13.978ZM32.1494 17.3947L44.8746 28.5931L48.8928 25.175L49.2095 23.8072L36.1676 14.1489C34.4061 14.7038 33.0163 15.7383 32.1494 17.3947L32.1494 17.3947Z" fill="white"/>
<path fill-rule="evenodd" clip-rule="evenodd" d="M8.80891 23.3785L9.71855 23.4609L8.49525 24.1671L8.80891 23.3785Z" fill="white"/>
<path d="M17.4775 47.9686C17.1735 47.9686 16.9095 48.0299 16.6855 48.1526C16.4668 48.2752 16.2882 48.4406 16.1495 48.6486C16.0108 48.8512 15.9068 49.0832 15.8375 49.3446C15.7735 49.6059 15.7415 49.8726 15.7415 50.1446C15.7415 50.4166 15.7735 50.6832 15.8375 50.9446C15.9068 51.2059 16.0108 51.4406 16.1495 51.6486C16.2882 51.8512 16.4668 52.0139 16.6855 52.1366C16.9095 52.2592 17.1735 52.3206 17.4775 52.3206C17.7815 52.3206 18.0428 52.2592 18.2615 52.1366C18.4855 52.0139 18.6668 51.8512 18.8055 51.6486C18.9442 51.4406 19.0455 51.2059 19.1095 50.9446C19.1788 50.6832 19.2135 50.4166 19.2135 50.1446C19.2135 49.8726 19.1788 49.6059 19.1095 49.3446C19.0455 49.0832 18.9442 48.8512 18.8055 48.6486C18.6668 48.4406 18.4855 48.2752 18.2615 48.1526C18.0428 48.0299 17.7815 47.9686 17.4775 47.9686ZM17.4775 47.1526C17.9042 47.1526 18.2855 47.2326 18.6215 47.3926C18.9628 47.5526 19.2508 47.7686 19.4855 48.0406C19.7202 48.3126 19.8988 48.6299 20.0215 48.9926C20.1495 49.3552 20.2135 49.7392 20.2135 50.1446C20.2135 50.5552 20.1495 50.9419 20.0215 51.3046C19.8988 51.6672 19.7202 51.9846 19.4855 52.2566C19.2508 52.5286 18.9628 52.7446 18.6215 52.9046C18.2855 53.0592 17.9042 53.1366 17.4775 53.1366C17.0508 53.1366 16.6668 53.0592 16.3255 52.9046C15.9895 52.7446 15.7042 52.5286 15.4695 52.2566C15.2348 51.9846 15.0535 51.6672 14.9255 51.3046C14.8028 50.9419 14.7415 50.5552 14.7415 50.1446C14.7415 49.7392 14.8028 49.3552 14.9255 48.9926C15.0535 48.6299 15.2348 48.3126 15.4695 48.0406C15.7042 47.7686 15.9895 47.5526 16.3255 47.3926C16.6668 47.2326 17.0508 47.1526 17.4775 47.1526ZM21.0196 48.8646H21.8836V49.4246H21.8996C22.0276 49.1846 22.2063 49.0139 22.4356 48.9126C22.665 48.8059 22.913 48.7526 23.1796 48.7526C23.505 48.7526 23.7876 48.8112 24.0276 48.9286C24.273 49.0406 24.4756 49.1979 24.6356 49.4006C24.7956 49.5979 24.9156 49.8299 24.9956 50.0966C25.0756 50.3632 25.1156 50.6486 25.1156 50.9526C25.1156 51.2299 25.0783 51.4992 25.0036 51.7606C24.9343 52.0219 24.825 52.2539 24.6756 52.4566C24.5316 52.6539 24.3476 52.8139 24.1236 52.9366C23.8996 53.0539 23.6356 53.1126 23.3316 53.1126C23.1983 53.1126 23.065 53.0992 22.9316 53.0726C22.7983 53.0512 22.6703 53.0139 22.5476 52.9606C22.425 52.9072 22.3103 52.8406 22.2036 52.7606C22.1023 52.6752 22.017 52.5766 21.9476 52.4646H21.9316V54.5286H21.0196V48.8646ZM24.2036 50.9366C24.2036 50.7499 24.1796 50.5686 24.1316 50.3926C24.0836 50.2166 24.0116 50.0619 23.9156 49.9286C23.8196 49.7899 23.6996 49.6806 23.5556 49.6006C23.4116 49.5152 23.2463 49.4726 23.0596 49.4726C22.6756 49.4726 22.385 49.6059 22.1876 49.8726C21.9956 50.1392 21.8996 50.4939 21.8996 50.9366C21.8996 51.1446 21.9236 51.3392 21.9716 51.5206C22.025 51.6966 22.1023 51.8486 22.2036 51.9766C22.305 52.1046 22.425 52.2059 22.5636 52.2806C22.7076 52.3552 22.873 52.3926 23.0596 52.3926C23.2676 52.3926 23.4436 52.3499 23.5876 52.2646C23.7316 52.1792 23.849 52.0699 23.9396 51.9366C24.0356 51.7979 24.1023 51.6432 24.1396 51.4726C24.1823 51.2966 24.2036 51.1179 24.2036 50.9366ZM25.4303 48.8646H26.4303L27.5103 51.9526H27.5263L28.5743 48.8646H29.5263L27.9183 53.2246C27.8436 53.4112 27.7689 53.5899 27.6943 53.7606C27.6249 53.9312 27.5369 54.0806 27.4303 54.2086C27.3289 54.3419 27.2009 54.4459 27.0463 54.5206C26.8916 54.6006 26.6943 54.6406 26.4543 54.6406C26.2409 54.6406 26.0303 54.6246 25.8223 54.5926V53.8246C25.8969 53.8352 25.9689 53.8459 26.0383 53.8566C26.1076 53.8726 26.1796 53.8806 26.2543 53.8806C26.3609 53.8806 26.4489 53.8672 26.5183 53.8406C26.5876 53.8139 26.6436 53.7739 26.6863 53.7206C26.7343 53.6726 26.7743 53.6139 26.8063 53.5446C26.8383 53.4752 26.8676 53.3952 26.8943 53.3046L26.9983 52.9846L25.4303 48.8646ZM32.4347 51.5206L31.8907 50.9926L30.6267 53.0006H29.5147L31.2507 50.3846L29.6667 48.8646H30.7867L32.4347 50.5366V48.8646H33.3467V50.5366L34.9947 48.8646H36.1147L34.5307 50.3846L36.2667 53.0006H35.1547L33.8907 50.9926L33.3467 51.5206V53.0006H32.4347V51.5206ZM36.7306 48.8646H37.6426V51.7046H37.6586L39.4746 48.8646H40.6026V53.0006H39.6906V50.1366H39.6746L37.8186 53.0006H36.7306V48.8646ZM44.4372 50.5686C44.4265 50.4246 44.3945 50.2859 44.3412 50.1526C44.2932 50.0192 44.2239 49.9046 44.1332 49.8086C44.0479 49.7072 43.9412 49.6272 43.8132 49.5686C43.6905 49.5046 43.5519 49.4726 43.3972 49.4726C43.2372 49.4726 43.0905 49.5019 42.9572 49.5606C42.8292 49.6139 42.7172 49.6912 42.6212 49.7926C42.5305 49.8886 42.4559 50.0032 42.3972 50.1366C42.3439 50.2699 42.3145 50.4139 42.3092 50.5686H44.4372ZM42.3092 51.1686C42.3092 51.3286 42.3305 51.4832 42.3732 51.6326C42.4212 51.7819 42.4905 51.9126 42.5812 52.0246C42.6719 52.1366 42.7865 52.2272 42.9252 52.2966C43.0639 52.3606 43.2292 52.3926 43.4212 52.3926C43.6879 52.3926 43.9012 52.3366 44.0612 52.2246C44.2265 52.1072 44.3492 51.9339 44.4292 51.7046H45.2932C45.2452 51.9286 45.1625 52.1286 45.0452 52.3046C44.9279 52.4806 44.7865 52.6299 44.6212 52.7526C44.4559 52.8699 44.2692 52.9579 44.0612 53.0166C43.8585 53.0806 43.6452 53.1126 43.4212 53.1126C43.0959 53.1126 42.8079 53.0592 42.5572 52.9526C42.3065 52.8459 42.0932 52.6966 41.9172 52.5046C41.7465 52.3126 41.6159 52.0832 41.5252 51.8166C41.4399 51.5499 41.3972 51.2566 41.3972 50.9366C41.3972 50.6432 41.4425 50.3659 41.5332 50.1046C41.6292 49.8379 41.7625 49.6059 41.9332 49.4086C42.1092 49.2059 42.3199 49.0459 42.5652 48.9286C42.8105 48.8112 43.0879 48.7526 43.3972 48.7526C43.7225 48.7526 44.0132 48.8219 44.2692 48.9606C44.5305 49.0939 44.7465 49.2726 44.9172 49.4966C45.0879 49.7206 45.2105 49.9792 45.2852 50.2726C45.3652 50.5606 45.3865 50.8592 45.3492 51.1686H42.3092Z" fill="white"/>
</g>
</svg>
