<svg width="56" height="42" viewBox="0 0 56 42" fill="none" xmlns="http://www.w3.org/2000/svg">
<g opacity="0.4">
<path d="M44.0545 10.4932L39.5127 15.08L56.0001 16.6508L54.4446 0L49.9651 4.52399C47.4142 2.76466 44.3656 1.75933 41.1926 1.75933C38.5173 1.75933 35.7175 2.51333 33.3533 4.20983C32.6067 4.71249 31.9223 5.34083 31.238 6.09483C32.0468 5.78066 32.9178 5.65499 33.851 5.65499C37.0863 5.65499 40.6948 7.41433 44.0545 10.4932ZM34.9709 22.0545V18.85C34.9709 15.7083 35.5931 13.6348 36.3397 12.3153C37.0863 10.933 37.9573 10.2418 38.9528 9.80199C39.4505 9.61349 40.0105 9.48782 40.5704 9.42499C38.144 7.79133 35.7797 6.91166 33.851 6.91166C31.7979 6.91166 30.1181 7.72849 28.8115 9.67632C28.5627 10.0533 28.0027 11.2472 27.9405 11.3728C27.2561 13.572 26.8828 16.0853 26.8828 18.85V22.0545L30.3047 24.0023L34.9709 22.0545Z" fill="white"/>
<path d="M49.2806 31.9191C50.525 31.8562 53.0758 31.542 53.5736 30.1597C53.9469 29.0287 53.3247 28.5261 52.7647 28.3376C52.4537 28.2747 48.0985 28.7146 47.6008 28.9031C46.9164 29.0916 43.8678 29.1544 43.3701 29.2801C43.2456 29.4057 37.7706 30.0341 37.7706 30.0341C37.7706 30.0341 37.2729 30.2226 37.024 29.9084C36.7751 29.6571 37.3973 28.9659 37.7084 28.9659C37.895 28.9659 40.9436 27.8349 43.059 27.2066C44.2411 26.8296 50.3383 25.1959 51.8315 24.8817C52.5781 24.7561 55.3778 24.6304 54.9423 22.4941C54.6312 21.1746 53.0758 20.9232 51.3338 21.3631C49.6539 21.7401 43.4945 23.0596 41.9391 23.4994C40.4459 24.0021 37.7084 24.6932 36.5263 24.8189C35.8419 24.8817 34.4109 23.8136 36.9618 23.4366C37.584 23.3109 40.5081 22.4312 41.5658 22.1171C42.6235 21.8029 45.4232 20.8604 46.1076 20.7347C46.8542 20.6091 47.9741 20.4834 49.2806 19.7922C50.2761 19.2267 50.836 18.0957 49.965 17.0904C49.0318 16.1479 45.0499 17.4674 43.93 17.6559C42.8101 17.8444 38.2683 18.5984 37.7706 18.7241C37.5217 18.7869 36.8996 18.9126 36.2774 18.9754V22.8711L30.3669 25.1959L26.0117 22.8082V20.1064C25.1407 19.9807 24.2075 19.6666 23.7719 19.2896C23.0253 18.7241 24.0208 15.6452 24.643 14.3886C25.2651 13.0691 27.7538 9.86457 26.6961 7.28841C25.5762 4.71225 24.1452 4.90075 24.1452 4.90075C24.1452 4.90075 23.6475 4.96358 23.2742 5.40341C22.9009 5.78041 22.9009 8.23091 22.9009 8.23091C22.9009 8.23091 20.4745 11.1212 20.1012 12.2522C19.7279 13.3832 19.1057 16.4621 18.048 17.0904C16.9904 17.6559 14.5639 19.5409 14.1906 21.7401C13.8173 23.9392 11.0176 25.3216 11.0176 25.3216C11.0176 25.3216 1.37406 29.5942 0.876325 30.5367C0.440811 31.5421 -0.0569197 32.7987 0.00529664 33.804C0.440811 39.2705 7.47126 42.6007 9.21331 41.9095C10.4576 41.4069 12.4486 40.3387 14.3151 39.082C16.2438 37.8882 19.479 37.0085 20.5989 37.4484C22.0299 38.0139 28.5004 38.1395 31.6734 38.2652C34.9709 38.3909 38.6416 38.4537 40.3215 38.3909C40.3215 38.3909 44.3655 38.5165 44.8633 38.3909C45.361 38.2652 46.5431 38.2652 46.6675 37.2599C46.792 36.2545 46.4187 35.4377 45.0499 35.312C43.6812 35.1864 35.9663 34.9979 35.9041 34.6209C35.7797 34.2439 35.8419 34.0554 36.2774 33.8669C36.8374 33.7412 49.2806 31.9191 49.2806 31.9191Z" fill="white"/>
</g>
</svg>
