<svg width="60" height="60" viewBox="0 0 60 60" fill="none" xmlns="http://www.w3.org/2000/svg">
<g opacity="0.24">
<path d="M44.5724 15.2046C43.2016 13.1382 40.7433 11.2061 37.5998 10.1665C37.503 10.1335 37.4165 10.0743 37.3495 9.99496C37.2824 9.91565 37.2372 9.81919 37.2185 9.71566C37.1355 9.29095 36.9296 8.90229 36.6281 8.60113C36.3266 8.29997 35.9436 8.10052 35.5299 8.02919C35.1162 7.95785 34.6913 8.018 34.3114 8.20166C33.9316 8.38532 33.6147 8.68384 33.4027 9.05769C33.3521 9.14972 33.2783 9.22587 33.1892 9.27801C33.1 9.33015 32.9988 9.35633 32.8964 9.35377C25.3085 9.11176 19.9588 14.1535 19.2484 22.7904C19.2348 22.9677 19.1678 23.1361 19.0568 23.2721C18.1119 24.4196 13.5658 29.9494 13.4022 30.2108C12.8317 31.1214 12.7791 32.5592 13.8325 33.3428C14.3089 33.7171 14.8895 33.9229 15.488 33.9295C17.1144 33.9295 18.6323 32.3867 19.7713 31.1846C19.8406 31.1111 19.9277 31.0582 20.0237 31.0316C20.1196 31.005 20.2207 31.0056 20.3163 31.0333C24.3406 32.2371 27.2537 35.5247 29.1418 36.5514C29.9164 36.9644 30.8027 37.0973 31.6591 36.929C35.057 36.3511 38.6599 32.0829 39.9947 30.355C40.1653 30.1355 40.3836 29.9608 40.6319 29.8449C40.8802 29.7291 41.1515 29.6755 41.4237 29.6885C42.1215 29.7199 42.8803 29.7228 43.5865 29.7171C44.3577 29.7068 45.0996 29.4109 45.6774 28.8833C46.2553 28.3557 46.6306 27.6313 46.7352 26.842C47.3306 22.488 47.0481 18.935 44.5724 15.2046ZM15.488 33.0713C15.0639 33.064 14.6535 32.915 14.3182 32.6465C14.1789 32.5435 14.0619 32.4116 13.9748 32.2592C13.8878 32.1067 13.8326 31.9372 13.8128 31.7614C13.799 31.6432 13.799 31.5237 13.8128 31.4055C15.1188 30.5684 16.8646 30.3072 19.0427 30.7246C18.028 31.7905 16.7184 33.0713 15.488 33.0713ZM38.9764 29.1355C38.9551 29.1895 38.9236 29.2386 38.8838 29.2799C38.844 29.3213 38.7967 29.3541 38.7446 29.3765C38.6924 29.3988 38.6365 29.4103 38.5801 29.4103C38.5236 29.4102 38.4677 29.3986 38.4157 29.3761C36.6372 28.5673 34.9072 27.6494 33.2348 26.6272C30.9042 25.2606 28.7031 23.9699 25.91 23.2927C24.1087 22.8605 22.2393 22.8256 20.424 23.1903C20.3647 23.2024 20.3035 23.201 20.2448 23.1861C20.1861 23.1713 20.1312 23.1433 20.084 23.1043C20.0368 23.0653 19.9984 23.016 19.9715 22.9601C19.9446 22.9041 19.9299 22.8428 19.9283 22.7804C19.9284 22.6763 19.964 22.5756 20.0288 22.4959C20.0935 22.4162 20.1833 22.3626 20.2825 22.3444C22.2076 21.9597 24.1896 21.9982 26.0994 22.4574C29.0072 23.1626 31.26 24.4828 33.6439 25.8808C35.0053 26.6793 37.7804 28.079 38.7671 28.5734C38.8645 28.6221 38.9402 28.7074 38.9788 28.8119C39.0174 28.9164 39.0159 29.0321 38.9748 29.1355H38.9764Z" fill="white"/>
<path d="M1.09628 47.288H5.04028V48.152H2.09628V53H1.09628V47.288ZM7.60647 53.112C7.2758 53.112 6.9798 53.0587 6.71847 52.952C6.46247 52.84 6.2438 52.688 6.06247 52.496C5.88647 52.304 5.75047 52.0747 5.65447 51.808C5.5638 51.5413 5.51847 51.248 5.51847 50.928C5.51847 50.6133 5.5638 50.3227 5.65447 50.056C5.75047 49.7893 5.88647 49.56 6.06247 49.368C6.2438 49.176 6.46247 49.0267 6.71847 48.92C6.9798 48.808 7.2758 48.752 7.60647 48.752C7.93714 48.752 8.23047 48.808 8.48647 48.92C8.7478 49.0267 8.96647 49.176 9.14247 49.368C9.3238 49.56 9.4598 49.7893 9.55047 50.056C9.64647 50.3227 9.69447 50.6133 9.69447 50.928C9.69447 51.248 9.64647 51.5413 9.55047 51.808C9.4598 52.0747 9.3238 52.304 9.14247 52.496C8.96647 52.688 8.7478 52.84 8.48647 52.952C8.23047 53.0587 7.93714 53.112 7.60647 53.112ZM7.60647 52.392C7.80914 52.392 7.98514 52.3493 8.13447 52.264C8.2838 52.1787 8.40647 52.0667 8.50247 51.928C8.59847 51.7893 8.6678 51.6347 8.71047 51.464C8.75847 51.288 8.78247 51.1093 8.78247 50.928C8.78247 50.752 8.75847 50.576 8.71047 50.4C8.6678 50.224 8.59847 50.0693 8.50247 49.936C8.40647 49.7973 8.2838 49.6853 8.13447 49.6C7.98514 49.5147 7.80914 49.472 7.60647 49.472C7.4038 49.472 7.2278 49.5147 7.07847 49.6C6.92914 49.6853 6.80647 49.7973 6.71047 49.936C6.61447 50.0693 6.54247 50.224 6.49447 50.4C6.4518 50.576 6.43047 50.752 6.43047 50.928C6.43047 51.1093 6.4518 51.288 6.49447 51.464C6.54247 51.6347 6.61447 51.7893 6.71047 51.928C6.80647 52.0667 6.92914 52.1787 7.07847 52.264C7.2278 52.3493 7.4038 52.392 7.60647 52.392ZM10.3247 52.344C10.4633 52.344 10.594 52.296 10.7167 52.2C10.8447 52.104 10.9353 51.9653 10.9887 51.784C11.0207 51.6827 11.0447 51.584 11.0607 51.488C11.082 51.3867 11.098 51.28 11.1087 51.168C11.1247 51.056 11.1353 50.9307 11.1407 50.792C11.146 50.6533 11.1513 50.4933 11.1567 50.312C11.162 50.1307 11.1647 49.9253 11.1647 49.696C11.17 49.4613 11.1727 49.184 11.1727 48.864H14.6047V53H13.6927V49.544H12.1007C12.1007 49.8907 12.0953 50.1973 12.0847 50.464C12.0793 50.7253 12.0687 50.9573 12.0527 51.16C12.042 51.3627 12.026 51.5413 12.0047 51.696C11.9833 51.8453 11.954 51.9787 11.9167 52.096C11.8793 52.2293 11.8313 52.3547 11.7727 52.472C11.7193 52.584 11.6367 52.6827 11.5247 52.768C11.418 52.848 11.2713 52.912 11.0847 52.96C10.9033 53.008 10.6633 53.032 10.3647 53.032C10.2793 53.032 10.2073 53.0293 10.1487 53.024C10.09 53.024 10.0313 53.0187 9.97266 53.008V52.32C10.0313 52.3307 10.082 52.3387 10.1247 52.344C10.1727 52.344 10.2393 52.344 10.3247 52.344ZM17.4893 53.112C17.1586 53.112 16.8626 53.0587 16.6013 52.952C16.3453 52.84 16.1266 52.688 15.9453 52.496C15.7693 52.304 15.6333 52.0747 15.5373 51.808C15.4466 51.5413 15.4013 51.248 15.4013 50.928C15.4013 50.6133 15.4466 50.3227 15.5373 50.056C15.6333 49.7893 15.7693 49.56 15.9453 49.368C16.1266 49.176 16.3453 49.0267 16.6013 48.92C16.8626 48.808 17.1586 48.752 17.4893 48.752C17.8199 48.752 18.1133 48.808 18.3693 48.92C18.6306 49.0267 18.8493 49.176 19.0253 49.368C19.2066 49.56 19.3426 49.7893 19.4333 50.056C19.5293 50.3227 19.5773 50.6133 19.5773 50.928C19.5773 51.248 19.5293 51.5413 19.4333 51.808C19.3426 52.0747 19.2066 52.304 19.0253 52.496C18.8493 52.688 18.6306 52.84 18.3693 52.952C18.1133 53.0587 17.8199 53.112 17.4893 53.112ZM17.4893 52.392C17.6919 52.392 17.8679 52.3493 18.0173 52.264C18.1666 52.1787 18.2893 52.0667 18.3853 51.928C18.4813 51.7893 18.5506 51.6347 18.5933 51.464C18.6413 51.288 18.6653 51.1093 18.6653 50.928C18.6653 50.752 18.6413 50.576 18.5933 50.4C18.5506 50.224 18.4813 50.0693 18.3853 49.936C18.2893 49.7973 18.1666 49.6853 18.0173 49.6C17.8679 49.5147 17.6919 49.472 17.4893 49.472C17.2866 49.472 17.1106 49.5147 16.9613 49.6C16.8119 49.6853 16.6893 49.7973 16.5933 49.936C16.4973 50.0693 16.4253 50.224 16.3773 50.4C16.3346 50.576 16.3133 50.752 16.3133 50.928C16.3133 51.1093 16.3346 51.288 16.3773 51.464C16.4253 51.6347 16.4973 51.7893 16.5933 51.928C16.6893 52.0667 16.8119 52.1787 16.9613 52.264C17.1106 52.3493 17.2866 52.392 17.4893 52.392ZM21.2715 50.552H22.2475C22.4235 50.552 22.5675 50.5093 22.6795 50.424C22.7968 50.3333 22.8555 50.208 22.8555 50.048C22.8555 49.8613 22.8021 49.7307 22.6955 49.656C22.5941 49.5813 22.4448 49.544 22.2475 49.544H21.2715V50.552ZM20.3595 48.864H22.5355C22.9088 48.864 23.2075 48.9493 23.4315 49.12C23.6555 49.2853 23.7675 49.5413 23.7675 49.888C23.7675 50.096 23.7141 50.2747 23.6075 50.424C23.5061 50.5733 23.3621 50.688 23.1755 50.768V50.784C23.4315 50.8373 23.6235 50.9573 23.7515 51.144C23.8848 51.3307 23.9515 51.5653 23.9515 51.848C23.9515 52.008 23.9221 52.16 23.8635 52.304C23.8048 52.4427 23.7141 52.5653 23.5915 52.672C23.4688 52.7733 23.3115 52.8533 23.1195 52.912C22.9275 52.9707 22.6981 53 22.4315 53H20.3595V48.864ZM21.2715 52.32H22.3515C22.5755 52.32 22.7461 52.2693 22.8635 52.168C22.9808 52.0613 23.0395 51.9147 23.0395 51.728C23.0395 51.5413 22.9808 51.4 22.8635 51.304C22.7461 51.2027 22.5755 51.152 22.3515 51.152H21.2715V52.32ZM24.7423 48.864H25.6543V50.576H27.7103V48.864H28.6223V53H27.7103V51.256H25.6543V53H24.7423V48.864ZM31.5049 53.112C31.1742 53.112 30.8782 53.0587 30.6169 52.952C30.3609 52.84 30.1422 52.688 29.9609 52.496C29.7849 52.304 29.6489 52.0747 29.5529 51.808C29.4622 51.5413 29.4169 51.248 29.4169 50.928C29.4169 50.6133 29.4622 50.3227 29.5529 50.056C29.6489 49.7893 29.7849 49.56 29.9609 49.368C30.1422 49.176 30.3609 49.0267 30.6169 48.92C30.8782 48.808 31.1742 48.752 31.5049 48.752C31.8356 48.752 32.1289 48.808 32.3849 48.92C32.6462 49.0267 32.8649 49.176 33.0409 49.368C33.2222 49.56 33.3582 49.7893 33.4489 50.056C33.5449 50.3227 33.5929 50.6133 33.5929 50.928C33.5929 51.248 33.5449 51.5413 33.4489 51.808C33.3582 52.0747 33.2222 52.304 33.0409 52.496C32.8649 52.688 32.6462 52.84 32.3849 52.952C32.1289 53.0587 31.8356 53.112 31.5049 53.112ZM31.5049 52.392C31.7076 52.392 31.8836 52.3493 32.0329 52.264C32.1822 52.1787 32.3049 52.0667 32.4009 51.928C32.4969 51.7893 32.5662 51.6347 32.6089 51.464C32.6569 51.288 32.6809 51.1093 32.6809 50.928C32.6809 50.752 32.6569 50.576 32.6089 50.4C32.5662 50.224 32.4969 50.0693 32.4009 49.936C32.3049 49.7973 32.1822 49.6853 32.0329 49.6C31.8836 49.5147 31.7076 49.472 31.5049 49.472C31.3022 49.472 31.1262 49.5147 30.9769 49.6C30.8276 49.6853 30.7049 49.7973 30.6089 49.936C30.5129 50.0693 30.4409 50.224 30.3929 50.4C30.3502 50.576 30.3289 50.752 30.3289 50.928C30.3289 51.1093 30.3502 51.288 30.3929 51.464C30.4409 51.6347 30.5129 51.7893 30.6089 51.928C30.7049 52.0667 30.8276 52.1787 30.9769 52.264C31.1262 52.3493 31.3022 52.392 31.5049 52.392ZM34.3751 48.864H35.2871V51.704H35.3031L37.1191 48.864H38.2471V53H37.3351V50.136H37.3191L35.4631 53H34.3751V48.864ZM35.4871 47.152C35.5298 47.376 35.6284 47.5333 35.7831 47.624C35.9431 47.7147 36.1298 47.76 36.3431 47.76C36.5458 47.76 36.7191 47.7093 36.8631 47.608C37.0124 47.5067 37.1084 47.3547 37.1511 47.152H37.6071C37.5644 47.5307 37.4231 47.8133 37.1831 48C36.9484 48.1867 36.6471 48.28 36.2791 48.28C35.9111 48.28 35.6178 48.184 35.3991 47.992C35.1804 47.8 35.0551 47.52 35.0231 47.152H35.4871ZM41.0123 48.864H42.0123L43.0923 51.952H43.1083L44.1563 48.864H45.1083L43.5003 53.224C43.4256 53.4107 43.3509 53.5893 43.2763 53.76C43.2069 53.9307 43.1189 54.08 43.0123 54.208C42.9109 54.3413 42.7829 54.4453 42.6283 54.52C42.4736 54.6 42.2763 54.64 42.0363 54.64C41.8229 54.64 41.6123 54.624 41.4043 54.592V53.824C41.4789 53.8347 41.5509 53.8453 41.6203 53.856C41.6896 53.872 41.7616 53.88 41.8363 53.88C41.9429 53.88 42.0309 53.8667 42.1003 53.84C42.1696 53.8133 42.2256 53.7733 42.2683 53.72C42.3163 53.672 42.3563 53.6133 42.3883 53.544C42.4203 53.4747 42.4496 53.3947 42.4763 53.304L42.5803 52.984L41.0123 48.864ZM47.5127 53.112C46.8461 53.112 46.3314 52.8907 45.9687 52.448C45.6061 52.0053 45.4247 51.3627 45.4247 50.52C45.4247 50.328 45.4327 50.1307 45.4487 49.928C45.4701 49.7253 45.4994 49.528 45.5367 49.336C45.5794 49.144 45.6327 48.96 45.6967 48.784C45.7661 48.6027 45.8514 48.44 45.9527 48.296C46.1447 48.008 46.3794 47.7973 46.6567 47.664C46.9394 47.5253 47.2914 47.4453 47.7127 47.424C47.8887 47.4187 48.0301 47.4107 48.1367 47.4C48.2434 47.3893 48.3261 47.376 48.3847 47.36C48.4487 47.3387 48.4941 47.312 48.5207 47.28C48.5474 47.248 48.5661 47.2053 48.5767 47.152H49.4327C49.4221 47.36 49.3901 47.5333 49.3367 47.672C49.2887 47.8053 49.2087 47.9147 49.0967 48C48.9901 48.08 48.8487 48.1413 48.6727 48.184C48.4967 48.2213 48.2807 48.248 48.0247 48.264C47.7047 48.2853 47.4354 48.3307 47.2167 48.4C46.9981 48.4693 46.8194 48.56 46.6807 48.672C46.5421 48.784 46.4354 48.9173 46.3607 49.072C46.2861 49.2267 46.2354 49.3947 46.2087 49.576H46.2247C46.3741 49.352 46.5767 49.176 46.8327 49.048C47.0887 48.9147 47.4007 48.848 47.7687 48.848C48.0354 48.848 48.2807 48.8987 48.5047 49C48.7287 49.096 48.9207 49.2347 49.0807 49.416C49.2461 49.5973 49.3741 49.816 49.4647 50.072C49.5554 50.328 49.6007 50.6133 49.6007 50.928C49.6007 51.248 49.5527 51.5413 49.4567 51.808C49.3661 52.0747 49.2301 52.304 49.0487 52.496C48.8727 52.688 48.6541 52.84 48.3927 52.952C48.1367 53.0587 47.8434 53.112 47.5127 53.112ZM47.5127 52.392C47.7154 52.392 47.8914 52.3493 48.0407 52.264C48.1901 52.1787 48.3127 52.0667 48.4087 51.928C48.5047 51.7893 48.5741 51.6347 48.6167 51.464C48.6647 51.288 48.6887 51.1093 48.6887 50.928C48.6887 50.752 48.6647 50.5813 48.6167 50.416C48.5741 50.2507 48.5047 50.1067 48.4087 49.984C48.3127 49.856 48.1901 49.7547 48.0407 49.68C47.8914 49.6053 47.7154 49.568 47.5127 49.568C47.3101 49.568 47.1341 49.6053 46.9847 49.68C46.8354 49.7547 46.7127 49.856 46.6167 49.984C46.5207 50.1067 46.4487 50.2507 46.4007 50.416C46.3581 50.5813 46.3367 50.752 46.3367 50.928C46.3367 51.1093 46.3581 51.288 46.4007 51.464C46.4487 51.6347 46.5207 51.7893 46.6167 51.928C46.7127 52.0667 46.8354 52.1787 46.9847 52.264C47.1341 52.3493 47.3101 52.392 47.5127 52.392ZM52.2549 53.112C51.9242 53.112 51.6282 53.0587 51.3669 52.952C51.1109 52.84 50.8922 52.688 50.7109 52.496C50.5349 52.304 50.3989 52.0747 50.3029 51.808C50.2122 51.5413 50.1669 51.248 50.1669 50.928C50.1669 50.6133 50.2122 50.3227 50.3029 50.056C50.3989 49.7893 50.5349 49.56 50.7109 49.368C50.8922 49.176 51.1109 49.0267 51.3669 48.92C51.6282 48.808 51.9242 48.752 52.2549 48.752C52.5856 48.752 52.8789 48.808 53.1349 48.92C53.3962 49.0267 53.6149 49.176 53.7909 49.368C53.9722 49.56 54.1082 49.7893 54.1989 50.056C54.2949 50.3227 54.3429 50.6133 54.3429 50.928C54.3429 51.248 54.2949 51.5413 54.1989 51.808C54.1082 52.0747 53.9722 52.304 53.7909 52.496C53.6149 52.688 53.3962 52.84 53.1349 52.952C52.8789 53.0587 52.5856 53.112 52.2549 53.112ZM52.2549 52.392C52.4576 52.392 52.6336 52.3493 52.7829 52.264C52.9322 52.1787 53.0549 52.0667 53.1509 51.928C53.2469 51.7893 53.3162 51.6347 53.3589 51.464C53.4069 51.288 53.4309 51.1093 53.4309 50.928C53.4309 50.752 53.4069 50.576 53.3589 50.4C53.3162 50.224 53.2469 50.0693 53.1509 49.936C53.0549 49.7973 52.9322 49.6853 52.7829 49.6C52.6336 49.5147 52.4576 49.472 52.2549 49.472C52.0522 49.472 51.8762 49.5147 51.7269 49.6C51.5776 49.6853 51.4549 49.7973 51.3589 49.936C51.2629 50.0693 51.1909 50.224 51.1429 50.4C51.1002 50.576 51.0789 50.752 51.0789 50.928C51.0789 51.1093 51.1002 51.288 51.1429 51.464C51.1909 51.6347 51.2629 51.7893 51.3589 51.928C51.4549 52.0667 51.5776 52.1787 51.7269 52.264C51.8762 52.3493 52.0522 52.392 52.2549 52.392ZM55.1251 48.864H55.9891V49.424H56.0051C56.1331 49.184 56.3118 49.0133 56.5411 48.912C56.7704 48.8053 57.0184 48.752 57.2851 48.752C57.6104 48.752 57.8931 48.8107 58.1331 48.928C58.3784 49.04 58.5811 49.1973 58.7411 49.4C58.9011 49.5973 59.0211 49.8293 59.1011 50.096C59.1811 50.3627 59.2211 50.648 59.2211 50.952C59.2211 51.2293 59.1838 51.4987 59.1091 51.76C59.0398 52.0213 58.9304 52.2533 58.7811 52.456C58.6371 52.6533 58.4531 52.8133 58.2291 52.936C58.0051 53.0533 57.7411 53.112 57.4371 53.112C57.3038 53.112 57.1704 53.0987 57.0371 53.072C56.9038 53.0507 56.7758 53.0133 56.6531 52.96C56.5304 52.9067 56.4158 52.84 56.3091 52.76C56.2078 52.6747 56.1224 52.576 56.0531 52.464H56.0371V54.528H55.1251V48.864ZM58.3091 50.936C58.3091 50.7493 58.2851 50.568 58.2371 50.392C58.1891 50.216 58.1171 50.0613 58.0211 49.928C57.9251 49.7893 57.8051 49.68 57.6611 49.6C57.5171 49.5147 57.3518 49.472 57.1651 49.472C56.7811 49.472 56.4904 49.6053 56.2931 49.872C56.1011 50.1387 56.0051 50.4933 56.0051 50.936C56.0051 51.144 56.0291 51.3387 56.0771 51.52C56.1304 51.696 56.2078 51.848 56.3091 51.976C56.4104 52.104 56.5304 52.2053 56.6691 52.28C56.8131 52.3547 56.9784 52.392 57.1651 52.392C57.3731 52.392 57.5491 52.3493 57.6931 52.264C57.8371 52.1787 57.9544 52.0693 58.0451 51.936C58.1411 51.7973 58.2078 51.6427 58.2451 51.472C58.2878 51.296 58.3091 51.1173 58.3091 50.936Z" fill="white"/>
</g>
</svg>
