<svg width="34" height="34" viewBox="0 0 34 34" fill="none" xmlns="http://www.w3.org/2000/svg">
<path d="M33.4696 14.8682C33.1976 14.6948 31.0522 13.413 30.2022 13.022L29.1482 10.472C29.461 9.62879 30.0628 7.2658 30.1682 6.8544C30.2104 6.66717 30.2045 6.47229 30.151 6.28797C30.0974 6.10366 29.9981 5.93591 29.8622 5.8004L28.1996 4.148C28.0644 4.01154 27.8967 3.91182 27.7123 3.85828C27.5278 3.80473 27.3328 3.79913 27.1456 3.842C26.8328 3.9134 24.4256 4.522 23.528 4.862L20.978 3.808C20.6074 2.992 19.3596 0.900999 19.1318 0.5406C19.0311 0.375664 18.8897 0.239342 18.7213 0.144686C18.5528 0.0500307 18.3628 0.000211781 18.1696 0L15.8304 0C15.6383 9.62331e-05 15.4493 0.0487761 15.2811 0.141511C15.1129 0.234246 14.9708 0.368024 14.8682 0.5304C14.6948 0.8024 13.413 2.9478 13.022 3.7978L10.472 4.8518C9.62879 4.539 7.26579 3.9372 6.85439 3.8318C6.66717 3.78958 6.47229 3.7955 6.28797 3.84901C6.10365 3.90252 5.9359 4.00188 5.80039 4.1378L4.148 5.8004C4.01154 5.93554 3.91182 6.10327 3.85828 6.2877C3.80473 6.47214 3.79913 6.66719 3.842 6.8544C3.9134 7.1672 4.522 9.57439 4.862 10.472L3.808 13.022C2.992 13.3926 0.900999 14.6404 0.5406 14.8682C0.375664 14.9689 0.239342 15.1102 0.144686 15.2787C0.0500307 15.4472 0.000211781 15.6371 0 15.8304L0 18.1662C9.6233e-05 18.3583 0.0487761 18.5472 0.141511 18.7155C0.234246 18.8837 0.368024 19.0257 0.5304 19.1284C0.802399 19.3018 2.9478 20.5836 3.7978 20.9746L4.8518 23.5246C4.539 24.3678 3.9372 26.7308 3.8318 27.1422C3.78958 27.3294 3.7955 27.5243 3.84901 27.7086C3.90252 27.8929 4.00188 28.0607 4.1378 28.1962L5.79019 29.8486C5.92534 29.985 6.09306 30.0848 6.2775 30.1383C6.46194 30.1918 6.65699 30.1975 6.84419 30.1546C7.15699 30.0832 9.56419 29.4746 10.4618 29.1346L13.0118 30.1886C13.3824 31.0046 14.6302 33.0956 14.858 33.456C14.9592 33.623 15.1019 33.761 15.2724 33.8563C15.4428 33.9517 15.6351 34.0012 15.8304 34H18.1662C18.3583 33.9999 18.5472 33.9512 18.7155 33.8585C18.8837 33.7657 19.0257 33.632 19.1284 33.4696C19.3018 33.1976 20.5836 31.0522 20.9746 30.2022L23.5246 29.1482C24.3678 29.461 26.7308 30.0628 27.1422 30.1682C27.3294 30.2104 27.5243 30.2045 27.7086 30.151C27.8929 30.0975 28.0607 29.9981 28.1962 29.8622L29.8486 28.2098C29.985 28.0746 30.0847 27.9069 30.1383 27.7225C30.1918 27.538 30.1974 27.343 30.1546 27.1558C30.0832 26.843 29.4746 24.4358 29.1346 23.5382L30.1886 20.9882C31.0046 20.6176 33.0956 19.3698 33.456 19.142C33.623 19.0408 33.761 18.898 33.8563 18.7276C33.9517 18.5571 34.0012 18.3649 34 18.1696V15.8304C34.0015 15.638 33.9535 15.4484 33.8606 15.2799C33.7677 15.1114 33.6331 14.9696 33.4696 14.8682ZM17 24.4018C15.5347 24.4004 14.1027 23.9646 12.8851 23.1494C11.6676 22.3342 10.719 21.1763 10.1595 19.8221C9.60004 18.4678 9.4547 16.978 9.74188 15.5412C10.0291 14.1043 10.7359 12.7849 11.7729 11.7497C12.81 10.7146 14.1307 10.0102 15.5681 9.72563C17.0055 9.44108 18.495 9.58917 19.8482 10.1511C21.2014 10.7131 22.3576 11.6638 23.1706 12.8829C23.9835 14.1019 24.4167 15.5347 24.4154 17C24.4109 18.964 23.6277 20.8462 22.2377 22.2337C20.8476 23.6212 18.964 24.4009 17 24.4018Z" fill="white"/>
</svg>
