<svg width="30" height="30" viewBox="0 0 30 30" fill="none" xmlns="http://www.w3.org/2000/svg">
<path d="M6.85231 23.1975C11.4953 27.8267 17.9329 30.1534 23.6388 29.9922C25.1174 29.9503 26.5403 29.4185 27.6839 28.4804C28.8275 27.5422 29.6272 26.2507 29.9572 24.8088C30.0446 24.3954 29.9974 23.9649 29.8227 23.5802C29.648 23.1956 29.3549 22.8768 28.9862 22.6705L23.1531 19.3274C22.7707 19.1082 22.3267 19.0208 21.8897 19.0789C21.4527 19.1369 21.047 19.3371 20.735 19.6485L18.6356 21.7442C18.1819 22.2008 17.5974 22.5049 16.9631 22.6144C16.3288 22.724 15.6762 22.6335 15.0956 22.3556C11.8597 20.7597 9.2407 18.1407 7.64463 14.9049C7.36666 14.3242 7.2762 13.6714 7.38577 13.037C7.49534 12.4026 7.79952 11.8179 8.25616 11.3641L10.3519 9.26468C10.6633 8.95281 10.8633 8.5472 10.9214 8.11038C10.9794 7.67356 10.8921 7.22978 10.673 6.84747L7.32921 1.01344C7.12301 0.64486 6.80437 0.351859 6.41983 0.177224C6.03529 0.00258984 5.60499 -0.0445301 5.19178 0.0427461C3.74973 0.372704 2.45813 1.1723 1.51984 2.31596C0.58154 3.45962 0.049697 4.88254 0.00783959 6.36126C-0.153355 12.0672 2.17327 18.5048 6.8025 23.1477C6.8106 23.1558 6.84411 23.1894 6.85231 23.1975Z" fill="white"/>
</svg>
