<svg width="34" height="23" viewBox="0 0 34 23" fill="none" xmlns="http://www.w3.org/2000/svg">
<path fill-rule="evenodd" clip-rule="evenodd" d="M16.8032 16.8709C16.7104 16.8729 14.4958 16.9286 12.8292 18.4706C11.2294 19.9499 11.2354 22.2942 11.2384 22.5H0.00186349C0.00186349 22.5 -0.134863 19.1526 1.93399 17.9894C3.75097 16.9673 5.49971 16.6431 6.54931 16.4485C6.89024 16.3853 7.15741 16.3357 7.32919 16.2804L7.34118 16.2765C7.99143 16.0659 8.68448 15.8414 8.68448 14.9462C8.68448 14.904 8.6845 14.8635 8.68452 14.8247C8.68499 14.0354 8.68506 13.9235 8.4739 13.8088C8.05074 13.5772 7.79925 13.2193 7.74436 12.9409C7.70251 12.7296 7.66877 12.3635 7.63445 11.9911C7.58445 11.4486 7.53323 10.8928 7.45394 10.7825C7.40344 10.7121 7.33808 10.6906 7.27188 10.6688C7.16148 10.6324 7.04877 10.5952 6.99885 10.3292C6.96523 10.1518 6.94559 9.98355 6.92838 9.83606C6.9042 9.6289 6.88481 9.46272 6.83817 9.3698C6.75833 9.20974 6.4769 8.17877 6.65155 7.82385C6.7357 7.65075 6.85784 7.6219 6.95442 7.59908C7.03424 7.58023 7.09661 7.5655 7.10564 7.47688C7.1149 7.3898 7.07705 7.12718 7.02533 6.76824C6.88748 5.81162 6.65105 4.1709 6.94496 3.34604C7.32109 2.28959 7.72682 2.04823 8.11489 1.81738C8.16031 1.79036 8.20549 1.76348 8.25035 1.73546C8.40781 1.63747 8.54435 1.48326 8.70465 1.30223C8.9802 0.991024 9.32596 0.60053 9.9689 0.279974C10.9859 -0.226066 12.4829 0.0672186 12.9918 0.279974C13.0704 0.312977 13.1854 0.354204 13.3246 0.404157C14.0872 0.677731 15.5792 1.21302 15.8282 2.09237C15.8287 2.09453 15.8393 2.10879 15.8576 2.13356C15.9658 2.28029 16.3462 2.7957 16.5417 3.34604C16.8352 4.16959 16.6 5.80641 16.4624 6.76368C16.4105 7.12495 16.3725 7.38943 16.3821 7.47688C16.3906 7.56555 16.4528 7.58025 16.5327 7.59912C16.6292 7.62193 16.7515 7.65083 16.8362 7.82385C17.0098 8.17877 16.7284 9.20974 16.6485 9.3698C16.6017 9.46314 16.5823 9.6304 16.5582 9.83885C16.5412 9.98568 16.5218 10.1529 16.4888 10.3292C16.4383 10.5951 16.3255 10.6323 16.2153 10.6687C16.1491 10.6905 16.0839 10.712 16.0338 10.7825C15.9544 10.8929 15.9028 11.4495 15.8525 11.9924C15.818 12.3644 15.7841 12.7299 15.7423 12.9409C15.6875 13.2193 15.437 13.5772 15.0128 13.8088C14.8025 13.923 14.8026 14.0345 14.8032 14.8147C14.8032 14.8566 14.8032 14.9004 14.8032 14.9462C14.8032 15.8411 15.4957 16.0657 16.1448 16.2763L16.1575 16.2804C16.3313 16.3359 16.6058 16.3876 16.9551 16.4535C17.2315 16.5056 17.5548 16.5666 17.912 16.6452C17.5567 16.7576 17.1884 16.8481 16.8032 16.8709ZM32.7282 19.199C34.0546 20.4258 33.9997 22.4997 33.9997 22.4997H12.2363C12.2363 22.4997 12.1824 20.4258 13.5087 19.199C14.9139 17.8986 16.8221 17.8648 16.8221 17.8648C18.9548 17.7435 20.7542 16.2483 20.7542 16.2483V14.5482C20.7542 14.5482 18.1774 13.8185 17.3041 12.9307C17.3041 12.9307 17.875 11.508 18.0237 10.994C18.1704 10.488 18.1604 9.83081 18.0935 8.76405C18.0836 8.60479 18.0709 8.42535 18.0573 8.23195C17.9796 7.12872 17.87 5.57168 18.0406 4.7207C18.2412 3.72055 18.8211 2.10699 19.7582 1.60592C20.6953 1.10684 21.7951 1.35538 21.7951 1.35538C21.7951 1.35538 22.4508 0.880163 23.368 0.686297C24.0825 0.534187 25.3011 0.691268 25.9368 1.12473C26.5736 1.55919 27.4358 2.34659 27.7761 3.50779C28.1624 4.82708 28.1694 6.40087 28.0226 7.46664C27.9408 8.06116 28.0007 8.76007 28.0456 9.23131C28.0765 9.57133 28.2442 10.5019 28.5187 11.3459C28.839 12.3342 29.2721 13.041 29.2721 13.041C29.2721 13.041 28.9208 13.7141 27.6644 14.1078C26.33 14.5253 25.4827 14.5482 25.4827 14.5482V16.2483C25.4827 16.2483 27.2821 17.7435 29.4139 17.8648C29.4139 17.8648 31.322 17.8986 32.7282 19.199Z" fill="#A3A3A3"/>
</svg>
