<svg width="145" height="145" viewBox="0 0 145 145" fill="none" xmlns="http://www.w3.org/2000/svg">
<path d="M72.4998 0C43.5437 0 19.9863 23.5574 19.9863 52.5132C19.9863 88.4483 66.9808 141.203 68.9816 143.431C70.8609 145.524 74.1421 145.521 76.0181 143.431C78.0189 141.203 125.013 88.4483 125.013 52.5132C125.013 23.5574 101.456 0 72.4998 0ZM72.4998 78.9341C57.9313 78.9341 46.0792 67.0818 46.0792 52.5132C46.0792 37.9447 57.9316 26.0926 72.4998 26.0926C87.0681 26.0926 98.9201 37.945 98.9201 52.5135C98.9201 67.082 87.0681 78.9341 72.4998 78.9341Z" fill="white"/>
</svg>
