<svg width="111" height="74" viewBox="0 0 111 74" fill="none" xmlns="http://www.w3.org/2000/svg">
<path d="M25.8991 11.0793C27.2024 7.78256 29.5049 4.96268 32.4926 3.00425C35.4529 1.02924 38.9488 -0.0178161 42.5225 0.000229385H111L85.1289 62.9744C83.8229 66.2777 81.5092 69.0993 78.5074 71.0495C75.5469 73.0177 72.0473 74.0466 68.4775 73.9984H0L25.8991 11.0793ZM31.4868 52.6946H63.7C64.5746 52.7107 65.4297 52.4393 66.1306 51.9229C66.8371 51.4428 67.3897 50.7735 67.7231 49.9938L79.625 21.304H47.328C46.4397 21.261 45.5617 21.5076 44.8296 22.0057C44.0974 22.5037 43.5518 23.2256 43.2769 24.06L31.4868 52.6946Z" fill="white"/>
</svg>
