<svg width="48" height="32" viewBox="0 0 48 32" fill="none" xmlns="http://www.w3.org/2000/svg">
<path d="M11.1996 4.79104C11.7632 3.36543 12.7589 2.14602 14.0508 1.29914C15.331 0.445075 16.8427 -0.00770424 18.3881 9.91934e-05H48L36.8125 27.2322C36.2478 28.6606 35.2472 29.8808 33.9492 30.7241C32.6689 31.5752 31.1556 32.0202 29.6119 31.9993H0L11.1996 4.79104ZM13.6159 22.7869H27.5459C27.9241 22.7938 28.2939 22.6764 28.597 22.4532C28.9025 22.2456 29.1415 21.9561 29.2857 21.6189L34.4324 9.21253H20.4661C20.082 9.19395 19.7024 9.30057 19.3858 9.51596C19.0692 9.73134 18.8332 10.0435 18.7143 10.4043L13.6159 22.7869Z" fill="url(#paint0_linear)"/>
<defs>
<linearGradient id="paint0_linear" x1="46.4173" y1="17.9363" x2="1.60421" y2="13.9567" gradientUnits="userSpaceOnUse">
<stop stop-color="#F39654"/>
<stop offset="0.4" stop-color="#E83D40"/>
<stop offset="1" stop-color="#BE1622"/>
</linearGradient>
</defs>
</svg>
