<svg width="60" height="60" viewBox="0 0 60 60" fill="none" xmlns="http://www.w3.org/2000/svg">
<g opacity="0.24">
<path d="M25.1989 33.2C25.1136 32.9761 25.0852 32.8641 25 32.6681C25.2557 32.1082 25.5966 31.3523 25.9375 30.4005C26.25 29.5606 27.1308 26.873 27.5569 22.7856C27.8126 20.434 27.7274 18.7543 27.6137 15.6747C27.5285 13.1831 27.358 11.0834 27.216 9.51569C27.358 9.34771 27.4433 9.23573 27.6137 9.06776C28.807 8.98377 30.0002 8.89978 31.1934 8.8158C31.2502 8.8158 31.3071 8.7878 31.3355 8.75981C31.5343 8.61983 31.7048 8.45185 31.9037 8.31187C31.9321 8.28388 31.9889 8.25588 32.0173 8.25588L33.5515 8.00392C33.6935 7.97593 33.8356 8.08791 33.8356 8.22789L33.9492 9.59968C33.9492 9.73965 34.0629 9.82364 34.2049 9.82364C34.347 9.82364 34.4322 9.90763 34.4606 10.0476C34.8867 13.0711 35.1424 16.7106 34.9152 20.7979C34.5742 26.789 33.3242 31.8282 32.0741 35.5797C31.6764 35.7476 31.4775 35.8316 31.0798 35.9996C30.3127 35.6357 29.5456 35.2717 28.807 34.9078C28.6933 34.8518 28.6365 34.7118 28.6649 34.5998C29.9718 31.1564 31.3355 26.4251 31.7048 20.686C31.9321 17.3545 31.7616 14.3869 31.4491 11.8673C31.4207 11.6154 31.1934 11.4194 30.9661 11.4474C30.7389 11.4754 30.5684 11.6714 30.5968 11.9793C30.9377 14.4149 31.1366 17.3265 30.9661 20.574C30.6536 26.2291 29.2899 30.9044 27.9831 34.2359C27.9263 34.3759 27.7558 34.4318 27.6421 34.3759C26.8467 33.9839 26.0228 33.592 25.1989 33.2Z" fill="white"/>
<path d="M16.0725 47.2876H17.4805L19.0565 51.7596H19.0725L20.6085 47.2876H22.0005V52.9996H21.0485V48.5916H21.0325L19.4485 52.9996H18.6245L17.0405 48.5916H17.0245V52.9996H16.0725V47.2876ZM26.5338 52.0796C26.5338 52.1916 26.5472 52.2716 26.5738 52.3196C26.6058 52.3676 26.6645 52.3916 26.7498 52.3916H26.8458C26.8832 52.3916 26.9258 52.3863 26.9738 52.3756V53.0076C26.9418 53.0183 26.8992 53.0289 26.8458 53.0396C26.7978 53.0556 26.7472 53.0689 26.6938 53.0796C26.6405 53.0903 26.5872 53.0983 26.5338 53.1036C26.4805 53.1089 26.4352 53.1116 26.3978 53.1116C26.2112 53.1116 26.0565 53.0743 25.9338 52.9996C25.8112 52.9249 25.7312 52.7943 25.6938 52.6076C25.5125 52.7836 25.2885 52.9116 25.0218 52.9916C24.7605 53.0716 24.5072 53.1116 24.2618 53.1116C24.0752 53.1116 23.8965 53.0849 23.7258 53.0316C23.5552 52.9836 23.4032 52.9116 23.2698 52.8156C23.1418 52.7143 23.0378 52.5889 22.9578 52.4396C22.8832 52.2849 22.8458 52.1063 22.8458 51.9036C22.8458 51.6476 22.8912 51.4396 22.9818 51.2796C23.0778 51.1196 23.2005 50.9943 23.3498 50.9036C23.5045 50.8129 23.6752 50.7489 23.8618 50.7116C24.0538 50.6689 24.2458 50.6369 24.4378 50.6156C24.6032 50.5836 24.7605 50.5623 24.9098 50.5516C25.0592 50.5356 25.1898 50.5116 25.3018 50.4796C25.4192 50.4476 25.5098 50.3996 25.5738 50.3356C25.6432 50.2663 25.6778 50.1649 25.6778 50.0316C25.6778 49.9143 25.6485 49.8183 25.5898 49.7436C25.5365 49.6689 25.4672 49.6129 25.3818 49.5756C25.3018 49.5329 25.2112 49.5063 25.1098 49.4956C25.0085 49.4796 24.9125 49.4716 24.8218 49.4716C24.5658 49.4716 24.3552 49.5249 24.1898 49.6316C24.0245 49.7383 23.9312 49.9036 23.9098 50.1276H22.9978C23.0138 49.8609 23.0778 49.6396 23.1898 49.4636C23.3018 49.2876 23.4432 49.1463 23.6138 49.0396C23.7898 48.9329 23.9872 48.8583 24.2058 48.8156C24.4245 48.7729 24.6485 48.7516 24.8778 48.7516C25.0805 48.7516 25.2805 48.7729 25.4778 48.8156C25.6752 48.8583 25.8512 48.9276 26.0058 49.0236C26.1658 49.1196 26.2938 49.2449 26.3898 49.3996C26.4858 49.5489 26.5338 49.7329 26.5338 49.9516V52.0796ZM25.6218 50.9276C25.4832 51.0183 25.3125 51.0743 25.1098 51.0956C24.9072 51.1116 24.7045 51.1383 24.5018 51.1756C24.4058 51.1916 24.3125 51.2156 24.2218 51.2476C24.1312 51.2743 24.0512 51.3143 23.9818 51.3676C23.9125 51.4156 23.8565 51.4823 23.8138 51.5676C23.7765 51.6476 23.7578 51.7463 23.7578 51.8636C23.7578 51.9649 23.7872 52.0503 23.8458 52.1196C23.9045 52.1889 23.9738 52.2449 24.0538 52.2876C24.1392 52.3249 24.2298 52.3516 24.3258 52.3676C24.4272 52.3836 24.5178 52.3916 24.5978 52.3916C24.6992 52.3916 24.8085 52.3783 24.9258 52.3516C25.0432 52.3249 25.1525 52.2796 25.2538 52.2156C25.3605 52.1516 25.4485 52.0716 25.5178 51.9756C25.5872 51.8743 25.6218 51.7516 25.6218 51.6076V50.9276ZM27.5392 48.8636H30.3472V49.5436H28.4512V52.9996H27.5392V48.8636ZM30.834 49.9836C30.9086 49.5569 31.0926 49.2449 31.386 49.0476C31.6846 48.8503 32.0766 48.7516 32.562 48.7516C32.7966 48.7516 33.0206 48.7783 33.234 48.8316C33.4473 48.8849 33.634 48.9649 33.794 49.0716C33.954 49.1729 34.0793 49.2983 34.17 49.4476C34.266 49.5969 34.314 49.7703 34.314 49.9676C34.314 50.1969 34.2553 50.3863 34.138 50.5356C34.026 50.6849 33.8686 50.7889 33.666 50.8476V50.8636C33.89 50.9063 34.0793 51.0156 34.234 51.1916C34.3886 51.3623 34.466 51.5809 34.466 51.8476C34.466 52.0823 34.4126 52.2796 34.306 52.4396C34.2046 52.5996 34.0686 52.7303 33.898 52.8316C33.7326 52.9276 33.5433 52.9969 33.33 53.0396C33.122 53.0876 32.9113 53.1116 32.698 53.1116C32.1113 53.1116 31.642 53.0023 31.29 52.7836C30.9433 52.5649 30.7273 52.2023 30.642 51.6956H31.554C31.5753 51.8343 31.6153 51.9489 31.674 52.0396C31.738 52.1303 31.8126 52.2049 31.898 52.2636C31.9886 52.3169 32.09 52.3543 32.202 52.3756C32.314 52.3969 32.4313 52.4076 32.554 52.4076C32.8473 52.4076 33.0846 52.3569 33.266 52.2556C33.4473 52.1489 33.538 51.9809 33.538 51.7516C33.538 51.5596 33.4766 51.4183 33.354 51.3276C33.2366 51.2369 33.0473 51.1916 32.786 51.1916H32.122V50.4796H32.794C32.9913 50.4796 33.146 50.4476 33.258 50.3836C33.3753 50.3143 33.434 50.1863 33.434 49.9996C33.434 49.7969 33.3513 49.6583 33.186 49.5836C33.0206 49.5036 32.8073 49.4636 32.546 49.4636C32.2793 49.4636 32.0793 49.5009 31.946 49.5756C31.818 49.6503 31.7353 49.7863 31.698 49.9836H30.834ZM35.2423 48.8636H36.1543V51.7036H36.1703L37.9863 48.8636H39.1143V52.9996H38.2023V50.1356H38.1863L36.3303 52.9996H35.2423V48.8636ZM40.1329 48.8636H41.0449V50.5756H43.1009V48.8636H44.0129V52.9996H43.1009V51.2556H41.0449V52.9996H40.1329V48.8636Z" fill="white"/>
</g>
</svg>
