<svg width="20" height="20" viewBox="0 0 20 20" fill="none" xmlns="http://www.w3.org/2000/svg">
<path d="M19.3754 0H10.006V1.24925H17.87L11.2553 7.83902C9.89498 6.71161 8.15267 6.15154 6.39023 6.27512C4.62779 6.39871 2.98069 7.19646 1.79105 8.50268C0.601401 9.8089 -0.0393532 11.5232 0.00187279 13.2895C0.0430987 15.0558 0.763136 16.7383 2.01243 17.9876C3.26172 19.2369 4.94424 19.9569 6.71053 19.9981C8.47682 20.0394 10.1911 19.3986 11.4973 18.209C12.8035 17.0193 13.6013 15.3722 13.7249 13.6098C13.8485 11.8473 13.2884 10.105 12.161 8.74472L18.7508 2.12996V8.74472H20V0.624623C20 0.458963 19.9342 0.300087 19.8171 0.182948C19.6999 0.0658083 19.541 0 19.3754 0V0ZM12.5045 13.1171C12.5045 14.2289 12.1748 15.3158 11.5571 16.2403C10.9394 17.1647 10.0614 17.8853 9.03421 18.3108C8.007 18.7363 6.87668 18.8476 5.7862 18.6307C4.69571 18.4138 3.69404 17.8784 2.90784 17.0922C2.12165 16.306 1.58624 15.3043 1.36933 14.2138C1.15242 13.1233 1.26374 11.993 1.68923 10.9658C2.11472 9.93857 2.83525 9.0606 3.75972 8.44289C4.68419 7.82518 5.77107 7.49548 6.88292 7.49548C7.62116 7.49548 8.35217 7.64088 9.03421 7.92339C9.71626 8.20591 10.336 8.61999 10.858 9.14201C11.38 9.66402 11.7941 10.2837 12.0766 10.9658C12.3591 11.6478 12.5045 12.3788 12.5045 13.1171Z" fill="white"/>
</svg>
