<svg width="32" height="32" viewBox="0 0 32 32" fill="none" xmlns="http://www.w3.org/2000/svg">
<g id="menu-dots">
<path id="icon" fill-rule="evenodd" clip-rule="evenodd" d="M23.9998 5.33329C23.9998 6.80605 25.1937 7.99996 26.6665 7.99996C28.1393 7.99996 29.3332 6.80605 29.3332 5.33329C29.3332 3.86053 28.1393 2.66663 26.6665 2.66663C25.1937 2.66663 23.9998 3.86053 23.9998 5.33329ZM26.6665 18.6666C25.1937 18.6666 23.9998 17.4727 23.9998 15.9999C23.9998 14.5272 25.1937 13.3333 26.6665 13.3333C28.1393 13.3333 29.3332 14.5272 29.3332 15.9999C29.3332 17.4727 28.1393 18.6666 26.6665 18.6666ZM26.6665 29.3333C25.1937 29.3333 23.9998 28.1394 23.9998 26.6667C23.9998 25.1939 25.1937 24 26.6665 24C28.1393 24 29.3332 25.1939 29.3332 26.6667C29.3332 28.1394 28.1393 29.3333 26.6665 29.3333ZM15.9998 29.3333C14.5271 29.3333 13.3332 28.1394 13.3332 26.6667C13.3332 25.1939 14.5271 24 15.9998 24C17.4726 24 18.6665 25.1939 18.6665 26.6667C18.6665 28.1394 17.4726 29.3333 15.9998 29.3333ZM13.3332 15.9999C13.3332 17.4727 14.5271 18.6666 15.9998 18.6666C17.4726 18.6666 18.6665 17.4727 18.6665 15.9999C18.6665 14.5272 17.4726 13.3333 15.9998 13.3333C14.5271 13.3333 13.3332 14.5272 13.3332 15.9999ZM15.9998 7.99996C14.5271 7.99996 13.3332 6.80605 13.3332 5.33329C13.3332 3.86053 14.5271 2.66663 15.9998 2.66663C17.4726 2.66663 18.6665 3.86053 18.6665 5.33329C18.6665 6.80605 17.4726 7.99996 15.9998 7.99996ZM2.6665 26.6667C2.6665 28.1394 3.86041 29.3333 5.33317 29.3333C6.80593 29.3333 7.99984 28.1394 7.99984 26.6667C7.99984 25.1939 6.80593 24 5.33317 24C3.86041 24 2.6665 25.1939 2.6665 26.6667ZM5.33317 18.6666C3.86041 18.6666 2.6665 17.4727 2.6665 15.9999C2.6665 14.5272 3.86041 13.3333 5.33317 13.3333C6.80593 13.3333 7.99984 14.5272 7.99984 15.9999C7.99984 17.4727 6.80593 18.6666 5.33317 18.6666ZM2.6665 5.33329C2.6665 6.80605 3.86041 7.99996 5.33317 7.99996C6.80593 7.99996 7.99984 6.80605 7.99984 5.33329C7.99984 3.86053 6.80593 2.66663 5.33317 2.66663C3.86041 2.66663 2.6665 3.86053 2.6665 5.33329Z" fill="white"/>
</g>
</svg>
