<svg width="24" height="24" viewBox="0 0 24 24" fill="none" xmlns="http://www.w3.org/2000/svg">
<g id="mic-off">
<path id="icon" fill-rule="evenodd" clip-rule="evenodd" d="M8.00008 9.41421L1.29297 2.70711L2.70718 1.29289L22.7072 21.2929L21.293 22.7071L16.9057 18.3199C15.7992 19.18 14.4608 19.756 13.0001 19.9381V21H16.0001V23H8.00008V21H11.0001V19.9381C7.05376 19.446 4.00008 16.0796 4.00008 12V10H6.00008V12C6.00008 15.3137 8.68637 18 12.0001 18C13.2959 18 14.4958 17.5892 15.4766 16.8907L14.032 15.4462C13.4365 15.7981 12.7419 16 12.0001 16C9.79094 16 8.00008 14.2091 8.00008 12V9.41421ZM12.5181 13.9323C12.3529 13.9764 12.1792 14 12.0001 14C10.8955 14 10.0001 13.1046 10.0001 12V11.4142L12.5181 13.9323ZM14.0001 5V9.78579L16.0001 11.7858V5C16.0001 2.79086 14.2092 1 12.0001 1C10.1614 1 8.61246 2.24059 8.14468 3.93039L10.0001 5.78579V5C10.0001 3.89543 10.8955 3 12.0001 3C13.1046 3 14.0001 3.89543 14.0001 5ZM19.3585 15.1442L17.7908 13.5765C17.9273 13.0741 18.0001 12.5456 18.0001 12V10H20.0001V12C20.0001 13.1162 19.7715 14.1791 19.3585 15.1442Z" fill="white"/>
</g>
</svg>
