<svg width="18" height="12" viewBox="0 0 18 12" fill="none" xmlns="http://www.w3.org/2000/svg">
<path d="M4.19985 1.79664C4.4112 1.26204 4.78458 0.804759 5.26907 0.487176C5.74911 0.166903 6.31602 -0.00288909 6.89555 3.71975e-05H18L13.8047 10.2121C13.5929 10.7477 13.2177 11.2053 12.7309 11.5215C12.2508 11.8407 11.6833 12.0076 11.1045 11.9997H0L4.19985 1.79664ZM5.10597 8.54507H10.3297C10.4716 8.54769 10.6102 8.50366 10.7239 8.41994C10.8384 8.34208 10.9281 8.23354 10.9821 8.1071L12.9122 3.4547H7.67481C7.53076 3.44773 7.38839 3.48772 7.26966 3.56848C7.15094 3.64925 7.06246 3.76632 7.01787 3.90162L5.10597 8.54507Z" fill="url(#paint0_linear)"/>
<defs>
<linearGradient id="paint0_linear" x1="17.4065" y1="6.72613" x2="0.601579" y2="5.23377" gradientUnits="userSpaceOnUse">
<stop stop-color="#F39654"/>
<stop offset="0.4" stop-color="#E83D40"/>
<stop offset="1" stop-color="#BE1622"/>
</linearGradient>
</defs>
</svg>
