<svg width="32" height="42" viewBox="0 0 32 42" fill="none" xmlns="http://www.w3.org/2000/svg">
<path opacity="0.2" d="M17 2C32 2 32 12.1665 32 22C32 38.5005 23.8335 42 17 42C10.1675 42 2 38.5005 2 22C2 12.1665 2 2 17 2ZM5.583 14.381C8.6375 14.9595 11.965 15.247 15.3335 15.316V5.3855C8.258 5.81 6.1855 9.043 5.583 14.381ZM18.6665 5.3855V15.316C22.036 15.247 25.3625 14.959 28.417 14.381C27.8145 9.043 25.7425 5.81 18.6665 5.3855ZM17 38.6665C28.6665 38.6665 28.6665 26.1665 28.6665 22C28.6665 20.5075 28.6655 19.1015 28.63 17.7825C24.935 18.409 21.0955 18.6665 17 18.6665C12.9045 18.6665 9.065 18.409 5.369 17.7825C5.3345 19.101 5.3335 20.507 5.3335 21.9995C5.3335 26.1665 5.3335 38.6665 17 38.6665Z" fill="white"/>
<path d="M12 12V0C3.29152 0.512965 0.7415 4.41972 0 10.8701C3.75919 11.5686 7.85314 11.9166 12 12Z" fill="white"/>
</svg>
