<svg width="66" height="458" viewBox="0 0 66 458" fill="none" xmlns="http://www.w3.org/2000/svg">
<rect opacity="0.1" x="34" width="20" height="404" fill="white"/>
<rect opacity="0.3" x="34" y="20" width="20" height="108" fill="white"/>
<rect opacity="0.8" x="26" y="382" width="34" height="2" fill="white"/>
<rect opacity="0.8" x="26" y="201" width="34" height="2" fill="white"/>
<rect opacity="0.8" x="26" y="128" width="34" height="2" fill="white"/>
<rect opacity="0.8" x="26" y="18" width="34" height="2" fill="white"/>
<circle cx="43" cy="435" r="23" fill="white" fill-opacity="0.2"/>
<path d="M1.8 113.96L1.8 111.4H13V113.96H8.552V117.48H13V120.04H1.8L1.8 117.48H6.088V113.96H1.8ZM13 101.717L11.24 102.277V106.437L13 106.997V109.797L1.8 105.989L1.8 102.725L13 98.9175V101.717ZM8.84 105.669V103.045L4.728 104.357L8.84 105.669ZM1.8 90.5994H4.264V93.4794H13V96.0394H4.264V98.9194H1.8L1.8 90.5994ZM1.8 81.2431H13V83.8031H9.32V84.6191L13 87.0031V89.8831L9 87.2591C8.712 87.9418 8.264 88.4965 7.656 88.9231C7.03733 89.3498 6.36533 89.5631 5.64 89.5631C4.57333 89.5631 3.66667 89.1898 2.92 88.4431C2.17333 87.6965 1.8 86.7898 1.8 85.7231L1.8 81.2431ZM7.08 85.7231L7.08 83.8031H4.2L4.2 85.7231C4.2 86.0751 4.33867 86.3791 4.616 86.6351C4.89333 86.8805 5.23467 87.0031 5.64 87.0031C6.04533 87.0031 6.38667 86.8805 6.664 86.6351C6.94133 86.3791 7.08 86.0751 7.08 85.7231ZM13 65.0511V67.8831L8.04 70.9871H13V73.5471H8.04L13 76.6511L13 79.4831L7.304 75.8671L1.8 79.3231L1.8 76.4911L6.728 73.5471H1.8L1.8 70.9871H6.728L1.8 68.0431V65.2111L7.304 68.6671L13 65.0511ZM10.536 60.7331V56.2531H13V63.2931H1.8L1.8 56.3331H4.264V60.7331H6.12V56.7331H8.552V60.7331H10.536ZM1.8 48.0888L1.8 45.5288H13V48.0888H8.552L8.552 51.6088H13V54.1688H1.8L1.8 51.6088H6.088V48.0888H1.8ZM13 36.7262H6.92L13 41.0462V42.9662H1.8V40.4062H7.88L1.8 36.0862L1.8 34.1662H13V36.7262ZM10.536 29.0475V24.5675H13V31.6075H1.8L1.8 24.6475H4.264L4.264 29.0475H6.12L6.12 25.0475H8.552V29.0475H10.536Z" fill="white"/>
</svg>
