<svg width="60" height="60" viewBox="0 0 60 60" fill="none" xmlns="http://www.w3.org/2000/svg">
<g opacity="0.24">
<path fill-rule="evenodd" clip-rule="evenodd" d="M9.09437 27.0241C8.34065 28.9254 6.83322 30.3878 12.4107 30.2416C16.933 30.0953 30.6506 30.2416 35.1729 30.6803C37.7356 30.9728 47.6846 30.8266 50.398 28.7791C44.8205 30.9728 30.9521 28.7791 26.2791 27.9016C20.2494 26.7317 14.9734 27.0241 9.09437 27.0241ZM11.9585 15.0319C10.7525 14.8857 10.7525 15.9094 11.054 16.0556C9.69734 19.5656 9.24511 21.613 8.64214 25.8542C8.4914 26.1467 3.21538 31.5578 12.4107 31.4115C17.9882 31.2653 31.1029 31.4115 35.0222 31.8503C39.0923 32.289 49.1921 31.8503 51.604 29.3641C53.2621 27.4629 54.0158 23.8067 50.5487 23.6605C48.5891 23.6605 42.2579 22.0518 40.2982 21.3205C38.3385 20.443 37.5848 19.2731 36.3789 18.9806C33.2133 18.2493 35.3237 18.1031 33.5148 17.3719C32.9118 17.0794 32.0073 16.9331 32.0073 16.9331C32.0073 16.9331 27.485 13.5694 26.2791 12.5457C23.8672 10.7908 24.4702 13.7157 24.9224 15.0319C24.9224 15.0319 21.9075 16.3481 20.2494 17.5181C18.5912 18.5418 16.1793 18.6881 14.9734 17.6644C13.9182 16.6406 13.0137 15.0319 11.9585 15.0319ZM51.604 23.953C52.6592 24.2455 52.2069 24.0992 51.604 23.953V23.953Z" fill="white"/>
<path d="M21.1845 47.968C20.8805 47.968 20.6165 48.0293 20.3925 48.152C20.1739 48.2747 19.9952 48.44 19.8565 48.648C19.7179 48.8507 19.6139 49.0827 19.5445 49.344C19.4805 49.6053 19.4485 49.872 19.4485 50.144C19.4485 50.416 19.4805 50.6827 19.5445 50.944C19.6139 51.2053 19.7179 51.44 19.8565 51.648C19.9952 51.8507 20.1739 52.0133 20.3925 52.136C20.6165 52.2587 20.8805 52.32 21.1845 52.32C21.4885 52.32 21.7499 52.2587 21.9685 52.136C22.1925 52.0133 22.3739 51.8507 22.5125 51.648C22.6512 51.44 22.7525 51.2053 22.8165 50.944C22.8859 50.6827 22.9205 50.416 22.9205 50.144C22.9205 49.872 22.8859 49.6053 22.8165 49.344C22.7525 49.0827 22.6512 48.8507 22.5125 48.648C22.3739 48.44 22.1925 48.2747 21.9685 48.152C21.7499 48.0293 21.4885 47.968 21.1845 47.968ZM21.1845 47.152C21.6112 47.152 21.9925 47.232 22.3285 47.392C22.6699 47.552 22.9579 47.768 23.1925 48.04C23.4272 48.312 23.6059 48.6293 23.7285 48.992C23.8565 49.3547 23.9205 49.7387 23.9205 50.144C23.9205 50.5547 23.8565 50.9413 23.7285 51.304C23.6059 51.6667 23.4272 51.984 23.1925 52.256C22.9579 52.528 22.6699 52.744 22.3285 52.904C21.9925 53.0587 21.6112 53.136 21.1845 53.136C20.7579 53.136 20.3739 53.0587 20.0325 52.904C19.6965 52.744 19.4112 52.528 19.1765 52.256C18.9419 51.984 18.7605 51.6667 18.6325 51.304C18.5099 50.9413 18.4485 50.5547 18.4485 50.144C18.4485 49.7387 18.5099 49.3547 18.6325 48.992C18.7605 48.6293 18.9419 48.312 19.1765 48.04C19.4112 47.768 19.6965 47.552 20.0325 47.392C20.3739 47.232 20.7579 47.152 21.1845 47.152ZM26.5987 53.112C25.932 53.112 25.4173 52.8907 25.0547 52.448C24.692 52.0053 24.5107 51.3627 24.5107 50.52C24.5107 50.328 24.5187 50.1307 24.5347 49.928C24.556 49.7253 24.5853 49.528 24.6227 49.336C24.6653 49.144 24.7187 48.96 24.7827 48.784C24.852 48.6027 24.9373 48.44 25.0387 48.296C25.2307 48.008 25.4653 47.7973 25.7427 47.664C26.0253 47.5253 26.3773 47.4453 26.7987 47.424C26.9747 47.4187 27.116 47.4107 27.2227 47.4C27.3293 47.3893 27.412 47.376 27.4707 47.36C27.5347 47.3387 27.58 47.312 27.6067 47.28C27.6333 47.248 27.652 47.2053 27.6627 47.152H28.5187C28.508 47.36 28.476 47.5333 28.4227 47.672C28.3747 47.8053 28.2947 47.9147 28.1827 48C28.076 48.08 27.9347 48.1413 27.7587 48.184C27.5827 48.2213 27.3667 48.248 27.1107 48.264C26.7907 48.2853 26.5213 48.3307 26.3027 48.4C26.084 48.4693 25.9053 48.56 25.7667 48.672C25.628 48.784 25.5213 48.9173 25.4467 49.072C25.372 49.2267 25.3213 49.3947 25.2947 49.576H25.3107C25.46 49.352 25.6627 49.176 25.9187 49.048C26.1747 48.9147 26.4867 48.848 26.8547 48.848C27.1213 48.848 27.3667 48.8987 27.5907 49C27.8147 49.096 28.0067 49.2347 28.1667 49.416C28.332 49.5973 28.46 49.816 28.5507 50.072C28.6413 50.328 28.6867 50.6133 28.6867 50.928C28.6867 51.248 28.6387 51.5413 28.5427 51.808C28.452 52.0747 28.316 52.304 28.1347 52.496C27.9587 52.688 27.74 52.84 27.4787 52.952C27.2227 53.0587 26.9293 53.112 26.5987 53.112ZM26.5987 52.392C26.8013 52.392 26.9773 52.3493 27.1267 52.264C27.276 52.1787 27.3987 52.0667 27.4947 51.928C27.5907 51.7893 27.66 51.6347 27.7027 51.464C27.7507 51.288 27.7747 51.1093 27.7747 50.928C27.7747 50.752 27.7507 50.5813 27.7027 50.416C27.66 50.2507 27.5907 50.1067 27.4947 49.984C27.3987 49.856 27.276 49.7547 27.1267 49.68C26.9773 49.6053 26.8013 49.568 26.5987 49.568C26.396 49.568 26.22 49.6053 26.0707 49.68C25.9213 49.7547 25.7987 49.856 25.7027 49.984C25.6067 50.1067 25.5347 50.2507 25.4867 50.416C25.444 50.5813 25.4227 50.752 25.4227 50.928C25.4227 51.1093 25.444 51.288 25.4867 51.464C25.5347 51.6347 25.6067 51.7893 25.7027 51.928C25.7987 52.0667 25.9213 52.1787 26.0707 52.264C26.22 52.3493 26.396 52.392 26.5987 52.392ZM28.9888 48.864H29.9888L31.0688 51.952H31.0848L32.1328 48.864H33.0848L31.4768 53.224C31.4022 53.4107 31.3275 53.5893 31.2528 53.76C31.1835 53.9307 31.0955 54.08 30.9888 54.208C30.8875 54.3413 30.7595 54.4453 30.6048 54.52C30.4502 54.6 30.2528 54.64 30.0128 54.64C29.7995 54.64 29.5888 54.624 29.3808 54.592V53.824C29.4555 53.8347 29.5275 53.8453 29.5968 53.856C29.6662 53.872 29.7382 53.88 29.8128 53.88C29.9195 53.88 30.0075 53.8667 30.0768 53.84C30.1462 53.8133 30.2022 53.7733 30.2448 53.72C30.2928 53.672 30.3328 53.6133 30.3648 53.544C30.3968 53.4747 30.4262 53.3947 30.4528 53.304L30.5568 52.984L28.9888 48.864ZM34.5293 50.552H35.5053C35.6813 50.552 35.8253 50.5093 35.9373 50.424C36.0546 50.3333 36.1133 50.208 36.1133 50.048C36.1133 49.8613 36.0599 49.7307 35.9533 49.656C35.8519 49.5813 35.7026 49.544 35.5053 49.544H34.5293V50.552ZM33.6173 48.864H35.7933C36.1666 48.864 36.4653 48.9493 36.6893 49.12C36.9133 49.2853 37.0253 49.5413 37.0253 49.888C37.0253 50.096 36.9719 50.2747 36.8653 50.424C36.7639 50.5733 36.6199 50.688 36.4333 50.768V50.784C36.6893 50.8373 36.8813 50.9573 37.0093 51.144C37.1426 51.3307 37.2093 51.5653 37.2093 51.848C37.2093 52.008 37.1799 52.16 37.1213 52.304C37.0626 52.4427 36.9719 52.5653 36.8493 52.672C36.7266 52.7733 36.5693 52.8533 36.3773 52.912C36.1853 52.9707 35.9559 53 35.6893 53H33.6173V48.864ZM34.5293 52.32H35.6093C35.8333 52.32 36.0039 52.2693 36.1213 52.168C36.2386 52.0613 36.2973 51.9147 36.2973 51.728C36.2973 51.5413 36.2386 51.4 36.1213 51.304C36.0039 51.2027 35.8333 51.152 35.6093 51.152H34.5293V52.32ZM38.9121 52.32H40.0881C40.2481 52.32 40.3868 52.272 40.5041 52.176C40.6214 52.08 40.6801 51.9253 40.6801 51.712C40.6801 51.4987 40.6214 51.352 40.5041 51.272C40.3868 51.192 40.2481 51.152 40.0881 51.152H38.9121V52.32ZM38.0001 48.864H38.9121V50.448H40.1281C40.4374 50.448 40.6854 50.4907 40.8721 50.576C41.0641 50.6613 41.2134 50.768 41.3201 50.896C41.4268 51.0187 41.4988 51.1547 41.5361 51.304C41.5734 51.4533 41.5921 51.592 41.5921 51.72C41.5921 51.848 41.5734 51.9867 41.5361 52.136C41.4988 52.2853 41.4268 52.424 41.3201 52.552C41.2134 52.68 41.0641 52.7867 40.8721 52.872C40.6854 52.9573 40.4374 53 40.1281 53H38.0001V48.864Z" fill="white"/>
</g>
</svg>
