<svg width="32" height="32" viewBox="0 0 32 32" fill="none" xmlns="http://www.w3.org/2000/svg">
<g id="smile">
<path id="icon" fill-rule="evenodd" clip-rule="evenodd" d="M16.0002 30.6667C7.89999 30.6667 1.3335 24.1002 1.3335 16C1.3335 7.89986 7.89999 1.33337 16.0002 1.33337C24.1003 1.33337 30.6668 7.89986 30.6668 16C30.6668 24.1002 24.1003 30.6667 16.0002 30.6667ZM16.0002 28C22.6276 28 28.0002 22.6275 28.0002 16C28.0002 9.37262 22.6276 4.00004 16.0002 4.00004C9.37275 4.00004 4.00016 9.37262 4.00016 16C4.00016 22.6275 9.37275 28 16.0002 28ZM22.5476 20.5976L20.3664 19.0635C19.3726 20.4765 17.7595 21.3331 16.0002 21.3331C14.2408 21.3331 12.6278 20.4765 11.634 19.0635L9.45275 20.5976C10.9408 22.7133 13.3634 23.9997 16.0002 23.9997C18.6369 23.9997 21.0596 22.7133 22.5476 20.5976ZM18.6668 14.6667V12H21.3335V14.6667H18.6668ZM10.6668 12V14.6667H13.3335V12H10.6668Z" fill="white"/>
</g>
</svg>
