<svg width="60" height="60" viewBox="0 0 60 60" fill="none" xmlns="http://www.w3.org/2000/svg">
<g opacity="0.24">
<path d="M33.9231 11.4661L34.9413 8.56847C34.9879 8.43696 34.9667 8.29273 34.8861 8.18242C34.8098 8.06787 34.6783 8.00425 34.5425 8.00425L25.7734 8C25.6631 8 25.557 8.04666 25.4764 8.12727C25.3958 8.20363 25.3491 8.31394 25.3491 8.42849C25.3491 8.47515 25.3576 8.52181 25.3746 8.56847L26.397 11.4661C26.4607 11.6358 26.6176 11.7461 26.8001 11.7461H33.5201C33.7025 11.7461 33.8637 11.6358 33.9231 11.4661Z" fill="white"/>
<path d="M24.0085 28.7245C24.0042 28.7499 24 28.7796 24 28.8051V28.8517C24 28.9536 24.0382 29.0511 24.1018 29.1275L25.504 30.7713L34.6697 20.2615L33.9671 16.7562L24.148 28.0167L24.0085 28.7245Z" fill="white"/>
<path d="M35.5823 24.8143L34.8802 21.3111L26.0608 31.4237L27.9186 33.6017L35.5823 24.8143Z" fill="white"/>
<path d="M33.7566 15.7062L33.1975 12.917C33.1593 12.7219 32.9854 12.5776 32.7818 12.5776H32.7263L25.7077 20.625C25.6731 20.6645 25.6303 20.6909 25.5867 20.7144L24.4766 26.3484L33.7566 15.7062Z" fill="white"/>
<path d="M30.16 36H30.1642C30.2915 36 30.4103 35.9406 30.4867 35.843L36.2182 28.8345C36.2818 28.7582 36.3158 28.6648 36.3158 28.5672V28.5163C36.3158 28.4866 36.3115 28.4612 36.3073 28.4315L35.7927 25.8642L28.4753 34.2545L29.8376 35.8515C29.9182 35.9448 30.037 36 30.16 36Z" fill="white"/>
<path d="M27.1224 12.9212L25.9028 19.1102L31.6002 12.5776H27.5381C27.3345 12.5776 27.1605 12.7219 27.1224 12.9212Z" fill="white"/>
<path d="M15.0728 47.288H19.0168V48.152H16.0728V53H15.0728V47.288ZM23.151 52.08C23.151 52.192 23.1644 52.272 23.191 52.32C23.223 52.368 23.2817 52.392 23.367 52.392H23.463C23.5004 52.392 23.543 52.3867 23.591 52.376V53.008C23.559 53.0187 23.5164 53.0293 23.463 53.04C23.415 53.056 23.3644 53.0693 23.311 53.08C23.2577 53.0907 23.2044 53.0987 23.151 53.104C23.0977 53.1093 23.0524 53.112 23.015 53.112C22.8284 53.112 22.6737 53.0747 22.551 53C22.4284 52.9253 22.3484 52.7947 22.311 52.608C22.1297 52.784 21.9057 52.912 21.639 52.992C21.3777 53.072 21.1244 53.112 20.879 53.112C20.6924 53.112 20.5137 53.0853 20.343 53.032C20.1724 52.984 20.0204 52.912 19.887 52.816C19.759 52.7147 19.655 52.5893 19.575 52.44C19.5004 52.2853 19.463 52.1067 19.463 51.904C19.463 51.648 19.5084 51.44 19.599 51.28C19.695 51.12 19.8177 50.9947 19.967 50.904C20.1217 50.8133 20.2924 50.7493 20.479 50.712C20.671 50.6693 20.863 50.6373 21.055 50.616C21.2204 50.584 21.3777 50.5627 21.527 50.552C21.6764 50.536 21.807 50.512 21.919 50.48C22.0364 50.448 22.127 50.4 22.191 50.336C22.2604 50.2667 22.295 50.1653 22.295 50.032C22.295 49.9147 22.2657 49.8187 22.207 49.744C22.1537 49.6693 22.0844 49.6133 21.999 49.576C21.919 49.5333 21.8284 49.5067 21.727 49.496C21.6257 49.48 21.5297 49.472 21.439 49.472C21.183 49.472 20.9724 49.5253 20.807 49.632C20.6417 49.7387 20.5484 49.904 20.527 50.128H19.615C19.631 49.8613 19.695 49.64 19.807 49.464C19.919 49.288 20.0604 49.1467 20.231 49.04C20.407 48.9333 20.6044 48.8587 20.823 48.816C21.0417 48.7733 21.2657 48.752 21.495 48.752C21.6977 48.752 21.8977 48.7733 22.095 48.816C22.2924 48.8587 22.4684 48.928 22.623 49.024C22.783 49.12 22.911 49.2453 23.007 49.4C23.103 49.5493 23.151 49.7333 23.151 49.952V52.08ZM22.239 50.928C22.1004 51.0187 21.9297 51.0747 21.727 51.096C21.5244 51.112 21.3217 51.1387 21.119 51.176C21.023 51.192 20.9297 51.216 20.839 51.248C20.7484 51.2747 20.6684 51.3147 20.599 51.368C20.5297 51.416 20.4737 51.4827 20.431 51.568C20.3937 51.648 20.375 51.7467 20.375 51.864C20.375 51.9653 20.4044 52.0507 20.463 52.12C20.5217 52.1893 20.591 52.2453 20.671 52.288C20.7564 52.3253 20.847 52.352 20.943 52.368C21.0444 52.384 21.135 52.392 21.215 52.392C21.3164 52.392 21.4257 52.3787 21.543 52.352C21.6604 52.3253 21.7697 52.28 21.871 52.216C21.9777 52.152 22.0657 52.072 22.135 51.976C22.2044 51.8747 22.239 51.752 22.239 51.608V50.928ZM24.0043 52.344C24.143 52.344 24.2737 52.296 24.3963 52.2C24.5243 52.104 24.615 51.9653 24.6683 51.784C24.7003 51.6827 24.7243 51.584 24.7403 51.488C24.7617 51.3867 24.7777 51.28 24.7883 51.168C24.8043 51.056 24.815 50.9307 24.8203 50.792C24.8257 50.6533 24.831 50.4933 24.8363 50.312C24.8417 50.1307 24.8443 49.9253 24.8443 49.696C24.8497 49.4613 24.8523 49.184 24.8523 48.864H28.2843V53H27.3723V49.544H25.7803C25.7803 49.8907 25.775 50.1973 25.7643 50.464C25.759 50.7253 25.7483 50.9573 25.7323 51.16C25.7217 51.3627 25.7057 51.5413 25.6843 51.696C25.663 51.8453 25.6337 51.9787 25.5963 52.096C25.559 52.2293 25.511 52.3547 25.4523 52.472C25.399 52.584 25.3163 52.6827 25.2043 52.768C25.0977 52.848 24.951 52.912 24.7643 52.96C24.583 53.008 24.343 53.032 24.0443 53.032C23.959 53.032 23.887 53.0293 23.8283 53.024C23.7697 53.024 23.711 53.0187 23.6523 53.008V52.32C23.711 52.3307 23.7617 52.3387 23.8043 52.344C23.8523 52.344 23.919 52.344 24.0043 52.344ZM32.065 50.248C32.0276 49.992 31.9236 49.8 31.753 49.672C31.5876 49.5387 31.377 49.472 31.121 49.472C31.0036 49.472 30.8783 49.4933 30.745 49.536C30.6116 49.5733 30.489 49.648 30.377 49.76C30.265 49.8667 30.1716 50.0187 30.097 50.216C30.0223 50.408 29.985 50.6613 29.985 50.976C29.985 51.1467 30.0036 51.3173 30.041 51.488C30.0836 51.6587 30.1476 51.8107 30.233 51.944C30.3236 52.0773 30.4383 52.1867 30.577 52.272C30.7156 52.352 30.8836 52.392 31.081 52.392C31.3476 52.392 31.5663 52.3093 31.737 52.144C31.913 51.9787 32.0223 51.7467 32.065 51.448H32.977C32.8916 51.9867 32.6863 52.4 32.361 52.688C32.041 52.9707 31.6143 53.112 31.081 53.112C30.7556 53.112 30.4676 53.0587 30.217 52.952C29.9716 52.84 29.7636 52.6907 29.593 52.504C29.4223 52.312 29.2916 52.0853 29.201 51.824C29.1156 51.5627 29.073 51.28 29.073 50.976C29.073 50.6667 29.1156 50.376 29.201 50.104C29.2863 49.832 29.4143 49.5973 29.585 49.4C29.7556 49.1973 29.9663 49.04 30.217 48.928C30.473 48.8107 30.7716 48.752 31.113 48.752C31.353 48.752 31.5796 48.784 31.793 48.848C32.0116 48.9067 32.2036 48.9973 32.369 49.12C32.5396 49.2427 32.6783 49.3973 32.785 49.584C32.8916 49.7707 32.9556 49.992 32.977 50.248H32.065ZM37.0063 49.544H35.6383V53H34.7263V49.544H33.3023V48.864H37.0063V49.544ZM37.1138 48.864H38.1138L39.1938 51.952H39.2098L40.2578 48.864H41.2098L39.6018 53.224C39.5272 53.4107 39.4525 53.5893 39.3778 53.76C39.3085 53.9307 39.2205 54.08 39.1138 54.208C39.0125 54.3413 38.8845 54.4453 38.7298 54.52C38.5752 54.6 38.3778 54.64 38.1378 54.64C37.9245 54.64 37.7138 54.624 37.5058 54.592V53.824C37.5805 53.8347 37.6525 53.8453 37.7218 53.856C37.7912 53.872 37.8632 53.88 37.9378 53.88C38.0445 53.88 38.1325 53.8667 38.2018 53.84C38.2712 53.8133 38.3272 53.7733 38.3698 53.72C38.4178 53.672 38.4578 53.6133 38.4898 53.544C38.5218 53.4747 38.5512 53.3947 38.5778 53.304L38.6818 52.984L37.1138 48.864ZM41.7423 48.864H42.6543V50.536L44.3023 48.864H45.4223L43.8383 50.384L45.5743 53H44.4623L43.1983 50.992L42.6543 51.52V53H41.7423V48.864Z" fill="white"/>
</g>
</svg>
