<svg width="32" height="32" viewBox="0 0 32 32" fill="none" xmlns="http://www.w3.org/2000/svg">
<path fill-rule="evenodd" clip-rule="evenodd" d="M16.0002 30.6667C7.89999 30.6667 1.3335 24.1002 1.3335 16C1.3335 7.89986 7.89999 1.33337 16.0002 1.33337C24.1003 1.33337 30.6668 7.89986 30.6668 16C30.6668 24.1002 24.1003 30.6667 16.0002 30.6667ZM25.8662 22.8329C27.2117 20.8938 28.0002 18.539 28.0002 16C28.0002 9.37262 22.6276 4.00004 16.0002 4.00004C9.37275 4.00004 4.00016 9.37262 4.00016 16C4.00016 18.539 4.78867 20.8938 6.13417 22.8329C7.63477 20.8508 11.161 20 16.0002 20C20.8394 20 24.3656 20.8508 25.8662 22.8329ZM23.9531 24.9864C23.5628 23.5832 20.7593 22.6667 16.0002 22.6667C11.241 22.6667 8.4375 23.5832 8.04726 24.9864C10.1646 26.8616 12.9494 28 16.0002 28C19.0509 28 21.8358 26.8616 23.9531 24.9864ZM16.0002 8.00004C12.7723 8.00004 10.6668 10.3411 10.6668 13.3334C10.6668 17.9032 13.0146 20 16.0002 20C18.9576 20 21.3335 17.9729 21.3335 13.6C21.3335 10.5621 19.2191 8.00004 16.0002 8.00004ZM13.3335 13.3334C13.3335 16.3591 14.4244 17.3334 16.0002 17.3334C17.5704 17.3334 18.6668 16.3979 18.6668 13.6C18.6668 11.9339 17.621 10.6667 16.0002 10.6667C14.3118 10.6667 13.3335 11.7545 13.3335 13.3334Z" fill="white"/>
</svg>
