<svg width="20" height="20" viewBox="0 0 20 20" fill="none" xmlns="http://www.w3.org/2000/svg">
<path d="M10.25 10.1834C10.6946 9.79853 11.0513 9.32249 11.2957 8.7876C11.5401 8.25272 11.6667 7.67151 11.6666 7.08342C11.6666 5.97835 11.2277 4.91854 10.4463 4.13714C9.66486 3.35574 8.60505 2.91675 7.49998 2.91675C6.39491 2.91675 5.3351 3.35574 4.5537 4.13714C3.7723 4.91854 3.33331 5.97835 3.33331 7.08342C3.33331 7.67151 3.45981 8.25272 3.70425 8.7876C3.94869 9.32249 4.30533 9.79853 4.74998 10.1834C3.58343 10.7117 2.5937 11.5647 1.89913 12.6405C1.20456 13.7164 0.83454 14.9695 0.833313 16.2501C0.833313 16.4711 0.92111 16.6831 1.07739 16.8393C1.23367 16.9956 1.44563 17.0834 1.66665 17.0834C1.88766 17.0834 2.09962 16.9956 2.2559 16.8393C2.41218 16.6831 2.49998 16.4711 2.49998 16.2501C2.49998 14.924 3.02676 13.6522 3.96445 12.7145C4.90213 11.7769 6.1739 11.2501 7.49998 11.2501C8.82606 11.2501 10.0978 11.7769 11.0355 12.7145C11.9732 13.6522 12.5 14.924 12.5 16.2501C12.5 16.4711 12.5878 16.6831 12.7441 16.8393C12.9003 16.9956 13.1123 17.0834 13.3333 17.0834C13.5543 17.0834 13.7663 16.9956 13.9226 16.8393C14.0788 16.6831 14.1666 16.4711 14.1666 16.2501C14.1654 14.9695 13.7954 13.7164 13.1008 12.6405C12.4063 11.5647 11.4165 10.7117 10.25 10.1834ZM7.49998 9.58342C7.00553 9.58342 6.52218 9.43679 6.11105 9.16209C5.69993 8.88739 5.3795 8.49694 5.19028 8.04012C5.00106 7.58331 4.95155 7.08064 5.04802 6.59569C5.14448 6.11074 5.38258 5.66528 5.73221 5.31565C6.08184 4.96602 6.5273 4.72792 7.01225 4.63145C7.49721 4.53499 7.99987 4.5845 8.45669 4.77372C8.9135 4.96294 9.30395 5.28337 9.57865 5.69449C9.85336 6.10561 9.99998 6.58896 9.99998 7.08342C9.99998 7.74646 9.73659 8.38234 9.26775 8.85118C8.79891 9.32002 8.16302 9.58342 7.49998 9.58342ZM15.6166 9.85008C16.15 9.24952 16.4983 8.50763 16.6198 7.7137C16.7413 6.91977 16.6308 6.10764 16.3015 5.37508C15.9721 4.64252 15.4381 4.02074 14.7637 3.5846C14.0893 3.14846 13.3032 2.91653 12.5 2.91675C12.279 2.91675 12.067 3.00455 11.9107 3.16083C11.7544 3.31711 11.6666 3.52907 11.6666 3.75008C11.6666 3.9711 11.7544 4.18306 11.9107 4.33934C12.067 4.49562 12.279 4.58342 12.5 4.58342C13.163 4.58342 13.7989 4.84681 14.2677 5.31565C14.7366 5.78449 15 6.42037 15 7.08342C14.9988 7.52111 14.8827 7.95083 14.6634 8.3296C14.444 8.70836 14.129 9.0229 13.75 9.24175C13.6264 9.31302 13.5232 9.4148 13.4503 9.53737C13.3773 9.65993 13.3371 9.79917 13.3333 9.94175C13.3298 10.0832 13.3624 10.2232 13.428 10.3486C13.4936 10.474 13.5901 10.5806 13.7083 10.6584L14.0333 10.8751L14.1416 10.9334C15.1461 11.4098 15.9936 12.1634 16.5841 13.1053C17.1747 14.0473 17.4838 15.1384 17.475 16.2501C17.475 16.4711 17.5628 16.6831 17.7191 16.8393C17.8753 16.9956 18.0873 17.0834 18.3083 17.0834C18.5293 17.0834 18.7413 16.9956 18.8976 16.8393C19.0538 16.6831 19.1416 16.4711 19.1416 16.2501C19.1485 14.9713 18.8282 13.712 18.2112 12.5918C17.5942 11.4716 16.7011 10.5278 15.6166 9.85008Z" fill="white"/>
<circle cx="18.75" cy="3.75" r="1.25" fill="white"/>
</svg>
