<svg width="60" height="60" viewBox="0 0 60 60" fill="none" xmlns="http://www.w3.org/2000/svg">
<g opacity="0.24">
<path d="M24.9197 8L24.3662 12.5312C25.9742 11.5679 27.8424 11.0104 29.8394 11.0104C31.8363 11.0104 33.7046 11.5679 35.3125 12.5312L34.7591 8H24.9197ZM29.8394 12C24.4052 12 20 16.4771 20 22C20 27.5228 24.4052 32 29.8394 32C34.9373 32 39.1283 28.0579 39.6275 23.0104L40.3347 23.0001C40.4216 23.0013 40.5079 22.985 40.5886 22.9521C40.6692 22.9191 40.7427 22.8702 40.8046 22.8082C40.8665 22.7462 40.9156 22.6722 40.9492 22.5907C40.9827 22.5092 41 22.4218 41 22.3334C41 22.2451 40.9827 22.1576 40.9492 22.0761C40.9156 21.9946 40.8665 21.9207 40.8046 21.8586C40.7427 21.7966 40.6692 21.7477 40.5886 21.7148C40.5079 21.6818 40.4216 21.6655 40.3347 21.6667L39.6685 21.6771C39.499 16.3053 35.166 12 29.8394 12V12ZM29.7676 14.6667C29.8605 14.6563 29.9544 14.6662 30.0432 14.6956C30.132 14.7251 30.2135 14.7735 30.2824 14.8376C30.3513 14.9017 30.406 14.98 30.4427 15.0673C30.4794 15.1546 30.4973 15.2488 30.4953 15.3437V21.3437H34.1031C34.19 21.3425 34.2763 21.3588 34.357 21.3917C34.4376 21.4247 34.5111 21.4736 34.573 21.5356C34.6349 21.5977 34.684 21.6716 34.7176 21.7531C34.7511 21.8346 34.7684 21.922 34.7684 22.0104C34.7684 22.0987 34.7511 22.1862 34.7176 22.2677C34.684 22.3492 34.6349 22.4232 34.573 22.4852C34.5111 22.5472 34.4376 22.5961 34.357 22.629C34.2763 22.662 34.19 22.6783 34.1031 22.6771H29.8394C29.6654 22.677 29.4986 22.6068 29.3756 22.4818C29.2525 22.3568 29.1834 22.1872 29.1834 22.0104V15.3437C29.1799 15.1771 29.2379 15.0151 29.3461 14.8898C29.4542 14.7645 29.6046 14.6849 29.7676 14.6667ZM24.3662 31.4896L24.9197 36H34.7591L35.3125 31.4896C33.7049 32.4525 31.8358 33.0104 29.8394 33.0104C27.843 33.0104 25.9739 32.4525 24.3662 31.4896Z" fill="white"/>
<path d="M30.0001 14.3285C30.2112 14.3285 30.3824 14.1561 30.3824 13.9434C30.3824 13.7307 30.2112 13.5582 30.0001 13.5582C29.7889 13.5582 29.6177 13.7307 29.6177 13.9434C29.6177 14.1561 29.7889 14.3285 30.0001 14.3285Z" fill="white"/>
<path d="M24.5067 53H23.5067V50.496C23.432 50.5493 23.3413 50.5973 23.2347 50.64C23.128 50.6827 23.0107 50.7173 22.8827 50.744C22.76 50.7707 22.6293 50.792 22.4907 50.808C22.3573 50.824 22.224 50.832 22.0907 50.832C21.8133 50.832 21.5573 50.8027 21.3227 50.744C21.0933 50.6853 20.896 50.5973 20.7307 50.48C20.5653 50.3627 20.4347 50.216 20.3387 50.04C20.248 49.864 20.2027 49.6587 20.2027 49.424V47.288H21.2027V49.184C21.2027 49.5093 21.296 49.7467 21.4827 49.896C21.6747 50.04 21.9627 50.112 22.3467 50.112C22.4587 50.112 22.5733 50.0987 22.6907 50.072C22.808 50.0453 22.92 50.0107 23.0267 49.968C23.1387 49.9253 23.2347 49.8773 23.3147 49.824C23.4 49.7707 23.464 49.72 23.5067 49.672V47.288H24.5067V53ZM29.0417 52.08C29.0417 52.192 29.055 52.272 29.0817 52.32C29.1137 52.368 29.1723 52.392 29.2577 52.392H29.3537C29.391 52.392 29.4337 52.3867 29.4817 52.376V53.008C29.4497 53.0187 29.407 53.0293 29.3537 53.04C29.3057 53.056 29.255 53.0693 29.2017 53.08C29.1483 53.0907 29.095 53.0987 29.0417 53.104C28.9883 53.1093 28.943 53.112 28.9057 53.112C28.719 53.112 28.5643 53.0747 28.4417 53C28.319 52.9253 28.239 52.7947 28.2017 52.608C28.0203 52.784 27.7963 52.912 27.5297 52.992C27.2683 53.072 27.015 53.112 26.7697 53.112C26.583 53.112 26.4043 53.0853 26.2337 53.032C26.063 52.984 25.911 52.912 25.7777 52.816C25.6497 52.7147 25.5457 52.5893 25.4657 52.44C25.391 52.2853 25.3537 52.1067 25.3537 51.904C25.3537 51.648 25.399 51.44 25.4897 51.28C25.5857 51.12 25.7083 50.9947 25.8577 50.904C26.0123 50.8133 26.183 50.7493 26.3697 50.712C26.5617 50.6693 26.7537 50.6373 26.9457 50.616C27.111 50.584 27.2683 50.5627 27.4177 50.552C27.567 50.536 27.6977 50.512 27.8097 50.48C27.927 50.448 28.0177 50.4 28.0817 50.336C28.151 50.2667 28.1857 50.1653 28.1857 50.032C28.1857 49.9147 28.1563 49.8187 28.0977 49.744C28.0443 49.6693 27.975 49.6133 27.8897 49.576C27.8097 49.5333 27.719 49.5067 27.6177 49.496C27.5163 49.48 27.4203 49.472 27.3297 49.472C27.0737 49.472 26.863 49.5253 26.6977 49.632C26.5323 49.7387 26.439 49.904 26.4177 50.128H25.5057C25.5217 49.8613 25.5857 49.64 25.6977 49.464C25.8097 49.288 25.951 49.1467 26.1217 49.04C26.2977 48.9333 26.495 48.8587 26.7137 48.816C26.9323 48.7733 27.1563 48.752 27.3857 48.752C27.5883 48.752 27.7883 48.7733 27.9857 48.816C28.183 48.8587 28.359 48.928 28.5137 49.024C28.6737 49.12 28.8017 49.2453 28.8977 49.4C28.9937 49.5493 29.0417 49.7333 29.0417 49.952V52.08ZM28.1297 50.928C27.991 51.0187 27.8203 51.0747 27.6177 51.096C27.415 51.112 27.2123 51.1387 27.0097 51.176C26.9137 51.192 26.8203 51.216 26.7297 51.248C26.639 51.2747 26.559 51.3147 26.4897 51.368C26.4203 51.416 26.3643 51.4827 26.3217 51.568C26.2843 51.648 26.2657 51.7467 26.2657 51.864C26.2657 51.9653 26.295 52.0507 26.3537 52.12C26.4123 52.1893 26.4817 52.2453 26.5617 52.288C26.647 52.3253 26.7377 52.352 26.8337 52.368C26.935 52.384 27.0257 52.392 27.1057 52.392C27.207 52.392 27.3163 52.3787 27.4337 52.352C27.551 52.3253 27.6603 52.28 27.7617 52.216C27.8683 52.152 27.9563 52.072 28.0257 51.976C28.095 51.8747 28.1297 51.752 28.1297 51.608V50.928ZM32.815 50.248C32.7776 49.992 32.6736 49.8 32.503 49.672C32.3376 49.5387 32.127 49.472 31.871 49.472C31.7536 49.472 31.6283 49.4933 31.495 49.536C31.3616 49.5733 31.239 49.648 31.127 49.76C31.015 49.8667 30.9216 50.0187 30.847 50.216C30.7723 50.408 30.735 50.6613 30.735 50.976C30.735 51.1467 30.7536 51.3173 30.791 51.488C30.8336 51.6587 30.8976 51.8107 30.983 51.944C31.0736 52.0773 31.1883 52.1867 31.327 52.272C31.4656 52.352 31.6336 52.392 31.831 52.392C32.0976 52.392 32.3163 52.3093 32.487 52.144C32.663 51.9787 32.7723 51.7467 32.815 51.448H33.727C33.6416 51.9867 33.4363 52.4 33.111 52.688C32.791 52.9707 32.3643 53.112 31.831 53.112C31.5056 53.112 31.2176 53.0587 30.967 52.952C30.7216 52.84 30.5136 52.6907 30.343 52.504C30.1723 52.312 30.0416 52.0853 29.951 51.824C29.8656 51.5627 29.823 51.28 29.823 50.976C29.823 50.6667 29.8656 50.376 29.951 50.104C30.0363 49.832 30.1643 49.5973 30.335 49.4C30.5056 49.1973 30.7163 49.04 30.967 48.928C31.223 48.8107 31.5216 48.752 31.863 48.752C32.103 48.752 32.3296 48.784 32.543 48.848C32.7616 48.9067 32.9536 48.9973 33.119 49.12C33.2896 49.2427 33.4283 49.3973 33.535 49.584C33.6416 49.7707 33.7056 49.992 33.727 50.248H32.815ZM35.4043 52.32H36.5803C36.7403 52.32 36.8789 52.272 36.9963 52.176C37.1136 52.08 37.1723 51.9253 37.1723 51.712C37.1723 51.4987 37.1136 51.352 36.9963 51.272C36.8789 51.192 36.7403 51.152 36.5803 51.152H35.4043V52.32ZM34.4923 48.864H35.4043V50.448H36.6203C36.9296 50.448 37.1776 50.4907 37.3643 50.576C37.5563 50.6613 37.7056 50.768 37.8123 50.896C37.9189 51.0187 37.9909 51.1547 38.0283 51.304C38.0656 51.4533 38.0843 51.592 38.0843 51.72C38.0843 51.848 38.0656 51.9867 38.0283 52.136C37.9909 52.2853 37.9189 52.424 37.8123 52.552C37.7056 52.68 37.5563 52.7867 37.3643 52.872C37.1776 52.9573 36.9296 53 36.6203 53H34.4923V48.864ZM38.8523 53V48.864H39.7643V53H38.8523Z" fill="white"/>
</g>
</svg>
