<?xml version="1.0"?>
<svg xmlns="http://www.w3.org/2000/svg" version="1.1" id="Capa_1" x="0px" y="0px" viewBox="0 0 512 512"
     style="enable-background:new 0 0 512 512;" xml:space="preserve" width="512px" height="512px" class=""><g transform="matrix(1 0 0 1 0 -10)"><g>
	<g>
		<path d="M256,361.693c-24.977,0-45.297,20.32-45.297,45.297s20.32,45.297,45.297,45.297s45.297-20.32,45.297-45.297    S280.977,361.693,256,361.693z" data-original="#000000" class="active-path" data-old_color="#000000" fill="#000000"/>
	</g>
</g><g>
	<g>
		<path d="M256,261.033c-45.667,0-86.496,21.087-113.28,54.03l49.221,49.221c0,0,22.957-32.753,64.06-32.753    c40.264,0,64.06,32.753,64.06,32.753l49.221-49.221C342.496,282.12,301.668,261.033,256,261.033z" data-original="#000000" class="active-path" data-old_color="#000000" fill="#000000"/>
	</g>
</g><g>
	<g>
		<path d="M256,59.713c-161.937,0-252.603,108.93-256,112.631l49.977,49.977c50.717-56.523,124.284-92.145,206.023-92.145    s155.307,35.623,206.023,92.145L512,172.343C508.603,168.643,417.728,59.713,256,59.713z" data-original="#000000" class="active-path" data-old_color="#000000" fill="#000000"/>
	</g>
</g><g>
	<g>
		<path d="M256,160.373c-73.414,0-139.426,32.257-184.643,83.328l49.927,49.927c32.339-38.37,80.725-62.793,134.716-62.793    c53.99,0,102.376,24.423,134.716,62.793l49.927-49.927C395.426,192.629,329.414,160.373,256,160.373z" data-original="#000000" class="active-path" data-old_color="#000000" fill="#000000"/>
	</g>
</g></g> </svg>
